<svg width="3062" height="481" viewBox="0 0 3062 481" fill="none" xmlns="http://www.w3.org/2000/svg">
<path d="M1182.22 417.417C1215.76 459.389 1276.99 480.646 1371.16 480.646C1371.51 480.646 1372.2 480.647 1371.16 480.646V373.513C1370.82 373.515 1369.51 373.513 1369.17 373.513C1347.12 373.513 1333.25 365.032 1320.37 355.016C1315.56 351.269 1311.36 346.687 1308.67 341.18C1298.98 321.341 1297.12 297.046 1294.42 237.603C1294.42 173.369 1303.77 138.727 1315.57 126.2C1336.85 112.697 1337.96 112.582 1370.22 109.847C1370.57 109.847 1370.92 109.848 1371.26 109.85V54.1516V2.73072C1370.92 2.73015 1371.61 2.73072 1371.26 2.73072C1277.09 2.73072 1216.84 19.4664 1183.31 61.4384C1150 103.411 1133.35 162.079 1133.35 237.443C1133.35 312.807 1148.92 375.445 1182.22 417.417Z" fill="white"/>
<path d="M1625.9 237.53C1625.9 162.166 1609.13 103.497 1575.6 61.5253C1542.42 19.7077 1485.45 2.88461 1391.85 2.73072V57.6196L1392.02 110.872C1419.07 114.751 1443.59 128.19 1450.7 154.829C1455.5 172.776 1457.24 197.331 1459.02 237.603C1459.02 300.677 1451.41 342.178 1436.25 354.7C1417.7 366.801 1416.06 369.195 1390.37 369.356L1390.84 476.491C1484.44 476.337 1542.42 455.352 1575.6 413.534C1609.13 371.562 1625.9 312.894 1625.9 237.53Z" fill="white"/>
<path d="M431.359 94.965V22.4844H106.363C105.114 22.4844 103.871 22.6295 102.66 22.9352C97.5976 24.2134 83.1302 28.0475 73.832 32.342C49.045 43.7905 37.3887 56.0616 20.1481 77.377C10.741 89.0075 3.53721 104.523 1.33359 109.526C0.858626 110.604 0.632463 111.759 0.632071 112.938L0.55485 344.989C0.554742 345.313 0.57036 345.622 0.60756 345.944C1.00878 349.419 3.70304 371.439 9.01454 384.881C21.9244 417.552 68.7525 446.257 82.9609 454.371C85.6728 455.92 88.6324 456.935 91.7261 457.362C101.819 458.756 126.116 461.337 142.138 456.656C146.528 455.373 152.007 453.046 156.152 451.159C160.291 449.275 163.993 446.577 167.216 443.368L363.081 248.369V460.878H439.052V137.189H132.38V216.704H296.868L137.231 376.478C136.343 377.366 135.207 377.954 133.962 378.12C129.168 378.759 116.385 380.124 107.978 377.844C93.4523 373.907 78.2448 355.366 74.6339 350.743C74.1059 350.068 73.832 349.235 73.832 348.377V148.972C73.832 134.299 80.031 120.309 90.9001 110.452L93.1128 108.445C102.679 99.7702 115.131 94.965 128.045 94.965H431.359Z" fill="white"/>
<path d="M860.785 370.397C856.241 370.397 851.87 370.133 847.672 369.604V479.548C915.217 479.217 955.205 462.635 978.399 429.346L996.341 477.387H1083.77V220.547L861.566 219.547V313.082H923.921C923.988 312.28 924.051 311.468 924.11 310.648L923.921 313.082C921.872 337.458 914.843 354.401 904.614 362.258C894.279 370.142 883.984 370.397 860.785 370.397Z" fill="white"/>
<path d="M1038.9 51.0931C1006.98 14.2226 951.221 3.8125 864.4 3.8125C860.433 3.8125 856.522 3.84987 852.665 3.92461L852.436 110.255C860.646 110.255 857.661 109.969 866.643 110.716C890.858 112.731 893.448 113.79 906.101 121.171C917.126 128.128 923.433 147.359 926.189 178.664H1083.71C1081.42 135.533 1071.06 87.7318 1038.9 51.0931Z" fill="white"/>
<path d="M2117.09 417.417C2150.62 459.389 2211.86 480.647 2306.03 480.647C2306.38 480.647 2307.06 480.647 2306.03 480.647V373.513C2305.69 373.515 2304.38 373.513 2304.03 373.513C2278.45 373.513 2263.87 362.086 2249.08 350.096C2248.39 349.541 2247.8 348.874 2247.34 348.121C2234.28 326.624 2232.31 304.116 2229.28 237.603C2229.28 173.369 2238.64 138.727 2250.44 126.2C2271.72 112.697 2272.83 112.582 2305.09 109.847C2305.44 109.847 2305.78 109.848 2306.13 109.85V54.1516V2.73072C2305.78 2.73015 2306.47 2.73072 2306.13 2.73072C2211.96 2.73072 2151.71 19.4664 2118.18 61.4384C2084.87 103.411 2068.22 162.079 2068.22 237.443C2068.22 312.807 2083.78 375.445 2117.09 417.417Z" fill="white"/>
<path d="M2560.77 237.53C2560.77 162.166 2544 103.497 2510.47 61.5253C2477.28 19.7077 2420.32 2.88461 2326.72 2.73072V57.6196L2326.88 110.872C2356.19 115.073 2353.56 109.924 2360.03 114.463C2364.04 117.277 2367.62 120.723 2370.65 124.578C2388.01 146.689 2390.9 170.006 2393.89 237.603C2393.89 300.677 2386.27 342.178 2371.11 354.7C2352.56 366.801 2350.93 369.195 2325.24 369.356L2325.71 476.492C2419.31 476.338 2477.28 455.352 2510.47 413.534C2544 371.562 2560.77 312.894 2560.77 237.53Z" fill="white"/>
<path d="M1768.55 118.674V476.478H1910.81L1910.76 116.902L1910.7 6.93869L1768.55 6.91151V118.674Z" fill="white"/>
<path d="M1625.91 6.90625V113.876H1747.97V6.91151L1625.91 6.90625Z" fill="white"/>
<path d="M1931.65 6.91151V113.893H2053.12V6.90651L1931.65 6.91151Z" fill="white"/>
<path d="M642.636 408.826C673.873 451.726 739.188 476.47 826.009 476.47C826.693 476.47 827.375 476.468 828.054 476.465V365.581C820.422 364.619 812.27 360.383 805.293 355.704C792.652 347.227 784.097 334.123 780.216 319.406C775.963 303.276 771.295 278.269 770.587 244.663C769.72 203.521 772.848 170.832 775.332 152.021C776.849 140.53 782.941 130.199 792.575 123.755C802.873 116.868 816.657 108.982 826.98 108.02V0.109375C739.948 1.79601 675.715 19.1575 644.703 58.9044C612.318 100.413 596.125 158.733 596.125 233.865C596.125 307.606 611.629 365.927 642.636 408.826Z" fill="white"/>
<path d="M2904.39 6.89453V193.334H2780.6V300.467H2904.39V476.472H3061.84V6.89453H2904.39Z" fill="white"/>
<path fill-rule="evenodd" clip-rule="evenodd" d="M2607.59 476.474V6.89684H2760.02V193.334V299.331L2759.95 476.474H2607.59Z" fill="white"/>
</svg>
