<svg width="200" height="66" viewBox="0 0 200 66" fill="none" xmlns="http://www.w3.org/2000/svg">
<path d="M133.459 33.0898C134.052 33.0542 134.587 32.9294 135.081 33.0096C135.924 33.1433 136.41 33.7359 136.454 34.5869C136.481 35.0459 136.445 35.5138 136.369 35.9682C136.303 36.3425 136.41 36.5475 136.771 36.6054C137.082 36.6544 137.394 36.6901 137.711 36.699C138.085 36.7124 138.259 36.5341 138.415 36.1554C138.687 35.5048 139.066 34.881 139.48 34.3107C140.149 33.3928 140.902 32.5284 141.597 31.6283C142.092 30.9867 142.831 30.657 143.531 30.8396C144.289 31.0357 144.997 31.41 145.015 32.261C145.029 32.8537 144.81 33.5131 144.516 34.0389C144.142 34.7117 143.585 35.2821 143.09 35.9192C143.161 35.9638 143.237 36.0351 143.331 36.0707C145.296 36.8015 145.929 37.9867 145.372 40.023C145.185 40.7092 144.873 41.3642 144.623 42.0325C144.538 42.2642 144.476 42.5004 144.365 42.8479C144.619 42.7499 144.775 42.7143 144.908 42.6341C145.287 42.4068 145.652 42.1528 146.036 41.9256C147.422 41.1057 148.34 40.0141 149.017 38.4635C150.769 34.48 155.965 30.7149 160.783 31.2273C161.883 31.3432 162.895 31.664 163.751 32.368C165.043 33.4285 165.19 34.9835 164.348 36.4049C164.227 36.6054 163.737 36.8104 163.568 36.7213C162.391 36.1242 161.282 36.4717 160.208 36.9173C158.483 37.6347 156.892 38.5927 155.551 39.9116C155.243 40.2146 155.007 40.5933 154.739 40.9364C154.771 40.981 154.802 41.0255 154.833 41.0701C155.154 40.9453 155.493 40.8428 155.8 40.6869C157.026 40.072 158.229 39.4081 159.468 38.8199C160.15 38.4991 160.867 38.2273 161.603 38.0535C162.694 37.7951 163.586 38.2184 163.96 39.2566C164.606 41.0701 165.801 41.0567 167.004 40.0987C168.283 39.0828 169.437 37.8887 170.542 36.6812C171.567 35.5628 172.526 34.3686 173.39 33.121C174.13 32.0561 174.696 30.8664 175.418 29.5876C174.972 29.5876 174.669 29.5787 174.371 29.5876C171.478 29.7079 168.586 29.8326 165.694 29.9485C165.275 29.9663 164.847 29.9797 164.428 29.9307C163.323 29.797 162.726 29.142 162.757 28.1528C162.788 27.2216 163.506 26.5443 164.575 26.4953C165.587 26.4507 166.603 26.424 167.614 26.4284C170.511 26.4374 173.404 26.4507 176.3 26.4997C176.817 26.5086 177.094 26.3304 177.343 25.8982C178.756 23.4475 180.151 20.9879 181.644 18.5863C182.192 17.7085 182.892 16.8664 183.698 16.2247C184.875 15.2846 186.675 15.494 187.794 16.4876C188.445 17.0669 188.534 17.909 187.985 18.7868C187.268 19.9319 186.51 21.0503 185.788 22.191C184.964 23.4921 184.153 24.8021 183.342 26.1121C183.266 26.2324 183.212 26.3661 183.101 26.5933C185.031 26.678 186.876 26.8295 188.725 26.825C191.15 26.8161 193.57 26.6646 195.994 26.6156C196.489 26.6067 197.001 26.7314 197.474 26.8829C197.875 27.0122 198.12 27.333 198.08 27.8142C198.04 28.2776 197.745 28.5137 197.349 28.5628C196.199 28.7009 195.045 28.8346 193.886 28.8836C189.92 29.0529 185.949 29.1866 181.978 29.3158C181.595 29.3291 181.385 29.445 181.194 29.7881C178.792 34.1013 176.488 38.4679 174.732 43.0975C173.903 45.2897 173.221 47.5265 172.913 49.8613C172.887 50.0663 172.887 50.2757 172.86 50.6856C173.368 50.2757 173.805 50.0128 174.121 49.6519C176.421 47.0364 178.68 44.3896 180.98 41.7741C181.702 40.9498 182.17 40.0096 182.597 39.0115C183.68 36.4717 185.361 34.3864 187.558 32.72C187.794 32.5418 188.052 32.3903 188.315 32.2655C189.799 31.5481 190.539 31.7664 191.323 33.0943C191.889 33.0586 192.438 32.9339 192.955 33.0185C193.801 33.1566 194.234 33.7003 194.287 34.5513C194.314 35.0102 194.305 35.487 194.22 35.937C194.131 36.3915 194.309 36.5519 194.706 36.6277C195.865 36.846 196.916 36.5074 197.941 36.0262C198.267 35.8747 198.57 35.6341 198.909 35.5761C199.203 35.5271 199.613 35.585 199.813 35.7722C199.987 35.9326 200.041 36.3648 199.965 36.6232C199.88 36.9173 199.639 37.2203 199.381 37.403C197.763 38.5615 195.94 38.9759 193.984 38.7531C193.467 38.6952 193.311 38.8556 193.133 39.2967C192.237 41.5023 191.118 43.5787 189.256 45.1471C188.043 46.1675 186.693 46.8537 185.053 46.7957C183.605 46.7423 182.522 46.0917 181.804 44.755C180.917 45.8868 180.084 46.9963 179.202 48.0656C177.419 50.2356 175.636 52.4145 173.395 54.1433C172.396 54.9142 171.305 55.3553 170.034 54.9632C168.568 54.5087 167.989 53.3457 167.793 51.9511C167.508 49.9059 167.846 47.9097 168.403 45.9492C168.795 44.5723 169.263 43.2178 169.696 41.8543C169.749 41.6805 169.789 41.4978 169.829 41.3553C168.943 41.9791 168.078 42.6474 167.155 43.2133C166.184 43.8059 165.105 44.0866 163.951 43.9931C162.828 43.904 161.995 43.3336 161.415 42.4157C161.179 42.0459 160.961 41.9702 160.6 42.1484C159.254 42.8034 157.917 43.4762 156.562 44.1045C154.632 44.9956 152.64 45.508 150.492 44.9778C149.494 44.7283 148.812 44.1357 148.313 43.1866C147.85 43.5074 147.417 43.8237 146.972 44.1223C145.866 44.8664 144.748 45.5793 143.42 45.8823C141.419 46.3413 140.158 45.1026 140.661 43.093C140.955 41.9122 141.392 40.7671 141.749 39.6532C140.83 39.3145 139.912 38.967 138.99 38.6417C138.865 38.5971 138.705 38.6818 138.558 38.6863C137.715 38.7174 136.873 38.7843 136.031 38.7486C135.639 38.7308 135.469 38.8244 135.327 39.1719C134.618 40.9676 133.745 42.6786 132.448 44.1267C131.053 45.6774 129.426 46.8225 127.207 46.8047C125.834 46.7957 124.118 45.9492 123.793 44.0777C123.766 43.9351 123.704 43.797 123.633 43.5831C123.102 44.1446 122.594 44.6703 122.104 45.2095C117.509 50.2089 112.727 55.0077 107.277 59.0892C104.394 61.2458 101.367 63.1707 97.8958 64.2534C94.9233 65.1802 91.8973 65.5991 88.7911 64.8817C84.5038 63.8925 81.9146 61.1478 80.6667 57.0351C78.9866 51.4966 79.1604 45.9224 80.3949 40.3304C81.7853 34.0166 84.388 28.2063 87.8418 22.7747C91.5318 16.9689 96.0464 11.8982 101.568 7.75433C105.401 4.8759 109.572 2.7505 114.345 1.96183C116.654 1.57863 118.953 1.46724 121.226 2.22918C123.624 3.03121 125.054 4.7244 125.865 7.05031C127.042 10.4189 126.904 13.8008 126.03 17.2005C125.005 21.1974 123.174 24.8065 120.825 28.1751C120.526 28.6029 120.214 28.8747 119.675 28.536C119.002 28.1172 118.864 27.7785 119.212 27.1503C120.825 24.2362 122.086 21.1885 122.746 17.909C123.365 14.8345 123.37 11.8002 122.251 8.8148C121.4 6.54682 120.09 5.74032 117.701 6.09233C115.588 6.40423 113.73 7.38004 111.943 8.46279C105.485 12.3705 100.262 17.5927 95.9037 23.7193C92.802 28.0771 90.3018 32.7556 88.5549 37.8129C86.9728 42.3979 86.0547 47.0987 86.4023 51.9778C86.5271 53.7557 86.8703 55.4845 87.8151 57.044C89.2724 59.4457 91.4249 60.3324 94.1568 60.065C95.926 59.8912 97.5616 59.2585 99.1882 58.6303C104.821 56.4603 109.79 53.1898 114.416 49.3578C117.839 46.5239 120.994 43.4094 124.016 40.1611C124.239 39.9205 124.43 39.6264 124.564 39.3234C125.647 36.8416 127.193 34.7073 129.319 33.0185C129.711 32.7066 130.144 32.4214 130.603 32.2165C132.002 31.5838 132.711 31.8333 133.446 33.1121L133.459 33.0898ZM185.623 43.6812C185.681 43.7346 185.744 43.7881 185.802 43.8416C186.118 43.6945 186.452 43.5742 186.747 43.396C188.458 42.3355 189.527 40.7314 190.388 38.9714C191.056 37.608 191.047 37.6035 189.871 36.6455C189.839 36.6232 189.795 36.6188 189.657 36.5698C187.772 38.6239 186.096 40.8161 185.619 43.6767L185.623 43.6812ZM131.895 36.5653C130.438 37.7951 128.495 40.7404 128 42.5093C127.889 42.9148 127.871 43.347 127.804 43.8059C130.001 43.3648 132.43 39.974 133.054 37.5144C132.679 37.2069 132.305 36.9039 131.895 36.5653Z" fill="white"/>
<path d="M26.8815 40.9157C28.4725 40.4835 29.903 40.0646 31.347 39.7126C35.5629 38.6878 39.8457 38.1487 44.173 37.9303C45.1445 37.8813 46.1161 37.8145 47.0831 37.8189C47.5199 37.8189 47.6135 37.5605 47.7293 37.2709C48.9638 34.1697 49.9398 30.9971 50.4612 27.6821C51.0495 23.9348 50.9737 20.2231 49.864 16.5917C48.0814 10.7635 44.2666 6.78006 38.6067 4.55663C34.8855 3.09514 31.0038 2.71195 27.0419 2.93919C22.3358 3.20654 17.8079 4.31602 13.5073 6.16517C9.18889 8.01876 5.38297 10.6699 2.64663 14.6088C2.24554 15.1881 1.98706 15.8743 1.71521 16.5337C1.47456 17.113 1.14477 17.3135 0.534218 17.1174C0.00388599 16.9481 -0.0852455 16.6006 0.066278 16.0748C0.60998 14.1811 1.7063 12.6171 2.97642 11.1601C6.0782 7.58655 9.99107 5.19381 14.3139 3.40259C17.8926 1.91882 21.5782 0.813792 25.4376 0.332569C30.3353 -0.282326 35.193 -0.130831 39.8813 1.52226C48.5137 4.57 53.8972 10.5318 55.7423 19.577C56.7896 24.7234 56.1968 29.7763 54.8108 34.7712C54.5568 35.6846 54.2627 36.5802 53.9864 37.4892C53.9864 37.5026 53.9997 37.5248 54.08 37.6942C55.4615 37.6942 56.9143 37.7031 58.3672 37.6763C58.5053 37.6763 58.6747 37.4536 58.7683 37.2976C59.0178 36.8877 59.1649 36.3886 59.4813 36.0455C60.3058 35.1677 61.9904 35.1722 62.8951 35.9787C63.4209 36.451 63.2917 37.008 63.0778 37.5516C62.6678 38.5898 62.2177 39.6146 61.8166 40.6572C61.2417 42.1455 61.5135 42.4707 63.1001 42.239C64.4549 42.043 65.6225 41.4058 66.7188 40.6483C67.7438 39.9443 68.7109 39.1512 69.7092 38.4071C69.9944 38.1932 70.293 37.9214 70.6228 37.8635C70.9436 37.8056 71.3938 37.8858 71.6344 38.0863C71.9954 38.3893 71.8528 38.8126 71.5497 39.1467C69.9053 40.9602 68.0424 42.5019 65.9033 43.6961C64.4148 44.5249 62.8683 45.1799 61.1392 45.2511C60.7203 45.269 60.288 45.2511 59.8824 45.162C58.0998 44.7655 57.409 43.3307 57.5828 41.4192C57.6363 40.8399 57.7745 40.2696 57.8591 39.775C56.3038 39.775 54.7886 39.7661 53.2733 39.7928C53.1263 39.7928 52.9346 40.0201 52.8499 40.1849C50.8712 44.0793 48.478 47.6974 45.6348 51.0125C41.1425 56.248 35.8971 60.4809 29.3995 62.994C24.3011 64.9679 19.029 65.6586 13.6143 64.7451C11.3993 64.3708 9.33595 63.5376 7.90985 61.6484C6.93386 60.3562 6.7244 58.8724 7.01853 57.3174C7.4731 54.9157 8.77442 52.9507 10.3164 51.1328C12.9458 48.0315 16.0832 45.572 19.8 43.8832C20.5665 43.5357 21.342 43.1926 22.0862 42.796C22.3224 42.6713 22.5408 42.4173 22.6477 42.1722C24.6577 37.6674 26.6587 33.1582 28.6507 28.6445C30.1972 25.1334 31.7525 21.6222 33.2633 18.0977C34.3641 15.5312 38.0318 15.6337 39.3376 17.2912C39.8457 17.9328 39.7699 18.619 39.3599 19.2384C38.8162 20.0627 38.2056 20.8514 37.5817 21.6178C35.2777 24.4561 33.4683 27.5974 31.8327 30.8457C30.1704 34.1429 28.5794 37.4714 26.8949 40.9068L26.8815 40.9157ZM46.5751 40.0557C46.2275 40.0557 46.1205 40.0468 46.018 40.0557C42.9742 40.3543 39.917 40.5592 36.891 40.9736C33.1653 41.486 29.5421 42.4841 26.0214 43.8119C25.7272 43.9233 25.4197 44.213 25.286 44.4981C24.3903 46.3606 23.5881 48.2677 22.6611 50.1168C22.1753 51.0882 21.547 52.0016 20.9008 52.875C20.5041 53.4141 19.8089 53.5032 19.2964 53.2359C18.6948 52.9195 18.5299 52.3759 18.717 51.7833C19.1137 50.5401 19.5682 49.3193 20.0184 48.0939C20.2546 47.4567 20.5264 46.8374 20.8339 46.0844C20.4729 46.2492 20.259 46.3339 20.054 46.4364C17.2642 47.831 14.8487 49.7247 12.7319 52.0016C11.4617 53.3696 10.3119 54.8266 9.76824 56.6579C9.18889 58.614 9.80835 60.0621 11.6355 60.9533C14.3585 62.2811 17.2464 62.4192 20.1743 61.9692C24.6755 61.2741 28.526 59.1219 32.118 56.4529C36.6146 53.1111 40.3983 49.0653 43.6471 44.5159C44.6454 43.1168 45.5367 41.6375 46.5751 40.0468V40.0557Z" fill="white"/>
</svg>
