<svg width="2496" height="1081" viewBox="0 0 2496 1081" fill="none" xmlns="http://www.w3.org/2000/svg">
<path d="M2086.96 569.636L2095.1 569.636M2086.96 569.636L2006.83 571.483M2086.96 569.636L2086.96 560.72M2442.94 628.208C2437.49 628.37 2429.01 627.088 2429.01 627.088C2429.01 627.088 2416.19 614.844 2406.54 609.062C2397.34 603.544 2391.22 600.14 2380.56 598.872C2373.74 598.061 2368.37 597.737 2363.57 597.743M2442.94 628.208C2444.56 628.159 2446.54 627.965 2448.32 627.752C2451.49 627.372 2454.54 626.382 2457.32 624.82C2464.68 620.695 2479.64 611.432 2486.04 601.146C2492.92 590.087 2494.79 571.233 2495.24 564.777C2495.35 563.279 2495.25 561.786 2495.01 560.302L2494.24 555.49C2492.82 546.563 2486.49 539.195 2477.89 536.43L2453.08 528.463L2452.3 528.221M2442.94 628.208C2442.94 628.208 2434.81 619.985 2429.01 615.402C2422.42 610.19 2418.65 607.151 2411.06 603.53C2402.75 599.562 2397.61 597.918 2388.48 596.718C2378.83 595.449 2363.57 597.743 2363.57 597.743M2143.01 436.174C2143.01 436.174 2152.3 436.453 2158.77 437.95C2164.95 439.379 2168.37 440.37 2174.51 441.984C2178.96 443.158 2183.66 444.45 2188.49 445.825M2143.01 436.174L2139.25 436.171C2132.15 436.166 2125.48 439.589 2121.35 445.364L2103.99 469.604M2143.01 436.174C2143.01 436.174 2137.41 439.337 2134.3 441.984C2127.36 447.873 2126.23 455.165 2119.35 461.124C2113.05 466.586 2103.99 469.604 2103.99 469.604M2103.99 469.604L2095.1 469.604M2095.1 469.604L2086.96 469.455M2095.1 469.604L2095.1 529.132M2363.57 597.743C2354.04 597.753 2346.81 599.066 2335.06 600.445C2317.68 602.485 2293.05 609.13 2281.48 612.427C2277.21 613.644 2272.72 613.868 2268.37 613.008V613.008M2268.37 613.008L2267.24 612.784C2263.58 612.061 2260.01 610.962 2256.58 609.503L2227.91 597.311L2191.61 583.589C2191.61 583.589 2187.21 582.166 2180.87 580.275M2268.37 613.008C2268.37 613.008 2264.38 614.353 2261.74 614.318C2258.2 614.273 2253.07 611.697 2253.07 611.697L2180.87 580.275M2180.87 580.275C2171.85 577.587 2158.9 573.953 2149.04 572.112C2138.86 570.211 2124.26 569.636 2124.26 569.636L2095.1 569.636M1181.53 453.44C1181.53 453.44 1173.3 452.967 1166.61 447.998M1181.53 453.44L1208.1 453.88M1181.53 453.44L1178 453.44M1154.39 810.792C1154.39 810.792 1161.53 794.549 1152.16 783.943C1134.55 764.019 1102.23 771.654 1077.1 753.898C1047.23 732.789 1027.03 716.251 1020.98 680.173C1015.78 649.167 1019.21 623.513 1042.74 602.664C1051.33 595.048 1062.37 589.009 1067.08 586.594M1069.37 585.453C1069.37 585.453 1068.52 585.853 1067.08 586.594M1069.37 585.453L1076.86 585.346M1069.37 585.453L1053.98 585.453M1334.45 581.74L1374.86 581.166M1334.45 581.74L1334.45 456.067M1334.45 581.74L1329.7 581.806M1067.08 586.594C1067.08 586.594 1045.83 593.467 1035.49 602.664C1021.58 615.034 1016.93 626.432 1012.8 644.585C1008.3 664.357 1009.97 677.215 1016.63 696.365C1024.35 718.528 1034.45 729.552 1052.43 744.629C1067.59 757.334 1077.49 762.084 1095.75 769.66C1111.8 776.315 1132.8 777.436 1147.06 787.928C1152.68 792.061 1154.39 800.26 1154.39 805.588C1154.39 821.452 1148.35 826.597 1139.82 834.665C1131.3 842.734 1112.95 849.365 1089.23 854.714C1026.48 868.868 969.639 844.946 912.949 821.119C878.074 806.462 871.495 794.521 835.633 790.532C823.163 789.145 803.723 793.763 792.342 796.931C786.203 798.64 780.311 801.065 774.579 803.852L634.271 872.061C634.271 872.061 524.18 919.43 452.532 907.448C428.583 903.443 408.571 900.48 385.638 888.908C363.881 877.93 347.792 864.985 329.167 843.766C303.727 814.782 299.568 796.869 283.667 756.122C266.781 712.848 259.616 637.115 259.616 637.115C259.616 637.115 254.28 567.428 255.357 520.864C256.282 480.819 262.079 421.612 263.65 406.137C263.911 403.568 264.204 401.056 264.586 398.502C268.126 374.834 289.782 247.679 352.67 198.687C391.569 168.383 411.471 153.558 471.391 148.968C540.998 143.636 607.405 158.66 672.235 184.558C697.259 194.555 733.075 213.191 741.03 217.371C742.115 217.941 743.211 218.432 744.359 218.86L817.416 246.102C817.416 246.102 856.613 259.535 884.717 257.85C902.578 256.779 929.337 248.454 942.286 244.109C947.35 242.41 952.167 240.328 956.98 238.012C984.51 224.761 1084.25 178.243 1124.44 179.895C1152.48 181.047 1173.63 181.36 1195.34 199.143C1212.39 213.112 1220.74 226.821 1224.46 250.471C1225.84 259.243 1227.14 277.257 1227.14 277.257M1166.61 447.998C1163.55 445.726 1161.1 442.795 1160.45 439.075C1158.11 425.617 1180.82 387.126 1194.1 366.058C1200.12 356.514 1205.68 346.699 1210.38 336.444L1212.46 331.92L1218.98 317.696C1220.72 313.897 1222.17 309.971 1223.09 305.895C1224.64 299.062 1226.88 287.582 1227.14 277.257M1166.61 447.998C1166.61 447.998 1166.55 441.615 1166.61 436.436C1166.75 425.467 1174.1 411.256 1180.53 400.895C1186.42 391.4 1192.62 382.059 1197.78 372.148L1217.47 334.325C1219.07 331.24 1220.56 328.102 1221.78 324.844C1224.14 318.53 1227.93 307.3 1228.54 298.798C1229.13 290.389 1227.14 277.257 1227.14 277.257M1089.43 453.44L1096.82 439.835L1118.18 405.099C1119.54 402.894 1120.26 400.355 1120.26 397.766L1120.26 392.197C1120.26 390.301 1119.75 388.44 1118.79 386.806L1118.19 385.79C1116.27 382.52 1113.12 380.157 1109.44 379.227V379.227C1106 378.358 1102.38 378.575 1099.07 379.85L1083.79 385.736C1083.32 385.916 1082.86 386.083 1082.38 386.24C1079.41 387.223 1067.64 391.058 1059.47 392.963C1033.51 399.014 1003.32 396.885 975.612 396.076C955.854 395.499 952.166 393.157 937.588 390.701C897.228 383.903 878.13 369.549 838.953 357.702C826.01 353.788 819.05 350.143 805.681 348.119C790.264 345.785 777.083 346.252 762.073 350.475C741.518 356.258 730.383 368.535 719.704 385.034C711.057 398.392 710.121 420.255 710.121 420.255L714.074 418.969M1089.43 453.44L1083.09 453.312M1089.43 453.44L1107.68 453.44M1029.21 585.453C1029.21 585.453 1016.76 595.825 1010.22 605.101C997.212 623.544 991.166 635.424 991.814 660.607C992.269 678.296 991.496 694.18 1001.68 712.751C1020.16 746.459 1047.1 769.408 1082.78 783.943C1093.44 788.287 1108.03 790.984 1116.93 792.34C1122.16 793.137 1127.4 794.637 1131.28 798.238C1133.21 800.034 1135.04 802.177 1135.86 804.391C1139.1 813.118 1128.6 822.314 1119.74 828.248C1112.7 832.964 1104.64 835.804 1096.38 837.698C1089.91 839.182 1082.05 840.817 1075.78 841.61C1055.7 844.152 1044.1 843.566 1023.95 841.61C1010.63 840.317 993.851 836.487 980.581 833.036C965.586 829.135 951.125 823.516 937.008 817.132L864.037 784.134C858.164 781.479 851.98 779.564 845.59 778.72C838.193 777.742 827.956 776.642 820.226 776.792C800.469 777.176 773.32 787.092 766.17 789.835C764.966 790.297 763.806 790.814 762.646 791.379L648.547 846.934C643.69 849.299 638.493 850.939 633.095 851.158C624.662 851.499 611.899 850.989 606.059 845.522C600.323 840.152 600.359 829.162 601.072 822.196C601.498 818.032 603.145 814.171 605.363 810.621C616.064 793.492 649.594 738.998 664.088 705.889C680.791 667.732 689.891 617.763 689.891 617.763L692.755 616.544M1029.21 585.453L1048.23 585.453M1029.21 585.453L1025.52 585.453M1083.09 453.312L1113.37 404.653C1114.56 402.73 1115.27 400.546 1115.44 398.287L1115.67 395.139C1115.82 393.132 1115.26 391.137 1114.1 389.496L1113.47 388.602C1112.27 386.911 1110.58 385.621 1108.64 384.902V384.902C1105.75 383.835 1102.58 383.876 1099.7 384.969C1091.34 388.147 1072.92 394.874 1059.47 397.807C1027.45 404.785 975.612 400.719 975.612 400.719C975.612 400.719 952.314 398.707 937.588 396.076C896.602 388.753 876.699 373.199 836.77 361.402C824.676 357.829 818.187 354.293 805.681 352.665C788.756 350.462 775.263 349.391 759.329 355.508C742.378 362.014 735.083 370.179 726.101 385.034C718.66 397.34 714.074 418.969 714.074 418.969M1083.09 453.312L1081.93 453.289M714.074 418.969L727.857 420.073C729.353 420.193 730.812 420.61 732.096 421.387C733.848 422.449 736.362 424.116 737.885 425.764C739.051 427.026 740.195 428.881 741.069 430.465C742.174 432.47 742.63 434.749 742.618 437.038L742.515 457.669M1023.58 585.453C1023.58 585.453 1011.18 596.498 1005.1 605.101C991.962 623.687 988.521 637.878 987.325 660.607C986.237 681.28 989.758 693.648 997.735 712.751C1014.59 753.12 1046.74 772.578 1081.31 787.928C1092.01 792.679 1101.5 794.704 1108.32 795.541C1115.48 796.419 1122.93 797.552 1128.74 801.816C1130.03 802.76 1131.09 803.665 1131.59 804.391C1136.92 812.022 1123.73 821.373 1115.25 826.344C1111 828.831 1106.39 830.575 1101.66 831.894C1094.68 833.835 1083.93 836.618 1075.78 837.784C1056.05 840.608 1044.58 839.725 1024.74 837.784C1007.96 836.143 985.207 829.92 970.734 825.562C961.324 822.729 952.143 819.242 943.099 815.398C937.857 813.17 932.252 810.76 928.582 809.101C903.389 797.713 883.662 785.777 855.191 776.558C842.131 772.33 833.95 772.636 820.226 772.949C805.575 773.283 786.179 778.748 774.528 782.484C767.727 784.664 761.17 787.51 754.748 790.634L647.063 843.027C643.661 844.682 640.051 845.884 636.291 846.298C628.974 847.103 616.468 847.75 610.683 843.766C604.487 839.498 604.873 829.178 605.999 822.148C606.762 817.388 608.912 813.035 611.519 808.979C622.609 791.727 654.174 741.289 668.91 703.886C682.027 670.59 692.755 616.544 692.755 616.544M1023.58 585.453L1025.52 585.453M1023.58 585.453L1021.59 585.453M692.755 616.544L720.473 617.489C725.744 617.669 731.222 616.925 735.342 613.633C736.012 613.098 736.626 612.536 737.125 611.962C738.722 610.124 739.99 607.177 740.799 604.927C741.539 602.87 741.802 600.686 741.813 598.5L741.908 579.393M2095.1 569.636L2095.1 545.151M2086.96 469.455L2005.41 467.964M2086.96 469.455L2086.96 476.857M2005.41 467.964L2006.83 571.483M2005.41 467.964L1999.77 467.86M2006.83 571.483L2000.95 571.619M1999.77 467.86L2000.95 571.619M1999.77 467.86L1926.62 466.522M2000.95 571.619L1926.62 573.332M1926.62 466.522L1926.62 573.332M1926.62 466.522L1920.5 466.41M1926.62 573.332L1921.49 573.45M1920.5 466.41L1921.49 573.45M1920.5 466.41L1851.59 465.15M1921.49 573.45L1898.71 573.975L1851.59 574.624M1851.59 465.15L1845.96 465.047M1851.59 465.15L1851.59 545.151L1851.59 547.998M1851.59 574.624L1845.96 574.701M1851.59 574.624L1851.59 547.998M1845.96 465.047L1780.8 463.855M1845.96 465.047L1845.96 490.481M1845.96 574.701L1780.8 575.598M1845.96 574.701L1845.96 565.681M1780.8 463.855L1780.8 575.598M1780.8 463.855L1774.59 463.741M1780.8 575.598L1774.59 575.683M1774.59 463.741L1768.38 463.627L1713.54 462.669M1774.59 463.741L1774.59 529.132M1774.59 575.683L1713.54 576.523M1774.59 575.683L1774.59 529.132M1713.54 462.669L1713.54 576.523M1713.54 462.669L1706.49 462.545M1713.54 576.523L1706.49 576.621M1706.49 462.545L1706.49 576.621M1706.49 462.545L1649.68 461.552M1706.49 576.621L1649.68 577.402M1649.68 461.552L1649.68 577.402M1649.68 461.552L1643.94 461.452M1649.68 577.402L1643.94 577.481M1643.94 461.452L1643.94 577.481M1643.94 461.452L1589.16 460.494M1643.94 577.481L1589.16 578.235M1589.16 460.494L1584.04 460.404M1589.16 460.494L1589.16 568.805M1589.16 578.235L1584.04 578.305M1589.16 578.235L1589.16 568.805M1584.04 460.404L1584.04 578.305M1584.04 460.404L1533.89 459.527M1584.04 578.305L1533.89 578.995M1533.89 459.527L1533.89 578.995M1533.89 459.527L1527.46 459.415M1533.89 578.995L1527.46 579.084M1527.46 459.415L1479.34 458.574M1527.46 459.415L1527.46 468.71M1527.46 579.084L1479.34 579.746M1527.46 579.084L1527.46 468.71M1479.34 458.574L1479.34 579.746M1479.34 458.574L1474.82 458.574M1479.34 579.746L1474.82 579.746M1474.82 458.574L1428.95 457.755M1474.82 458.574L1474.82 486.1M1474.82 579.746L1428.95 580.397M1474.82 579.746L1474.82 508.521M1428.95 457.755L1428.95 580.397M1428.95 457.755L1423.78 457.662M1428.95 580.397L1423.78 580.471M1423.78 457.662L1423.78 580.471M1423.78 457.662L1380.73 456.893M1423.78 580.471L1380.73 581.082M1380.73 456.893L1374.86 456.789M1380.73 456.893L1380.73 529.132M1380.73 581.082L1374.86 581.166M1380.73 581.082L1380.73 529.132M1374.86 456.789L1374.86 581.166M1374.86 456.789L1334.45 456.067M1334.45 456.067L1329.7 455.982M1329.7 455.982L1329.7 581.806M1329.7 455.982L1292.54 455.319M1329.7 581.806L1292.54 582.327M1292.54 455.319L1292.54 582.327M1292.54 455.319L1287.94 455.319M1292.54 582.327L1287.94 582.327M1287.94 455.319L1262.35 454.78L1252.55 454.617M1287.94 455.319L1287.94 582.327M1287.94 582.327L1252.55 582.833M1252.55 454.617L1247.38 454.532M1252.55 454.617L1252.55 550.88M1252.55 582.833L1247.38 582.907M1252.55 582.833L1252.55 573.362M1247.38 454.532L1247.38 582.907M1247.38 454.532L1214.46 453.986M1247.38 582.907L1214.45 583.378M1214.46 453.986L1214.45 583.378M1214.46 453.986L1208.1 453.88M1214.45 583.378L1208.1 583.469M1208.1 453.88L1208.1 486.1M1208.1 583.469L1178 583.9M1208.1 583.469L1208.1 486.1M1178 453.44L1178 583.9M1178 453.44L1173.77 453.44M1178 583.9L1173.77 583.96M1173.77 453.44L1144.63 453.44M1173.77 453.44L1173.77 508.521M1173.77 583.96L1144.63 584.377M1173.77 583.96L1173.77 508.521M1144.63 453.44L1144.63 584.377M1144.63 453.44L1140.11 453.44M1144.63 584.377L1140.11 584.442M1140.11 453.44L1140.11 584.442M1140.11 453.44L1112.77 453.44M1140.11 584.442L1112.77 584.833M1112.77 453.44L1112.77 584.833M1112.77 453.44L1107.68 453.44M1112.77 584.833L1107.68 584.906M1107.68 453.44L1107.68 584.906M1107.68 584.906L1081.93 585.274M1081.93 453.289L1081.93 585.274M1081.93 453.289L1076.86 453.187M1081.93 585.274L1076.86 585.346M1076.86 453.187L1076.86 585.346M1076.86 453.187L1053.98 452.725M1053.98 452.725L1053.98 585.453M1053.98 452.725L1048.23 452.609M1053.98 585.453L1048.23 585.453M1048.23 452.609L1048.23 585.453M1048.23 452.609L1025.52 452.151M1025.52 452.151L1025.52 585.453M1025.52 452.151L1021.59 452.072M1021.59 452.072L1002.8 451.693C1002.8 451.693 1002.05 451.743 1000.86 451.897M1021.59 452.072L1021.59 585.453M1021.59 585.453L1003.11 585.453C1002.9 585.453 1002.7 585.452 1002.49 585.444C1002.17 585.431 1001.6 585.403 1000.86 585.341M1000.86 451.897L1000.86 585.341M1000.86 451.897C999.781 452.036 998.335 452.261 996.757 452.609M1000.86 585.341C999.781 585.251 998.337 585.091 996.757 584.805M996.757 452.609C993.496 453.329 989.67 454.58 987.325 456.706C986.136 457.784 985.028 459.375 984.096 460.97M996.757 452.609L996.757 584.805M996.757 584.805C993.515 584.219 989.708 583.105 987.325 580.993C986.187 579.984 985.06 578.363 984.096 576.731M599.814 701.071C611.37 701.574 622.11 709.01 621.512 720.561C620.944 731.539 612.999 739.29 602.016 739.766M599.816 701.074C611.371 701.577 622.112 709.014 621.514 720.564C620.946 731.543 613.001 739.293 602.018 739.769M484.816 749.915C496.371 750.418 507.112 757.854 506.514 769.405C505.945 780.384 498 788.134 487.018 788.61M2198.23 448.644L2198.23 445.829M2198.23 448.644C2194.94 447.675 2191.69 446.732 2188.49 445.825M2198.23 448.644C2211.33 452.503 2225 456.772 2237.56 460.802M2198.23 445.829L2188.49 443.298M2198.23 445.829L2199.33 444.483C2199.97 443.705 2200.4 442.78 2200.58 441.793L2202.35 432.377M2188.49 443.298L2188.49 445.825M2188.49 443.298L2188.4 442.917C2187.9 440.872 2188.52 438.716 2190.01 437.235L2194.92 432.377M2202.35 432.377L2205.89 432.377C2206.89 432.377 2207.74 431.638 2207.87 430.646L2209.63 417.74C2209.67 417.407 2209.55 417.074 2209.29 416.853L2203.92 412.152C2203.29 411.599 2202.28 412.019 2202.21 412.855C2201.98 415.38 2201.46 419.697 2200.3 422.83C2198.81 426.857 2194.85 432.377 2194.85 432.377L2202.35 432.377ZM2251.2 455.453L2249.26 464.591M2251.2 455.453L2266.8 451.16C2267.82 450.881 2268.61 450.089 2268.9 449.074L2271.77 438.788C2272.06 437.751 2271.77 436.643 2270.99 435.901C2268.45 433.489 2262.5 428.12 2257.53 425.885C2251.06 422.975 2241.06 423.483 2237.17 423.821C2236.16 423.91 2235.29 424.546 2234.85 425.469L2229.33 437.121C2228.79 438.256 2229.02 439.605 2229.89 440.503L2242.19 453.082M2251.2 455.453L2242.19 453.082M2249.26 464.591C2270.62 471.563 2286.45 477.037 2286.45 477.037L2288.83 477.769M2249.26 464.591C2245.51 463.367 2241.59 462.097 2237.56 460.802M2242.19 453.082L2237.56 460.802M2292.43 470.133L2288.83 477.769M2292.43 470.133L2301.1 470.785M2292.43 470.133L2281.48 458.838C2280.68 458.011 2280.42 456.797 2280.82 455.715L2285.79 442.196C2286.19 441.102 2287.19 440.341 2288.36 440.271C2291.3 440.095 2297.04 439.863 2301.1 440.403C2308.6 441.397 2317.75 447.28 2321.24 449.685C2322.14 450.307 2322.58 451.384 2322.43 452.468L2320.87 463.602C2320.7 464.794 2319.84 465.771 2318.67 466.083L2301.1 470.785M2288.83 477.769L2301.1 481.543M2301.1 481.543L2301.1 470.785M2301.1 481.543L2339.16 493.246M2349.3 496.365L2376.9 504.853L2389.6 508.788M2349.3 496.365L2351.13 487.481M2349.3 496.365L2339.16 493.246M2351.13 487.481L2361.55 486.344C2362.51 486.24 2363.36 485.685 2363.83 484.852L2370.34 473.484C2370.88 472.539 2370.87 471.378 2370.27 470.47C2368.38 467.603 2363.93 461.344 2359.49 458.596C2353.71 455.015 2344.32 455.881 2340.67 456.396C2339.71 456.531 2338.92 457.165 2338.52 458.048L2333.4 469.345C2332.89 470.461 2333.12 471.773 2333.96 472.658L2344.72 483.898M2351.13 487.481L2344.72 483.898M2339.16 493.246L2344.72 483.898M2402.3 512.724L2404.36 505.679M2402.3 512.724L2389.6 508.788M2402.3 512.724L2440.6 524.594M2404.36 505.679L2392.54 501.507M2404.36 505.679L2406.86 499.422M2392.54 501.507L2389.6 508.788M2392.54 501.507L2395.74 496.502L2399.07 490.105M2399.07 490.105L2402.09 476.958C2402.21 476.451 2402.69 476.118 2403.21 476.192L2409.12 477.04C2409.65 477.115 2410.02 477.588 2409.98 478.117L2408.22 498.175C2408.16 498.88 2407.57 499.422 2406.86 499.422V499.422M2399.07 490.105C2399.07 490.105 2399.63 494.305 2401.44 496.502C2402.75 498.101 2406.86 499.422 2406.86 499.422M2452.3 528.221L2453.08 520.224M2452.3 528.221L2440.6 524.594M2453.08 520.224L2471.26 513.366C2472.31 512.971 2473.05 512.028 2473.18 510.918L2474.4 500.845C2474.51 499.945 2474.21 499.048 2473.55 498.42C2471.04 496.001 2464.31 489.894 2458.51 487.893C2451.98 485.644 2441.82 486.93 2437.77 487.584C2436.68 487.759 2435.81 488.547 2435.49 489.598L2431.33 503.111C2431 504.181 2431.29 505.346 2432.09 506.132L2442.94 516.81M2453.08 520.224L2442.94 516.81M2440.6 524.594L2442.94 516.81M718.396 433.564L542.059 433.564C537.035 433.564 532.238 435.66 528.826 439.347V439.347C525.741 442.68 524.028 447.054 524.028 451.596L524.028 557.564M718.396 601.792L718.396 604.703L712.221 607.447C709.664 608.584 706.897 609.171 704.099 609.171L524.028 609.171C524.028 609.171 517.833 608.569 515.091 606.099C511.239 602.629 511.74 593.253 511.74 593.253L511.74 577.046M718.396 601.792L718.396 431.249L710.993 429.381C709.233 428.937 707.425 428.712 705.61 428.712L535.157 428.712C530.616 428.712 526.044 429.435 522.125 431.727C519.471 433.279 516.629 435.342 515.091 437.702C512.433 441.781 511.74 449.71 511.74 449.71L511.74 464.054M718.396 601.792L538.27 601.792C535.596 601.792 532.977 601.039 530.711 599.62V599.62C526.553 597.016 524.028 592.455 524.028 587.549L524.028 557.564M511.74 464.054L554.081 464.054L554.081 474.442L511.74 474.442M511.74 464.054L511.74 474.442M511.74 474.442L511.74 514.47M555.838 514.47L511.74 514.47M555.838 514.47L555.838 525.617M555.838 514.47L555.838 495.924C555.838 495.343 556.331 494.885 556.91 494.927L577.166 496.393M511.74 514.47L511.74 525.617M555.838 525.617L511.74 525.617M555.838 525.617L555.838 543.982C555.838 544.519 556.262 544.96 556.799 544.981L576.763 545.769M511.74 525.617L511.74 565.645M558.642 565.645L511.74 565.645M558.642 565.645L558.642 577.046M558.642 565.645L558.642 548.912C558.642 548.36 559.089 547.912 559.642 547.912L579.109 547.912M511.74 565.645L511.74 577.046M558.642 577.046L511.74 577.046M558.642 577.046L559.507 596.865C559.53 597.399 559.971 597.821 560.506 597.821L579.109 597.821M577.166 446.039L579.21 446.176C579.735 446.211 580.143 446.648 580.143 447.174L580.143 493.798C580.143 494.37 579.664 494.825 579.093 494.797L577.166 494.701M577.166 446.039L577.166 467.505M577.166 446.039L573.994 445.825M577.166 467.505L592.453 467.505C593.005 467.505 593.453 467.953 593.453 468.505L593.453 472.098C593.453 472.65 593.005 473.098 592.453 473.098L577.166 473.098M577.166 467.505L573.994 467.505M577.166 473.098L577.166 494.701M577.166 473.098L573.994 473.098M577.166 494.701L573.994 494.701M573.994 445.825L555.826 444.602C555.254 444.564 554.767 445.013 554.759 445.586L554.095 492.593C554.087 493.128 554.503 493.575 555.037 493.606L573.994 494.701M573.994 445.825L573.994 467.505M573.994 467.505L568.941 467.505L568.941 473.098L573.994 473.098M573.994 473.098L573.994 494.701M580.143 496.608L583.111 496.823C583.634 496.861 584.039 497.296 584.039 497.82L584.039 545.016C584.039 545.584 583.567 546.038 583 546.016L580.143 545.903M580.143 496.608L580.143 518.995M580.143 496.608L577.166 496.393M580.143 518.995L592.453 518.995C593.005 518.995 593.453 519.443 593.453 519.995L593.453 522.93C593.453 523.482 593.005 523.93 592.453 523.93L580.143 523.93M580.143 518.995L577.166 518.995M580.143 523.93L580.143 545.903M580.143 523.93L576.763 523.93M580.143 545.903L576.763 545.769M577.166 496.393L577.166 518.995M577.166 518.995L573.383 518.995L573.383 523.93L576.763 523.93M576.763 523.93L576.763 545.769M582.578 547.912L585.978 547.912C586.542 547.912 586.994 548.378 586.977 548.942L585.552 596.851C585.536 597.391 585.093 597.821 584.553 597.821L582.578 597.821M582.578 547.912L582.578 570.65M582.578 547.912L579.109 547.912M582.578 570.65L591.63 570.65C592.182 570.65 592.63 571.097 592.63 571.65L592.63 574.256C592.63 574.808 592.182 575.256 591.63 575.256L582.578 575.256M582.578 570.65L579.109 570.65M582.578 575.256L582.578 597.821M582.578 575.256L579.109 575.256M582.578 597.821L579.109 597.821M579.109 547.912L579.109 570.65M579.109 570.65L577.166 570.65L577.166 575.256L579.109 575.256M579.109 575.256L579.109 597.821M754.671 715.406L798.779 681.028C798.955 680.891 799.171 680.816 799.394 680.816L803.76 680.816C804.313 680.816 804.76 681.264 804.76 681.816L804.76 685.212C804.76 685.526 804.613 685.822 804.361 686.011L757.445 721.279M754.671 715.406L752.21 713.548C751.407 712.942 750.279 713.026 749.575 713.745L733.349 730.326L733.349 734.666C733.349 736.132 734.41 737.384 735.856 737.625L738.701 738.099L756.53 726.585C757.1 726.217 757.445 725.584 757.445 724.905L757.445 721.279M754.671 715.406L757.445 721.279M2442.19 547.415C2443.35 546.6 2444.74 546.125 2446.25 546.155C2447.33 546.177 2448.35 546.47 2449.25 546.965M2442.19 547.415C2440.07 548.909 2438.75 551.546 2438.93 554.309C2439.11 557.097 2440.66 559.541 2442.94 560.72M2442.19 547.415C2442.19 547.415 2434.3 549.499 2433.91 553.492C2433.47 557.988 2442.94 560.72 2442.94 560.72M2442.94 560.72C2443.93 561.228 2445.05 561.501 2446.25 561.465C2447.35 561.432 2448.36 561.17 2449.25 560.72M2442.94 560.72L2230.02 560.72L2086.96 560.72M2449.25 560.72C2451.23 559.708 2452.6 557.747 2453.08 555.308C2453.74 551.996 2452.04 548.505 2449.25 546.965M2449.25 560.72C2449.25 560.72 2445.47 564.898 2442.19 565.777C2434.62 567.812 2426.32 560.847 2426.7 553.017C2427.07 545.29 2435.68 539.026 2442.94 541.683C2445.96 542.786 2449.25 546.965 2449.25 546.965M2390.48 531.621C2391.64 530.806 2393.03 530.331 2394.54 530.361C2395.62 530.383 2396.64 530.676 2397.53 531.171M2390.48 531.621C2388.36 533.115 2387.04 535.752 2387.22 538.515C2387.4 541.303 2388.95 543.747 2391.23 544.926M2390.48 531.621C2390.48 531.621 2382.59 533.705 2382.2 537.698C2381.76 542.195 2391.23 544.926 2391.23 544.926M2391.23 544.926C2392.22 545.434 2393.33 545.707 2394.54 545.671C2395.64 545.638 2396.65 545.376 2397.53 544.926M2391.23 544.926L2095.1 545.151M2397.53 544.926C2399.52 543.914 2400.89 541.953 2401.37 539.514C2402.03 536.202 2400.33 532.711 2397.53 531.171M2397.53 544.926C2397.53 544.926 2393.76 549.104 2390.48 549.984C2382.91 552.018 2374.6 545.053 2374.99 537.223C2375.36 529.496 2383.97 523.232 2391.23 525.889C2394.25 526.992 2397.53 531.171 2397.53 531.171M2337.25 515.827C2338.41 515.013 2339.8 514.538 2341.31 514.568C2342.4 514.589 2343.41 514.883 2344.31 515.377M2337.25 515.827C2335.14 517.321 2333.81 519.958 2333.99 522.722C2334.17 525.509 2335.72 527.953 2338 529.132M2337.25 515.827C2337.25 515.827 2329.36 517.911 2328.97 521.905C2328.53 526.401 2338 529.132 2338 529.132M2338 529.132C2338.99 529.64 2340.11 529.913 2341.31 529.877C2342.42 529.844 2343.42 529.582 2344.31 529.132M2338 529.132L2095.1 529.132M2344.31 529.132C2346.29 528.12 2347.66 526.159 2348.15 523.72C2348.8 520.408 2347.11 516.917 2344.31 515.377M2344.31 529.132C2344.31 529.132 2340.53 533.31 2337.25 534.19C2329.68 536.224 2321.38 529.259 2321.76 521.429C2322.13 513.702 2330.74 507.438 2338 510.095C2341.02 511.198 2344.31 515.377 2344.31 515.377M2287.23 499.519C2288.38 498.704 2289.78 498.23 2291.29 498.259C2292.37 498.281 2293.38 498.574 2294.28 499.069M2287.23 499.519C2285.11 501.013 2283.78 503.65 2283.96 506.413C2284.15 509.201 2285.7 511.645 2287.98 512.824M2287.23 499.519C2287.23 499.519 2279.34 501.603 2278.95 505.596C2278.5 510.093 2287.98 512.824 2287.98 512.824M2287.98 512.824C2288.96 513.332 2290.08 513.605 2291.29 513.569C2292.39 513.536 2293.4 513.274 2294.28 512.824M2287.98 512.824L2207.95 510.845L2086.96 510.844M2294.28 512.824C2296.27 511.812 2297.64 509.851 2298.12 507.412C2298.78 504.1 2297.08 500.609 2294.28 499.069M2294.28 512.824C2294.28 512.824 2290.5 517.002 2287.23 517.882C2279.66 519.916 2271.35 512.951 2271.73 505.121C2272.11 497.394 2280.71 491.13 2287.98 493.787C2290.99 494.89 2294.28 499.069 2294.28 499.069M2235.39 484.542C2236.54 483.728 2237.93 483.253 2239.44 483.283C2240.53 483.304 2241.54 483.598 2242.44 484.092M2235.39 484.542C2233.27 486.036 2231.94 488.673 2232.12 491.437C2232.3 494.225 2233.86 496.668 2236.14 497.847M2235.39 484.542C2235.39 484.542 2227.5 486.626 2227.1 490.62C2226.66 495.116 2236.14 497.847 2236.14 497.847M2236.14 497.847C2237.12 498.355 2238.24 498.628 2239.44 498.592M2239.44 498.592C2240.55 498.56 2241.56 498.297 2242.44 497.847M2239.44 498.592L2194.92 495.405L2086.96 494.361M2242.44 497.847C2244.43 496.835 2245.8 494.874 2246.28 492.435C2246.94 489.124 2245.24 485.633 2242.44 484.092M2242.44 497.847C2242.44 497.847 2238.66 502.026 2235.39 502.905C2227.82 504.939 2219.51 497.975 2219.89 490.144C2220.27 482.417 2228.87 476.153 2236.14 478.81C2239.15 479.913 2242.44 484.092 2242.44 484.092M2181.05 465.61C2182.2 464.795 2183.59 464.321 2185.1 464.35C2186.19 464.372 2187.2 464.665 2188.1 465.16M2181.05 465.61C2178.93 467.104 2177.6 469.741 2177.78 472.504C2177.96 475.292 2179.51 477.736 2181.79 478.915M2181.05 465.61C2181.05 465.61 2173.15 467.694 2172.76 471.687C2172.32 476.184 2181.79 478.915 2181.79 478.915M2181.79 478.915C2182.78 479.423 2183.9 479.696 2185.1 479.66M2185.1 479.66C2186.21 479.627 2187.21 479.365 2188.1 478.915M2185.1 479.66L2086.96 476.857M2188.1 478.915C2190.08 477.903 2191.45 475.942 2191.94 473.503C2192.6 470.191 2190.9 466.7 2188.1 465.16M2188.1 478.915C2188.1 478.915 2184.32 483.093 2181.05 483.973C2173.47 486.007 2165.17 479.042 2165.55 471.212C2165.92 463.485 2174.53 457.221 2181.79 459.878C2184.81 460.981 2188.1 465.16 2188.1 465.16M2086.96 476.857L1527.46 468.71M2086.96 476.857L2086.96 494.361M1527.46 468.71L984.096 460.97M984.096 460.97C983.903 461.3 983.718 461.63 983.541 461.956C981.899 464.982 981.334 468.435 981.334 471.878L981.334 529.132M984.096 460.97L742.515 457.669M742.515 457.669L526.575 457.669M742.515 457.669L742.391 482.593M2086.96 494.361L1845.96 490.481M2086.96 494.361L2086.96 510.844M1845.96 490.481L1474.82 486.1M1845.96 490.481L1845.96 510.844M1474.82 486.1L1208.1 486.1M1474.82 486.1L1474.82 508.521M1208.1 486.1L742.391 482.593M742.391 482.593L526.575 482.593M742.391 482.593L742.262 508.521M2086.96 510.844L1845.96 510.844M2086.96 510.844L2086.96 529.132M1845.96 510.844L1474.82 508.521M1845.96 510.844L1845.96 565.681M1474.82 508.521L1173.77 508.521M1173.77 508.521L742.262 508.521M742.262 508.521L526.575 508.521M742.262 508.521L741.908 579.393M2095.1 529.132L2086.96 529.132M2095.1 529.132L2095.1 545.151M2086.96 529.132L1774.59 529.132M2086.96 529.132L2086.96 560.72M1774.59 529.132L1380.73 529.132M1380.73 529.132L981.334 529.132M981.334 529.132L742.636 529.132L526.575 532.447M981.334 529.132L981.334 554.526M2095.1 545.151L1851.59 547.998M981.334 554.526L981.334 568.441C981.334 570.301 981.693 572.148 982.521 573.813C982.958 574.693 983.495 575.714 984.096 576.731M981.334 554.526L1252.55 550.88M981.334 554.526L524.028 557.564M1252.55 550.88L1552.59 549.756L1703.45 549.756L1851.59 547.998M1252.55 550.88L1252.55 573.362M2086.96 560.72L1845.96 565.681M1845.96 565.681L1589.16 568.805M984.096 576.731L1252.55 573.362M984.096 576.731L741.908 579.393M1252.55 573.362L1589.16 568.805M741.908 579.393L526.575 581.951M961.871 455.118L961.871 577.141L961.634 578.386C958.161 596.637 931.693 595.607 929.65 577.141V577.141L929.65 455.118V455.118C934.743 441.014 954.247 439.871 960.953 453.283L961.871 455.118ZM956.074 456.706L956.074 577.141L953.288 593.318C951.842 601.716 940.016 602.332 937.704 594.13L932.916 577.141L932.916 456.706L934.063 454.69C939.218 445.626 952.65 446.856 956.074 456.706V456.706ZM634.27 720.561C634.434 703.456 619.078 689.701 602.016 690.925C586.15 692.063 573.964 704.654 574.071 720.561C574.184 737.468 589.185 750.795 606.059 749.734C621.876 748.74 634.118 736.409 634.27 720.561ZM615.726 720.561C615.804 709.985 606.938 700.211 596.198 701.071C586.223 701.869 579.489 710.554 579.562 720.561C579.635 730.483 586.307 738.973 596.198 739.766C606.86 740.62 615.648 731.057 615.726 720.561ZM634.271 720.564C634.436 703.46 619.08 689.704 602.018 690.928C586.151 692.066 573.965 704.657 574.072 720.564C574.186 737.471 589.187 750.798 606.061 749.738C621.878 748.744 634.119 736.412 634.271 720.564ZM615.728 720.564C615.806 709.988 606.94 700.215 596.199 701.074C586.224 701.872 579.491 710.558 579.564 720.564C579.636 730.486 586.308 738.977 596.199 739.769C606.861 740.623 615.65 731.061 615.728 720.564ZM519.271 769.405C519.436 752.3 504.08 738.545 487.018 739.769C471.151 740.907 458.965 753.498 459.072 769.405C459.186 786.312 474.187 799.639 491.06 798.579C506.878 797.585 519.119 785.253 519.271 769.405ZM500.728 769.405C500.806 758.829 491.94 749.055 481.199 749.915C471.224 750.713 464.491 759.399 464.564 769.405C464.636 779.327 471.309 787.818 481.199 788.61C491.861 789.464 500.65 779.902 500.728 769.405ZM630.877 598.525C634.627 600.435 638.742 600.887 642.618 600.61C653.185 599.855 660.161 590.384 663.469 580.32L699.43 470.941C702.21 462.483 702.711 452.98 697.487 445.77C694.905 442.207 691.525 438.934 687.357 437.702C685.791 437.239 684.159 436.948 682.513 436.788C669.689 435.543 660.053 446.672 655.981 458.896L620.93 564.124C617.585 574.168 617.53 585.691 624.663 593.513C626.541 595.573 628.638 597.385 630.877 598.525ZM2456.07 554.309C2456.44 545.54 2449.36 538.543 2440.6 538.001C2431.01 537.408 2422.1 545.755 2423.12 555.308C2424.04 564 2431.88 569.849 2440.6 569.286C2448.99 568.744 2455.71 562.71 2456.07 554.309ZM2404.36 538.515C2404.73 529.746 2397.65 522.749 2388.89 522.208C2379.3 521.615 2370.39 529.961 2371.41 539.514C2372.33 548.206 2380.17 554.055 2388.89 553.492C2397.28 552.95 2404 546.916 2404.36 538.515ZM2351.13 522.722C2351.5 513.952 2344.42 506.955 2335.66 506.414C2326.07 505.821 2317.16 514.167 2318.18 523.72C2319.1 532.412 2326.94 538.261 2335.66 537.698C2344.05 537.157 2350.77 531.122 2351.13 522.722ZM2301.1 506.413C2301.48 497.644 2294.4 490.647 2285.64 490.105C2276.05 489.512 2267.14 497.859 2268.15 507.412C2269.08 516.104 2276.91 521.953 2285.64 521.39C2294.03 520.849 2300.75 514.814 2301.1 506.413ZM2249.26 491.437C2249.64 482.667 2242.56 475.67 2233.79 475.129C2224.21 474.536 2215.3 482.883 2216.31 492.435C2217.24 501.127 2225.07 506.977 2233.79 506.414C2242.19 505.872 2248.9 499.837 2249.26 491.437ZM2194.92 472.504C2195.29 463.735 2188.21 456.738 2179.45 456.196C2169.86 455.603 2160.96 463.95 2161.97 473.503C2162.89 482.195 2170.73 488.045 2179.45 487.481C2187.84 486.94 2194.56 480.905 2194.92 472.504Z" stroke="#838C94"/>
<circle cx="621.558" cy="830.598" r="6.16828" transform="rotate(90 621.558 830.598)" stroke="#838C94"/>
<circle cx="705.222" cy="639.684" r="6.16828" transform="rotate(90 705.222 639.684)" stroke="#838C94"/>
<circle cx="695.574" cy="531.082" r="6.16828" transform="rotate(90 695.574 531.082)" stroke="#838C94"/>
<circle cx="642.133" cy="460.762" r="6.16828" transform="rotate(90 642.133 460.762)" stroke="#838C94"/>
<circle cx="612.48" cy="558.325" r="6.16828" transform="rotate(90 612.48 558.325)" stroke="#838C94"/>
<circle cx="529.815" cy="457.923" r="3.40002" transform="rotate(90 529.815 457.923)" stroke="#838C94"/>
<circle cx="529.815" cy="482.244" r="3.40002" transform="rotate(90 529.815 482.244)" stroke="#838C94"/>
<circle cx="529.815" cy="507.611" r="3.40002" transform="rotate(90 529.815 507.611)" stroke="#838C94"/>
<circle cx="529.815" cy="532.978" r="3.40002" transform="rotate(90 529.815 532.978)" stroke="#838C94"/>
<circle cx="529.815" cy="558.322" r="3.40002" transform="rotate(90 529.815 558.322)" stroke="#838C94"/>
<circle cx="529.815" cy="583.681" r="3.40002" transform="rotate(90 529.815 583.681)" stroke="#838C94"/>
<circle cx="781.597" cy="765.465" r="6.16828" transform="rotate(90 781.597 765.465)" stroke="#838C94"/>
<circle cx="916.363" cy="786.239" r="6.16828" transform="rotate(90 916.363 786.239)" stroke="#838C94"/>
<circle cx="813.696" cy="675.301" r="7.83958" transform="rotate(90 813.696 675.301)" stroke="#838C94"/>
<circle cx="946.739" cy="602.831" r="4.19834" transform="rotate(90 946.739 602.831)" stroke="#838C94"/>
<circle cx="946.739" cy="436.456" r="4.19834" transform="rotate(90 946.739 436.456)" stroke="#838C94"/>
<circle cx="1113.46" cy="810.395" r="6.16828" transform="rotate(90 1113.46 810.395)" stroke="#838C94"/>
<circle cx="981.504" cy="620.59" r="6.16828" transform="rotate(90 981.504 620.59)" stroke="#838C94"/>
<circle cx="1037.75" cy="519.289" r="6.76558" transform="rotate(90 1037.75 519.289)" stroke="#838C94"/>
<circle cx="1095.48" cy="519.289" r="6.76558" transform="rotate(90 1095.48 519.289)" stroke="#838C94"/>
<circle cx="1159.2" cy="519.289" r="6.76558" transform="rotate(90 1159.2 519.289)" stroke="#838C94"/>
<circle cx="1231.28" cy="519.289" r="6.76558" transform="rotate(90 1231.28 519.289)" stroke="#838C94"/>
<circle cx="1356.3" cy="550.75" r="6.76558" transform="rotate(90 1356.3 550.75)" stroke="#838C94"/>
<circle cx="1356.3" cy="488.5" r="6.76558" transform="rotate(90 1356.3 488.5)" stroke="#838C94"/>
<circle cx="1504.55" cy="519.484" r="6.76558" transform="rotate(90 1504.55 519.484)" stroke="#838C94"/>
<circle cx="1618.13" cy="518.93" r="6.76558" transform="rotate(90 1618.13 518.93)" stroke="#838C94"/>
<circle cx="1744.73" cy="518.93" r="6.76558" transform="rotate(90 1744.73 518.93)" stroke="#838C94"/>
<circle cx="1887.23" cy="518.93" r="6.76558" transform="rotate(90 1887.23 518.93)" stroke="#838C94"/>
<circle cx="1098.86" cy="399.348" r="6.16828" transform="rotate(90 1098.86 399.348)" stroke="#838C94"/>
<circle cx="900.074" cy="400.317" r="6.16828" transform="rotate(90 900.074 400.317)" stroke="#838C94"/>
<circle cx="731.793" cy="403.528" r="6.16828" transform="rotate(90 731.793 403.528)" stroke="#838C94"/>
<circle cx="687.398" cy="461.63" r="5.29387" transform="rotate(90 687.398 461.63)" stroke="#838C94"/>
<circle cx="679.159" cy="485.653" r="5.29387" transform="rotate(90 679.159 485.653)" stroke="#838C94"/>
<circle cx="672.167" cy="510.763" r="5.29387" transform="rotate(90 672.167 510.763)" stroke="#838C94"/>
<circle cx="663.937" cy="535.185" r="5.29387" transform="rotate(90 663.937 535.185)" stroke="#838C94"/>
<circle cx="656.523" cy="559.192" r="5.29387" transform="rotate(90 656.523 559.192)" stroke="#838C94"/>
<circle cx="648.976" cy="584.442" r="5.29387" transform="rotate(90 648.976 584.442)" stroke="#838C94"/>
<circle cx="627.714" cy="577.31" r="5.29387" transform="rotate(90 627.714 577.31)" stroke="#838C94"/>
<circle cx="634.948" cy="553.036" r="5.29387" transform="rotate(90 634.948 553.036)" stroke="#838C94"/>
<circle cx="642.628" cy="528.356" r="5.29387" transform="rotate(90 642.628 528.356)" stroke="#838C94"/>
<circle cx="651.233" cy="505.458" r="5.29387" transform="rotate(90 651.233 505.458)" stroke="#838C94"/>
<circle cx="658.64" cy="480.349" r="5.29387" transform="rotate(90 658.64 480.349)" stroke="#838C94"/>
<circle cx="666.878" cy="455.466" r="5.29387" transform="rotate(90 666.878 455.466)" stroke="#838C94"/>
<path d="M558.262 444.297C558.262 439.533 554.098 435.023 549.334 435.023C544.57 435.023 540.708 438.886 540.708 443.65C540.708 448.414 544.57 452.276 549.334 452.276C554.098 452.276 554.573 451.255 554.573 451.255" stroke="#838C94"/>
<path d="M553.911 489.316C552.365 487.856 550.281 486.961 547.987 486.961C543.223 486.961 539.361 490.823 539.361 495.587C539.361 500.352 543.223 504.214 547.987 504.214C549.943 504.214 551.746 503.563 553.193 502.467L555.668 499.871" stroke="#838C94"/>
<path d="M556.508 545.297C556.508 550.062 552.762 554.933 547.998 554.933C543.234 554.933 539.372 551.07 539.372 546.306C539.372 541.542 543.234 537.68 547.998 537.68C550.876 537.68 554.09 539.727 555.657 541.893" stroke="#838C94"/>
<path d="M543.612 601.515C541.735 599.932 539.36 596.938 539.36 594.29C539.36 589.526 543.223 585.664 547.987 585.664C552.751 585.664 556.613 589.526 556.613 594.29C556.613 596.709 555.618 598.895 554.015 600.461L552.581 601.515" stroke="#838C94"/>
<path d="M359.088 349.254C359.087 248.806 359.086 192.488 359.085 92.0402M819.743 911.017C820.652 810.562 821.161 754.241 822.07 653.786M506.33 353.249C506.33 251.027 506.33 193.715 506.33 91.4921M1397.48 523.976L1397.48 344.214M509.785 989.006C509.443 908.322 509.252 863.085 508.91 782.401M645.902 935.247C645.902 880.355 645.902 849.58 645.902 794.688M1263.24 903.885L1263.23 610.664M90.3701 403.433C172.234 403.433 218.133 403.433 299.997 403.433M142.505 596.952C254.58 596.452 317.416 596.171 429.49 595.671M1778.12 542.859L1778.12 239.036M2114.41 841.618L2114.41 582.525M1972.27 528.036L1972.27 255.935M2216.36 446.113L2216.36 169.667" stroke="#838C94" stroke-dasharray="10 10"/>
<path d="M1268.81 996.556C1266.67 998.694 1263.21 998.694 1261.07 996.556L1230.34 965.826C1228.2 963.688 1228.2 960.221 1230.34 958.083L1261.07 927.353C1263.21 925.216 1266.67 925.216 1268.81 927.353L1299.54 958.083C1301.68 960.221 1301.68 963.688 1299.54 965.826L1268.81 996.556Z" fill="#20262B" stroke="#838C94"/>
<path d="M2119.16 926.79C2117.02 928.928 2113.56 928.928 2111.42 926.79L2080.69 896.06C2078.55 893.922 2078.55 890.456 2080.69 888.318L2111.42 857.588C2113.56 855.45 2117.02 855.45 2119.16 857.588L2149.89 888.318C2152.03 890.456 2152.03 893.922 2149.89 896.06L2119.16 926.79Z" fill="#20262B" stroke="#838C94"/>
<path d="M2221.1 155.165C2218.96 157.303 2215.5 157.303 2213.36 155.165L2182.63 124.435C2180.49 122.297 2180.49 118.831 2182.63 116.693L2213.36 85.9629C2215.5 83.8249 2218.96 83.8249 2221.1 85.9629L2251.83 116.693C2253.97 118.831 2253.97 122.297 2251.83 124.435L2221.1 155.165Z" fill="#20262B" stroke="#838C94"/>
<path d="M1976.25 244.564C1974.11 246.702 1970.64 246.702 1968.51 244.564L1937.78 213.834C1935.64 211.696 1935.64 208.229 1937.78 206.091L1968.51 175.361C1970.64 173.223 1974.11 173.223 1976.25 175.361L2006.98 206.091C2009.12 208.229 2009.12 211.696 2006.98 213.834L1976.25 244.564Z" fill="#20262B" stroke="#838C94"/>
<path d="M1782.87 225.149C1780.74 227.287 1777.27 227.287 1775.13 225.149L1744.4 194.419C1742.26 192.281 1742.26 188.815 1744.4 186.677L1775.13 155.947C1777.27 153.809 1780.74 153.809 1782.87 155.947L1813.6 186.677C1815.74 188.815 1815.74 192.282 1813.6 194.42L1782.87 225.149Z" fill="#20262B" stroke="#838C94"/>
<path d="M1402.23 329.478C1400.09 331.616 1396.62 331.616 1394.48 329.478L1363.75 298.748C1361.61 296.61 1361.61 293.143 1363.75 291.005L1394.48 260.275C1396.62 258.137 1400.09 258.137 1402.23 260.275L1432.96 291.005C1435.09 293.143 1435.09 296.61 1432.96 298.748L1402.23 329.478Z" fill="#20262B" stroke="#838C94"/>
<path d="M511.077 71.8761C508.939 74.014 505.472 74.014 503.334 71.8761L472.604 41.1461C470.466 39.0081 470.466 35.5417 472.604 33.4038L503.334 2.67379C505.472 0.535815 508.939 0.535817 511.077 2.6738L541.807 33.4038C543.945 35.5418 543.945 39.0081 541.807 41.1461L511.077 71.8761Z" fill="#20262B" stroke="#838C94"/>
<path d="M363.835 71.8761C361.697 74.014 358.23 74.014 356.092 71.8761L325.362 41.1461C323.224 39.0081 323.224 35.5417 325.362 33.4038L356.092 2.67379C358.23 0.535815 361.697 0.535817 363.835 2.6738L394.564 33.4038C396.702 35.5418 396.702 39.0081 394.564 41.1461L363.835 71.8761Z" fill="#20262B" stroke="#838C94"/>
<path d="M41.0376 436.399C38.8996 438.537 35.4332 438.537 33.2953 436.399L2.56553 405.67C0.42755 403.532 0.42755 400.065 2.56554 397.927L33.2953 367.197C35.4333 365.059 38.8997 365.059 41.0376 367.197L71.7676 397.927C73.9056 400.065 73.9056 403.532 71.7676 405.67L41.0376 436.399Z" fill="#20262B" stroke="#838C94"/>
<path d="M93.1704 629.923C91.0325 632.061 87.5663 632.061 85.4283 629.923L54.6983 599.193C52.5604 597.055 52.5604 593.589 54.6983 591.451L85.4283 560.721C87.5663 558.583 91.0325 558.583 93.1704 560.721L123.9 591.451C126.038 593.589 126.038 597.055 123.9 599.193L93.1704 629.923Z" fill="#20262B" stroke="#838C94"/>
<path d="M514.53 1078.46C512.392 1080.6 508.926 1080.6 506.788 1078.46L476.058 1047.73C473.92 1045.59 473.92 1042.13 476.058 1039.99L506.788 1009.26C508.926 1007.12 512.392 1007.12 514.53 1009.26L545.26 1039.99C547.398 1042.13 547.398 1045.59 545.26 1047.73L514.53 1078.46Z" fill="#20262B" stroke="#838C94"/>
<path d="M650.256 1023.88C648.119 1026.02 644.652 1026.02 642.514 1023.88L611.784 993.154C609.646 991.016 609.646 987.55 611.784 985.412L642.514 954.682C644.652 952.544 648.119 952.544 650.257 954.682L680.986 985.412C683.124 987.55 683.124 991.016 680.986 993.154L650.256 1023.88Z" fill="#20262B" stroke="#838C94"/>
<path d="M824.491 990.939C822.353 993.077 818.886 993.077 816.748 990.939L786.019 960.209C783.881 958.071 783.881 954.604 786.019 952.466L816.748 921.736C818.886 919.598 822.353 919.598 824.491 921.736L855.221 952.466C857.359 954.604 857.359 958.071 855.221 960.209L824.491 990.939Z" fill="#20262B" stroke="#838C94"/>
<path d="M1257.24 948.78C1258.63 947.58 1260.43 946.98 1262.64 946.98C1264.85 946.98 1266.64 947.567 1268 948.74C1269.36 949.913 1270.04 951.553 1270.04 953.66C1270.04 956.033 1268.44 958.18 1265.24 960.1C1266.89 960.873 1268.36 961.953 1269.64 963.34C1270.92 964.7 1271.56 966.393 1271.56 968.42C1271.56 970.447 1270.67 972.207 1268.88 973.7C1267.12 975.167 1265.09 975.9 1262.8 975.9C1260.53 975.9 1258.49 975.207 1256.68 973.82C1254.89 972.433 1254 970.753 1254 968.78C1254 966.807 1254.57 965.1 1255.72 963.66C1256.87 962.22 1258.19 961.153 1259.68 960.46C1258.61 959.82 1257.6 958.9 1256.64 957.7C1255.68 956.473 1255.2 955.153 1255.2 953.74C1255.2 951.633 1255.88 949.98 1257.24 948.78ZM1262.96 973.82C1264.51 973.82 1265.76 973.34 1266.72 972.38C1267.71 971.42 1268.2 970.14 1268.2 968.54C1268.2 966.913 1267.69 965.593 1266.68 964.58C1265.69 963.54 1264.03 962.62 1261.68 961.82C1260.19 962.567 1259.09 963.46 1258.4 964.5C1257.71 965.54 1257.36 966.873 1257.36 968.5C1257.36 970.1 1257.91 971.393 1259 972.38C1260.12 973.34 1261.44 973.82 1262.96 973.82ZM1262.52 949.06C1261.37 949.06 1260.43 949.393 1259.68 950.06C1258.93 950.727 1258.56 951.687 1258.56 952.94C1258.56 954.193 1258.96 955.393 1259.76 956.54C1260.56 957.687 1261.69 958.487 1263.16 958.94C1265.51 957.607 1266.68 955.527 1266.68 952.7C1266.68 951.607 1266.27 950.727 1265.44 950.06C1264.64 949.393 1263.67 949.06 1262.52 949.06ZM1280.08 973.34C1280.08 974.007 1279.87 974.54 1279.44 974.94C1279.02 975.313 1278.46 975.5 1277.76 975.5C1277.1 975.5 1276.56 975.287 1276.16 974.86C1275.76 974.433 1275.56 973.9 1275.56 973.26C1275.56 972.593 1275.76 972.047 1276.16 971.62C1276.56 971.167 1277.08 970.94 1277.72 970.94C1278.36 970.94 1278.91 971.167 1279.36 971.62C1279.84 972.073 1280.08 972.647 1280.08 973.34Z" fill="white"/>
<path d="M815.337 943.363C813.844 943.363 812.697 944.016 811.897 945.323C811.124 946.603 810.737 948.269 810.737 950.323C810.737 952.376 811.217 954.003 812.177 955.203C813.137 956.403 814.231 957.003 815.457 957.003C816.684 957.003 817.777 956.616 818.737 955.843C819.697 955.069 820.431 954.163 820.937 953.123C820.884 946.616 819.017 943.363 815.337 943.363ZM811.497 967.123C811.497 967.576 811.777 967.936 812.337 968.203C812.924 968.443 813.631 968.563 814.457 968.563C818.804 968.563 820.977 964.336 820.977 955.883C819.377 957.803 817.191 958.763 814.417 958.763C812.497 958.763 810.844 957.936 809.457 956.283C808.097 954.603 807.417 952.643 807.417 950.403C807.417 948.136 808.137 946.069 809.577 944.203C811.044 942.309 812.991 941.363 815.417 941.363C818.831 941.363 821.191 942.603 822.497 945.083C823.644 947.349 824.217 950.349 824.217 954.083C824.217 958.136 823.577 961.749 822.297 964.923C821.631 966.549 820.644 967.856 819.337 968.843C818.057 969.803 816.564 970.283 814.857 970.283C813.151 970.283 811.697 969.936 810.497 969.243C809.324 968.549 808.737 967.523 808.737 966.163C808.737 965.496 808.897 964.976 809.217 964.603C809.537 964.203 809.964 964.003 810.497 964.003C811.804 964.003 812.457 964.456 812.457 965.363C812.457 965.736 812.297 966.109 811.977 966.483C811.657 966.829 811.497 967.043 811.497 967.123ZM833.116 967.723C833.116 968.389 832.902 968.923 832.476 969.323C832.049 969.696 831.489 969.883 830.796 969.883C830.129 969.883 829.596 969.669 829.196 969.243C828.796 968.816 828.596 968.283 828.596 967.643C828.596 966.976 828.796 966.429 829.196 966.003C829.596 965.549 830.116 965.323 830.756 965.323C831.396 965.323 831.942 965.549 832.396 966.003C832.876 966.456 833.116 967.029 833.116 967.723Z" fill="white"/>
<path d="M632.784 1002.51L625.264 1002.83C625.157 1002.75 625.104 1002.52 625.104 1002.15C625.104 1001.77 625.21 1001.52 625.424 1001.39C627.37 1001.39 628.744 1001.15 629.544 1000.67C630.37 1000.19 630.797 999.215 630.824 997.748L630.944 982.388C630.97 980.815 630.584 979.841 629.784 979.468C628.984 979.095 627.304 978.908 624.744 978.908C624.664 978.828 624.624 978.615 624.624 978.268C624.624 977.895 624.717 977.628 624.904 977.468C628.317 977.255 630.757 976.335 632.224 974.708C632.33 974.601 632.557 974.548 632.904 974.548C633.25 974.548 633.504 974.601 633.664 974.708L634.504 997.748C634.557 999.241 634.97 1000.23 635.744 1000.71C636.544 1001.16 637.904 1001.39 639.824 1001.39C640.037 1001.55 640.144 1001.8 640.144 1002.15C640.144 1002.49 640.09 1002.72 639.984 1002.83L632.784 1002.51ZM642.858 994.308C642.538 992.628 642.378 990.788 642.378 988.788C642.378 986.788 642.538 984.948 642.858 983.268C643.204 981.588 643.724 980.055 644.418 978.668C645.138 977.281 646.124 976.201 647.378 975.428C648.658 974.655 650.151 974.268 651.858 974.268C653.564 974.268 655.044 974.655 656.298 975.428C657.578 976.201 658.564 977.281 659.258 978.668C659.978 980.055 660.498 981.588 660.818 983.268C661.164 984.948 661.338 986.788 661.338 988.788C661.338 990.788 661.164 992.628 660.818 994.308C660.498 995.988 659.978 997.508 659.258 998.868C658.564 1000.23 657.578 1001.29 656.298 1002.07C655.044 1002.84 653.564 1003.23 651.858 1003.23C650.151 1003.23 648.658 1002.84 647.378 1002.07C646.124 1001.29 645.138 1000.23 644.418 998.868C643.724 997.508 643.204 995.988 642.858 994.308ZM645.738 988.788C645.738 992.095 646.271 994.988 647.338 997.468C648.404 999.921 649.911 1001.15 651.858 1001.15C653.164 1001.15 654.298 1000.53 655.258 999.308C657.071 996.961 657.978 993.455 657.978 988.788C657.978 984.201 657.071 980.695 655.258 978.268C654.298 976.988 653.164 976.348 651.858 976.348C650.551 976.348 649.418 976.988 648.458 978.268C646.644 980.721 645.738 984.228 645.738 988.788ZM670.213 1000.67C670.213 1001.33 670 1001.87 669.573 1002.27C669.147 1002.64 668.587 1002.83 667.893 1002.83C667.227 1002.83 666.693 1002.61 666.293 1002.19C665.893 1001.76 665.693 1001.23 665.693 1000.59C665.693 999.921 665.893 999.375 666.293 998.948C666.693 998.495 667.213 998.268 667.853 998.268C668.493 998.268 669.04 998.495 669.493 998.948C669.973 999.401 670.213 999.975 670.213 1000.67Z" fill="white"/>
<path d="M498.756 1057.09L491.236 1057.41C491.13 1057.33 491.076 1057.1 491.076 1056.73C491.076 1056.35 491.183 1056.1 491.396 1055.97C493.343 1055.97 494.716 1055.73 495.516 1055.25C496.343 1054.77 496.77 1053.79 496.796 1052.33L496.916 1036.97C496.943 1035.39 496.556 1034.42 495.756 1034.05C494.956 1033.67 493.276 1033.49 490.716 1033.49C490.636 1033.41 490.596 1033.19 490.596 1032.85C490.596 1032.47 490.69 1032.21 490.876 1032.05C494.29 1031.83 496.73 1030.91 498.196 1029.29C498.303 1029.18 498.53 1029.13 498.876 1029.13C499.223 1029.13 499.476 1029.18 499.636 1029.29L500.476 1052.33C500.53 1053.82 500.943 1054.81 501.716 1055.29C502.516 1055.74 503.876 1055.97 505.796 1055.97C506.01 1056.13 506.116 1056.38 506.116 1056.73C506.116 1057.07 506.063 1057.3 505.956 1057.41L498.756 1057.09ZM515.67 1057.09L508.15 1057.41C508.044 1057.33 507.99 1057.1 507.99 1056.73C507.99 1056.35 508.097 1056.1 508.31 1055.97C510.257 1055.97 511.63 1055.73 512.43 1055.25C513.257 1054.77 513.684 1053.79 513.71 1052.33L513.83 1036.97C513.857 1035.39 513.47 1034.42 512.67 1034.05C511.87 1033.67 510.19 1033.49 507.63 1033.49C507.55 1033.41 507.51 1033.19 507.51 1032.85C507.51 1032.47 507.604 1032.21 507.79 1032.05C511.204 1031.83 513.644 1030.91 515.11 1029.29C515.217 1029.18 515.444 1029.13 515.79 1029.13C516.137 1029.13 516.39 1029.18 516.55 1029.29L517.39 1052.33C517.444 1053.82 517.857 1054.81 518.63 1055.29C519.43 1055.74 520.79 1055.97 522.71 1055.97C522.924 1056.13 523.03 1056.38 523.03 1056.73C523.03 1057.07 522.977 1057.3 522.87 1057.41L515.67 1057.09ZM529.584 1055.25C529.584 1055.91 529.371 1056.45 528.944 1056.85C528.518 1057.22 527.958 1057.41 527.264 1057.41C526.598 1057.41 526.064 1057.19 525.664 1056.77C525.264 1056.34 525.064 1055.81 525.064 1055.17C525.064 1054.5 525.264 1053.95 525.664 1053.53C526.064 1053.07 526.584 1052.85 527.224 1052.85C527.864 1052.85 528.411 1053.07 528.864 1053.53C529.344 1053.98 529.584 1054.55 529.584 1055.25Z" fill="white"/>
<path d="M77.2047 607.587L70.6247 607.867C70.5314 607.797 70.4847 607.599 70.4847 607.272C70.4847 606.946 70.578 606.724 70.7647 606.607C72.468 606.607 73.6697 606.397 74.3697 605.977C75.093 605.557 75.4664 604.706 75.4897 603.422L75.5947 589.982C75.618 588.606 75.2797 587.754 74.5797 587.427C73.8797 587.101 72.4097 586.937 70.1697 586.937C70.0997 586.867 70.0647 586.681 70.0647 586.377C70.0647 586.051 70.1464 585.817 70.3097 585.677C73.2964 585.491 75.4314 584.686 76.7147 583.262C76.808 583.169 77.0064 583.122 77.3097 583.122C77.613 583.122 77.8347 583.169 77.9747 583.262L78.7097 603.422C78.7564 604.729 79.118 605.592 79.7947 606.012C80.4947 606.409 81.6847 606.607 83.3647 606.607C83.5514 606.747 83.6447 606.969 83.6447 607.272C83.6447 607.576 83.598 607.774 83.5047 607.867L77.2047 607.587ZM84.8995 607.867C84.7828 607.844 84.7245 607.727 84.7245 607.517C84.7245 607.027 84.8178 606.479 85.0045 605.872C85.2145 605.266 85.7162 604.461 86.5095 603.457C87.3262 602.431 88.2362 601.346 89.2395 600.202C90.2428 599.059 91.2345 597.869 92.2145 596.632C93.2178 595.372 94.0462 594.054 94.6995 592.677C95.3762 591.301 95.7145 589.982 95.7145 588.722C95.7145 587.439 95.3178 586.459 94.5245 585.782C93.7545 585.082 92.8328 584.732 91.7595 584.732C90.6862 584.732 89.8228 584.884 89.1695 585.187C88.5162 585.491 88.1895 585.887 88.1895 586.377C88.1895 586.517 88.3295 586.751 88.6095 587.077C88.8895 587.381 89.0295 587.719 89.0295 588.092C89.0295 588.886 88.4578 589.282 87.3145 589.282C86.7778 589.282 86.3578 589.131 86.0545 588.827C85.7512 588.524 85.5995 588.104 85.5995 587.567C85.5995 586.564 85.9378 585.701 86.6145 584.977C87.8978 583.601 89.7762 582.912 92.2495 582.912C94.0928 582.912 95.6328 583.391 96.8695 584.347C98.1062 585.304 98.7245 586.739 98.7245 588.652C98.7245 590.099 98.3162 591.604 97.4995 593.167C96.5428 595.011 95.6212 596.527 94.7345 597.717C93.8478 598.907 93.1712 599.794 92.7045 600.377C92.2612 600.937 91.5612 601.801 90.6045 602.967C89.6712 604.134 89.0645 604.881 88.7845 605.207C88.5278 605.534 88.3995 605.791 88.3995 605.977C88.3995 606.001 88.9012 606.012 89.9045 606.012H92.3895C93.4862 606.012 94.3028 606.012 94.8395 606.012C95.3995 605.989 95.9478 605.907 96.4845 605.767C97.0445 605.627 97.4178 605.476 97.6045 605.312C97.8145 605.149 98.0128 604.857 98.1995 604.437C98.3862 603.994 98.5028 603.539 98.5495 603.072C98.5962 602.582 98.6312 601.894 98.6545 601.007C98.7245 600.937 98.9345 600.902 99.2845 600.902C99.6578 600.902 100.031 601.054 100.404 601.357L99.3895 608.217C97.5462 608.007 94.7928 607.902 91.1295 607.902L84.8995 607.867ZM107.495 605.977C107.495 606.561 107.308 607.027 106.935 607.377C106.561 607.704 106.071 607.867 105.465 607.867C104.881 607.867 104.415 607.681 104.065 607.307C103.715 606.934 103.54 606.467 103.54 605.907C103.54 605.324 103.715 604.846 104.065 604.472C104.415 604.076 104.87 603.877 105.43 603.877C105.99 603.877 106.468 604.076 106.865 604.472C107.285 604.869 107.495 605.371 107.495 605.977Z" fill="white"/>
<path d="M25.5719 414.064L18.9919 414.344C18.8985 414.274 18.8519 414.075 18.8519 413.749C18.8519 413.422 18.9452 413.2 19.1319 413.084C20.8352 413.084 22.0369 412.874 22.7369 412.454C23.4602 412.034 23.8335 411.182 23.8569 409.899L23.9619 396.459C23.9852 395.082 23.6469 394.23 22.9469 393.904C22.2469 393.577 20.7769 393.414 18.5369 393.414C18.4669 393.344 18.4319 393.157 18.4319 392.854C18.4319 392.527 18.5135 392.294 18.6769 392.154C21.6635 391.967 23.7985 391.162 25.0819 389.739C25.1752 389.645 25.3735 389.599 25.6769 389.599C25.9802 389.599 26.2019 389.645 26.3419 389.739L27.0769 409.899C27.1235 411.205 27.4852 412.069 28.1619 412.489C28.8619 412.885 30.0519 413.084 31.7319 413.084C31.9185 413.224 32.0119 413.445 32.0119 413.749C32.0119 414.052 31.9652 414.25 31.8719 414.344L25.5719 414.064ZM37.2567 402.374C37.1633 402.374 37.035 402.21 36.8717 401.884C36.7083 401.557 36.6267 401.324 36.6267 401.184C36.6267 401.044 36.6383 400.962 36.6617 400.939C38.4817 400.425 39.9867 399.69 41.1767 398.734C42.3667 397.777 42.9617 396.645 42.9617 395.339C42.9617 394.009 42.635 392.994 41.9817 392.294C41.3517 391.57 40.5583 391.209 39.6017 391.209C38.6683 391.209 37.8983 391.384 37.2917 391.734C36.7083 392.06 36.4167 392.445 36.4167 392.889C36.4167 393.099 36.545 393.355 36.8017 393.659C37.0817 393.962 37.2217 394.347 37.2217 394.814C37.2217 395.607 36.65 396.004 35.5067 396.004C34.97 396.004 34.55 395.852 34.2467 395.549C33.9433 395.245 33.7917 394.825 33.7917 394.289C33.7917 392.889 34.4333 391.722 35.7167 390.789C37.0233 389.855 38.4817 389.389 40.0917 389.389C41.7017 389.389 43.0667 389.925 44.1867 390.999C45.33 392.049 45.9017 393.484 45.9017 395.304C45.9017 396.61 45.435 397.719 44.5017 398.629C43.5683 399.515 42.4367 400.18 41.1067 400.624C42.8567 400.834 44.315 401.545 45.4817 402.759C46.6717 403.949 47.2667 405.5 47.2667 407.414C47.2667 409.304 46.4733 410.995 44.8867 412.489C43.3233 413.959 41.5033 414.694 39.4267 414.694C37.9567 414.694 36.6267 414.332 35.4367 413.609C34.27 412.862 33.6867 411.789 33.6867 410.389C33.6867 409.852 33.8383 409.432 34.1417 409.129C34.4683 408.825 34.8883 408.674 35.4017 408.674C36.545 408.674 37.1167 409.07 37.1167 409.864C37.1167 410.237 36.9767 410.587 36.6967 410.914C36.4167 411.217 36.2767 411.439 36.2767 411.579C36.2767 411.952 36.6033 412.279 37.2567 412.559C37.9333 412.815 38.5983 412.944 39.2517 412.944C40.7683 412.944 41.9933 412.43 42.9267 411.404C43.86 410.377 44.3267 409.047 44.3267 407.414C44.3267 405.757 43.9067 404.392 43.0667 403.319C42.25 402.222 41.1883 401.674 39.8817 401.674C39.0183 401.674 38.155 401.907 37.2917 402.374H37.2567ZM54.7682 412.454C54.7682 413.037 54.5815 413.504 54.2082 413.854C53.8348 414.18 53.3448 414.344 52.7382 414.344C52.1548 414.344 51.6882 414.157 51.3382 413.784C50.9882 413.41 50.8132 412.944 50.8132 412.384C50.8132 411.8 50.9882 411.322 51.3382 410.949C51.6882 410.552 52.1432 410.354 52.7032 410.354C53.2632 410.354 53.7415 410.552 54.1382 410.949C54.5582 411.345 54.7682 411.847 54.7682 412.454Z" fill="white"/>
<path d="M359.565 49.5003L352.045 49.8203C351.938 49.7403 351.885 49.5136 351.885 49.1403C351.885 48.767 351.992 48.5136 352.205 48.3803C354.152 48.3803 355.525 48.1403 356.325 47.6603C357.152 47.1803 357.578 46.207 357.605 44.7403L357.725 29.3803C357.752 27.807 357.365 26.8336 356.565 26.4603C355.765 26.087 354.085 25.9003 351.525 25.9003C351.445 25.8203 351.405 25.607 351.405 25.2603C351.405 24.887 351.498 24.6203 351.685 24.4603C355.098 24.247 357.538 23.327 359.005 21.7003C359.112 21.5936 359.338 21.5403 359.685 21.5403C360.032 21.5403 360.285 21.5936 360.445 21.7003L361.285 44.7403C361.338 46.2336 361.752 47.2203 362.525 47.7003C363.325 48.1536 364.685 48.3803 366.605 48.3803C366.818 48.5403 366.925 48.7936 366.925 49.1403C366.925 49.487 366.872 49.7136 366.765 49.8203L359.565 49.5003ZM373.479 47.6603C373.479 48.327 373.266 48.8603 372.839 49.2603C372.412 49.6336 371.852 49.8203 371.159 49.8203C370.492 49.8203 369.959 49.607 369.559 49.1803C369.159 48.7536 368.959 48.2203 368.959 47.5803C368.959 46.9136 369.159 46.367 369.559 45.9403C369.959 45.487 370.479 45.2603 371.119 45.2603C371.759 45.2603 372.306 45.487 372.759 45.9403C373.239 46.3936 373.479 46.967 373.479 47.6603Z" fill="white"/>
<path d="M497.746 49C497.612 48.9733 497.546 48.84 497.546 48.6C497.546 48.04 497.652 47.4133 497.866 46.72C498.106 46.0267 498.679 45.1067 499.586 43.96C500.519 42.7867 501.559 41.5467 502.706 40.24C503.852 38.9333 504.986 37.5733 506.106 36.16C507.252 34.72 508.199 33.2133 508.946 31.64C509.719 30.0667 510.106 28.56 510.106 27.12C510.106 25.6533 509.652 24.5333 508.746 23.76C507.866 22.96 506.812 22.56 505.586 22.56C504.359 22.56 503.372 22.7333 502.626 23.08C501.879 23.4267 501.506 23.88 501.506 24.44C501.506 24.6 501.666 24.8667 501.986 25.24C502.306 25.5867 502.466 25.9733 502.466 26.4C502.466 27.3067 501.812 27.76 500.506 27.76C499.892 27.76 499.412 27.5867 499.066 27.24C498.719 26.8933 498.546 26.4133 498.546 25.8C498.546 24.6533 498.932 23.6667 499.706 22.84C501.172 21.2667 503.319 20.48 506.146 20.48C508.252 20.48 510.012 21.0267 511.426 22.12C512.839 23.2133 513.546 24.8533 513.546 27.04C513.546 28.6933 513.079 30.4133 512.146 32.2C511.052 34.3067 509.999 36.04 508.986 37.4C507.972 38.76 507.199 39.7733 506.666 40.44C506.159 41.08 505.359 42.0667 504.266 43.4C503.199 44.7333 502.506 45.5867 502.186 45.96C501.892 46.3333 501.746 46.6267 501.746 46.84C501.746 46.8667 502.319 46.88 503.466 46.88H506.306C507.559 46.88 508.492 46.88 509.106 46.88C509.746 46.8533 510.372 46.76 510.986 46.6C511.626 46.44 512.052 46.2667 512.266 46.08C512.506 45.8933 512.732 45.56 512.946 45.08C513.159 44.5733 513.292 44.0533 513.346 43.52C513.399 42.96 513.439 42.1733 513.466 41.16C513.546 41.08 513.786 41.04 514.186 41.04C514.612 41.04 515.039 41.2133 515.466 41.56L514.306 49.4C512.199 49.16 509.052 49.04 504.866 49.04L497.746 49ZM523.569 46.84C523.569 47.5067 523.355 48.04 522.929 48.44C522.502 48.8133 521.942 49 521.249 49C520.582 49 520.049 48.7867 519.649 48.36C519.249 47.9333 519.049 47.4 519.049 46.76C519.049 46.0933 519.249 45.5467 519.649 45.12C520.049 44.6667 520.569 44.44 521.209 44.44C521.849 44.44 522.395 44.6667 522.849 45.12C523.329 45.5733 523.569 46.1467 523.569 46.84Z" fill="white"/>
<path d="M1391.14 295.452C1391.05 295.452 1390.92 295.289 1390.76 294.962C1390.59 294.635 1390.51 294.402 1390.51 294.262C1390.51 294.122 1390.52 294.04 1390.55 294.017C1392.37 293.504 1393.87 292.769 1395.06 291.812C1396.25 290.855 1396.85 289.724 1396.85 288.417C1396.85 287.087 1396.52 286.072 1395.87 285.372C1395.24 284.649 1394.44 284.287 1393.49 284.287C1392.55 284.287 1391.78 284.462 1391.18 284.812C1390.59 285.139 1390.3 285.524 1390.3 285.967C1390.3 286.177 1390.43 286.434 1390.69 286.737C1390.97 287.04 1391.11 287.425 1391.11 287.892C1391.11 288.685 1390.53 289.082 1389.39 289.082C1388.85 289.082 1388.43 288.93 1388.13 288.627C1387.83 288.324 1387.68 287.904 1387.68 287.367C1387.68 285.967 1388.32 284.8 1389.6 283.867C1390.91 282.934 1392.37 282.467 1393.98 282.467C1395.59 282.467 1396.95 283.004 1398.07 284.077C1399.21 285.127 1399.79 286.562 1399.79 288.382C1399.79 289.689 1399.32 290.797 1398.39 291.707C1397.45 292.594 1396.32 293.259 1394.99 293.702C1396.74 293.912 1398.2 294.624 1399.37 295.837C1400.56 297.027 1401.15 298.579 1401.15 300.492C1401.15 302.382 1400.36 304.074 1398.77 305.567C1397.21 307.037 1395.39 307.772 1393.31 307.772C1391.84 307.772 1390.51 307.41 1389.32 306.687C1388.15 305.94 1387.57 304.867 1387.57 303.467C1387.57 302.93 1387.72 302.51 1388.03 302.207C1388.35 301.904 1388.77 301.752 1389.29 301.752C1390.43 301.752 1391 302.149 1391 302.942C1391 303.315 1390.86 303.665 1390.58 303.992C1390.3 304.295 1390.16 304.517 1390.16 304.657C1390.16 305.03 1390.49 305.357 1391.14 305.637C1391.82 305.894 1392.48 306.022 1393.14 306.022C1394.65 306.022 1395.88 305.509 1396.81 304.482C1397.74 303.455 1398.21 302.125 1398.21 300.492C1398.21 298.835 1397.79 297.47 1396.95 296.397C1396.13 295.3 1395.07 294.752 1393.77 294.752C1392.9 294.752 1392.04 294.985 1391.18 295.452H1391.14ZM1408.65 305.532C1408.65 306.115 1408.47 306.582 1408.09 306.932C1407.72 307.259 1407.23 307.422 1406.62 307.422C1406.04 307.422 1405.57 307.235 1405.22 306.862C1404.87 306.489 1404.7 306.022 1404.7 305.462C1404.7 304.879 1404.87 304.4 1405.22 304.027C1405.57 303.63 1406.03 303.432 1406.59 303.432C1407.15 303.432 1407.63 303.63 1408.02 304.027C1408.44 304.424 1408.65 304.925 1408.65 305.532Z" fill="white"/>
<path d="M1778.64 201.934L1773.56 202.094C1773.48 202.014 1773.44 201.8 1773.44 201.454C1773.44 201.08 1773.52 200.814 1773.68 200.654C1774.75 200.654 1775.52 200.507 1776 200.214C1776.48 199.894 1776.74 199.36 1776.76 198.614L1776.68 194.374H1765.52C1765.39 194.294 1765.32 193.947 1765.32 193.334C1765.32 192.694 1765.39 192.307 1765.52 192.174L1777.64 173.974C1777.75 173.867 1777.98 173.814 1778.32 173.814C1778.67 173.814 1778.92 173.867 1779.08 173.974L1779.72 192.174H1783.64C1783.78 192.574 1783.84 192.987 1783.84 193.414C1783.84 193.84 1783.74 194.16 1783.52 194.374H1779.8L1779.96 198.614C1779.99 199.36 1780.23 199.894 1780.68 200.214C1781.16 200.507 1781.94 200.654 1783 200.654C1783.14 200.787 1783.2 201.054 1783.2 201.454C1783.2 201.827 1783.18 202.04 1783.12 202.094L1778.64 201.934ZM1776.76 178.414C1771.38 187.507 1768.68 192.08 1768.68 192.134C1768.68 192.16 1768.72 192.174 1768.8 192.174H1776.4C1776.59 192.174 1776.68 192.08 1776.68 191.894L1776.96 178.454C1776.96 178.374 1776.94 178.334 1776.88 178.334C1776.83 178.334 1776.79 178.36 1776.76 178.414ZM1791.6 199.934C1791.6 200.6 1791.38 201.134 1790.96 201.534C1790.53 201.907 1789.97 202.094 1789.28 202.094C1788.61 202.094 1788.08 201.88 1787.68 201.454C1787.28 201.027 1787.08 200.494 1787.08 199.854C1787.08 199.187 1787.28 198.64 1787.68 198.214C1788.08 197.76 1788.6 197.534 1789.24 197.534C1789.88 197.534 1790.42 197.76 1790.88 198.214C1791.36 198.667 1791.6 199.24 1791.6 199.934Z" fill="white"/>
<path d="M1965.94 208.108C1965.01 208.108 1964.15 208.254 1963.38 208.548C1962.63 208.814 1962.25 208.948 1962.22 208.948C1962.09 208.948 1961.94 208.734 1961.78 208.308C1961.62 207.881 1961.54 207.508 1961.54 207.188L1961.86 196.108C1961.86 195.628 1962.1 195.388 1962.58 195.388H1968.86C1970.19 195.388 1971.09 195.281 1971.54 195.068C1971.99 194.828 1972.39 194.228 1972.74 193.268C1972.79 193.214 1972.98 193.188 1973.3 193.188C1973.65 193.188 1973.94 193.281 1974.18 193.468L1972.82 197.588H1964.54C1964.25 197.588 1964.1 197.814 1964.1 198.268L1963.5 206.628C1964.57 206.388 1965.51 206.268 1966.34 206.268C1968.98 206.268 1971.15 207.081 1972.86 208.708C1974.57 210.308 1975.42 212.214 1975.42 214.428C1975.42 217.094 1974.65 219.348 1973.1 221.188C1971.58 223.001 1969.46 223.908 1966.74 223.908C1965.09 223.908 1963.58 223.481 1962.22 222.628C1960.89 221.774 1960.22 220.561 1960.22 218.988C1960.22 218.374 1960.39 217.894 1960.74 217.548C1961.09 217.201 1961.57 217.028 1962.18 217.028C1963.49 217.028 1964.14 217.481 1964.14 218.388C1964.14 218.814 1963.98 219.214 1963.66 219.588C1963.34 219.934 1963.18 220.188 1963.18 220.348C1963.18 220.774 1963.55 221.148 1964.3 221.468C1965.07 221.761 1965.82 221.908 1966.54 221.908C1968.27 221.908 1969.63 221.228 1970.62 219.868C1971.61 218.481 1972.1 216.788 1972.1 214.788C1972.1 212.761 1971.53 211.148 1970.38 209.948C1969.23 208.721 1967.75 208.108 1965.94 208.108ZM1983.57 221.348C1983.57 222.014 1983.36 222.548 1982.93 222.948C1982.51 223.321 1981.95 223.508 1981.25 223.508C1980.59 223.508 1980.05 223.294 1979.65 222.868C1979.25 222.441 1979.05 221.908 1979.05 221.268C1979.05 220.601 1979.25 220.054 1979.65 219.628C1980.05 219.174 1980.57 218.948 1981.21 218.948C1981.85 218.948 1982.4 219.174 1982.85 219.628C1983.33 220.081 1983.57 220.654 1983.57 221.348Z" fill="white"/>
<path d="M2213.13 132.509C2214.76 132.509 2216 131.829 2216.85 130.469C2217.7 129.083 2218.13 127.363 2218.13 125.309C2218.13 123.229 2217.57 121.603 2216.45 120.429C2215.33 119.256 2214.1 118.669 2212.77 118.669C2211.44 118.669 2210.29 119.083 2209.33 119.909C2208.37 120.709 2207.64 121.656 2207.13 122.749C2207.18 129.256 2209.18 132.509 2213.13 132.509ZM2217.17 108.749C2217.17 108.296 2216.89 107.949 2216.33 107.709C2215.8 107.443 2215.16 107.309 2214.41 107.309C2211.9 107.309 2209.96 108.896 2208.57 112.069C2208.28 112.763 2208 113.776 2207.73 115.109C2207.49 116.416 2207.28 118.043 2207.09 119.989C2208.69 117.936 2210.88 116.909 2213.65 116.909C2215.78 116.909 2217.61 117.776 2219.13 119.509C2220.68 121.243 2221.45 123.229 2221.45 125.469C2221.45 128.243 2220.68 130.443 2219.13 132.069C2217.61 133.696 2215.52 134.509 2212.85 134.509C2210.21 134.509 2208.05 133.389 2206.37 131.149C2204.69 128.883 2203.85 126.256 2203.85 123.269C2203.85 120.256 2204.22 117.416 2204.97 114.749C2205.74 112.083 2206.92 109.896 2208.49 108.189C2210.09 106.456 2211.88 105.589 2213.85 105.589C2215.82 105.589 2217.36 105.963 2218.45 106.709C2219.57 107.429 2220.13 108.496 2220.13 109.909C2220.13 110.523 2219.96 111.003 2219.61 111.349C2219.26 111.696 2218.78 111.869 2218.17 111.869C2216.86 111.869 2216.21 111.416 2216.21 110.509C2216.21 110.136 2216.37 109.776 2216.69 109.429C2217.01 109.056 2217.17 108.829 2217.17 108.749ZM2229.85 131.949C2229.85 132.616 2229.64 133.149 2229.21 133.549C2228.79 133.923 2228.23 134.109 2227.53 134.109C2226.87 134.109 2226.33 133.896 2225.93 133.469C2225.53 133.043 2225.33 132.509 2225.33 131.869C2225.33 131.203 2225.53 130.656 2225.93 130.229C2226.33 129.776 2226.85 129.549 2227.49 129.549C2228.13 129.549 2228.68 129.776 2229.13 130.229C2229.61 130.683 2229.85 131.256 2229.85 131.949Z" fill="white"/>
<path d="M2105.68 879.779C2108.72 880.083 2111.2 880.234 2113.14 880.234C2115.1 880.234 2117.06 880.199 2119.02 880.129C2119.2 880.339 2119.3 880.666 2119.3 881.109L2119.16 882.124L2111.11 904.734C2111.01 904.828 2110.47 904.874 2109.46 904.874C2108.46 904.874 2107.92 904.828 2107.85 904.734L2116.85 883.139L2116.88 882.579C2116.79 882.416 2116.45 882.334 2115.87 882.334H2108.27C2107.5 882.334 2106.9 882.533 2106.45 882.929C2106.01 883.326 2105.72 884.108 2105.58 885.274C2105.53 885.321 2105.33 885.344 2104.98 885.344C2104.66 885.344 2104.43 885.263 2104.32 885.099L2105.68 879.779ZM2124.06 902.844C2124.06 903.428 2123.87 903.894 2123.5 904.244C2123.13 904.571 2122.64 904.734 2122.03 904.734C2121.45 904.734 2120.98 904.548 2120.63 904.174C2120.28 903.801 2120.11 903.334 2120.11 902.774C2120.11 902.191 2120.28 901.713 2120.63 901.339C2120.98 900.943 2121.44 900.744 2122 900.744C2122.56 900.744 2123.03 900.943 2123.43 901.339C2123.85 901.736 2124.06 902.238 2124.06 902.844Z" fill="white"/>
<circle cx="359.258" cy="87.6875" r="5" fill="#838C94"/>
<circle cx="506.332" cy="87.6875" r="5" fill="#838C94"/>
<circle cx="506.078" cy="356.781" r="5" fill="#838C94"/>
<path d="M364.066 353.297C364.066 356.058 361.828 358.297 359.066 358.297C356.305 358.297 354.066 356.058 354.066 353.297C354.066 350.535 356.305 348.297 359.066 348.297C361.828 348.297 364.066 350.535 364.066 353.297Z" fill="#838C94"/>
<path d="M304.012 403.023C304.012 405.785 301.773 408.023 299.012 408.023C296.25 408.023 294.012 405.785 294.012 403.023C294.012 400.262 296.25 398.023 299.012 398.023C301.773 398.023 304.012 400.262 304.012 403.023Z" fill="#838C94"/>
<path d="M96.9844 403.117C96.9844 405.879 94.7458 408.117 91.9844 408.117C89.223 408.117 86.9844 405.879 86.9844 403.117C86.9844 400.356 89.223 398.117 91.9844 398.117C94.7458 398.117 96.9844 400.356 96.9844 403.117Z" fill="#838C94"/>
<path d="M151.418 596.594C151.418 599.355 149.179 601.594 146.418 601.594C143.657 601.594 141.418 599.355 141.418 596.594C141.418 593.832 143.657 591.594 146.418 591.594C149.179 591.594 151.418 593.832 151.418 596.594Z" fill="#838C94"/>
<path d="M430.926 595.125C430.926 597.886 428.687 600.125 425.926 600.125C423.164 600.125 420.926 597.886 420.926 595.125C420.926 592.364 423.164 590.125 425.926 590.125C428.687 590.125 430.926 592.364 430.926 595.125Z" fill="#838C94"/>
<path d="M513.965 784.234C513.965 786.996 511.726 789.234 508.965 789.234C506.203 789.234 503.965 786.996 503.965 784.234C503.965 781.473 506.203 779.234 508.965 779.234C511.726 779.234 513.965 781.473 513.965 784.234Z" fill="#838C94"/>
<path d="M513.965 988.32C513.965 991.082 511.726 993.32 508.965 993.32C506.203 993.32 503.965 991.082 503.965 988.32C503.965 985.559 506.203 983.32 508.965 983.32C511.726 983.32 513.965 985.559 513.965 988.32Z" fill="#838C94"/>
<path d="M651.449 930.875C651.449 933.636 649.211 935.875 646.449 935.875C643.688 935.875 641.449 933.636 641.449 930.875C641.449 928.114 643.688 925.875 646.449 925.875C649.211 925.875 651.449 928.114 651.449 930.875Z" fill="#838C94"/>
<path d="M651.449 796.062C651.449 798.824 649.211 801.062 646.449 801.062C643.688 801.062 641.449 798.824 641.449 796.062C641.449 793.301 643.688 791.062 646.449 791.062C649.211 791.062 651.449 793.301 651.449 796.062Z" fill="#838C94"/>
<path d="M825.684 907.336C825.684 910.097 823.445 912.336 820.684 912.336C817.922 912.336 815.684 910.097 815.684 907.336C815.684 904.575 817.922 902.336 820.684 902.336C823.445 902.336 825.684 904.575 825.684 907.336Z" fill="#838C94"/>
<path d="M825.684 655.867C825.684 658.629 823.445 660.867 820.684 660.867C817.922 660.867 815.684 658.629 815.684 655.867C815.684 653.106 817.922 650.867 820.684 650.867C823.445 650.867 825.684 653.106 825.684 655.867Z" fill="#838C94"/>
<path d="M1268.34 900.336C1268.34 903.097 1266.1 905.336 1263.34 905.336C1260.57 905.336 1258.34 903.097 1258.34 900.336C1258.34 897.575 1260.57 895.336 1263.34 895.336C1266.1 895.336 1268.34 897.575 1268.34 900.336Z" fill="#838C94"/>
<path d="M1268.34 612C1268.34 614.761 1266.1 617 1263.34 617C1260.57 617 1258.34 614.761 1258.34 612C1258.34 609.239 1260.57 607 1263.34 607C1266.1 607 1268.34 609.239 1268.34 612Z" fill="#838C94"/>
<path d="M1402.14 345.625C1402.14 348.386 1399.9 350.625 1397.14 350.625C1394.38 350.625 1392.14 348.386 1392.14 345.625C1392.14 342.864 1394.38 340.625 1397.14 340.625C1399.9 340.625 1402.14 342.864 1402.14 345.625Z" fill="#838C94"/>
<path d="M1402.14 520.461C1402.14 523.222 1399.9 525.461 1397.14 525.461C1394.38 525.461 1392.14 523.222 1392.14 520.461C1392.14 517.7 1394.38 515.461 1397.14 515.461C1399.9 515.461 1402.14 517.7 1402.14 520.461Z" fill="#838C94"/>
<path d="M1783.31 240.766C1783.31 243.527 1781.07 245.766 1778.31 245.766C1775.55 245.766 1773.31 243.527 1773.31 240.766C1773.31 238.004 1775.55 235.766 1778.31 235.766C1781.07 235.766 1783.31 238.004 1783.31 240.766Z" fill="#838C94"/>
<path d="M1783.31 542.242C1783.31 545.004 1781.07 547.242 1778.31 547.242C1775.55 547.242 1773.31 545.004 1773.31 542.242C1773.31 539.481 1775.55 537.242 1778.31 537.242C1781.07 537.242 1783.31 539.481 1783.31 542.242Z" fill="#838C94"/>
<path d="M1977.41 525.461C1977.41 528.222 1975.17 530.461 1972.41 530.461C1969.65 530.461 1967.41 528.222 1967.41 525.461C1967.41 522.7 1969.65 520.461 1972.41 520.461C1975.17 520.461 1977.41 522.7 1977.41 525.461Z" fill="#838C94"/>
<path d="M1977.41 257.945C1977.41 260.707 1975.17 262.945 1972.41 262.945C1969.65 262.945 1967.41 260.707 1967.41 257.945C1967.41 255.184 1969.65 252.945 1972.41 252.945C1975.17 252.945 1977.41 255.184 1977.41 257.945Z" fill="#838C94"/>
<path d="M2221.04 445.062C2221.04 447.824 2218.8 450.062 2216.04 450.062C2213.28 450.062 2211.04 447.824 2211.04 445.062C2211.04 442.301 2213.28 440.062 2216.04 440.062C2218.8 440.062 2221.04 442.301 2221.04 445.062Z" fill="#838C94"/>
<path d="M2221.04 171.469C2221.04 174.23 2218.8 176.469 2216.04 176.469C2213.28 176.469 2211.04 174.23 2211.04 171.469C2211.04 168.707 2213.28 166.469 2216.04 166.469C2218.8 166.469 2221.04 168.707 2221.04 171.469Z" fill="#838C94"/>
<path d="M2120.33 839.445C2120.33 842.207 2118.09 844.445 2115.33 844.445C2112.57 844.445 2110.33 842.207 2110.33 839.445C2110.33 836.684 2112.57 834.445 2115.33 834.445C2118.09 834.445 2120.33 836.684 2120.33 839.445Z" fill="#838C94"/>
<path d="M2120.33 582.906C2120.33 585.668 2118.09 587.906 2115.33 587.906C2112.57 587.906 2110.33 585.668 2110.33 582.906C2110.33 580.145 2112.57 577.906 2115.33 577.906C2118.09 577.906 2120.33 580.145 2120.33 582.906Z" fill="#838C94"/>
</svg>
