<svg width="1083" height="2463" viewBox="0 0 1083 2463" fill="none" xmlns="http://www.w3.org/2000/svg">
<path d="M582.329 409.371V401.228M582.329 409.371L584.177 489.501M582.329 409.371H573.413M640.901 53.3894C641.063 58.8449 639.781 67.3202 639.781 67.3202C639.781 67.3202 627.537 80.1396 621.755 89.789C616.238 98.9958 612.833 105.112 611.566 115.771C610.755 122.593 610.431 127.967 610.436 132.761M640.901 53.3894C640.853 51.7711 640.659 49.7934 640.446 48.0157C640.065 44.8463 639.075 41.7959 637.514 39.0118C633.388 31.6562 624.125 16.6945 613.839 10.294C602.781 3.41278 583.926 1.54239 577.471 1.09103C575.973 0.986279 574.479 1.08039 572.996 1.31757L568.183 2.08728C559.256 3.51503 551.889 9.83829 549.123 18.4457L541.156 43.247L540.914 44.027M640.901 53.3894C640.901 53.3894 632.678 61.5234 628.096 67.3202C622.883 73.9137 619.844 77.6865 616.223 85.2715C612.256 93.5825 610.611 98.7175 609.411 107.848C608.143 117.502 610.436 132.761 610.436 132.761M448.867 353.32C448.867 353.32 449.146 344.037 450.643 337.559C452.072 331.379 453.063 327.96 454.678 321.826C455.851 317.369 457.143 312.675 458.518 307.838M448.867 353.32L448.864 357.078C448.859 364.18 452.282 370.848 458.057 374.983L482.298 392.338M448.867 353.32C448.867 353.32 452.03 358.918 454.678 362.036C460.566 368.972 467.859 370.105 473.817 376.98C479.279 383.281 482.298 392.338 482.298 392.338M482.298 392.338V401.228M482.298 401.228L482.149 409.371M482.298 401.228H541.825M610.436 132.761C610.447 142.289 611.759 149.522 613.138 161.27C615.179 178.653 621.823 203.286 625.121 214.855C626.337 219.123 626.562 223.607 625.701 227.961V227.961M625.701 227.961L625.478 229.093C624.755 232.749 623.655 236.322 622.197 239.752L610.005 268.427L596.282 304.724C596.282 304.724 594.86 309.12 592.968 315.464M625.701 227.961C625.701 227.961 627.046 231.953 627.012 234.593C626.966 238.131 624.39 243.265 624.39 243.265L592.968 315.464M592.968 315.464C590.28 324.48 586.647 337.429 584.806 347.288C582.904 357.472 582.329 372.074 582.329 372.074V401.228M466.133 1314.81C466.133 1314.81 465.66 1323.03 460.692 1329.72M466.133 1314.81L466.574 1288.23M466.133 1314.81V1318.33M823.486 1341.94C823.486 1341.94 807.243 1334.8 796.637 1344.18C776.712 1361.79 784.347 1394.1 766.592 1419.23C745.482 1449.1 728.945 1469.3 692.867 1475.35C661.861 1480.55 636.206 1477.13 615.357 1453.59C607.741 1445 601.702 1433.96 599.287 1429.25M598.147 1426.96C598.147 1426.96 598.547 1427.81 599.287 1429.25M598.147 1426.96L598.04 1419.47M598.147 1426.96V1442.35M594.433 1161.88L593.859 1121.47M594.433 1161.88H468.76M594.433 1161.88L594.5 1166.63M599.287 1429.25C599.287 1429.25 606.16 1450.5 615.357 1460.84C627.727 1474.75 639.126 1479.41 657.278 1483.53C677.05 1488.03 689.908 1486.36 709.058 1479.7C731.221 1471.98 742.245 1461.88 757.322 1443.9C770.027 1428.75 774.777 1418.84 782.353 1400.58C789.009 1384.53 790.13 1363.54 800.622 1349.27C804.754 1343.66 812.953 1341.94 818.281 1341.94C834.146 1341.94 839.29 1347.98 847.359 1356.51C855.427 1365.03 862.058 1383.38 867.408 1407.1C881.561 1469.85 857.639 1526.69 833.813 1583.38C819.155 1618.26 807.215 1624.84 803.225 1660.7C801.838 1673.17 806.456 1692.61 809.624 1703.99C811.334 1710.13 813.759 1716.02 816.545 1721.75L884.754 1862.06C884.754 1862.06 932.123 1972.15 920.142 2043.8C916.137 2067.75 913.174 2087.76 901.602 2110.69C890.623 2132.45 877.678 2148.54 856.459 2167.17C827.476 2192.61 809.562 2196.76 768.815 2212.66C725.541 2229.55 649.808 2236.72 649.808 2236.72C649.808 2236.72 580.121 2242.05 533.558 2240.98C493.512 2240.05 434.305 2234.25 418.83 2232.68C416.262 2232.42 413.749 2232.13 411.196 2231.75C387.527 2228.21 260.372 2206.55 211.38 2143.66C181.077 2104.76 166.251 2084.86 161.662 2024.94C156.33 1955.33 171.353 1888.93 197.251 1824.1C207.248 1799.07 225.885 1763.26 230.065 1755.3C230.634 1754.22 231.126 1753.12 231.554 1751.97L258.796 1678.92C258.796 1678.92 272.228 1639.72 270.543 1611.61C269.472 1593.75 261.147 1567 256.802 1554.05C255.103 1548.98 253.022 1544.16 250.705 1539.35C237.454 1511.82 190.937 1412.08 192.588 1371.9C193.74 1343.86 194.054 1322.71 211.837 1301C225.806 1283.94 239.515 1275.59 263.164 1271.87C271.937 1270.49 289.95 1269.19 289.95 1269.19M460.692 1329.72C458.42 1332.78 455.488 1335.23 451.768 1335.88C438.31 1338.23 399.82 1315.52 378.751 1302.23C369.208 1296.21 359.392 1290.65 349.137 1285.95L344.613 1283.87L330.389 1277.35C326.59 1275.61 322.665 1274.16 318.588 1273.24C311.755 1271.69 300.275 1269.45 289.95 1269.19M460.692 1329.72C460.692 1329.72 454.308 1329.78 449.13 1329.72C438.16 1329.59 423.949 1322.23 413.589 1315.8C404.093 1309.91 394.753 1303.72 384.841 1298.56L347.019 1278.87C343.934 1277.26 340.795 1275.77 337.538 1274.55C331.223 1272.19 319.993 1268.4 311.491 1267.8C303.082 1267.2 289.95 1269.19 289.95 1269.19M466.133 1406.9L452.529 1399.51L417.793 1378.15C415.587 1376.79 413.048 1376.07 410.459 1376.07H404.89C402.994 1376.07 401.133 1376.58 399.499 1377.54L398.483 1378.14C395.214 1380.06 392.85 1383.22 391.92 1386.89V1386.89C391.051 1390.33 391.269 1393.95 392.543 1397.26L398.43 1412.54C398.609 1413.01 398.776 1413.47 398.933 1413.95C399.917 1416.92 403.752 1428.69 405.657 1436.86C411.708 1462.82 409.578 1493.01 408.769 1520.72C408.193 1540.48 405.85 1544.17 403.395 1558.74C396.596 1599.1 382.243 1618.2 370.395 1657.38C366.481 1670.32 362.837 1677.28 360.813 1690.65C358.479 1706.07 358.945 1719.25 363.168 1734.26C368.951 1754.81 381.229 1765.95 397.727 1776.63C411.085 1785.27 432.948 1786.21 432.948 1786.21L431.662 1782.26M466.133 1406.9L466.006 1413.24M466.133 1406.9V1388.66M598.147 1467.12C598.147 1467.12 608.519 1479.58 617.794 1486.12C636.238 1499.12 648.118 1505.17 673.3 1504.52C690.989 1504.06 706.873 1504.84 725.444 1494.66C759.152 1476.18 782.101 1449.24 796.637 1413.55C800.98 1402.89 803.678 1388.31 805.034 1379.4C805.83 1374.17 807.33 1368.93 810.932 1365.05C812.727 1363.12 814.87 1361.3 817.084 1360.47C825.812 1357.23 835.007 1367.73 840.942 1376.59C845.658 1383.63 848.497 1391.69 850.392 1399.95C851.876 1406.42 853.51 1414.28 854.304 1420.55C856.846 1440.63 856.26 1452.23 854.304 1472.38C853.01 1485.71 849.181 1502.48 845.729 1515.75C841.829 1530.75 836.209 1545.21 829.825 1559.32L796.828 1632.3C794.172 1638.17 792.258 1644.35 791.413 1650.74C790.436 1658.14 789.336 1668.38 789.486 1676.11C789.869 1695.86 799.785 1723.01 802.528 1730.16C802.99 1731.37 803.508 1732.53 804.073 1733.69L859.627 1847.78C861.992 1852.64 863.633 1857.84 863.851 1863.24C864.192 1871.67 863.682 1884.43 858.215 1890.27C852.845 1896.01 841.856 1895.97 834.889 1895.26C830.725 1894.83 826.864 1893.19 823.314 1890.97C806.185 1880.27 751.692 1846.74 718.583 1832.24C680.425 1815.54 630.456 1806.44 630.456 1806.44L629.237 1803.58M598.147 1467.12V1448.1M598.147 1467.12V1470.81M466.006 1413.24L417.347 1382.97C415.424 1381.77 413.239 1381.06 410.981 1380.89L407.833 1380.66C405.826 1380.51 403.83 1381.07 402.189 1382.23L401.295 1382.87C399.604 1384.07 398.314 1385.75 397.595 1387.69V1387.69C396.528 1390.58 396.569 1393.76 397.662 1396.63C400.841 1404.99 407.568 1423.41 410.5 1436.86C417.479 1468.88 413.412 1520.72 413.412 1520.72C413.412 1520.72 411.4 1544.02 408.769 1558.74C401.446 1599.73 385.893 1619.63 374.096 1659.56C370.522 1671.66 366.987 1678.15 365.359 1690.65C363.155 1707.58 362.084 1721.07 368.201 1737C374.708 1753.95 382.872 1761.25 397.727 1770.23C410.033 1777.67 431.662 1782.26 431.662 1782.26M466.006 1413.24L465.982 1414.4M431.662 1782.26L432.767 1768.48C432.886 1766.98 433.303 1765.52 434.081 1764.24C435.143 1762.48 436.809 1759.97 438.458 1758.45C439.719 1757.28 441.574 1756.14 443.159 1755.26C445.164 1754.16 447.442 1753.7 449.732 1753.71L470.362 1753.82M598.147 1472.75C598.147 1472.75 609.192 1485.15 617.794 1491.23C636.381 1504.37 650.571 1507.81 673.3 1509.01C693.973 1510.09 706.341 1506.57 725.444 1498.6C765.814 1481.74 785.272 1449.59 800.622 1415.02C805.372 1404.32 807.398 1394.84 808.235 1388.01C809.112 1380.86 810.246 1373.4 814.509 1367.59C815.453 1366.3 816.358 1365.25 817.084 1364.74C824.715 1359.42 834.067 1372.6 839.038 1381.08C841.524 1385.33 843.268 1389.94 844.587 1394.68C846.528 1401.65 849.312 1412.4 850.477 1420.55C853.301 1440.28 852.418 1451.76 850.477 1471.59C848.836 1488.37 842.613 1511.12 838.255 1525.6C835.422 1535.01 831.935 1544.19 828.092 1553.23C825.864 1558.47 823.453 1564.08 821.794 1567.75C810.406 1592.94 798.471 1612.67 789.252 1641.14C785.023 1654.2 785.33 1662.38 785.642 1676.11C785.976 1690.76 791.441 1710.15 795.177 1721.8C797.357 1728.61 800.203 1735.16 803.328 1741.58L855.72 1849.27C857.375 1852.67 858.577 1856.28 858.991 1860.04C859.796 1867.36 860.443 1879.86 856.459 1885.65C852.192 1891.84 841.872 1891.46 834.842 1890.33C830.081 1889.57 825.728 1887.42 821.673 1884.81C804.42 1873.72 753.983 1842.16 716.579 1827.42C683.283 1814.31 629.237 1803.58 629.237 1803.58M598.147 1472.75V1470.81M598.147 1472.75V1474.74M629.237 1803.58L630.183 1775.86C630.362 1770.59 629.618 1765.11 626.327 1760.99C625.792 1760.32 625.23 1759.71 624.655 1759.21C622.817 1757.61 619.87 1756.34 617.62 1755.53C615.564 1754.79 613.379 1754.53 611.193 1754.52L592.086 1754.42M582.329 401.228H557.844M482.149 409.371L480.657 490.92M482.149 409.371H489.551M480.657 490.92L584.177 489.501M480.657 490.92L480.554 496.559M584.177 489.501L584.312 495.377M480.554 496.559L584.312 495.377M480.554 496.559L479.216 569.71M584.312 495.377L586.026 569.71M479.216 569.71H586.026M479.216 569.71L479.104 575.836M586.026 569.71L586.144 574.84M479.104 575.836L586.144 574.84M479.104 575.836L477.843 644.738M586.144 574.84L586.669 597.618L587.317 644.738M477.843 644.738L477.74 650.373M477.843 644.738H557.844H560.691M587.317 644.738L587.395 650.373M587.317 644.738H560.691M477.74 650.373L476.548 715.53M477.74 650.373H503.174M587.395 650.373L588.291 715.53M587.395 650.373H578.374M476.548 715.53H588.291M476.548 715.53L476.434 721.741M588.291 715.53L588.377 721.741M476.434 721.741L476.321 727.952L475.362 782.792M476.434 721.741H541.825M588.377 721.741L589.217 782.792M588.377 721.741H541.825M475.362 782.792H589.217M475.362 782.792L475.239 789.846M589.217 782.792L589.314 789.846M475.239 789.846H589.314M475.239 789.846L474.245 846.655M589.314 789.846L590.096 846.655M474.245 846.655H590.096M474.245 846.655L474.145 852.388M590.096 846.655L590.174 852.388M474.145 852.388H590.174M474.145 852.388L473.187 907.168M590.174 852.388L590.928 907.168M473.187 907.168L473.098 912.297M473.187 907.168H581.499M590.928 907.168L590.999 912.297M590.928 907.168H581.499M473.098 912.297H590.999M473.098 912.297L472.221 962.441M590.999 912.297L591.689 962.441M472.221 962.441H591.689M472.221 962.441L472.108 968.874M591.689 962.441L591.777 968.874M472.108 968.874L471.267 1017M472.108 968.874H481.403M591.777 968.874L592.44 1017M591.777 968.874H481.403M471.267 1017H592.44M471.267 1017V1021.51M592.44 1017V1021.51M471.267 1021.51L470.448 1067.38M471.267 1021.51H498.794M592.44 1021.51L593.091 1067.38M592.44 1021.51H521.214M470.448 1067.38H593.091M470.448 1067.38L470.356 1072.55M593.091 1067.38L593.164 1072.55M470.356 1072.55H593.164M470.356 1072.55L469.587 1115.6M593.164 1072.55L593.776 1115.6M469.587 1115.6L469.482 1121.47M469.587 1115.6H541.825M593.776 1115.6L593.859 1121.47M593.776 1115.6H541.825M469.482 1121.47H593.859M469.482 1121.47L468.76 1161.88M468.76 1161.88L468.676 1166.63M468.676 1166.63H594.5M468.676 1166.63L468.012 1203.79M594.5 1166.63L595.02 1203.79M468.012 1203.79H595.02M468.012 1203.79V1208.39M595.02 1203.79V1208.39M468.012 1208.39L467.473 1233.98L467.31 1243.78M468.012 1208.39H595.02M595.02 1208.39L595.527 1243.78M467.31 1243.78L467.225 1248.95M467.31 1243.78H563.574M595.527 1243.78L595.601 1248.95M595.527 1243.78H586.056M467.225 1248.95H595.601M467.225 1248.95L466.679 1281.88M595.601 1248.95L596.072 1281.88M466.679 1281.88H596.072M466.679 1281.88L466.574 1288.23M596.072 1281.88L596.162 1288.23M466.574 1288.23H498.794M596.162 1288.23L596.593 1318.33M596.162 1288.23H498.794M466.133 1318.33H596.593M466.133 1318.33V1322.57M596.593 1318.33L596.654 1322.57M466.133 1322.57V1351.71M466.133 1322.57H521.214M596.654 1322.57L597.07 1351.71M596.654 1322.57H521.214M466.133 1351.71H597.07M466.133 1351.71V1356.22M597.07 1351.71L597.135 1356.22M466.133 1356.22H597.135M466.133 1356.22V1383.56M597.135 1356.22L597.526 1383.56M466.133 1383.56H597.526M466.133 1383.56V1388.66M597.526 1383.56L597.599 1388.66M466.133 1388.66H597.599M597.599 1388.66L597.967 1414.4M465.982 1414.4H597.967M465.982 1414.4L465.88 1419.47M597.967 1414.4L598.04 1419.47M465.88 1419.47H598.04M465.88 1419.47L465.418 1442.35M465.418 1442.35H598.147M465.418 1442.35L465.302 1448.1M598.147 1442.35V1448.1M465.302 1448.1H598.147M465.302 1448.1L464.844 1470.81M464.844 1470.81H598.147M464.844 1470.81L464.765 1474.74M464.765 1474.74L464.386 1493.53C464.386 1493.53 464.437 1494.28 464.59 1495.47M464.765 1474.74H598.147M598.147 1474.74V1493.22C598.147 1493.43 598.145 1493.63 598.137 1493.84C598.124 1494.16 598.096 1494.73 598.035 1495.47M464.59 1495.47H598.035M464.59 1495.47C464.73 1496.55 464.954 1498 465.302 1499.57M598.035 1495.47C597.945 1496.55 597.784 1498 597.499 1499.57M465.302 1499.57C466.023 1502.84 467.273 1506.66 469.399 1509.01C470.477 1510.2 472.068 1511.3 473.663 1512.24M465.302 1499.57H597.499M597.499 1499.57C596.912 1502.82 595.798 1506.62 593.687 1509.01C592.678 1510.15 591.057 1511.27 589.424 1512.24M713.764 1896.52C714.268 1884.96 721.704 1874.22 733.255 1874.82C744.233 1875.39 751.983 1883.33 752.459 1894.32M713.767 1896.52C714.271 1884.96 721.707 1874.22 733.258 1874.82C744.236 1875.39 751.987 1883.33 752.462 1894.31M762.608 2011.52C763.112 1999.96 770.548 1989.22 782.099 1989.82C793.077 1990.39 800.828 1998.33 801.303 2009.31M461.338 298.103H458.522M461.338 298.103C460.369 301.393 459.425 304.647 458.518 307.838M461.338 298.103C465.197 285.003 469.466 271.333 473.496 258.775M458.522 298.103L455.991 307.838M458.522 298.103L457.176 297.002C456.398 296.367 455.474 295.936 454.487 295.751L445.07 293.98M455.991 307.838H458.518M455.991 307.838L455.61 307.93C453.565 308.428 451.409 307.817 449.928 306.321L445.07 301.412M445.07 293.98V290.443C445.07 289.443 444.331 288.596 443.34 288.461L430.434 286.706C430.101 286.661 429.767 286.785 429.546 287.038L424.845 292.413C424.293 293.045 424.713 294.053 425.548 294.127C428.074 294.35 432.39 294.877 435.523 296.033C439.551 297.52 445.07 301.483 445.07 301.483V293.98ZM468.147 245.128L477.284 247.07M468.147 245.128L463.854 229.53C463.574 228.515 462.782 227.72 461.768 227.437L451.481 224.566C450.445 224.277 449.336 224.561 448.595 225.341C446.182 227.879 440.813 233.835 438.578 238.804C435.668 245.274 436.176 255.27 436.514 259.158C436.603 260.176 437.239 261.047 438.162 261.484L449.815 267.003C450.949 267.541 452.298 267.315 453.196 266.438L465.775 254.141M468.147 245.128L465.775 254.141M477.284 247.07C484.256 225.71 489.73 209.88 489.73 209.88L490.463 207.498M477.284 247.07C476.06 250.819 474.79 254.74 473.496 258.775M465.775 254.141L473.496 258.775M482.826 203.905L490.463 207.498M482.826 203.905L483.478 195.229M482.826 203.905L471.532 214.85C470.704 215.652 469.49 215.909 468.409 215.511L454.89 210.54C453.796 210.137 453.034 209.139 452.964 207.975C452.788 205.032 452.557 199.295 453.096 195.229C454.09 187.736 459.973 178.581 462.379 175.094C463.001 174.193 464.077 173.748 465.161 173.9L476.295 175.463C477.488 175.631 478.465 176.495 478.776 177.659L483.478 195.229M490.463 207.498L494.236 195.229M494.236 195.229H483.478M494.236 195.229L505.939 157.176M509.058 147.034L517.546 119.435L521.482 106.736M509.058 147.034L500.175 145.203M509.058 147.034L505.939 157.176M500.175 145.203L499.037 134.777C498.933 133.823 498.379 132.976 497.546 132.499L486.177 125.99C485.232 125.449 484.072 125.461 483.163 126.061C480.297 127.954 474.037 132.406 471.289 136.842C467.708 142.624 468.575 152.009 469.089 155.658C469.225 156.617 469.859 157.414 470.742 157.814L482.038 162.935C483.154 163.441 484.466 163.217 485.351 162.369L496.591 151.61M500.175 145.203L496.591 151.61M505.939 157.176L496.591 151.61M525.417 94.0367L518.372 91.9752M525.417 94.0367L521.482 106.736M525.417 94.0367L537.287 55.7324M518.372 91.9752L514.201 103.794M518.372 91.9752L512.115 89.4723M514.201 103.794L521.482 106.736M514.201 103.794L509.195 100.596L502.799 97.2591M502.799 97.2591L489.652 94.2425C489.145 94.1262 488.812 93.6408 488.885 93.126L489.733 87.211C489.808 86.6855 490.281 86.3104 490.81 86.3567L510.868 88.1118C511.574 88.1735 512.115 88.7642 512.115 89.4723V89.4723M502.799 97.2591C502.799 97.2591 506.999 96.7043 509.195 94.8953C510.794 93.578 512.115 89.4723 512.115 89.4723M540.914 44.027L532.917 43.247M540.914 44.027L537.287 55.7324M532.917 43.247L526.059 25.0696C525.665 24.0239 524.721 23.2843 523.612 23.1503L513.538 21.9337C512.638 21.825 511.742 22.1247 511.113 22.7781C508.694 25.2927 502.587 32.0223 500.586 37.8268C498.337 44.3532 499.623 54.5136 500.277 58.5644C500.452 59.65 501.241 60.5192 502.292 60.8427L515.804 65.0025C516.875 65.3321 518.04 65.0379 518.825 64.2396L529.503 53.3894M532.917 43.247L529.503 53.3894M537.287 55.7324L529.503 53.3894M446.257 1777.94V1954.27C446.257 1959.3 448.354 1964.09 452.041 1967.51V1967.51C455.374 1970.59 459.748 1972.3 464.289 1972.3H570.258M614.485 1777.94H617.396L620.141 1784.11C621.277 1786.67 621.864 1789.44 621.864 1792.23V1972.3C621.864 1972.3 621.263 1978.5 618.792 1981.24C615.322 1985.09 605.946 1984.59 605.946 1984.59H589.739M614.485 1777.94H443.942L442.074 1785.34C441.63 1787.1 441.405 1788.91 441.405 1790.72V1961.18C441.405 1965.72 442.128 1970.29 444.421 1974.21C445.973 1976.86 448.035 1979.7 450.396 1981.24C454.475 1983.9 462.404 1984.59 462.404 1984.59H476.748M614.485 1777.94V1958.06C614.485 1960.74 613.733 1963.36 612.314 1965.62V1965.62C609.71 1969.78 605.149 1972.3 600.243 1972.3H570.258M476.748 1984.59V1942.25H487.135V1984.59M476.748 1984.59H487.135M487.135 1984.59H527.163M527.163 1940.49V1984.59M527.163 1940.49H538.31M527.163 1940.49H508.618C508.037 1940.49 507.578 1940 507.62 1939.42L509.086 1919.17M527.163 1984.59H538.31M538.31 1940.49V1984.59M538.31 1940.49H556.676C557.212 1940.49 557.654 1940.07 557.675 1939.53L558.463 1919.57M538.31 1984.59H578.339M578.339 1937.69V1984.59M578.339 1937.69H589.739M578.339 1937.69H561.605C561.053 1937.69 560.605 1937.24 560.605 1936.69V1917.22M578.339 1984.59H589.739M589.739 1937.69V1984.59M589.739 1937.69L609.558 1936.83C610.093 1936.8 610.514 1936.36 610.514 1935.83V1917.22M458.732 1919.17L458.869 1917.12C458.905 1916.6 459.341 1916.19 459.867 1916.19H506.491C507.063 1916.19 507.519 1916.67 507.49 1917.24L507.394 1919.17M458.732 1919.17H480.198M458.732 1919.17L458.519 1922.34M480.198 1919.17V1903.88C480.198 1903.33 480.646 1902.88 481.198 1902.88H484.792C485.344 1902.88 485.792 1903.33 485.792 1903.88V1919.17M480.198 1919.17V1922.34M485.792 1919.17H507.394M485.792 1919.17V1922.34M507.394 1919.17V1922.34M458.519 1922.34L457.296 1940.51C457.257 1941.08 457.706 1941.56 458.28 1941.57L505.287 1942.24C505.822 1942.24 506.268 1941.83 506.299 1941.3L507.394 1922.34M458.519 1922.34H480.198M480.198 1922.34V1927.39H485.792V1922.34M485.792 1922.34H507.394M509.301 1916.19L509.516 1913.22C509.554 1912.7 509.989 1912.29 510.514 1912.29H557.71C558.278 1912.29 558.731 1912.76 558.709 1913.33L558.596 1916.19M509.301 1916.19H531.689M509.301 1916.19L509.086 1919.17M531.689 1916.19V1903.88C531.689 1903.33 532.136 1902.88 532.689 1902.88H535.624C536.176 1902.88 536.624 1903.33 536.624 1903.88V1916.19M531.689 1916.19V1919.17M536.624 1916.19H558.596M536.624 1916.19V1919.57M558.596 1916.19L558.463 1919.57M509.086 1919.17H531.689M531.689 1919.17V1922.95H536.624V1919.57M536.624 1919.57H558.463M560.605 1913.75V1910.35C560.605 1909.79 561.071 1909.34 561.635 1909.35L609.544 1910.78C610.085 1910.8 610.514 1911.24 610.514 1911.78V1913.75M560.605 1913.75H583.343M560.605 1913.75V1917.22M583.343 1913.75V1904.7C583.343 1904.15 583.791 1903.7 584.343 1903.7H586.949C587.502 1903.7 587.949 1904.15 587.949 1904.7V1913.75M583.343 1913.75V1917.22M587.949 1913.75H610.514M587.949 1913.75V1917.22M610.514 1913.75V1917.22M560.605 1917.22H583.343M583.343 1917.22V1919.17H587.949V1917.22M587.949 1917.22H610.514M728.099 1741.66L693.721 1697.55C693.584 1697.38 693.51 1697.16 693.51 1696.94V1692.57C693.51 1692.02 693.957 1691.57 694.51 1691.57H697.905C698.219 1691.57 698.516 1691.72 698.704 1691.97L733.973 1738.89M728.099 1741.66L726.241 1744.12C725.635 1744.93 725.72 1746.05 726.439 1746.76L743.02 1762.98H747.359C748.826 1762.98 750.077 1761.92 750.318 1760.48L750.792 1757.63L739.278 1739.8C738.91 1739.23 738.277 1738.89 737.598 1738.89H733.973M728.099 1741.66L733.973 1738.89M560.108 54.1387C559.293 52.9833 558.819 51.5926 558.849 50.0828C558.87 48.9983 559.164 47.9857 559.658 47.0866M560.108 54.1387C561.602 56.2577 564.239 57.5853 567.003 57.4048C569.791 57.2228 572.234 55.6713 573.413 53.3894M560.108 54.1387C560.108 54.1387 562.192 62.03 566.186 62.423C570.682 62.8654 573.413 53.3894 573.413 53.3894M573.413 53.3894C573.921 52.4059 574.194 51.2866 574.158 50.0828C574.125 48.9771 573.863 47.9706 573.413 47.0866M573.413 53.3894V266.31V409.371M573.413 47.0866C572.401 45.0995 570.44 43.7315 568.001 43.247C564.689 42.5892 561.198 44.2879 559.658 47.0866M573.413 47.0866C573.413 47.0866 577.591 50.8657 578.471 54.1387C580.505 61.7098 573.54 70.0168 565.71 69.6356C557.983 69.2595 551.719 60.6548 554.376 53.3894C555.479 50.3732 559.658 47.0866 559.658 47.0866M544.314 105.849C543.5 104.694 543.025 103.303 543.055 101.793C543.076 100.709 543.37 99.6962 543.864 98.7971M544.314 105.849C545.808 107.968 548.445 109.296 551.209 109.115C553.997 108.933 556.44 107.382 557.619 105.1M544.314 105.849C544.314 105.849 546.398 113.741 550.392 114.133C554.888 114.576 557.619 105.1 557.619 105.1M557.619 105.1C558.127 104.116 558.4 102.997 558.364 101.793C558.332 100.688 558.069 99.6811 557.619 98.7971M557.619 105.1L557.844 401.228M557.619 98.7971C556.607 96.81 554.646 95.442 552.207 94.9575C548.895 94.2997 545.405 95.9984 543.864 98.7971M557.619 98.7971C557.619 98.7971 561.797 102.576 562.677 105.849C564.711 113.42 557.746 121.727 549.916 121.346C542.189 120.97 535.925 112.365 538.582 105.1C539.685 102.084 543.864 98.7971 543.864 98.7971M528.52 159.077C527.706 157.922 527.231 156.531 527.261 155.021C527.282 153.937 527.576 152.924 528.071 152.025M528.52 159.077C530.014 161.196 532.651 162.524 535.415 162.343C538.203 162.161 540.646 160.61 541.825 158.328M528.52 159.077C528.52 159.077 530.605 166.969 534.598 167.361C539.094 167.804 541.825 158.328 541.825 158.328M541.825 158.328C542.333 157.344 542.606 156.225 542.57 155.021C542.538 153.916 542.275 152.909 541.825 152.025M541.825 158.328V401.228M541.825 152.025C540.813 150.038 538.852 148.67 536.413 148.186C533.102 147.528 529.611 149.226 528.071 152.025M541.825 152.025C541.825 152.025 546.004 155.804 546.883 159.077C548.917 166.648 541.953 174.955 534.122 174.574C526.396 174.198 520.131 165.593 522.788 158.328C523.891 155.312 528.071 152.025 528.071 152.025M512.212 209.103C511.398 207.947 510.923 206.556 510.953 205.047C510.974 203.962 511.268 202.949 511.762 202.05M512.212 209.103C513.706 211.222 516.343 212.549 519.107 212.369C521.895 212.187 524.338 210.635 525.517 208.353M512.212 209.103C512.212 209.103 514.297 216.994 518.29 217.387C522.786 217.829 525.517 208.353 525.517 208.353M525.517 208.353C526.025 207.37 526.298 206.25 526.262 205.047C526.23 203.941 525.967 202.934 525.517 202.05M525.517 208.353L523.538 288.377V409.371M525.517 202.05C524.505 200.063 522.544 198.695 520.105 198.211C516.794 197.553 513.303 199.252 511.762 202.05M525.517 202.05C525.517 202.05 529.696 205.829 530.575 209.103C532.609 216.674 525.645 224.981 517.814 224.599C510.087 224.223 503.823 215.619 506.48 208.353C507.583 205.337 511.762 202.05 511.762 202.05M497.235 260.944C496.421 259.788 495.946 258.398 495.976 256.888C495.998 255.803 496.291 254.791 496.786 253.892M497.235 260.944C498.729 263.063 501.366 264.39 504.13 264.21C506.918 264.028 509.362 262.476 510.54 260.194M497.235 260.944C497.235 260.944 499.32 268.835 503.313 269.228C507.809 269.67 510.54 260.194 510.54 260.194M510.54 260.194C511.049 259.211 511.322 258.092 511.286 256.888M511.286 256.888C511.253 255.782 510.991 254.776 510.54 253.892M511.286 256.888L508.098 301.412L507.055 409.371M510.54 253.892C509.529 251.905 507.568 250.536 505.129 250.052C501.817 249.394 498.326 251.093 496.786 253.892M510.54 253.892C510.54 253.892 514.719 257.671 515.598 260.944C517.633 268.515 510.668 276.822 502.837 276.441C495.111 276.064 488.846 267.46 491.503 260.194C492.606 257.178 496.786 253.892 496.786 253.892M478.303 315.286C477.489 314.131 477.014 312.74 477.044 311.231C477.065 310.146 477.359 309.133 477.853 308.234M478.303 315.286C479.797 317.405 482.434 318.733 485.198 318.553C487.986 318.371 490.429 316.819 491.608 314.537M478.303 315.286C478.303 315.286 480.388 323.178 484.381 323.571C488.877 324.013 491.608 314.537 491.608 314.537M491.608 314.537C492.116 313.554 492.389 312.434 492.353 311.231M492.353 311.231C492.321 310.125 492.058 309.118 491.608 308.234M492.353 311.231L489.551 409.371M491.608 308.234C490.596 306.247 488.635 304.879 486.196 304.395C482.885 303.737 479.394 305.436 477.853 308.234M491.608 308.234C491.608 308.234 495.787 312.013 496.666 315.286C498.7 322.858 491.736 331.165 483.905 330.783C476.178 330.407 469.914 321.803 472.571 314.537C473.674 311.521 477.853 308.234 477.853 308.234M489.551 409.371L481.403 968.874M489.551 409.371H507.055M481.403 968.874L473.663 1512.24M473.663 1512.24C473.993 1512.43 474.324 1512.61 474.649 1512.79C477.675 1514.43 481.129 1515 484.571 1515H541.825M473.663 1512.24L470.362 1753.82M470.362 1753.82V1969.76M470.362 1753.82L495.286 1753.94M507.055 409.371L503.174 650.373M507.055 409.371H523.538M503.174 650.373L498.794 1021.51M503.174 650.373H523.538M498.794 1021.51V1288.23M498.794 1021.51H521.214M498.794 1288.23L495.286 1753.94M495.286 1753.94V1969.76M495.286 1753.94L521.214 1754.07M523.538 409.371V650.373M523.538 409.371H541.825M523.538 650.373L521.214 1021.51M523.538 650.373H578.374M521.214 1021.51V1322.57M521.214 1322.57V1754.07M521.214 1754.07V1969.76M521.214 1754.07L592.086 1754.42M541.825 401.228V409.371M541.825 401.228H557.844M541.825 409.371L541.825 721.741M541.825 409.371H573.413M541.825 721.741V1115.6M541.825 1115.6V1515M541.825 1515V1753.7L545.141 1969.76M541.825 1515H567.219M557.844 401.228L560.691 644.738M567.219 1515H581.134C582.994 1515 584.841 1514.64 586.507 1513.81C587.387 1513.37 588.408 1512.84 589.424 1512.24M567.219 1515L563.574 1243.78M567.219 1515L570.258 1972.3M563.574 1243.78L562.449 943.742V792.886L560.691 644.738M563.574 1243.78H586.056M573.413 409.371L578.374 650.373M578.374 650.373L581.499 907.168M589.424 1512.24L586.056 1243.78M589.424 1512.24L592.086 1754.42M586.056 1243.78L581.499 907.168M592.086 1754.42L594.644 1969.76M467.811 1534.46H589.835L591.08 1534.7C609.331 1538.17 608.3 1564.64 589.835 1566.68V1566.68H467.811V1566.68C453.708 1561.59 452.564 1542.09 465.976 1535.38L467.811 1534.46ZM469.399 1540.26H589.835L606.011 1543.04C614.409 1544.49 615.026 1556.32 606.823 1558.63L589.835 1563.42H469.399L467.384 1562.27C458.319 1557.11 459.549 1543.68 469.399 1540.26V1540.26ZM733.255 1862.06C716.15 1861.9 702.394 1877.25 703.618 1894.32C704.756 1910.18 717.347 1922.37 733.255 1922.26C750.161 1922.15 763.488 1907.15 762.428 1890.27C761.434 1874.46 749.102 1862.21 733.255 1862.06ZM733.255 1880.61C722.678 1880.53 712.905 1889.39 713.764 1900.13C714.562 1910.11 723.248 1916.84 733.255 1916.77C743.177 1916.7 751.667 1910.02 752.459 1900.13C753.313 1889.47 743.751 1880.68 733.255 1880.61ZM733.258 1862.06C716.153 1861.9 702.398 1877.25 703.621 1894.31C704.76 1910.18 717.351 1922.37 733.258 1922.26C750.165 1922.15 763.492 1907.15 762.431 1890.27C761.437 1874.45 749.106 1862.21 733.258 1862.06ZM733.258 1880.6C722.681 1880.53 712.908 1889.39 713.767 1900.13C714.566 1910.11 723.251 1916.84 733.258 1916.77C743.18 1916.7 751.67 1910.02 752.462 1900.13C753.316 1889.47 743.754 1880.68 733.258 1880.6ZM782.099 1977.06C764.994 1976.9 751.238 1992.25 752.462 2009.31C753.601 2025.18 766.191 2037.37 782.099 2037.26C799.006 2037.15 812.333 2022.15 811.272 2005.27C810.278 1989.45 797.947 1977.21 782.099 1977.06ZM782.099 1995.6C771.522 1995.53 761.749 2004.39 762.608 2015.13C763.406 2025.11 772.092 2031.84 782.099 2031.77C792.021 2031.7 800.511 2025.02 801.303 2015.13C802.157 2004.47 792.595 1995.68 782.099 1995.6ZM611.219 1865.45C613.129 1861.7 613.58 1857.59 613.303 1853.71C612.549 1843.15 603.077 1836.17 593.014 1832.86L483.635 1796.9C475.177 1794.12 465.673 1793.62 458.463 1798.85C454.9 1801.43 451.627 1804.81 450.396 1808.97C449.933 1810.54 449.641 1812.17 449.481 1813.82C448.236 1826.64 459.365 1836.28 471.589 1840.35L576.818 1875.4C586.861 1878.75 598.384 1878.8 606.206 1871.67C608.266 1869.79 610.079 1867.69 611.219 1865.45ZM567.003 40.2647C558.233 39.8912 551.236 46.9714 550.695 55.7324C550.102 65.3206 558.448 74.2288 568.001 73.2137C576.693 72.29 582.543 64.4553 581.98 55.7324C581.438 47.3418 575.403 40.6225 567.003 40.2647ZM551.209 91.9752C542.439 91.6017 535.443 98.6819 534.901 107.443C534.308 117.031 542.654 125.939 552.207 124.924C560.899 124.001 566.749 116.166 566.186 107.443C565.644 99.0523 559.609 92.333 551.209 91.9752ZM535.415 145.203C526.645 144.83 519.649 151.91 519.107 160.671C518.514 170.259 526.861 179.167 536.413 178.152C545.106 177.229 550.955 169.394 550.392 160.671C549.85 152.28 543.815 145.561 535.415 145.203ZM519.107 195.229C510.337 194.855 503.341 201.935 502.799 210.696C502.206 220.284 510.553 229.193 520.105 228.178C528.797 227.254 534.647 219.419 534.084 210.696C533.542 202.306 527.507 195.586 519.107 195.229ZM504.13 247.07C495.36 246.696 488.364 253.776 487.822 262.537C487.229 272.126 495.576 281.034 505.129 280.019C513.821 279.095 519.67 271.26 519.107 262.537C518.565 254.147 512.531 247.427 504.13 247.07ZM485.198 301.412C476.428 301.039 469.432 308.119 468.89 316.88C468.297 326.468 476.644 335.377 486.196 334.361C494.888 333.438 500.738 325.603 500.175 316.88C499.633 308.49 493.598 301.77 485.198 301.412Z" stroke="#838C94"/>
<path d="M346.014 2105.67C245.565 2105.67 189.248 2105.67 88.8 2105.67M907.777 1645.01C807.322 1644.1 758.684 1645.92 658.229 1645.01M350.009 1958.42C247.787 1958.42 190.475 1958.42 88.252 1958.42M520.735 1067.28H340.974M983.558 1965.65C902.873 1965.99 862.101 1965.28 781.417 1965.62M932.007 1818.85C877.115 1818.85 846.34 1818.85 791.448 1818.85M900.645 1201.52L607.423 1201.52M400.189 2364.89C400.189 2283.03 400.193 2246.62 400.193 2164.76M592.431 2307.6C591.931 2195.53 592.931 2147.34 592.431 2035.26M539.619 686.632L235.796 686.629M818.129 350.341H579.285M524.796 492.481H252.695M428.18 248.398H166.427" stroke="#838C94" stroke-dasharray="10 10"/>
<path d="M986.146 1197.66C988.284 1199.8 988.284 1203.27 986.146 1205.4L955.416 1236.13C953.278 1238.27 949.811 1238.27 947.673 1236.13L916.943 1205.4C914.805 1203.27 914.805 1199.8 916.943 1197.66L947.673 1166.93C949.811 1164.79 953.278 1164.79 955.416 1166.93L986.146 1197.66Z" fill="#20262B" stroke="#838C94"/>
<path d="M901.232 346.763C903.37 348.901 903.37 352.367 901.232 354.505L870.502 385.235C868.364 387.373 864.897 387.373 862.759 385.235L832.029 354.505C829.891 352.367 829.891 348.901 832.029 346.763L862.759 316.033C864.897 313.895 868.364 313.895 870.502 316.033L901.232 346.763Z" fill="#20262B" stroke="#838C94"/>
<path d="M138.308 244.513C140.446 246.651 140.446 250.117 138.308 252.255L107.578 282.985C105.44 285.123 101.973 285.123 99.8354 282.985L69.1054 252.255C66.9675 250.117 66.9675 246.651 69.1054 244.513L99.8354 213.783C101.973 211.645 105.44 211.645 107.578 213.783L138.308 244.513Z" fill="#20262B" stroke="#838C94"/>
<path d="M222.952 488.88C225.09 491.018 225.09 494.485 222.952 496.623L192.222 527.353C190.084 529.491 186.618 529.491 184.48 527.353L153.75 496.623C151.612 494.485 151.612 491.018 153.75 488.88L184.48 458.15C186.618 456.012 190.084 456.012 192.222 458.15L222.952 488.88Z" fill="#20262B" stroke="#838C94"/>
<path d="M207.718 682.841C209.856 684.979 209.856 688.446 207.718 690.584L176.988 721.313C174.85 723.451 171.384 723.451 169.246 721.313L138.516 690.584C136.378 688.446 136.378 684.979 138.516 682.841L169.246 652.111C171.384 649.973 174.85 649.973 176.988 652.111L207.718 682.841Z" fill="#20262B" stroke="#838C94"/>
<path d="M327.71 1063.4C329.848 1065.53 329.848 1069 327.71 1071.14L296.98 1101.87C294.842 1104.01 291.376 1104.01 289.238 1101.87L258.508 1071.14C256.37 1069 256.37 1065.53 258.508 1063.4L289.238 1032.67C291.376 1030.53 294.842 1030.53 296.98 1032.67L327.71 1063.4Z" fill="#20262B" stroke="#838C94"/>
<path d="M73.6319 1954.58C75.7699 1956.72 75.7699 1960.19 73.6319 1962.33L42.9019 1993.06C40.764 1995.19 37.2976 1995.19 35.1596 1993.06L4.42965 1962.33C2.29168 1960.19 2.29168 1956.72 4.42966 1954.58L35.1596 1923.85C37.2976 1921.72 40.764 1921.72 42.9019 1923.85L73.6319 1954.58Z" fill="#20262B" stroke="#838C94"/>
<path d="M71.335 2101.93C73.473 2104.07 73.473 2107.53 71.335 2109.67L40.6051 2140.4C38.4671 2142.54 35.0007 2142.54 32.8628 2140.4L2.13278 2109.67C-0.00519874 2107.53 -0.00519668 2104.07 2.13278 2101.93L32.8628 2071.2C35.0007 2069.06 38.4671 2069.06 40.6051 2071.2L71.335 2101.93Z" fill="#20262B" stroke="#838C94"/>
<path d="M434.857 2422.2C436.995 2424.34 436.995 2427.81 434.857 2429.94L404.127 2460.67C401.989 2462.81 398.522 2462.81 396.384 2460.67L365.654 2429.94C363.516 2427.81 363.516 2424.34 365.654 2422.2L396.384 2391.47C398.522 2389.33 401.989 2389.33 404.127 2391.47L434.857 2422.2Z" fill="#20262B" stroke="#838C94"/>
<path d="M627.081 2369.35C629.219 2371.49 629.219 2374.95 627.081 2377.09L596.351 2407.82C594.213 2409.96 590.747 2409.96 588.609 2407.82L557.879 2377.09C555.741 2374.95 555.741 2371.49 557.879 2369.35L588.609 2338.62C590.747 2336.48 594.213 2336.48 596.351 2338.62L627.081 2369.35Z" fill="#20262B" stroke="#838C94"/>
<path d="M1080.21 1961.58C1082.35 1963.71 1082.35 1967.18 1080.21 1969.32L1049.48 2000.05C1047.35 2002.19 1043.88 2002.19 1041.74 2000.05L1011.01 1969.32C1008.87 1967.18 1008.87 1963.71 1011.01 1961.58L1041.74 1930.85C1043.88 1928.71 1047.35 1928.71 1049.48 1930.85L1080.21 1961.58Z" fill="#20262B" stroke="#838C94"/>
<path d="M1026.28 1814.28C1028.42 1816.42 1028.42 1819.88 1026.28 1822.02L995.55 1852.75C993.412 1854.89 989.946 1854.89 987.808 1852.75L957.078 1822.02C954.94 1819.88 954.94 1816.42 957.078 1814.28L987.808 1783.55C989.946 1781.41 993.412 1781.41 995.55 1783.55L1026.28 1814.28Z" fill="#20262B" stroke="#838C94"/>
<path d="M993.39 1641.14C995.528 1643.28 995.528 1646.74 993.39 1648.88L962.66 1679.61C960.522 1681.75 957.055 1681.75 954.918 1679.61L924.187 1648.88C922.049 1646.74 922.049 1643.28 924.187 1641.14L954.918 1610.41C957.055 1608.27 960.522 1608.27 962.66 1610.41L993.39 1641.14Z" fill="#20262B" stroke="#838C94"/>
<path d="M941.28 1185.8C942.667 1184.6 944.467 1184 946.68 1184C948.893 1184 950.68 1184.58 952.04 1185.76C953.4 1186.93 954.08 1188.57 954.08 1190.68C954.08 1193.05 952.48 1195.2 949.28 1197.12C950.933 1197.89 952.4 1198.97 953.68 1200.36C954.96 1201.72 955.6 1203.41 955.6 1205.44C955.6 1207.46 954.707 1209.22 952.92 1210.72C951.16 1212.18 949.133 1212.92 946.84 1212.92C944.573 1212.92 942.533 1212.22 940.72 1210.84C938.933 1209.45 938.04 1207.77 938.04 1205.8C938.04 1203.82 938.613 1202.12 939.76 1200.68C940.907 1199.24 942.227 1198.17 943.72 1197.48C942.653 1196.84 941.64 1195.92 940.68 1194.72C939.72 1193.49 939.24 1192.17 939.24 1190.76C939.24 1188.65 939.92 1187 941.28 1185.8ZM947 1210.84C948.547 1210.84 949.8 1210.36 950.76 1209.4C951.747 1208.44 952.24 1207.16 952.24 1205.56C952.24 1203.93 951.733 1202.61 950.72 1201.6C949.733 1200.56 948.067 1199.64 945.72 1198.84C944.227 1199.58 943.133 1200.48 942.44 1201.52C941.747 1202.56 941.4 1203.89 941.4 1205.52C941.4 1207.12 941.947 1208.41 943.04 1209.4C944.16 1210.36 945.48 1210.84 947 1210.84ZM946.56 1186.08C945.413 1186.08 944.467 1186.41 943.72 1187.08C942.973 1187.74 942.6 1188.7 942.6 1189.96C942.6 1191.21 943 1192.41 943.8 1193.56C944.6 1194.7 945.733 1195.5 947.2 1195.96C949.547 1194.62 950.72 1192.54 950.72 1189.72C950.72 1188.62 950.307 1187.74 949.48 1187.08C948.68 1186.41 947.707 1186.08 946.56 1186.08ZM964.123 1210.36C964.123 1211.02 963.91 1211.56 963.483 1211.96C963.057 1212.33 962.497 1212.52 961.803 1212.52C961.137 1212.52 960.603 1212.3 960.203 1211.88C959.803 1211.45 959.603 1210.92 959.603 1210.28C959.603 1209.61 959.803 1209.06 960.203 1208.64C960.603 1208.18 961.123 1207.96 961.763 1207.96C962.403 1207.96 962.95 1208.18 963.403 1208.64C963.883 1209.09 964.123 1209.66 964.123 1210.36Z" fill="white"/>
<path d="M953.507 1632C952.014 1632 950.867 1632.65 950.067 1633.96C949.294 1635.24 948.907 1636.9 948.907 1638.96C948.907 1641.01 949.387 1642.64 950.347 1643.84C951.307 1645.04 952.4 1645.64 953.627 1645.64C954.854 1645.64 955.947 1645.25 956.907 1644.48C957.867 1643.7 958.6 1642.8 959.107 1641.76C959.054 1635.25 957.187 1632 953.507 1632ZM949.667 1655.76C949.667 1656.21 949.947 1656.57 950.507 1656.84C951.094 1657.08 951.8 1657.2 952.627 1657.2C956.974 1657.2 959.147 1652.97 959.147 1644.52C957.547 1646.44 955.36 1647.4 952.587 1647.4C950.667 1647.4 949.014 1646.57 947.627 1644.92C946.267 1643.24 945.587 1641.28 945.587 1639.04C945.587 1636.77 946.307 1634.7 947.747 1632.84C949.214 1630.94 951.16 1630 953.587 1630C957 1630 959.36 1631.24 960.667 1633.72C961.814 1635.98 962.387 1638.98 962.387 1642.72C962.387 1646.77 961.747 1650.38 960.467 1653.56C959.8 1655.18 958.814 1656.49 957.507 1657.48C956.227 1658.44 954.734 1658.92 953.027 1658.92C951.32 1658.92 949.867 1658.57 948.667 1657.88C947.494 1657.18 946.907 1656.16 946.907 1654.8C946.907 1654.13 947.067 1653.61 947.387 1653.24C947.707 1652.84 948.134 1652.64 948.667 1652.64C949.974 1652.64 950.627 1653.09 950.627 1654C950.627 1654.37 950.467 1654.74 950.147 1655.12C949.827 1655.46 949.667 1655.68 949.667 1655.76ZM971.286 1656.36C971.286 1657.02 971.072 1657.56 970.646 1657.96C970.219 1658.33 969.659 1658.52 968.966 1658.52C968.299 1658.52 967.766 1658.3 967.366 1657.88C966.966 1657.45 966.766 1656.92 966.766 1656.28C966.766 1655.61 966.966 1655.06 967.366 1654.64C967.766 1654.18 968.286 1653.96 968.926 1653.96C969.566 1653.96 970.112 1654.18 970.566 1654.64C971.046 1655.09 971.286 1655.66 971.286 1656.36Z" fill="white"/>
<path d="M976.282 1831.34L968.762 1831.66C968.655 1831.58 968.602 1831.35 968.602 1830.98C968.602 1830.6 968.708 1830.35 968.922 1830.22C970.868 1830.22 972.242 1829.98 973.042 1829.5C973.868 1829.02 974.295 1828.04 974.322 1826.58L974.442 1811.22C974.468 1809.64 974.082 1808.67 973.282 1808.3C972.482 1807.92 970.802 1807.74 968.242 1807.74C968.162 1807.66 968.122 1807.44 968.122 1807.1C968.122 1806.72 968.215 1806.46 968.402 1806.3C971.815 1806.08 974.255 1805.16 975.722 1803.54C975.828 1803.43 976.055 1803.38 976.402 1803.38C976.748 1803.38 977.002 1803.43 977.162 1803.54L978.002 1826.58C978.055 1828.07 978.468 1829.06 979.242 1829.54C980.042 1829.99 981.402 1830.22 983.322 1830.22C983.535 1830.38 983.642 1830.63 983.642 1830.98C983.642 1831.32 983.588 1831.55 983.482 1831.66L976.282 1831.34ZM986.356 1823.14C986.036 1821.46 985.876 1819.62 985.876 1817.62C985.876 1815.62 986.036 1813.78 986.356 1812.1C986.702 1810.42 987.222 1808.88 987.916 1807.5C988.636 1806.11 989.622 1805.03 990.876 1804.26C992.156 1803.48 993.649 1803.1 995.356 1803.1C997.062 1803.1 998.542 1803.48 999.796 1804.26C1001.08 1805.03 1002.06 1806.11 1002.76 1807.5C1003.48 1808.88 1004 1810.42 1004.32 1812.1C1004.66 1813.78 1004.84 1815.62 1004.84 1817.62C1004.84 1819.62 1004.66 1821.46 1004.32 1823.14C1004 1824.82 1003.48 1826.34 1002.76 1827.7C1002.06 1829.06 1001.08 1830.12 999.796 1830.9C998.542 1831.67 997.062 1832.06 995.356 1832.06C993.649 1832.06 992.156 1831.67 990.876 1830.9C989.622 1830.12 988.636 1829.06 987.916 1827.7C987.222 1826.34 986.702 1824.82 986.356 1823.14ZM989.236 1817.62C989.236 1820.92 989.769 1823.82 990.836 1826.3C991.902 1828.75 993.409 1829.98 995.356 1829.98C996.662 1829.98 997.796 1829.36 998.756 1828.14C1000.57 1825.79 1001.48 1822.28 1001.48 1817.62C1001.48 1813.03 1000.57 1809.52 998.756 1807.1C997.796 1805.82 996.662 1805.18 995.356 1805.18C994.049 1805.18 992.916 1805.82 991.956 1807.1C990.142 1809.55 989.236 1813.06 989.236 1817.62ZM1013.71 1829.5C1013.71 1830.16 1013.5 1830.7 1013.07 1831.1C1012.64 1831.47 1012.08 1831.66 1011.39 1831.66C1010.72 1831.66 1010.19 1831.44 1009.79 1831.02C1009.39 1830.59 1009.19 1830.06 1009.19 1829.42C1009.19 1828.75 1009.39 1828.2 1009.79 1827.78C1010.19 1827.32 1010.71 1827.1 1011.35 1827.1C1011.99 1827.1 1012.54 1827.32 1012.99 1827.78C1013.47 1828.23 1013.71 1828.8 1013.71 1829.5Z" fill="white"/>
<path d="M1033.71 1978.63L1026.19 1978.95C1026.08 1978.87 1026.03 1978.64 1026.03 1978.27C1026.03 1977.89 1026.14 1977.64 1026.35 1977.51C1028.3 1977.51 1029.67 1977.27 1030.47 1976.79C1031.3 1976.31 1031.72 1975.33 1031.75 1973.87L1031.87 1958.51C1031.9 1956.93 1031.51 1955.96 1030.71 1955.59C1029.91 1955.21 1028.23 1955.03 1025.67 1955.03C1025.59 1954.95 1025.55 1954.73 1025.55 1954.39C1025.55 1954.01 1025.64 1953.75 1025.83 1953.59C1029.24 1953.37 1031.68 1952.45 1033.15 1950.83C1033.26 1950.72 1033.48 1950.67 1033.83 1950.67C1034.18 1950.67 1034.43 1950.72 1034.59 1950.83L1035.43 1973.87C1035.48 1975.36 1035.9 1976.35 1036.67 1976.83C1037.47 1977.28 1038.83 1977.51 1040.75 1977.51C1040.96 1977.67 1041.07 1977.92 1041.07 1978.27C1041.07 1978.61 1041.02 1978.84 1040.91 1978.95L1033.71 1978.63ZM1050.63 1978.63L1043.11 1978.95C1043 1978.87 1042.95 1978.64 1042.95 1978.27C1042.95 1977.89 1043.05 1977.64 1043.27 1977.51C1045.21 1977.51 1046.59 1977.27 1047.39 1976.79C1048.21 1976.31 1048.64 1975.33 1048.67 1973.87L1048.79 1958.51C1048.81 1956.93 1048.43 1955.96 1047.63 1955.59C1046.83 1955.21 1045.15 1955.03 1042.59 1955.03C1042.51 1954.95 1042.47 1954.73 1042.47 1954.39C1042.47 1954.01 1042.56 1953.75 1042.75 1953.59C1046.16 1953.37 1048.6 1952.45 1050.07 1950.83C1050.17 1950.72 1050.4 1950.67 1050.75 1950.67C1051.09 1950.67 1051.35 1950.72 1051.51 1950.83L1052.35 1973.87C1052.4 1975.36 1052.81 1976.35 1053.59 1976.83C1054.39 1977.28 1055.75 1977.51 1057.67 1977.51C1057.88 1977.67 1057.99 1977.92 1057.99 1978.27C1057.99 1978.61 1057.93 1978.84 1057.83 1978.95L1050.63 1978.63ZM1064.54 1976.79C1064.54 1977.45 1064.33 1977.99 1063.9 1978.39C1063.47 1978.76 1062.91 1978.95 1062.22 1978.95C1061.55 1978.95 1061.02 1978.73 1060.62 1978.31C1060.22 1977.88 1060.02 1977.35 1060.02 1976.71C1060.02 1976.04 1060.22 1975.49 1060.62 1975.07C1061.02 1974.61 1061.54 1974.39 1062.18 1974.39C1062.82 1974.39 1063.37 1974.61 1063.82 1975.07C1064.3 1975.52 1064.54 1976.09 1064.54 1976.79Z" fill="white"/>
<path d="M580.382 2385.43L573.802 2385.71C573.709 2385.64 573.662 2385.44 573.662 2385.12C573.662 2384.79 573.756 2384.57 573.942 2384.45C575.646 2384.45 576.847 2384.24 577.547 2383.82C578.271 2383.4 578.644 2382.55 578.667 2381.27L578.772 2367.83C578.796 2366.45 578.457 2365.6 577.757 2365.27C577.057 2364.94 575.587 2364.78 573.347 2364.78C573.277 2364.71 573.242 2364.52 573.242 2364.22C573.242 2363.89 573.324 2363.66 573.487 2363.52C576.474 2363.33 578.609 2362.53 579.892 2361.11C579.986 2361.01 580.184 2360.97 580.487 2360.97C580.791 2360.97 581.012 2361.01 581.152 2361.11L581.887 2381.27C581.934 2382.57 582.296 2383.44 582.972 2383.86C583.672 2384.25 584.862 2384.45 586.542 2384.45C586.729 2384.59 586.822 2384.81 586.822 2385.12C586.822 2385.42 586.776 2385.62 586.682 2385.71L580.382 2385.43ZM588.077 2385.71C587.961 2385.69 587.902 2385.57 587.902 2385.36C587.902 2384.87 587.996 2384.32 588.182 2383.72C588.392 2383.11 588.894 2382.3 589.687 2381.3C590.504 2380.27 591.414 2379.19 592.417 2378.05C593.421 2376.9 594.412 2375.71 595.392 2374.48C596.396 2373.22 597.224 2371.9 597.877 2370.52C598.554 2369.14 598.892 2367.83 598.892 2366.57C598.892 2365.28 598.496 2364.3 597.702 2363.63C596.932 2362.93 596.011 2362.58 594.937 2362.58C593.864 2362.58 593.001 2362.73 592.347 2363.03C591.694 2363.33 591.367 2363.73 591.367 2364.22C591.367 2364.36 591.507 2364.59 591.787 2364.92C592.067 2365.22 592.207 2365.56 592.207 2365.94C592.207 2366.73 591.636 2367.13 590.492 2367.13C589.956 2367.13 589.536 2366.97 589.232 2366.67C588.929 2366.37 588.777 2365.95 588.777 2365.41C588.777 2364.41 589.116 2363.54 589.792 2362.82C591.076 2361.44 592.954 2360.76 595.427 2360.76C597.271 2360.76 598.811 2361.23 600.047 2362.19C601.284 2363.15 601.902 2364.58 601.902 2366.5C601.902 2367.94 601.494 2369.45 600.677 2371.01C599.721 2372.85 598.799 2374.37 597.912 2375.56C597.026 2376.75 596.349 2377.64 595.882 2378.22C595.439 2378.78 594.739 2379.64 593.782 2380.81C592.849 2381.98 592.242 2382.72 591.962 2383.05C591.706 2383.38 591.577 2383.63 591.577 2383.82C591.577 2383.84 592.079 2383.86 593.082 2383.86H595.567C596.664 2383.86 597.481 2383.86 598.017 2383.86C598.577 2383.83 599.126 2383.75 599.662 2383.61C600.222 2383.47 600.596 2383.32 600.782 2383.16C600.992 2382.99 601.191 2382.7 601.377 2382.28C601.564 2381.84 601.681 2381.38 601.727 2380.92C601.774 2380.43 601.809 2379.74 601.832 2378.85C601.902 2378.78 602.112 2378.75 602.462 2378.75C602.836 2378.75 603.209 2378.9 603.582 2379.2L602.567 2386.06C600.724 2385.85 597.971 2385.75 594.307 2385.75L588.077 2385.71ZM610.672 2383.82C610.672 2384.4 610.486 2384.87 610.112 2385.22C609.739 2385.55 609.249 2385.71 608.642 2385.71C608.059 2385.71 607.592 2385.52 607.242 2385.15C606.892 2384.78 606.717 2384.31 606.717 2383.75C606.717 2383.17 606.892 2382.69 607.242 2382.32C607.592 2381.92 608.047 2381.72 608.607 2381.72C609.167 2381.72 609.646 2381.92 610.042 2382.32C610.462 2382.71 610.672 2383.21 610.672 2383.82Z" fill="white"/>
<path d="M388.654 2438.28L382.074 2438.56C381.981 2438.49 381.934 2438.29 381.934 2437.97C381.934 2437.64 382.027 2437.42 382.214 2437.3C383.917 2437.3 385.119 2437.09 385.819 2436.67C386.542 2436.25 386.916 2435.4 386.939 2434.12L387.044 2420.68C387.067 2419.3 386.729 2418.45 386.029 2418.12C385.329 2417.8 383.859 2417.63 381.619 2417.63C381.549 2417.56 381.514 2417.38 381.514 2417.07C381.514 2416.75 381.596 2416.51 381.759 2416.37C384.746 2416.19 386.881 2415.38 388.164 2413.96C388.257 2413.86 388.456 2413.82 388.759 2413.82C389.062 2413.82 389.284 2413.86 389.424 2413.96L390.159 2434.12C390.206 2435.42 390.567 2436.29 391.244 2436.71C391.944 2437.1 393.134 2437.3 394.814 2437.3C395.001 2437.44 395.094 2437.66 395.094 2437.97C395.094 2438.27 395.047 2438.47 394.954 2438.56L388.654 2438.28ZM400.339 2426.59C400.245 2426.59 400.117 2426.43 399.954 2426.1C399.79 2425.78 399.709 2425.54 399.709 2425.4C399.709 2425.26 399.72 2425.18 399.744 2425.16C401.564 2424.64 403.069 2423.91 404.259 2422.95C405.449 2422 406.044 2420.86 406.044 2419.56C406.044 2418.23 405.717 2417.21 405.064 2416.51C404.434 2415.79 403.64 2415.43 402.684 2415.43C401.75 2415.43 400.98 2415.6 400.374 2415.95C399.79 2416.28 399.499 2416.66 399.499 2417.11C399.499 2417.32 399.627 2417.57 399.884 2417.88C400.164 2418.18 400.304 2418.57 400.304 2419.03C400.304 2419.83 399.732 2420.22 398.589 2420.22C398.052 2420.22 397.632 2420.07 397.329 2419.77C397.025 2419.46 396.874 2419.04 396.874 2418.51C396.874 2417.11 397.515 2415.94 398.799 2415.01C400.105 2414.07 401.564 2413.61 403.174 2413.61C404.784 2413.61 406.149 2414.14 407.269 2415.22C408.412 2416.27 408.984 2417.7 408.984 2419.52C408.984 2420.83 408.517 2421.94 407.584 2422.85C406.65 2423.73 405.519 2424.4 404.189 2424.84C405.939 2425.05 407.397 2425.76 408.564 2426.98C409.754 2428.17 410.349 2429.72 410.349 2431.63C410.349 2433.52 409.555 2435.21 407.969 2436.71C406.405 2438.18 404.585 2438.91 402.509 2438.91C401.039 2438.91 399.709 2438.55 398.519 2437.83C397.352 2437.08 396.769 2436.01 396.769 2434.61C396.769 2434.07 396.92 2433.65 397.224 2433.35C397.55 2433.04 397.97 2432.89 398.484 2432.89C399.627 2432.89 400.199 2433.29 400.199 2434.08C400.199 2434.46 400.059 2434.81 399.779 2435.13C399.499 2435.44 399.359 2435.66 399.359 2435.8C399.359 2436.17 399.685 2436.5 400.339 2436.78C401.015 2437.03 401.68 2437.16 402.334 2437.16C403.85 2437.16 405.075 2436.65 406.009 2435.62C406.942 2434.6 407.409 2433.27 407.409 2431.63C407.409 2429.98 406.989 2428.61 406.149 2427.54C405.332 2426.44 404.27 2425.89 402.964 2425.89C402.1 2425.89 401.237 2426.13 400.374 2426.59H400.339ZM417.85 2436.67C417.85 2437.26 417.664 2437.72 417.29 2438.07C416.917 2438.4 416.427 2438.56 415.82 2438.56C415.237 2438.56 414.77 2438.38 414.42 2438C414.07 2437.63 413.895 2437.16 413.895 2436.6C413.895 2436.02 414.07 2435.54 414.42 2435.17C414.77 2434.77 415.225 2434.57 415.785 2434.57C416.345 2434.57 416.824 2434.77 417.22 2435.17C417.64 2435.56 417.85 2436.07 417.85 2436.67Z" fill="white"/>
<path d="M32.2777 2115.99L24.7577 2116.31C24.6511 2116.23 24.5977 2116.01 24.5977 2115.63C24.5977 2115.26 24.7044 2115.01 24.9177 2114.87C26.8644 2114.87 28.2377 2114.63 29.0377 2114.15C29.8644 2113.67 30.2911 2112.7 30.3177 2111.23L30.4377 2095.87C30.4644 2094.3 30.0777 2093.33 29.2777 2092.95C28.4777 2092.58 26.7977 2092.39 24.2377 2092.39C24.1577 2092.31 24.1177 2092.1 24.1177 2091.75C24.1177 2091.38 24.2111 2091.11 24.3977 2090.95C27.8111 2090.74 30.2511 2089.82 31.7177 2088.19C31.8244 2088.09 32.0511 2088.03 32.3977 2088.03C32.7444 2088.03 32.9977 2088.09 33.1577 2088.19L33.9977 2111.23C34.0511 2112.73 34.4644 2113.71 35.2377 2114.19C36.0377 2114.65 37.3977 2114.87 39.3177 2114.87C39.5311 2115.03 39.6377 2115.29 39.6377 2115.63C39.6377 2115.98 39.5844 2116.21 39.4777 2116.31L32.2777 2115.99ZM46.1918 2114.15C46.1918 2114.82 45.9785 2115.35 45.5518 2115.75C45.1251 2116.13 44.5651 2116.31 43.8718 2116.31C43.2051 2116.31 42.6718 2116.1 42.2718 2115.67C41.8718 2115.25 41.6718 2114.71 41.6718 2114.07C41.6718 2113.41 41.8718 2112.86 42.2718 2112.43C42.6718 2111.98 43.1918 2111.75 43.8318 2111.75C44.4718 2111.75 45.0185 2111.98 45.4718 2112.43C45.9518 2112.89 46.1918 2113.46 46.1918 2114.15Z" fill="white"/>
<path d="M27.5796 1971.96C27.4463 1971.93 27.3796 1971.8 27.3796 1971.56C27.3796 1971 27.4863 1970.37 27.6996 1969.68C27.9396 1968.99 28.5129 1968.07 29.4196 1966.92C30.3529 1965.75 31.3929 1964.51 32.5396 1963.2C33.6863 1961.89 34.8196 1960.53 35.9396 1959.12C37.0863 1957.68 38.0329 1956.17 38.7796 1954.6C39.5529 1953.03 39.9396 1951.52 39.9396 1950.08C39.9396 1948.61 39.4863 1947.49 38.5796 1946.72C37.6996 1945.92 36.6463 1945.52 35.4196 1945.52C34.1929 1945.52 33.2063 1945.69 32.4596 1946.04C31.7129 1946.39 31.3396 1946.84 31.3396 1947.4C31.3396 1947.56 31.4996 1947.83 31.8196 1948.2C32.1396 1948.55 32.2996 1948.93 32.2996 1949.36C32.2996 1950.27 31.6463 1950.72 30.3396 1950.72C29.7263 1950.72 29.2463 1950.55 28.8996 1950.2C28.5529 1949.85 28.3796 1949.37 28.3796 1948.76C28.3796 1947.61 28.7663 1946.63 29.5396 1945.8C31.0063 1944.23 33.1529 1943.44 35.9796 1943.44C38.0863 1943.44 39.8463 1943.99 41.2596 1945.08C42.6729 1946.17 43.3796 1947.81 43.3796 1950C43.3796 1951.65 42.9129 1953.37 41.9796 1955.16C40.8863 1957.27 39.8329 1959 38.8196 1960.36C37.8063 1961.72 37.0329 1962.73 36.4996 1963.4C35.9929 1964.04 35.1929 1965.03 34.0996 1966.36C33.0329 1967.69 32.3396 1968.55 32.0196 1968.92C31.7263 1969.29 31.5796 1969.59 31.5796 1969.8C31.5796 1969.83 32.1529 1969.84 33.2996 1969.84H36.1396C37.3929 1969.84 38.3263 1969.84 38.9396 1969.84C39.5796 1969.81 40.2063 1969.72 40.8196 1969.56C41.4596 1969.4 41.8863 1969.23 42.0996 1969.04C42.3396 1968.85 42.5663 1968.52 42.7796 1968.04C42.9929 1967.53 43.1263 1967.01 43.1796 1966.48C43.2329 1965.92 43.2729 1965.13 43.2996 1964.12C43.3796 1964.04 43.6196 1964 44.0196 1964C44.4463 1964 44.8729 1964.17 45.2996 1964.52L44.1396 1972.36C42.0329 1972.12 38.8863 1972 34.6996 1972L27.5796 1971.96ZM53.4027 1969.8C53.4027 1970.47 53.1894 1971 52.7627 1971.4C52.3361 1971.77 51.7761 1971.96 51.0827 1971.96C50.4161 1971.96 49.8827 1971.75 49.4827 1971.32C49.0827 1970.89 48.8827 1970.36 48.8827 1969.72C48.8827 1969.05 49.0827 1968.51 49.4827 1968.08C49.8827 1967.63 50.4027 1967.4 51.0427 1967.4C51.6827 1967.4 52.2294 1967.63 52.6827 1968.08C53.1627 1968.53 53.4027 1969.11 53.4027 1969.8Z" fill="white"/>
<path d="M285.89 1067.8C285.797 1067.8 285.669 1067.63 285.505 1067.31C285.342 1066.98 285.26 1066.75 285.26 1066.61C285.26 1066.47 285.272 1066.38 285.295 1066.36C287.115 1065.85 288.62 1065.11 289.81 1064.16C291 1063.2 291.595 1062.07 291.595 1060.76C291.595 1059.43 291.269 1058.42 290.615 1057.72C289.985 1056.99 289.192 1056.63 288.235 1056.63C287.302 1056.63 286.532 1056.81 285.925 1057.16C285.342 1057.48 285.05 1057.87 285.05 1058.31C285.05 1058.52 285.179 1058.78 285.435 1059.08C285.715 1059.38 285.855 1059.77 285.855 1060.24C285.855 1061.03 285.284 1061.43 284.14 1061.43C283.604 1061.43 283.184 1061.27 282.88 1060.97C282.577 1060.67 282.425 1060.25 282.425 1059.71C282.425 1058.31 283.067 1057.14 284.35 1056.21C285.657 1055.28 287.115 1054.81 288.725 1054.81C290.335 1054.81 291.7 1055.35 292.82 1056.42C293.964 1057.47 294.535 1058.91 294.535 1060.73C294.535 1062.03 294.069 1063.14 293.135 1064.05C292.202 1064.94 291.07 1065.6 289.74 1066.05C291.49 1066.26 292.949 1066.97 294.115 1068.18C295.305 1069.37 295.9 1070.92 295.9 1072.84C295.9 1074.73 295.107 1076.42 293.52 1077.91C291.957 1079.38 290.137 1080.12 288.06 1080.12C286.59 1080.12 285.26 1079.75 284.07 1079.03C282.904 1078.28 282.32 1077.21 282.32 1075.81C282.32 1075.27 282.472 1074.85 282.775 1074.55C283.102 1074.25 283.522 1074.1 284.035 1074.1C285.179 1074.1 285.75 1074.49 285.75 1075.29C285.75 1075.66 285.61 1076.01 285.33 1076.34C285.05 1076.64 284.91 1076.86 284.91 1077C284.91 1077.37 285.237 1077.7 285.89 1077.98C286.567 1078.24 287.232 1078.37 287.885 1078.37C289.402 1078.37 290.627 1077.85 291.56 1076.83C292.494 1075.8 292.96 1074.47 292.96 1072.84C292.96 1071.18 292.54 1069.81 291.7 1068.74C290.884 1067.64 289.822 1067.1 288.515 1067.1C287.652 1067.1 286.789 1067.33 285.925 1067.8H285.89ZM303.402 1077.88C303.402 1078.46 303.215 1078.93 302.842 1079.28C302.469 1079.6 301.979 1079.77 301.372 1079.77C300.789 1079.77 300.322 1079.58 299.972 1079.21C299.622 1078.83 299.447 1078.37 299.447 1077.81C299.447 1077.22 299.622 1076.74 299.972 1076.37C300.322 1075.97 300.777 1075.78 301.337 1075.78C301.897 1075.78 302.375 1075.97 302.772 1076.37C303.192 1076.77 303.402 1077.27 303.402 1077.88Z" fill="white"/>
<path d="M172.497 700.059L167.417 700.219C167.337 700.139 167.297 699.925 167.297 699.579C167.297 699.205 167.377 698.939 167.537 698.779C168.604 698.779 169.377 698.632 169.857 698.339C170.337 698.019 170.591 697.485 170.617 696.739L170.537 692.499H159.377C159.244 692.419 159.177 692.072 159.177 691.459C159.177 690.819 159.244 690.432 159.377 690.299L171.497 672.099C171.604 671.992 171.831 671.939 172.177 671.939C172.524 671.939 172.777 671.992 172.937 672.099L173.577 690.299H177.497C177.631 690.699 177.697 691.112 177.697 691.539C177.697 691.965 177.591 692.285 177.377 692.499H173.657L173.817 696.739C173.844 697.485 174.084 698.019 174.537 698.339C175.017 698.632 175.791 698.779 176.857 698.779C176.991 698.912 177.057 699.179 177.057 699.579C177.057 699.952 177.031 700.165 176.977 700.219L172.497 700.059ZM170.617 676.539C165.231 685.632 162.537 690.205 162.537 690.259C162.537 690.285 162.577 690.299 162.657 690.299H170.257C170.444 690.299 170.537 690.205 170.537 690.019L170.817 676.579C170.817 676.499 170.791 676.459 170.737 676.459C170.684 676.459 170.644 676.485 170.617 676.539ZM185.452 698.059C185.452 698.725 185.238 699.259 184.812 699.659C184.385 700.032 183.825 700.219 183.132 700.219C182.465 700.219 181.932 700.005 181.532 699.579C181.132 699.152 180.932 698.619 180.932 697.979C180.932 697.312 181.132 696.765 181.532 696.339C181.932 695.885 182.452 695.659 183.092 695.659C183.732 695.659 184.278 695.885 184.732 696.339C185.212 696.792 185.452 697.365 185.452 698.059Z" fill="white"/>
<path d="M181.908 490.85C180.974 490.85 180.121 490.997 179.348 491.29C178.601 491.557 178.214 491.69 178.188 491.69C178.054 491.69 177.908 491.477 177.748 491.05C177.588 490.623 177.508 490.25 177.508 489.93L177.828 478.85C177.828 478.37 178.068 478.13 178.548 478.13H184.828C186.161 478.13 187.054 478.023 187.508 477.81C187.961 477.57 188.361 476.97 188.708 476.01C188.761 475.957 188.948 475.93 189.268 475.93C189.614 475.93 189.908 476.023 190.148 476.21L188.788 480.33H180.508C180.214 480.33 180.068 480.557 180.068 481.01L179.468 489.37C180.534 489.13 181.481 489.01 182.308 489.01C184.948 489.01 187.121 489.823 188.828 491.45C190.534 493.05 191.388 494.957 191.388 497.17C191.388 499.837 190.614 502.09 189.068 503.93C187.548 505.743 185.428 506.65 182.708 506.65C181.054 506.65 179.548 506.223 178.188 505.37C176.854 504.517 176.188 503.303 176.188 501.73C176.188 501.117 176.361 500.637 176.708 500.29C177.054 499.943 177.534 499.77 178.148 499.77C179.454 499.77 180.108 500.223 180.108 501.13C180.108 501.557 179.948 501.957 179.628 502.33C179.308 502.677 179.148 502.93 179.148 503.09C179.148 503.517 179.521 503.89 180.268 504.21C181.041 504.503 181.788 504.65 182.508 504.65C184.241 504.65 185.601 503.97 186.588 502.61C187.574 501.223 188.068 499.53 188.068 497.53C188.068 495.503 187.494 493.89 186.348 492.69C185.201 491.463 183.721 490.85 181.908 490.85ZM199.541 504.09C199.541 504.757 199.328 505.29 198.901 505.69C198.475 506.063 197.915 506.25 197.221 506.25C196.555 506.25 196.021 506.037 195.621 505.61C195.221 505.183 195.021 504.65 195.021 504.01C195.021 503.343 195.221 502.797 195.621 502.37C196.021 501.917 196.541 501.69 197.181 501.69C197.821 501.69 198.368 501.917 198.821 502.37C199.301 502.823 199.541 503.397 199.541 504.09Z" fill="white"/>
<path d="M99.6012 260.275C101.228 260.275 102.468 259.595 103.321 258.235C104.175 256.848 104.601 255.128 104.601 253.075C104.601 250.995 104.041 249.368 102.921 248.195C101.801 247.022 100.575 246.435 99.2412 246.435C97.9078 246.435 96.7612 246.848 95.8012 247.675C94.8412 248.475 94.1078 249.422 93.6012 250.515C93.6545 257.022 95.6545 260.275 99.6012 260.275ZM103.641 236.515C103.641 236.062 103.361 235.715 102.801 235.475C102.268 235.208 101.628 235.075 100.881 235.075C98.3745 235.075 96.4278 236.662 95.0412 239.835C94.7478 240.528 94.4678 241.542 94.2012 242.875C93.9612 244.182 93.7478 245.808 93.5612 247.755C95.1612 245.702 97.3478 244.675 100.121 244.675C102.255 244.675 104.081 245.542 105.601 247.275C107.148 249.008 107.921 250.995 107.921 253.235C107.921 256.008 107.148 258.208 105.601 259.835C104.081 261.462 101.988 262.275 99.3212 262.275C96.6812 262.275 94.5212 261.155 92.8412 258.915C91.1612 256.648 90.3212 254.022 90.3212 251.035C90.3212 248.022 90.6945 245.182 91.4412 242.515C92.2145 239.848 93.3878 237.662 94.9612 235.955C96.5612 234.222 98.3478 233.355 100.321 233.355C102.295 233.355 103.828 233.728 104.921 234.475C106.041 235.195 106.601 236.262 106.601 237.675C106.601 238.288 106.428 238.768 106.081 239.115C105.735 239.462 105.255 239.635 104.641 239.635C103.335 239.635 102.681 239.182 102.681 238.275C102.681 237.902 102.841 237.542 103.161 237.195C103.481 236.822 103.641 236.595 103.641 236.515ZM116.325 259.715C116.325 260.382 116.111 260.915 115.685 261.315C115.258 261.688 114.698 261.875 114.005 261.875C113.338 261.875 112.805 261.662 112.405 261.235C112.005 260.808 111.805 260.275 111.805 259.635C111.805 258.968 112.005 258.422 112.405 257.995C112.805 257.542 113.325 257.315 113.965 257.315C114.605 257.315 115.151 257.542 115.605 257.995C116.085 258.448 116.325 259.022 116.325 259.715Z" fill="white"/>
<path d="M857.021 338.178C860.054 338.481 862.539 338.633 864.476 338.633C866.436 338.633 868.396 338.598 870.356 338.528C870.543 338.738 870.636 339.064 870.636 339.508L870.496 340.523L862.446 363.133C862.353 363.226 861.804 363.273 860.801 363.273C859.798 363.273 859.261 363.226 859.191 363.133L868.186 341.538L868.221 340.978C868.128 340.814 867.789 340.733 867.206 340.733H859.611C858.841 340.733 858.234 340.931 857.791 341.328C857.348 341.724 857.056 342.506 856.916 343.673C856.869 343.719 856.671 343.743 856.321 343.743C855.994 343.743 855.773 343.661 855.656 343.498L857.021 338.178ZM875.398 361.243C875.398 361.826 875.211 362.293 874.838 362.643C874.465 362.969 873.975 363.133 873.368 363.133C872.785 363.133 872.318 362.946 871.968 362.573C871.618 362.199 871.443 361.733 871.443 361.173C871.443 360.589 871.618 360.111 871.968 359.738C872.318 359.341 872.773 359.143 873.333 359.143C873.893 359.143 874.371 359.341 874.768 359.738C875.188 360.134 875.398 360.636 875.398 361.243Z" fill="white"/>
<circle cx="88.7969" cy="2105.8" r="5" fill="#838C94"/>
<g filter="url(#filter0_d_5491_10)">
<circle cx="90.7344" cy="1958.46" r="5" fill="#838C94"/>
</g>
<circle cx="359.355" cy="1958.46" r="5" fill="#838C94"/>
<path d="M354.355 2105.8C354.355 2108.57 352.117 2110.8 349.355 2110.8C346.594 2110.8 344.355 2108.57 344.355 2105.8C344.355 2103.04 346.594 2100.8 349.355 2100.8C352.117 2100.8 354.355 2103.04 354.355 2105.8Z" fill="#838C94"/>
<path d="M405.254 2157.98C405.254 2160.75 403.015 2162.98 400.254 2162.98C397.492 2162.98 395.254 2160.75 395.254 2157.98C395.254 2155.22 397.492 2152.98 400.254 2152.98C403.015 2152.98 405.254 2155.22 405.254 2157.98Z" fill="#838C94"/>
<path d="M405.254 2374.38C405.254 2377.14 403.015 2379.38 400.254 2379.38C397.492 2379.38 395.254 2377.14 395.254 2374.38C395.254 2371.61 397.492 2369.38 400.254 2369.38C403.015 2369.38 405.254 2371.61 405.254 2374.38Z" fill="#838C94"/>
<path d="M597.48 2321.52C597.48 2324.28 595.242 2326.52 592.48 2326.52C589.719 2326.52 587.48 2324.28 587.48 2321.52C587.48 2318.76 589.719 2316.52 592.48 2316.52C595.242 2316.52 597.48 2318.76 597.48 2321.52Z" fill="#838C94"/>
<path d="M597.48 2037.78C597.48 2040.54 595.242 2042.78 592.48 2042.78C589.719 2042.78 587.48 2040.54 587.48 2037.78C587.48 2035.02 589.719 2032.78 592.48 2032.78C595.242 2032.78 597.48 2035.02 597.48 2037.78Z" fill="#838C94"/>
<path d="M777.43 1965.45C777.43 1968.21 775.191 1970.45 772.43 1970.45C769.668 1970.45 767.43 1968.21 767.43 1965.45C767.43 1962.69 769.668 1960.45 772.43 1960.45C775.191 1960.45 777.43 1962.69 777.43 1965.45Z" fill="#838C94"/>
<path d="M998.91 1965.45C998.91 1968.21 996.672 1970.45 993.91 1970.45C991.149 1970.45 988.91 1968.21 988.91 1965.45C988.91 1962.69 991.149 1960.45 993.91 1960.45C996.672 1960.45 998.91 1962.69 998.91 1965.45Z" fill="#838C94"/>
<path d="M944.977 1818.16C944.977 1820.92 942.738 1823.16 939.977 1823.16C937.215 1823.16 934.977 1820.92 934.977 1818.16C934.977 1815.39 937.215 1813.16 939.977 1813.16C942.738 1813.16 944.977 1815.39 944.977 1818.16Z" fill="#838C94"/>
<path d="M787.43 1818.15C787.43 1820.91 785.191 1823.15 782.43 1823.15C779.668 1823.15 777.43 1820.91 777.43 1818.15C777.43 1815.39 779.668 1813.15 782.43 1813.15C785.191 1813.15 787.43 1815.39 787.43 1818.15Z" fill="#838C94"/>
<path d="M912.082 1645.02C912.082 1647.78 909.843 1650.02 907.082 1650.02C904.321 1650.02 902.082 1647.78 902.082 1645.02C902.082 1642.25 904.321 1640.02 907.082 1640.02C909.843 1640.02 912.082 1642.25 912.082 1645.02Z" fill="#838C94"/>
<path d="M653.375 1645.02C653.375 1647.78 651.136 1650.02 648.375 1650.02C645.614 1650.02 643.375 1647.78 643.375 1645.02C643.375 1642.25 645.614 1640.02 648.375 1640.02C651.136 1640.02 653.375 1642.25 653.375 1645.02Z" fill="#838C94"/>
<path d="M904.84 1201.54C904.84 1204.3 902.601 1206.54 899.84 1206.54C897.078 1206.54 894.84 1204.3 894.84 1201.54C894.84 1198.78 897.078 1196.54 899.84 1196.54C902.601 1196.54 904.84 1198.78 904.84 1201.54Z" fill="#838C94"/>
<path d="M607.039 1201.54C607.039 1204.3 604.8 1206.54 602.039 1206.54C599.278 1206.54 597.039 1204.3 597.039 1201.54C597.039 1198.78 599.278 1196.54 602.039 1196.54C604.8 1196.54 607.039 1198.78 607.039 1201.54Z" fill="#838C94"/>
<path d="M349 1067.27C349 1070.03 346.761 1072.27 344 1072.27C341.239 1072.27 339 1070.03 339 1067.27C339 1064.51 341.239 1062.27 344 1062.27C346.761 1062.27 349 1064.51 349 1067.27Z" fill="#838C94"/>
<path d="M522.594 1067.27C522.594 1070.03 520.355 1072.27 517.594 1072.27C514.832 1072.27 512.594 1070.03 512.594 1067.27C512.594 1064.51 514.832 1062.27 517.594 1062.27C520.355 1062.27 522.594 1064.51 522.594 1067.27Z" fill="#838C94"/>
<path d="M228.82 686.719C228.82 689.48 226.582 691.719 223.82 691.719C221.059 691.719 218.82 689.48 218.82 686.719C218.82 683.957 221.059 681.719 223.82 681.719C226.582 681.719 228.82 683.957 228.82 686.719Z" fill="#838C94"/>
<path d="M542.004 686.719C542.004 689.48 539.765 691.719 537.004 691.719C534.242 691.719 532.004 689.48 532.004 686.719C532.004 683.957 534.242 681.719 537.004 681.719C539.765 681.719 542.004 683.957 542.004 686.719Z" fill="#838C94"/>
<path d="M526.121 492.758C526.121 495.519 523.883 497.758 521.121 497.758C518.36 497.758 516.121 495.519 516.121 492.758C516.121 489.996 518.36 487.758 521.121 487.758C523.883 487.758 526.121 489.996 526.121 492.758Z" fill="#838C94"/>
<path d="M245.059 492.758C245.059 495.519 242.82 497.758 240.059 497.758C237.297 497.758 235.059 495.519 235.059 492.758C235.059 489.996 237.297 487.758 240.059 487.758C242.82 487.758 245.059 489.996 245.059 492.758Z" fill="#838C94"/>
<path d="M443.676 248.391C443.676 251.152 441.437 253.391 438.676 253.391C435.914 253.391 433.676 251.152 433.676 248.391C433.676 245.629 435.914 243.391 438.676 243.391C441.437 243.391 443.676 245.629 443.676 248.391Z" fill="#838C94"/>
<path d="M160.41 248.391C160.41 251.152 158.172 253.391 155.41 253.391C152.649 253.391 150.41 251.152 150.41 248.391C150.41 245.629 152.649 243.391 155.41 243.391C158.172 243.391 160.41 245.629 160.41 248.391Z" fill="#838C94"/>
<path d="M819.926 350.641C819.926 353.402 817.687 355.641 814.926 355.641C812.164 355.641 809.926 353.402 809.926 350.641C809.926 347.879 812.164 345.641 814.926 345.641C817.687 345.641 819.926 347.879 819.926 350.641Z" fill="#838C94"/>
<path d="M584.98 350.641C584.98 353.402 582.742 355.641 579.98 355.641C577.219 355.641 574.98 353.402 574.98 350.641C574.98 347.879 577.219 345.641 579.98 345.641C582.742 345.641 584.98 347.879 584.98 350.641Z" fill="#838C94"/>
<defs>
<filter id="filter0_d_5491_10" x="81.7344" y="1953.46" width="18" height="18" filterUnits="userSpaceOnUse" color-interpolation-filters="sRGB">
<feFlood flood-opacity="0" result="BackgroundImageFix"/>
<feColorMatrix in="SourceAlpha" type="matrix" values="0 0 0 0 0 0 0 0 0 0 0 0 0 0 0 0 0 0 127 0" result="hardAlpha"/>
<feOffset dy="4"/>
<feGaussianBlur stdDeviation="2"/>
<feComposite in2="hardAlpha" operator="out"/>
<feColorMatrix type="matrix" values="0 0 0 0 0 0 0 0 0 0 0 0 0 0 0 0 0 0 0.25 0"/>
<feBlend mode="normal" in2="BackgroundImageFix" result="effect1_dropShadow_5491_10"/>
<feBlend mode="normal" in="SourceGraphic" in2="effect1_dropShadow_5491_10" result="shape"/>
</filter>
</defs>
</svg>
