<svg width="1083" height="2465" viewBox="0 0 1083 2465" fill="none" xmlns="http://www.w3.org/2000/svg">
<path d="M465.802 24.6269L467.726 18.2488M465.802 24.6269L461.844 33.1537C460.036 37.0483 459.676 41.4461 460.832 45.5813C463.949 56.7278 470.379 79.8012 473.949 93.1318C474.852 96.5027 475.611 99.3855 476.308 102.115M465.802 24.6269C465.802 24.6269 468.167 45.0845 470.79 55.5244C475.428 73.986 481.789 87.6917 485.836 106.292C488.834 120.069 489.5 122.666 490.656 133.457M467.726 18.2488C467.726 18.2488 472.283 18.626 475.163 18.2488C480.271 17.5798 482.796 15.6787 487.496 13.5693C495.916 9.79013 499.958 5.24606 508.916 3.02627C516.574 1.12889 520.973 -0.692438 528.11 1.66003C529.683 2.17836 531.442 3.1316 533.018 4.11444C536.105 6.03827 537.814 9.46635 538.05 13.0954L538.955 26.9641C538.955 26.9641 533.654 27.8274 531.512 30.1537C527.969 34.0025 528.11 40.1482 531.512 43.55C536.874 48.9108 541.085 51.4407 548.524 52.9062C550.741 53.3431 553.144 53.6669 555.566 53.7973M467.726 18.2488C467.726 18.2488 468.359 25.5285 469.061 30.1537C470.592 40.2284 471.664 44.4137 474.08 54.3135C476.052 62.3938 478.014 66.8688 480.269 74.9904C483.191 85.5112 485.045 91.3821 487.049 102.115C489.224 113.765 490.656 133.457 490.656 133.457M563.621 28.3745C563.621 28.3745 576.377 37.4756 574.572 44.7191C572.669 52.3583 564.001 54.2514 555.566 53.7973M563.621 28.3745L563.621 11.654M563.621 28.3745L555.566 53.7973M563.621 11.654V11.654C566.897 8.93953 571.154 7.66107 575.342 8.40973C577.82 8.85271 580.564 9.42456 582.744 10.0906C593.717 13.4423 608.276 24.625 608.276 24.625C608.276 24.625 616.019 32.3894 622.097 35.6823C625.992 37.7927 632.183 39.681 634.43 40.3321C634.916 40.4729 635.227 40.9371 635.152 41.4375C634.507 45.7605 631.545 65.3239 628.931 77.9352C625.916 92.4866 620.331 106.107 619.005 119.958M563.621 11.654L555.566 33.4516L554.553 39.1888L555.566 53.7973M620.231 189.337C618.311 169.015 618.588 157.817 618.691 136.149M620.231 189.337C620.231 189.337 624.334 187.848 626.051 189.337C626.807 189.992 627.42 191.501 627.42 191.501M620.231 189.337C621.013 197.619 621.781 204.539 622.67 210.894M618.695 416.946C618.695 416.946 615.046 384.85 619.971 365.274C622.323 355.924 624.337 350.805 628.476 342.097C634.694 329.016 648.35 312.209 652.082 307.724C652.652 307.039 652.703 306.071 652.216 305.324C650.366 302.479 645.863 295.462 643.574 291.063C642.879 289.729 642.246 288.437 641.665 287.178C639.937 283.438 638.671 279.991 637.63 276.596M618.695 416.946L620.45 418.05L620.45 424.049M618.695 416.946L612.123 416.286M482.769 255.506C486.203 238.344 486.117 228.371 487.049 210.894C487.049 210.894 488.396 182.489 487.049 164.371C485.715 146.424 480.269 118.789 480.269 118.789C479.835 116.85 479.431 115.073 479.044 113.397M482.769 255.506C482.769 255.506 485.603 247.926 487.049 242.953C491.422 227.913 491.525 218.873 492.825 203.264C494.908 178.25 493.71 163.904 491.218 138.928C491.013 136.877 490.829 135.075 490.656 133.457M482.769 255.506L473.331 254.416M482.769 255.506C482.513 256.79 482.285 257.994 482.071 259.141M469.895 291.319C469.895 291.319 474.69 283.403 477.323 277.034C480.135 270.23 480.872 265.591 482.071 259.141M469.895 291.319L461.46 302.042C460.86 302.805 460.889 303.884 461.532 304.611C464.204 307.636 471.101 315.526 475.488 321.299C486.386 335.637 492.218 344.158 499.745 360.519C507.428 377.221 513.921 405.41 513.921 405.41L517.494 418.798L517.494 502.549M469.895 291.319L481.189 302.21C481.189 302.21 494.615 317.025 500.955 328.027C509.329 342.556 512.44 351.911 515.678 368.365C517.603 378.144 517.801 395.855 517.698 407.204M469.895 291.319L473.18 301.731C473.279 302.046 473.451 302.327 473.685 302.559C475.991 304.842 488.97 317.859 495.492 328.027C500.432 335.728 502.657 340.429 506.203 348.863C513.255 365.637 517.494 394.069 517.494 394.069M517.494 506.576L517.494 502.549M517.494 506.576L517.494 583.918M517.494 506.576L597.181 511.095M513.468 1541.63L509.937 1541.63M513.468 1541.63L513.468 1514.07M513.468 1541.63L589.076 1536.31M509.937 1541.63L510.831 1434.18M509.937 1541.63L500.037 1541.63C498.38 1541.63 497.037 1542.97 497.037 1544.63L497.037 1618.74C497.037 1619.84 497.251 1620.93 497.775 1621.9C498.156 1622.6 498.645 1623.41 499.147 1623.96V1623.96C501.117 1626.14 504.356 1626.42 507.281 1626.15L590.488 1618.41M511.647 1336.16L513.784 1275.69M511.647 1336.16C511.647 1336.16 509.702 1361.59 502.848 1368.43C494.187 1377.07 492.677 1389.43 492.677 1389.43C492.677 1389.43 481.515 1407.15 471.609 1415.89C455.309 1430.26 441.583 1433.1 420.543 1433.07C397.711 1433.03 384.439 1425.77 365.763 1412.64C355.62 1405.51 339.939 1390.98 339.939 1390.98M511.647 1336.16L511.037 1409.43M513.784 1275.69L513.807 1269.55M513.784 1275.69L513.687 1300.55M623.544 589.446L622.06 512.506M623.544 589.446L517.494 583.918M623.544 589.446L623.544 594.543M620.45 424.049L621.987 508.507M620.45 424.049L563.599 419.219M473.331 254.416L473.331 259.141M473.331 254.416C473.331 254.416 473.583 245.121 469.895 245.551C467.768 245.8 465.501 247.549 465.501 247.549M473.331 259.141L482.071 259.141M473.331 259.141L473.331 266.084C473.331 266.084 471.597 268.571 469.895 268.884C467.141 269.392 464.45 264.218 464.45 264.218M464.45 264.218L464.45 250.218L465.501 247.549M464.45 264.218L457.359 273.159C456.188 274.636 454.392 275.476 452.508 275.429L428.642 274.833C427.74 274.811 426.966 274.188 426.773 273.307C425.863 269.16 423.517 257.247 424.624 249.12C425.417 243.298 428.53 235.395 429.893 232.128C430.262 231.246 431.211 230.772 432.143 230.986L454.38 236.076C455.665 236.37 456.818 237.079 457.659 238.094L465.501 247.549M487.049 179.746L475.039 179.746M475.039 179.746L475.039 186.381M475.039 179.746L475.039 174.144C475.039 173.496 474.727 172.887 474.17 172.557C473.122 171.936 471.324 171.025 469.895 171.106C468.011 171.212 465.501 173.112 465.501 173.112M475.039 186.381L487.049 186.381M475.039 186.381L475.039 190.107C475.039 190.495 474.927 190.874 474.696 191.186C473.903 192.255 471.857 194.71 469.895 194.558C467.618 194.383 465.501 190.701 465.501 190.701M465.501 173.112L465.501 190.701M465.501 173.112L457.662 164.377C456.817 163.436 455.695 162.785 454.458 162.519L432.12 157.714C431.198 157.516 430.267 157.984 429.904 158.855C428.434 162.39 424.896 171.525 424.624 178.203C424.325 185.582 427.766 195.997 429.05 199.599C429.328 200.378 430.067 200.884 430.894 200.884L454.424 200.884C456.24 200.884 457.957 200.063 459.096 198.649L465.501 190.701M475.398 102.115C475.398 102.115 474.96 96.21 472.293 96.0113C470.752 95.8965 468.717 97.7051 468.717 97.7051M475.398 102.115L476.308 102.115M475.398 102.115L475.398 114.832M468.717 117.843C468.717 117.843 470.156 122.01 472.293 121.983C473.484 121.968 474.866 119.722 475.277 119.006C475.358 118.864 475.398 118.703 475.398 118.54L475.398 114.832M468.717 117.843L468.717 97.7051M468.717 117.843L460.229 124.665C459.203 125.489 457.936 125.953 456.621 125.986L433.986 126.554C433.054 126.578 432.232 125.956 432.023 125.048C431.027 120.733 428.443 108.339 429.522 100.097C430.36 93.697 433.569 85.8459 434.996 82.5835C435.387 81.6902 436.374 81.2413 437.313 81.504L460.466 87.9803C461.843 88.3656 463.038 89.2303 463.834 90.4185L468.717 97.7051M476.308 102.115C477.267 105.874 478.108 109.342 479.044 113.397M475.398 114.832L479.044 113.397M619.005 119.958C618.82 121.896 618.718 123.837 618.718 125.787C618.718 129.512 618.706 132.945 618.691 136.149M619.005 119.958L627.211 112.443C628.318 111.429 629.763 110.867 631.264 110.867L654.692 110.867C655.575 110.867 656.349 111.441 656.575 112.294C657.657 116.38 660.439 128.334 658.285 136.149C656.576 142.35 650.671 149.902 648.532 152.498C648.058 153.073 647.297 153.315 646.572 153.139L628.457 148.742C626.916 148.368 625.586 147.399 624.757 146.047L618.691 136.149M622.67 210.894C624.614 224.792 627.139 235.983 631.666 252.788C632.849 257.179 633.739 261.077 634.585 264.738M622.67 210.894L625.73 208.713M627.42 191.501L628.79 193.666C628.79 193.666 632.218 202.858 628.79 206.532C627.789 207.604 625.73 208.713 625.73 208.713M627.42 191.501L634.918 184.486C636.122 183.36 637.736 182.778 639.381 182.878L662.993 184.311C663.835 184.362 664.551 184.933 664.757 185.75C665.715 189.549 668.096 200.557 665.873 208.713C664.346 214.319 659.827 222.735 658.006 226.006C657.555 226.815 656.607 227.188 655.72 226.923L638.448 221.757C637.374 221.436 636.41 220.819 635.668 219.978L625.73 208.713M634.585 264.738L636.804 264.738M634.585 264.738C635.539 268.869 636.436 272.699 637.63 276.596M636.804 264.738L637.63 276.596M636.804 264.738L638.157 266.121C638.157 266.121 642.598 269.451 646.675 271.571M637.63 276.596C637.63 276.596 642.526 282.642 645.663 287.178M636.804 264.387V264.387C637.63 262.952 639.211 262.124 640.861 262.262L665.851 264.35C666.141 264.374 666.422 264.462 666.675 264.606L673.308 268.39C673.931 268.746 674.316 269.409 674.316 270.127L674.316 273.854M674.316 273.854L674.316 287.233C674.316 288.397 673.325 289.316 672.164 289.227L658.846 288.21C658.846 288.21 650.811 287.178 645.663 287.178M674.316 273.854C674.316 273.854 656.719 272.471 646.675 271.571M646.675 271.571C646.675 277.837 646.423 280.959 645.663 287.178M517.698 407.204L521.776 407.204M517.698 407.204C517.66 411.418 517.541 416.051 517.494 417.779L521.776 415.665M521.776 407.204L521.776 415.665M521.776 407.204L528.937 407.924M521.776 415.665L563.599 419.219M542.263 409.264C542.263 409.264 540.268 367.544 551.487 344.995C553.37 341.208 554.447 337.337 555.631 333.917M542.263 409.264L546.808 409.72M542.263 409.264L528.937 407.924M596.078 414.673C596.078 414.673 594.629 397.197 593.144 387.223C591.083 373.376 585.44 354.125 585.44 354.125C585.44 354.125 580.056 322.06 567.18 323.025C559.986 323.564 557.652 328.083 555.631 333.917M596.078 414.673L580.698 413.127M596.078 414.673L612.123 416.286M517.494 502.549L621.987 508.507M621.987 508.507L622.06 512.506M622.06 512.506L597.181 511.095M517.494 583.918L517.494 589.446M517.494 589.446L517.494 661.529M517.494 589.446L582.874 592.588M623.544 594.543L624.664 665.07M623.544 594.543L582.874 592.588M517.494 661.529L624.664 665.07M517.494 661.529L517.494 666.835M624.664 665.07L624.755 670.804M517.494 666.835L517.494 700.854L517.219 734.279M517.494 666.835L624.755 670.804M624.755 670.804L625.822 738.026M517.219 734.279L517.171 740.027M517.219 734.279L563.599 735.879M625.822 738.026L625.895 742.675M625.822 738.026L563.599 735.879M517.171 740.027L516.653 803.042M517.171 740.027L582.874 741.628M625.895 742.675L626.882 804.821M625.895 742.675L582.874 741.628M516.653 803.042L626.882 804.821M516.653 803.042L516.608 808.569M626.882 804.821L626.941 808.569M516.608 808.569L626.941 808.569M516.608 808.569L516.118 868.048M626.941 808.569L627.312 831.894L628.087 869.143M516.118 868.048L516.076 873.135M516.118 868.048L619.88 869.063M628.087 869.143L628.17 873.135M628.087 869.143L619.88 869.063M516.076 873.135L628.17 873.135M516.076 873.135L515.62 928.633M628.17 873.135L629.326 928.633M515.62 928.633L629.326 928.633M515.62 928.633L515.58 933.504M629.326 928.633L629.427 933.504M515.58 933.504L629.427 933.504M515.58 933.504L515.163 984.134M629.427 933.504L630.481 984.134M515.163 984.134L630.481 984.134M515.163 984.134L515.109 990.767M630.481 984.134L630.596 989.638M515.109 990.767L514.718 1038.31M515.109 990.767L585.21 989.638M630.596 989.638L631.609 1038.31M630.596 989.638L585.21 989.638M514.718 1038.31L514.694 1041.19L514.686 1043.17M514.718 1038.31L621.68 1038.31M631.609 1038.31L631.71 1043.17M631.609 1038.31L621.68 1038.31M514.686 1043.17L631.71 1043.17M514.686 1043.17L514.51 1088.72M631.71 1043.17L632.626 1087.17M514.51 1088.72L514.49 1093.8M514.51 1088.72L566.032 1088.04M632.626 1087.17L632.723 1091.82M632.626 1087.17L566.032 1088.04M514.49 1093.8L632.723 1091.82M514.49 1093.8L514.321 1137.36M632.723 1091.82L633.261 1117.67L633.564 1134.49M514.321 1137.36L633.564 1134.49M514.321 1137.36L514.301 1142.45M633.564 1134.49L633.648 1139.14M514.301 1142.45L514.149 1181.58M514.301 1142.45L527.447 1142.08M633.648 1139.14L634.365 1178.94M633.648 1139.14L527.447 1142.08M514.149 1181.58L634.365 1178.94M514.149 1181.58L514.125 1187.78M634.365 1178.94L634.441 1183.13M514.125 1187.78L513.987 1223.38M514.125 1187.78L546.808 1186.52M634.441 1183.13L635.118 1220.72M634.441 1183.13L546.808 1186.52M513.987 1223.38L635.118 1220.72M513.987 1223.38L513.966 1228.68M635.118 1220.72L635.198 1225.13M513.966 1228.68L635.198 1225.13M513.966 1228.68L513.831 1263.4M635.198 1225.13L635.808 1258.97M513.831 1263.4L635.808 1258.97M513.831 1263.4L513.807 1269.55M635.808 1258.97L635.888 1263.4M513.807 1269.55L587.033 1265.86M635.888 1263.4L636.486 1296.58M635.888 1263.4L587.033 1265.86M513.687 1300.55L636.486 1296.58M513.687 1300.55L513.667 1305.63M636.486 1296.58L636.557 1300.55M513.667 1305.63L577.584 1303.64L636.557 1300.55M513.667 1305.63L513.549 1336.16M636.557 1300.55L637.105 1330.9M513.549 1336.16L580.925 1333.72L628.439 1331.34M513.549 1336.16L513.526 1341.93M637.105 1330.9L637.199 1336.16M637.105 1330.9L628.439 1331.34M513.526 1341.93L513.468 1357.03L513.468 1369.96M513.526 1341.93L637.199 1336.16M637.199 1336.16L637.701 1364.01M513.468 1369.96L637.701 1364.01M513.468 1369.96L513.468 1375.05M637.701 1364.01L637.783 1368.53M513.468 1375.05L637.783 1368.53M513.468 1375.05L513.468 1400.25M637.783 1368.53L638.248 1394.32M513.468 1400.25L638.248 1394.32M513.468 1400.25L513.468 1406.2M638.248 1394.32L638.324 1398.56M513.468 1406.2L513.468 1430.26M513.468 1406.2L589.076 1401.57M638.324 1398.56L638.491 1407.81M638.324 1398.56L589.076 1401.57M513.468 1430.26L638.768 1423.19M513.468 1430.26L513.468 1435.64M638.768 1423.19L638.812 1425.61L638.842 1427.16M638.768 1423.19L638.629 1415.5M513.468 1435.64L638.842 1427.16M513.468 1435.64L513.468 1458.29M638.842 1427.16L639.286 1450.07M638.842 1427.16C638.842 1427.16 644.373 1433.26 648.481 1436.23C661.476 1445.62 670.298 1449.07 686.654 1451.36C703.135 1453.66 715.101 1451.83 730.969 1446.83C743.052 1443.01 749.274 1438.98 759.748 1431.85C772.223 1423.36 787.117 1406.68 791.702 1401.4C792.655 1400.3 793.649 1399.26 794.717 1398.27V1398.27C798.564 1394.71 803.58 1391.62 808.545 1393.3C809.672 1393.68 810.748 1394.25 811.635 1395.09C815.9 1399.11 819.466 1403.18 820.129 1409.01C821.56 1421.59 820.018 1426.03 816.998 1441.28C811.484 1469.13 797.107 1488.46 788.031 1515.36C778.941 1542.3 771.837 1557.66 770.664 1586.07C769.693 1609.6 771.589 1623.29 778.107 1645.92C784.537 1668.25 802.393 1693.08 816.041 1709.79C826.709 1722.84 834.727 1738.24 835.073 1755.09C835.435 1772.75 833.915 1795.66 825.492 1811.13C813.76 1832.67 780.025 1848.32 780.025 1848.32C780.025 1848.32 762.083 1827.51 748.956 1818.04C733.39 1806.8 722.794 1802.04 703.989 1798.19C692.569 1795.85 674.218 1796.02 674.218 1796.02M513.468 1458.29L639.286 1450.07M513.468 1458.29L513.468 1463.11M639.286 1450.07L639.379 1454.88M513.468 1463.11L513.468 1484.63M513.468 1463.11L546.808 1460.93M639.379 1454.88L639.906 1476.13M639.379 1454.88L546.808 1460.93M513.468 1484.63L639.906 1476.13M513.468 1484.63L513.468 1490M639.906 1476.13L639.906 1482.09M513.468 1490L639.906 1482.09M513.468 1490L513.468 1509.54M639.906 1482.09L640.723 1502.18M518.281 86.7574C517.973 82.7157 521.483 79.472 525.534 79.3322C529.729 79.1875 533.622 82.5722 533.304 86.7574C533.183 88.3539 532.521 89.7307 531.512 90.7925M518.281 86.7574C518.281 86.7574 514.466 88.5437 512.76 90.7925M518.281 86.7574C518.331 87.4035 518.466 88.012 518.675 88.5773M518.281 86.7574L517.319 76.5024M513.468 1509.54L640.723 1502.18M513.468 1509.54L513.468 1514.07M640.723 1502.18L640.723 1505.29M513.468 1514.07L640.723 1505.29M640.723 1505.29L640.723 1524.22L637.788 1524.22L637.788 1529.94M339.939 1390.98L311.063 1390.98L306.404 1390.98C306.404 1390.98 305.799 1388.31 305.983 1385.71M339.939 1390.98C339.939 1390.98 343.563 1382.49 339.907 1381.52C338.853 1381.24 338.997 1381.26 337.938 1381.52C335.69 1382.08 336.576 1385.71 336.576 1385.71L330.119 1385.71M316.892 1385.71L311.063 1385.71C311.063 1385.71 311.269 1383.58 311.063 1382.5C310.728 1380.75 308.336 1380.98 307.658 1381.52C306.539 1382.42 306.101 1384.05 305.983 1385.71M316.892 1385.71L328.695 1385.71L330.119 1385.71M316.892 1385.71L317.58 1378.84M316.892 1370.53C314.793 1370.24 313.229 1369.93 313.229 1369.93C315.669 1366.37 315.124 1365.45 319.441 1365.45C322.027 1365.45 324.573 1365.45 327.707 1365.45C332.207 1365.45 333.219 1365.63 334.529 1369.93C334.529 1369.93 332.267 1370.32 329.496 1370.65M316.892 1370.53C318.745 1370.79 321.014 1371.05 322.991 1371.08C324.928 1371.11 327.363 1370.9 329.496 1370.65M316.892 1370.53L316.892 1373.01M316.892 1373.01L308.41 1373.01C308.41 1377.31 312.849 1378.55 317.58 1378.84M316.892 1373.01L329.496 1373.01M329.496 1370.65L329.496 1373.01M329.496 1373.01L336.576 1373.01C337.334 1377.97 333.242 1378.82 328.695 1378.91M317.58 1378.84C319.301 1378.95 321.061 1378.93 322.659 1378.89C324.494 1378.85 326.641 1378.96 328.695 1378.91M328.695 1378.91L330.119 1385.71M305.983 1385.71C300.499 1391.27 294.133 1399.7 290.478 1410.39C285.413 1425.21 285.618 1433.11 287.3 1447.28C288.981 1461.45 299.051 1484.86 299.051 1484.86M299.051 1484.86C299.051 1484.86 312.212 1511.43 320.16 1528.24C323.936 1536.22 327.187 1542.16 330.188 1548.21M299.051 1484.86C299.051 1484.86 286.493 1439.07 301.569 1417.49C307.906 1408.41 312.166 1401.09 322.659 1398.56C328.334 1397.19 332.302 1397.04 337.938 1398.56C343.305 1400 347.925 1404.29 350.625 1407.28C352.414 1409.27 354.086 1411.35 355.995 1413.22C362.213 1419.31 377.44 1433.57 389.314 1439.4C403.363 1446.3 413.197 1449.25 428.826 1450.07C444.775 1450.91 454.403 1449.36 469.145 1443.22C478.304 1439.4 483.173 1436.36 491.005 1430.26C499.913 1423.33 511.037 1409.43 511.037 1409.43M807.411 1373.1C807.411 1373.1 810.952 1374.64 816.998 1379.78C831.577 1392.18 835.725 1406.13 832.533 1429.43C831.17 1439.38 830.216 1441.1 823.32 1462.99C820.25 1472.73 803.992 1508.87 803.992 1508.87C803.992 1508.87 776.146 1579.54 786.342 1621.63C793.331 1650.49 804.445 1659.13 822.328 1684.07C843.051 1712.98 855.879 1729.97 874.007 1763.52C897.478 1806.97 911.83 1840.45 914.726 1894.06C915.9 1915.79 915.953 1922.44 912.462 1949.9C908.97 1977.35 900.637 2003.92 887.421 2037.62C873.419 2073.33 856.344 2097.88 835.888 2123.45C823.832 2138.52 810.185 2153.79 792.94 2167.64C737.52 2212.12 706.619 2228.13 636.136 2245.41C571.648 2261.22 538.65 2266.81 472.542 2269.43C429.937 2271.11 409.073 2267.86 364.043 2252.88C330.002 2241.55 302.277 2226.13 275.817 2201.9C263.804 2190.9 257.46 2184.15 247.471 2171.37C233.268 2153.2 217.48 2121.04 217.48 2121.04C217.48 2121.04 206.396 2091.35 201.028 2068.33C194.78 2041.55 189.77 2021.4 190.229 1993.9C190.301 1989.63 190.377 1985.89 190.507 1982.39M807.411 1373.1C807.411 1373.1 789.424 1361.06 779.046 1359.18C775.807 1358.59 773.109 1358.73 771.524 1358.92C770.511 1359.05 769.605 1359.54 768.865 1360.24C766.03 1362.94 758.505 1370.19 754.014 1375.51C743.078 1388.48 735.761 1396.09 721.417 1404.62C711.518 1410.51 705.591 1413.38 694.38 1416.02C680.285 1419.34 671.136 1419.9 657.105 1416.02C651.575 1414.49 644.325 1410.89 640.723 1409.01M807.411 1373.1C807.411 1373.1 799.056 1372.91 794.064 1374.41C787.849 1376.28 781.852 1383.43 779.795 1386.08C779.285 1386.74 778.802 1387.41 778.291 1388.06C775.368 1391.82 764.508 1405.45 755.264 1412.55C743.476 1421.61 735.64 1427.92 721.417 1432.25C707.735 1436.42 699.24 1437.15 685.034 1435.49C673.655 1434.17 666.982 1432.02 657.105 1425.61C650.007 1421 640.723 1409.01 640.723 1409.01M638.491 1407.81L638.629 1415.5M638.491 1407.81C638.491 1407.81 639.337 1408.28 640.723 1409.01M511.037 1409.43L510.956 1419.2M510.956 1419.2C510.956 1419.2 500.955 1432.72 492.677 1439.4C484.421 1446.06 479.05 1449.18 469.145 1452.98C454.319 1458.68 444.669 1459.4 428.826 1458.29C412.846 1457.18 403.701 1454.32 389.314 1447.28C377.721 1441.6 364.019 1429.48 357.299 1423.19C354.505 1420.57 352.074 1417.6 349.491 1414.78C346.538 1411.55 342.192 1407.51 337.938 1406.2C332.362 1404.47 328.519 1404.32 322.991 1406.2C315.35 1408.79 307.658 1419.2 307.658 1419.2C307.658 1419.2 300.648 1429.15 299.051 1439.99C297.209 1452.5 298.259 1467.35 301.569 1479.55C304.766 1491.33 309.776 1496.74 315.042 1507.76C325.274 1529.15 333.806 1540.02 341.282 1562.53C345.776 1576.06 347.744 1583.9 350.138 1597.95C351.826 1607.87 352.709 1613.49 353.09 1623.54C353.871 1644.17 353.09 1659.62 344.829 1678.33L329.474 1703.9C329.474 1703.9 305.947 1736.75 291.755 1758.67C270.311 1791.79 257.433 1810.29 239.604 1845.65C226.705 1871.24 218.799 1886.51 210.085 1913.81C203.366 1934.86 199.826 1946.36 197.293 1967.93C196.108 1978.02 195.653 1993.9 195.653 1993.9C195.653 1993.9 194.722 2013.49 195.653 2025.98C197.426 2049.79 201.889 2062.82 208.773 2085.68C213.283 2100.65 215.775 2109.15 222.22 2123.4C230.288 2141.23 235.588 2151.14 247.471 2166.69C263.703 2187.94 275.916 2199.98 298.315 2214.58C298.315 2214.58 314.38 2225.61 325.278 2231.66C341.839 2240.86 351.732 2245.07 369.591 2251.39C387.55 2257.73 397.909 2260.96 416.722 2263.94C440.837 2267.76 454.908 2266.83 479.313 2266.15C510.755 2265.27 528.282 2262.4 559.396 2257.79C587.224 2253.67 602.809 2250.82 630.093 2243.96C656.269 2237.38 671.324 2234.25 696.179 2223.72C711.946 2217.05 720.56 2212.65 735.349 2204.02C751.442 2194.63 759.998 2188.51 774.834 2177.23C784.363 2169.99 789.693 2165.87 798.58 2157.86C807.133 2150.14 811.862 2146.02 819.67 2137.55C830.901 2125.37 836.752 2118.07 846.383 2104.59C854.262 2093.56 858.187 2086.78 864.974 2074.91C870.665 2064.95 873.8 2059.31 878.676 2048.93C884.219 2037.12 886.865 2030.28 891.261 2018C896.165 2004.3 898.631 1996.49 902.14 1982.37C905.214 1970.01 906.668 1962.98 908.54 1950.38C910.445 1937.54 911.543 1930.28 911.739 1917.31C911.972 1901.94 910.532 1893.31 908.54 1878.06C905.867 1857.6 904.919 1845.77 898.301 1826.23C894.136 1813.93 890.598 1807.47 885.075 1795.72C876.578 1777.65 871.272 1767.74 861.184 1750.5C849.723 1730.92 842.154 1720.63 829.4 1701.86C817.275 1684.03 798.64 1658.3 793.077 1650.65C792.001 1649.17 791.133 1647.56 790.507 1645.84C788.343 1639.9 783.113 1625.26 781.588 1618.34C778.103 1602.53 781.032 1584.04 781.032 1584.04C782.679 1566.18 785.166 1556.79 790.263 1539.04C796.512 1517.28 803.508 1505.06 812.121 1484.12C817.045 1472.15 819.346 1467.32 824.585 1453.41C829.676 1439.9 832.27 1426.91 830.645 1412.55C829.433 1401.86 828.14 1394.27 820.129 1387.08C815.531 1382.96 812.271 1380.05 806.101 1379.78C801.183 1379.57 798.466 1381.32 794.064 1383.53C784.464 1388.33 782.961 1396.09 775.405 1403.72C764.704 1414.51 758.367 1421.47 745.412 1429.43C734.936 1435.86 716.492 1441.28 716.492 1441.28C716.492 1441.28 692.461 1445.4 676.429 1440.47C668.072 1437.9 663.179 1435.85 656.114 1430.7C648.785 1425.35 638.629 1415.5 638.629 1415.5M510.956 1419.2L510.831 1434.18M510.831 1434.18C510.831 1434.18 500.493 1444.81 492.677 1450.07C482.481 1456.93 475.838 1459.69 464.034 1463.11C452.452 1466.46 445.517 1467.35 433.459 1467.42C417.232 1467.51 407.663 1466.07 392.544 1460.18C376.994 1454.12 369.364 1447.8 356.651 1436.99C350.874 1432.08 343.73 1425.05 339.461 1420.76C336.973 1418.26 334.198 1415.82 330.736 1415.15C330.385 1415.08 330.042 1415.03 329.718 1415.01C324.942 1414.74 322.316 1417.27 318.742 1420.45C316.232 1422.68 313.996 1428.24 312.475 1432.86C310.933 1437.55 310.383 1442.48 310.454 1447.41C310.524 1452.31 310.708 1458.63 311.177 1463.14C313.107 1481.7 326.088 1505.68 329.231 1511.27C329.685 1512.07 330.133 1512.86 330.577 1513.67C333.194 1518.45 342.948 1536.49 348.231 1549.25C353.578 1562.16 356.31 1569.57 359.9 1583.07C362.999 1594.73 364.632 1601.36 365.956 1613.35C367.255 1625.11 366.695 1643.63 366.695 1643.63C366.695 1643.63 364.984 1655.52 363.15 1662.98C360.005 1675.77 357.201 1682.73 351.776 1694.74C346.631 1706.12 338.549 1721.4 338.549 1721.4C338.549 1721.4 355.115 1721.4 365.536 1721.4C380.018 1721.4 383.766 1722.5 394.985 1725.49C407.592 1728.86 415.664 1730.8 426.937 1737.37C438.271 1743.98 444.706 1748.17 453.375 1758.01C460.588 1766.2 467.372 1780.78 467.372 1780.78L514.235 1775.9M674.218 1796.02L674.218 1762.6C674.218 1760.82 672.677 1759.43 670.907 1759.61L635.364 1763.31M674.218 1796.02L674.956 1857.51C674.98 1859.46 674.864 1861.5 673.842 1863.16V1863.16V1863.16C673.019 1864.5 671.472 1865.17 669.911 1865.37L484.283 1889.26C481.161 1889.66 477.573 1889.89 475.347 1887.67V1887.67C473.36 1885.68 473.107 1880.83 473.107 1880.83L472.192 1787.38C472.181 1786.27 472.529 1785.19 473.183 1784.3V1784.3C473.972 1783.22 475.15 1782.49 476.467 1782.27L514.235 1775.9M393.392 1515.65L389.649 1517.07M393.392 1515.65C393.392 1515.65 398.87 1516.86 401.118 1520.46M393.392 1515.65L393.392 1513.11C393.392 1512.47 392.797 1511.99 392.171 1512.14L388.652 1512.93C387.983 1513.08 387.662 1513.85 388.022 1514.43L389.649 1517.07M389.649 1517.07C389.649 1517.07 386.295 1521.34 386.889 1525.02M390.871 1534.89C379.146 1535.85 370.851 1528.14 371.404 1516.22C371.923 1505.02 381.339 1496.48 392.544 1496.8C404.059 1497.13 413.295 1507.01 412.522 1518.5C412.522 1518.5 412.553 1524.6 410.229 1527.27C408.647 1529.09 404.961 1530.49 404.961 1530.49M390.871 1534.89C390.871 1534.89 394.75 1537.87 398.84 1536.21C402.076 1534.89 404.548 1532.7 404.961 1530.49M390.871 1534.89C389.821 1533.95 388.589 1530.93 387.957 1529.3M386.889 1525.02C387.233 1527.14 387.281 1527.55 387.957 1529.3M386.889 1525.02C386.889 1525.02 384.899 1523.27 384.224 1521.17V1521.17C382.575 1516.06 383.911 1510.12 389.018 1508.45C390.311 1508.03 391.544 1507.75 392.544 1507.76C397.248 1507.79 401.024 1511.51 401.118 1516.22L401.118 1520.46M401.118 1520.46C402.918 1523.35 404.1 1526.23 404.889 1528.92C405.04 1529.44 405.058 1529.96 404.961 1530.49M387.957 1529.3C387.957 1529.3 383.435 1528.92 381.393 1526.39C378.805 1523.18 378.082 1519.61 378.543 1516.22C379.531 1508.94 385.198 1503.57 392.544 1503.65C399.802 1503.73 405.371 1507.91 406.088 1515.13C406.805 1522.36 402.473 1522.29 402.177 1522.58M637.788 1529.94L637.788 1532.88L589.076 1536.31M637.788 1529.94L647.829 1529.51C650.563 1529.4 652.843 1531.58 652.843 1534.32V1534.32L652.843 1603.36C652.843 1606.14 652.48 1609.15 650.441 1611.04V1611.04C649.815 1611.62 648.863 1612.16 648.081 1612.56C647.205 1613 646.24 1613.23 645.262 1613.32L611.748 1616.43M330.188 1548.21C333.16 1554.19 335.885 1560.29 338.632 1568.59C343.313 1582.74 346.724 1605.88 346.724 1605.88C346.724 1605.88 350.577 1635.03 346.724 1653.03C343.41 1668.51 340.267 1677.49 331.243 1690.5C325.138 1699.3 317.457 1709.61 311.21 1717.84C303.639 1727.81 296.137 1737.82 289.057 1748.15C281.226 1759.57 270.695 1775.21 263.165 1787.43C249.465 1809.66 241.762 1822.2 230.264 1845.65C219.586 1867.43 213.954 1883.25 206.206 1906.24C199.866 1925.05 196.808 1935.61 193.596 1953.91C191.578 1965.42 190.853 1973.05 190.507 1982.39M330.188 1548.21C330.188 1548.21 337.622 1575.01 338.549 1592.64C339.306 1607.06 340.069 1615.58 336.46 1629.56C329.211 1657.63 301.794 1695.09 289.924 1710.4C286.285 1715.1 282.738 1719.82 279.503 1724.8C268.196 1742.21 240.011 1786.89 224.555 1822.67C206.641 1864.14 191.37 1890.25 188.806 1935.35C187.719 1954.47 190.507 1982.39 190.507 1982.39M845.38 1908.56C845.76 1909.71 846.025 1910.94 846.165 1912.27C847.112 1921.21 840.475 1928.8 831.805 1930.43C828.553 1931.03 825.291 1930.27 822.495 1928.61M845.38 1908.56C843.453 1902.75 838.557 1899.31 831.805 1898.99C822.037 1898.54 813.297 1907.64 814.734 1917.31C815.038 1919.36 815.789 1921.31 816.871 1923.07M845.38 1908.56C845.38 1908.56 845.123 1906.52 844.225 1904.15M841.288 1899.32C836.857 1894.87 831.552 1894.63 825.492 1896.28C819.141 1898.02 815.212 1901.48 813.109 1907.72C810.866 1914.37 816.871 1923.07 816.871 1923.07M841.288 1899.32C841.288 1899.32 836.885 1890.96 831.805 1888.7C824.119 1885.28 816.677 1887.91 810.941 1894.06C806.317 1899.02 804.479 1903.99 805.793 1910.65C807.17 1917.62 817.76 1924.36 817.76 1924.36M841.288 1899.32C842.664 1900.7 843.6 1902.51 844.225 1904.15M816.871 1923.07C817.146 1923.51 817.443 1923.95 817.76 1924.36M817.76 1924.36C819.055 1926.07 820.676 1927.53 822.495 1928.61M844.225 1904.15C844.225 1904.15 845.522 1894.34 843.389 1888.7C842.383 1886.04 839.934 1883.62 837.16 1881.6C830.229 1876.56 820.984 1876.92 812.874 1879.7V1879.7C807.417 1881.57 802.951 1885.67 800.663 1890.96L799.363 1893.97C796.948 1899.56 796.521 1905.81 798.153 1911.67L798.636 1913.41C800.099 1918.66 803.571 1923.14 808.303 1925.85V1925.85C811.452 1927.66 815.019 1928.61 818.65 1928.61L822.495 1928.61M754.97 1958.09C755.35 1959.24 755.615 1960.48 755.755 1961.81C756.702 1970.75 750.065 1979.17 741.395 1980.8C738.143 1981.41 734.882 1980.65 732.085 1978.99M754.97 1958.09C753.043 1952.28 749.411 1949.27 742.659 1948.96C732.891 1948.5 722.792 1958.01 724.229 1967.69C724.533 1969.73 725.283 1971.69 726.365 1973.44M754.97 1958.09C754.97 1958.09 754.713 1956.05 753.815 1953.69M750.783 1949.69C746.352 1945.24 741.976 1944.69 735.915 1946.34C729.564 1948.07 726.333 1952.9 724.229 1959.14C721.987 1965.79 726.365 1973.44 726.365 1973.44M750.783 1949.69C750.783 1949.69 748.427 1941.72 743.347 1939.46C735.661 1936.04 727.201 1939.36 721.465 1945.52C716.842 1950.48 715.059 1955.93 716.373 1962.58C717.75 1969.55 727.255 1974.74 727.255 1974.74M750.783 1949.69C752.159 1951.08 753.19 1952.04 753.815 1953.69M726.365 1973.44C726.641 1973.89 726.938 1974.32 727.255 1974.74M727.255 1974.74C728.549 1976.45 730.267 1977.91 732.085 1978.99M753.815 1953.69C753.815 1953.69 757.104 1946.07 754.97 1940.42C753.526 1936.6 750.555 1930.98 746.47 1928.61C741.529 1925.76 732.13 1926.76 726.73 1928.61L722.796 1929.96C717.096 1931.91 712.483 1936.18 710.093 1941.71L709.74 1942.53C706.816 1949.29 706.299 1956.85 708.275 1963.96L708.37 1964.3C709.741 1969.22 712.994 1973.41 717.428 1975.96C720.881 1977.94 724.795 1978.99 728.778 1978.99L732.085 1978.99M753.815 2083.14C755.158 2092.89 748.533 2101.89 738.705 2102.4C731.558 2102.77 725.643 2099.37 722.925 2093.12M753.815 2083.14C753.753 2082.69 753.679 2082.25 753.591 2081.81M753.815 2083.14L753.591 2081.81M753.591 2081.81C752.059 2074.16 746.622 2068.46 738.705 2067.86C728.463 2067.08 720.226 2077.52 721.465 2087.72C721.697 2089.63 722.196 2091.44 722.925 2093.12M753.591 2081.81C753.591 2081.81 753.882 2080.56 754.072 2078.85M722.925 2093.12C722.925 2093.12 717.917 2089.16 716.373 2085.58C713.593 2079.13 715.499 2073.66 719.452 2067.86C723.626 2061.72 729.517 2058.88 736.934 2058.98C745.606 2059.08 751.468 2064.23 753.815 2072.58C754.367 2074.54 754.28 2076.98 754.072 2078.85M722.925 2093.12C716.136 2091.28 711.4 2091.22 708.232 2085.58C704.395 2078.76 706.144 2067.7 709.909 2060.84C714.676 2052.15 722.466 2048.15 732.088 2046.3C742.006 2044.39 747.076 2047.1 752.403 2054.13C755.274 2057.92 755.333 2060.46 756.131 2064.75C757.221 2070.61 754.072 2078.85 754.072 2078.85M845.745 2030.42C847.088 2040.17 840.463 2049.17 830.635 2049.69C823.488 2050.06 817.573 2046.66 814.855 2040.4M845.745 2030.42C845.683 2029.97 845.609 2029.53 845.521 2029.09M845.745 2030.42L845.521 2029.09M845.521 2029.09C845.202 2027.5 844.713 2025.99 844.068 2024.59M844.068 2022.1C841.72 2013.75 835.859 2008.6 827.186 2008.5C819.769 2008.41 813.878 2011.25 809.705 2017.38C805.752 2023.19 803.846 2028.65 806.626 2035.1C808.169 2038.69 814.855 2040.4 814.855 2040.4M844.068 2022.1C844.068 2022.1 844.068 2015.58 844.068 2009.32C844.068 2003.06 833.649 1993 823.731 1994.91C814.108 1996.76 806.606 1999.43 801.839 2008.12C798.074 2014.99 796.325 2026.04 800.162 2032.87C803.33 2038.5 808.066 2038.56 814.855 2040.4M844.068 2022.1L844.068 2024.59M814.855 2040.4C814.126 2038.73 813.627 2036.91 813.395 2035C812.156 2024.81 820.393 2014.36 830.635 2015.14C836.902 2015.62 841.615 2019.29 844.068 2024.59M514.235 1775.9L524.593 1774.83M487.233 1949.24C487.233 1949.24 484.641 1948.91 482.666 1947.63C478.678 1945.06 476.9 1940.76 476.801 1936.17M487.233 1949.24C487.233 1949.24 486.704 1946.71 486.028 1943.48M487.233 1949.24V1949.24C490.353 1954.64 496.554 1957.47 502.682 1956.3L516.754 1953.6L649.363 1928.68C652.987 1928 656.533 1926.95 659.948 1925.56L668.178 1922.21M476.801 1936.17C476.683 1930.72 478.934 1924.87 482.666 1921.04C488.13 1915.45 502.259 1918.08 502.259 1918.08L496.95 1911.61C496.64 1911.24 496.207 1910.98 495.722 1910.93C493.451 1910.65 486.545 1910.04 482.666 1912.27C478.8 1914.5 476.713 1916.8 475.347 1921.04C474.232 1924.51 474.803 1926.77 475.347 1930.37C475.696 1932.68 476.801 1936.17 476.801 1936.17ZM636.354 1893.5C636.354 1893.5 643.809 1883.06 650.328 1882.61C658.533 1882.04 664.431 1884.53 668.178 1891.85C671.509 1898.36 672.486 1906.41 670.781 1913.52C670.101 1916.35 668.178 1922.21 668.178 1922.21M636.354 1893.5C636.354 1893.5 590.551 1901.63 546.808 1909.64M636.354 1893.5L635.364 1763.31M636.354 1893.5L635.398 1974.74M486.028 1943.48C485.54 1941.16 484.781 1938.46 485.014 1936.17C485.568 1930.73 485.882 1927.87 490.89 1923.45C497.339 1917.77 505.534 1917.3 514.33 1915.65C524.48 1913.75 535.576 1911.7 546.808 1909.64M486.028 1943.48C486.856 1939.95 487.308 1937.94 489.334 1934.93V1934.93C493.655 1928.5 501.829 1926.22 509.442 1924.82L524.593 1922.02M668.178 1922.21C668.178 1922.21 670.632 1910.29 668.178 1904.57C667.693 1903.44 666.898 1902.21 666.069 1901.08C664.205 1898.56 661.032 1897.5 657.92 1897.89L649.345 1898.95L524.593 1922.02M515.817 1937.49L515.817 1929.63C515.817 1929.11 516.209 1928.68 516.722 1928.63L525.871 1927.76C526.459 1927.7 526.966 1928.16 526.966 1928.75L526.966 1936.12M515.817 1937.49L526.966 1936.12M515.817 1937.49L512.672 1938.07C512.14 1938.17 511.782 1938.67 511.864 1939.21L512.188 1941.3M526.966 1936.12L531.817 1935.16C532.435 1935.04 533.011 1935.51 533.011 1936.14L533.011 1937.82M516.754 1943.63L513.668 1944.18C513.115 1944.28 512.589 1943.9 512.503 1943.35L512.188 1941.3M516.754 1943.63L516.754 1950.54C516.754 1951.13 517.267 1951.6 517.857 1951.54L528.14 1950.47C528.649 1950.42 529.037 1949.99 529.037 1949.48L529.037 1941.43M516.754 1943.63L529.037 1941.43M529.037 1941.43L532.187 1940.86C532.664 1940.78 533.011 1940.36 533.011 1939.88L533.011 1937.82M539.693 1933.71L539.693 1925.82C539.693 1925.33 540.04 1924.92 540.517 1924.83L549.526 1923.23C550.139 1923.12 550.701 1923.59 550.701 1924.21L550.701 1931.66M539.693 1933.71L550.701 1931.66M539.693 1933.71L537.14 1934.09C536.65 1934.16 536.287 1934.58 536.287 1935.08L536.287 1937.46M550.701 1931.66L555.159 1931.2C555.749 1931.14 556.262 1931.6 556.262 1932.2L556.262 1934.29M512.188 1941.3L533.011 1937.82M536.287 1937.46L536.287 1939.54C536.287 1940.16 536.838 1940.63 537.446 1940.53L539.693 1940.16M536.287 1937.46L556.262 1934.29M556.262 1934.29L556.262 1936.64C556.262 1937.13 555.906 1937.55 555.421 1937.63L551.589 1938.25M539.693 1940.16L539.693 1945.86C539.693 1946.48 540.25 1946.95 540.86 1946.85L550.879 1945.15C551.368 1945.07 551.722 1944.64 551.712 1944.15L551.589 1938.25M539.693 1940.16L551.589 1938.25M562.289 1930.37L562.289 1920C562.289 1919.47 562.69 1919.04 563.209 1919L572.695 1918.23C573.277 1918.19 573.775 1918.65 573.775 1919.23L573.775 1928.71M562.289 1930.37L573.775 1928.71M562.289 1930.37L560.421 1930.85C559.908 1930.99 559.587 1931.5 559.689 1932.02L560.065 1933.93M573.775 1928.71L576.823 1928.29C577.385 1928.21 577.897 1928.62 577.954 1929.18L578.128 1930.93M560.065 1933.93L560.434 1935.81C560.539 1936.34 561.049 1936.69 561.585 1936.6L563.443 1936.28M560.065 1933.93L578.128 1930.93M578.128 1930.93L578.314 1932.78C578.366 1933.3 578.005 1933.78 577.488 1933.87L574.191 1934.43M563.443 1936.28L563.877 1939.79C563.942 1940.31 564.399 1940.69 564.923 1940.66L573.245 1940.22C573.776 1940.19 574.191 1939.75 574.191 1939.22L574.191 1934.43M563.443 1936.28L574.191 1934.43M585.171 1926.26L585.171 1916.08C585.171 1915.54 585.587 1915.11 586.117 1915.08L595.632 1914.56C596.205 1914.53 596.686 1914.99 596.686 1915.56L596.686 1924.15M585.171 1926.26L596.686 1924.15M585.171 1926.26L583.226 1926.78C582.758 1926.91 582.447 1927.35 582.491 1927.84L582.686 1930.01M596.686 1924.15L601.06 1923.58C601.591 1923.51 602.082 1923.87 602.175 1924.4L602.471 1926.08M582.686 1930.01L582.855 1931.89C582.908 1932.49 583.474 1932.91 584.062 1932.78L585.171 1932.54M582.686 1930.01L602.471 1926.08M602.471 1926.08L602.767 1927.76C602.861 1928.29 602.519 1928.8 601.993 1928.91L598.46 1929.67M585.171 1932.54L585.171 1937.09C585.171 1937.7 585.714 1938.17 586.318 1938.08L597.607 1936.41C598.097 1936.33 598.46 1935.91 598.46 1935.42L598.46 1929.67M585.171 1932.54L598.46 1929.67M607.305 1921.45L607.305 1912.28C607.305 1911.8 607.639 1911.39 608.105 1911.3L617.867 1909.3C618.487 1909.18 619.067 1909.65 619.067 1910.28L619.067 1919.81M607.305 1921.45L619.067 1919.81M607.305 1921.45L605.876 1921.93C605.393 1922.09 605.109 1922.59 605.215 1923.09L605.661 1925.18M619.067 1919.81L623.979 1918.46C624.582 1918.3 625.187 1918.72 625.239 1919.34L625.391 1921.15M605.661 1925.18L606.086 1927.18C606.201 1927.72 606.728 1928.06 607.267 1927.95L607.305 1927.94M605.661 1925.18L625.391 1921.15M625.391 1921.15L625.57 1923.26C625.612 1923.77 625.271 1924.23 624.776 1924.33L607.305 1927.94M607.305 1927.94L608.237 1931.71C608.356 1932.19 608.807 1932.51 609.299 1932.46L614.365 1932M620.332 1925.18L620.332 1930.09C620.332 1930.58 619.985 1930.99 619.508 1931.08L614.365 1932M630.096 1916.77L630.096 1906.43C630.096 1905.91 630.497 1905.48 631.016 1905.44L640.77 1904.65C641.352 1904.61 641.85 1905.07 641.85 1905.65L641.85 1915.13M630.096 1916.77L641.85 1915.13M630.096 1916.77L628.056 1917.35C627.627 1917.48 627.331 1917.87 627.331 1918.31L627.331 1921.73C627.331 1922.34 627.874 1922.81 628.479 1922.72L630.096 1922.48M641.85 1915.13L646.204 1914.62C646.747 1914.56 647.241 1914.94 647.312 1915.48L647.749 1918.84C647.819 1919.38 647.444 1919.87 646.906 1919.95L643.036 1920.53M630.096 1922.48L630.511 1928.52C630.553 1929.13 631.123 1929.56 631.718 1929.43L642.245 1927.17C642.706 1927.07 643.036 1926.67 643.036 1926.19L643.036 1920.53M630.096 1922.48L643.036 1920.53M502.636 2017.52C502.987 2025.12 496.91 2031.1 489.334 2031.74C483.621 2032.23 478.09 2029.2 475.347 2024.55M502.636 2017.52L475.347 2024.55M502.636 2017.52C502.599 2016.72 502.495 2015.94 502.33 2015.19M494.779 2005.99C493.123 2005.22 491.283 2004.73 489.334 2004.56C484.953 2004.19 480.721 2005.75 477.744 2008.56M494.779 2005.99L492.923 1999.47L491.603 1994.96M494.779 2005.99C495.543 2006.35 496.269 2006.76 496.947 2007.23M490.89 1992.53L490.062 1989.03C489.635 1987.23 488.024 1985.95 486.17 1985.95L482.851 1985.95C480.88 1985.95 479.203 1987.39 478.899 1989.34L478.172 1994M490.89 1992.53L491.603 1994.96M490.89 1992.53C490.89 1992.53 504.262 1991.38 521.252 1989.83M478.172 1994L478.172 1997.56L477.744 2008.56M478.172 1994C478.172 1994 475.455 1994.67 474.325 1995.91C473.149 1997.19 472.78 2000.1 472.78 2000.1M477.744 2008.56C475.325 2010.84 473.735 2013.95 473.572 2017.52C473.494 2019.23 473.768 2020.87 474.325 2022.39M478.074 2000.1C478.074 2000.1 474.024 1999.89 472.78 2000.1M472.78 2000.1C470.905 2000.41 469.934 2002.37 468.511 2004.56V2004.56C465.838 2008.68 465.553 2013.79 466.303 2018.64L466.975 2023C467.229 2024.64 468.06 2026.14 469.32 2027.23L474.319 2031.54C476.496 2033.42 479.377 2034.27 482.225 2033.88L508.339 2030.26M508.339 2030.26L511.716 2028.28M508.339 2030.26L508.339 1995.91M511.716 2028.28C511.716 2028.28 558.784 2024.73 588.632 2020.08C611.921 2016.46 647.875 2008.56 647.875 2008.56M511.716 2028.28L511.716 1995.91M647.875 2008.56L650.064 2010.05M647.875 2008.56L647.875 1977.11M650.064 2010.05L674.033 2007.63C677.18 2007.31 680.105 2005.86 682.265 2003.55V2003.55C684.243 2001.44 685.439 1998.72 685.814 1995.85C686.164 1993.16 686.514 1991.07 686.866 1987.32C687.348 1982.18 685.053 1974.39 680.061 1970.39M650.064 2010.05L650.064 1976.18M496.947 1995.91L496.947 2007.23M496.947 1995.91L508.339 1995.91M496.947 1995.91L491.603 1994.96M496.947 2007.23C499.642 2009.11 501.594 2011.86 502.33 2015.19M508.339 1995.91L511.716 1995.91M511.716 1995.91C511.716 1995.91 558.735 1991.93 588.632 1987.57C610.923 1984.32 647.875 1977.11 647.875 1977.11M647.875 1977.11L650.064 1976.18M650.064 1976.18L651.114 1971.84M650.064 1976.18C650.64 1975.58 650.216 1972.98 651.114 1971.84M650.064 1976.18L653.945 1976.18C655.506 1976.18 656.806 1977.38 656.935 1978.93L658.028 1992.19M678.191 1983.99C675.438 1982.16 672.87 1981.43 669.2 1982.06C663.764 1983 659.087 1987.19 658.028 1992.19M678.191 1983.99L661.976 2003.53M678.191 1983.99C678.869 1984.44 679.496 1984.97 680.061 1985.58M678.191 1983.99L675.47 1978.01C674.967 1976.9 675.181 1975.6 676.012 1974.71L680.061 1970.39M661.976 2003.53C659.774 2002.18 659.072 1999.97 658.248 1997.27C657.722 1995.55 657.681 1993.83 658.028 1992.19M661.976 2003.53C662.621 2003.93 663.308 2004.27 664.025 2004.54M680.061 1985.58C680.981 1986.56 681.737 1987.75 682.279 1989.14C684.871 1995.79 679.836 2002.94 672.962 2004.87C669.93 2005.73 666.756 2005.59 664.025 2004.54M680.061 1985.58L664.025 2004.54M651.114 1971.84C653.342 1969.01 658.511 1966.73 660.422 1965.94C662.334 1965.16 673.129 1965.91 678.914 1969.57C679.311 1969.82 679.693 1970.1 680.061 1970.39M651.114 1971.84C651.114 1971.84 644.834 1973.03 635.398 1974.74M568.344 1985.22L569.515 1925.18L569.515 1818.04L569.515 1562.53L566.032 1347.55L566.032 1088.04M568.344 1985.22C561.392 1985.98 553.446 1986.78 545.353 1987.57M568.344 1985.22C575.134 1984.48 583.216 1983.37 591.627 1982.09M475.347 2024.55C474.943 2023.87 474.6 2023.14 474.325 2022.39M502.33 2015.19L474.325 2022.39M512.76 90.7925C508.802 96.0113 509.626 101.719 513.666 106.292C517.051 110.124 520.798 111.269 525.534 110.867C532.005 110.318 536.586 105.977 536.024 99.5062C535.664 95.3529 531.512 90.7925 531.512 90.7925M512.76 90.7925L518.675 88.5773M531.512 90.7925C530.049 92.3337 527.856 93.2109 525.534 93.1318C522.413 93.0255 519.684 91.3021 518.675 88.5773M531.512 90.7925C531.512 90.7925 529.266 95.9802 525.534 96.0113C521.216 96.0473 518.675 88.5773 518.675 88.5773M531.512 90.7925L531.512 95.4446M518.675 88.5773L518.675 94.337M518.675 94.337L518.675 95.8303C518.675 98.5558 519.72 101.3 522.107 102.615C523.208 103.221 524.428 103.68 525.534 103.616C526.45 103.563 527.432 103.142 528.329 102.608C530.569 101.277 531.512 98.6386 531.512 96.0326L531.512 95.4446M518.675 94.337C518.675 94.337 522.35 99.1125 525.534 99.0511C528.201 98.9996 531.512 95.4446 531.512 95.4446M531.512 95.4446L541.153 192.034L555.631 333.917M583.589 93.89C583.281 89.8483 586.791 86.6045 590.842 86.4648C595.037 86.32 598.93 89.7047 598.612 93.89C598.491 95.4864 597.829 96.8633 596.82 97.925M583.589 93.89C583.589 93.89 579.435 93.948 577.73 96.1968C573.772 101.416 573.041 108.527 577.081 113.1C580.467 116.932 586.106 117.762 590.842 117.36C597.313 116.811 599.174 110.58 598.612 104.11C598.252 99.9567 596.82 97.925 596.82 97.925M583.589 93.89C583.639 94.536 583.774 95.1445 583.983 95.7099M583.589 93.89L582.731 95.4643C581.852 97.079 581.391 98.8884 581.391 100.727L581.391 244.755L580.698 413.127M596.82 97.925C595.357 99.4662 593.164 100.343 590.842 100.264C587.721 100.158 584.992 98.4346 583.983 95.7099M596.82 97.925C596.82 97.925 594.574 103.113 590.842 103.144C586.524 103.18 583.983 95.7099 583.983 95.7099M596.82 97.925L596.82 102.577M583.983 95.7099L583.983 101.47M583.983 101.47C583.983 101.47 587.658 106.245 590.842 106.184C593.509 106.132 596.82 102.577 596.82 102.577M583.983 101.47C583.983 105.149 585.319 109.096 588.768 110.376C589.467 110.636 590.175 110.787 590.842 110.749C591.586 110.706 592.374 110.42 593.124 110.028C595.768 108.647 596.82 105.56 596.82 102.577M516.242 163.576C515.933 159.535 519.443 156.291 523.494 156.151C527.689 156.006 531.582 159.391 531.265 163.576C531.144 165.173 530.481 166.55 529.473 167.611M516.242 163.576C516.242 163.576 512.426 165.363 510.721 167.611C506.763 172.83 507.586 178.537 511.626 183.11C515.011 186.943 518.758 188.088 523.494 187.686C529.966 187.137 534.546 182.795 533.985 176.325C533.624 172.172 529.473 167.611 529.473 167.611M516.242 163.576C516.291 164.222 516.426 164.831 516.635 165.396M516.242 163.576L516.242 152.915M529.473 167.611C528.009 169.152 525.817 170.03 523.494 169.951C520.373 169.844 517.644 168.121 516.635 165.396M529.473 167.611C529.473 167.611 527.226 172.799 523.494 172.83C519.177 172.866 516.635 165.396 516.635 165.396M529.473 167.611L529.473 172.263M516.635 165.396L516.635 171.156M516.635 171.156C516.635 171.156 520.31 175.931 523.494 175.87C526.161 175.818 529.473 172.263 529.473 172.263M516.635 171.156C516.635 174.835 517.971 178.782 521.42 180.063C522.119 180.322 522.828 180.474 523.494 180.435C524.239 180.392 525.026 180.106 525.776 179.714C528.421 178.333 529.473 175.246 529.473 172.263M529.473 172.263L535.62 255.76L546.808 409.72M515.706 239.29C515.398 235.248 518.907 232.005 522.958 231.865C527.153 231.72 531.046 235.105 530.729 239.29C530.608 240.887 529.945 242.263 528.937 243.325M515.706 239.29C515.706 239.29 511.89 241.076 510.185 243.325C506.227 248.544 507.05 254.251 511.09 258.824C514.476 262.656 518.222 263.802 522.958 263.4C529.43 262.851 534.01 258.509 533.449 252.039C533.088 247.886 528.937 243.325 528.937 243.325M515.706 239.29C515.755 239.936 515.89 240.545 516.1 241.11M528.937 243.325C527.473 244.866 525.281 245.744 522.958 245.664C519.837 245.558 517.108 243.835 516.1 241.11M528.937 243.325C528.937 243.325 526.69 248.513 522.958 248.544C518.641 248.58 516.1 241.11 516.1 241.11M528.937 243.325L528.937 247.977M516.1 241.11L516.1 246.87M516.1 246.87C516.1 246.87 519.775 251.645 522.958 251.584C525.625 251.532 528.937 247.977 528.937 247.977M516.1 246.87C516.1 250.549 517.435 254.496 520.885 255.776C521.583 256.036 522.292 256.188 522.958 256.149C523.703 256.106 524.49 255.82 525.241 255.428C527.885 254.047 528.937 250.96 528.937 247.977M528.937 247.977L528.937 328.027L528.937 407.924M592.415 170.196C592.107 166.154 595.617 162.911 599.668 162.771C603.862 162.626 607.755 166.011 607.438 170.196C607.317 171.792 606.655 173.169 605.646 174.231M592.415 170.196C592.415 170.196 588.261 170.254 586.555 172.503C582.598 177.722 581.867 184.833 585.907 189.406C589.293 193.238 594.931 194.068 599.668 193.666C606.139 193.116 608 186.886 607.438 180.416C607.078 176.263 605.646 174.231 605.646 174.231M592.415 170.196C592.464 170.842 592.6 171.45 592.809 172.016M592.415 170.196L590.178 200.001L596.078 415.665L597.181 511.095M605.646 174.231C604.183 175.772 601.99 176.649 599.668 176.57C596.547 176.464 593.817 174.741 592.809 172.016M605.646 174.231C605.646 174.231 603.399 179.419 599.668 179.45C595.35 179.486 592.809 172.016 592.809 172.016M605.646 174.231L605.646 178.883M592.809 172.016L592.809 177.776M592.809 177.776C592.809 177.776 596.484 182.551 599.668 182.49C602.334 182.438 605.646 178.883 605.646 178.883M592.809 177.776C592.809 181.455 594.145 185.402 597.594 186.682C598.293 186.942 599.001 187.093 599.668 187.055C600.412 187.012 601.199 186.726 601.95 186.334C604.594 184.953 605.646 181.866 605.646 178.883M599.908 249.385C599.6 245.344 603.11 242.1 607.161 241.96C611.355 241.815 615.249 245.2 614.931 249.385C614.81 250.982 614.148 252.359 613.139 253.42M599.908 249.385C599.908 249.385 595.754 249.443 594.049 251.692C590.091 256.911 591.234 263.515 595.274 268.088C598.659 271.92 602.425 272.355 607.161 271.953C613.632 271.404 615.493 266.076 614.931 259.605C614.571 255.452 613.139 253.42 613.139 253.42M599.908 249.385C599.957 250.031 600.093 250.64 600.302 251.205M599.908 249.385L598.981 263.302L612.123 416.286M613.139 253.42C611.676 254.961 609.483 255.839 607.161 255.76C604.04 255.653 601.311 253.93 600.302 251.205M613.139 253.42C613.139 253.42 610.893 258.608 607.161 258.639C602.843 258.675 600.302 251.205 600.302 251.205M613.139 253.42L613.139 258.072M600.302 251.205L600.302 256.965M600.302 256.965C600.302 256.965 603.977 261.74 607.161 261.679C609.828 261.627 613.139 258.072 613.139 258.072M600.302 256.965C600.302 260.644 601.638 264.591 605.087 265.872C605.786 266.131 606.494 266.283 607.161 266.244C607.905 266.201 608.692 265.915 609.443 265.523C612.087 264.142 613.139 261.055 613.139 258.072M555.631 333.917L563.599 411.408M563.599 411.408L563.599 419.219M563.599 411.408L546.808 409.72M563.599 411.408L580.698 413.127M563.599 419.219L563.599 619.76L563.599 735.879M563.599 735.879L566.032 1088.04M546.808 409.72L546.808 600.282L546.808 905.735L546.808 1186.52M546.808 1186.52L546.808 1460.93M546.808 1460.93L546.808 1667.52L546.808 1909.64M546.808 1909.64L545.353 1987.57M545.353 1987.57C537.178 1988.36 528.853 1989.14 521.252 1989.83M528.937 407.924L528.937 523.96L528.937 719.451L528.937 896.65L527.447 1142.08M527.447 1142.08L525.901 1368.43L525.901 1544.44M525.901 1544.44L506.023 1546.02C505.176 1546.09 504.369 1546.41 503.71 1546.95V1546.95C502.734 1547.75 502.167 1548.94 502.167 1550.2L502.167 1617.7C502.167 1618.84 502.524 1619.96 503.187 1620.89V1620.89C504.314 1622.46 506.192 1623.33 508.123 1623.16L643.897 1611.17C644.89 1611.09 645.814 1610.63 646.489 1609.9L647.562 1608.73C648.241 1607.99 648.618 1607.03 648.618 1606.02L648.618 1539.56C648.618 1538.56 648.239 1537.59 647.556 1536.85L647.069 1536.32C646.237 1535.42 645.037 1534.95 643.814 1535.05L630.908 1536.08M525.901 1544.44L524.593 1774.83M525.901 1544.44L630.908 1536.08M524.593 1774.83L524.593 1922.02M524.593 1774.83L591.627 1767.86M524.593 1922.02L521.252 1989.83M580.698 413.127L582.874 592.588M582.874 592.588L582.874 741.628M582.874 741.628L585.21 989.638M585.21 989.638L587.033 1265.86M587.033 1265.86L589.076 1401.57M589.076 1401.57L589.076 1536.31M589.076 1536.31L590.488 1618.41M590.488 1618.41L591.627 1767.86M590.488 1618.41L611.748 1616.43M591.627 1767.86L591.627 1982.09M591.627 1767.86L635.364 1763.31M591.627 1982.09C598.71 1981.02 606.026 1979.83 613.002 1978.65M597.181 511.095L600.352 684.798L601.959 841.34L603.744 995.204L606.243 1182.09L607.671 1271.34L609.813 1490L611.748 1616.43M611.748 1616.43L614.365 1783.53M614.365 1783.53L508.617 1795.11C506.316 1795.36 504.237 1796.6 502.917 1798.5L502.2 1799.53C501.238 1800.92 500.738 1802.57 500.773 1804.26L502.201 1873.78C502.238 1875.59 502.88 1877.33 504.023 1878.72V1878.72C505.796 1880.89 508.566 1881.98 511.342 1881.61L646.881 1863.36C647.82 1863.23 648.721 1862.9 649.522 1862.39V1862.39C651.427 1861.19 652.582 1859.09 652.582 1856.84L652.582 1784.7C652.582 1783.83 652.346 1782.97 651.899 1782.22V1782.22C650.904 1780.54 649.004 1779.62 647.073 1779.88L644.031 1780.29L614.365 1783.53ZM614.365 1783.53L614.365 1932M614.365 1932L613.002 1978.65M613.002 1978.65C621.262 1977.26 629.045 1975.88 635.398 1974.74M612.123 416.286L619.88 869.063M619.88 869.063L621.68 1038.31M621.68 1038.31L628.439 1331.34M628.439 1331.34L630.908 1536.08M630.908 1536.08L635.364 1763.31M665.92 1769.29L483.525 1789.3C481.993 1789.47 480.554 1790.12 479.418 1791.17V1791.17C477.922 1792.54 477.07 1794.48 477.07 1796.51L477.07 1881.63C477.07 1884.36 478.929 1886.74 481.577 1887.4V1887.4C482.297 1887.57 483.043 1887.62 483.778 1887.52L665.555 1863.67C667.996 1863.35 670.141 1861.89 671.335 1859.74V1859.74C671.984 1858.57 672.319 1857.25 672.308 1855.91L671.625 1774.49C671.599 1771.43 668.973 1769.03 665.92 1769.29V1769.29ZM651.422 1888.44C651.422 1888.44 658.514 1886.18 662.862 1888.44C667.154 1890.68 668.178 1901.39 668.178 1901.39C668.178 1901.39 664.03 1893.82 660.412 1891.85C656.425 1889.69 651.422 1888.44 651.422 1888.44Z" stroke="#838C94"/>
<circle cx="333.467" cy="1448.38" r="7.13072" stroke="#838C94"/>
<circle cx="485.06" cy="1479.74" r="7.13072" stroke="#838C94"/>
<circle cx="519.802" cy="1564.72" r="6.02098" stroke="#838C94"/>
<circle cx="543.343" cy="1563.04" r="6.02098" stroke="#838C94"/>
<circle cx="564.794" cy="1561.15" r="6.02098" stroke="#838C94"/>
<circle cx="588.337" cy="1558.69" r="6.02098" stroke="#838C94"/>
<circle cx="609.781" cy="1557.02" r="6.02098" stroke="#838C94"/>
<circle cx="631.238" cy="1555.13" r="6.02098" stroke="#838C94"/>
<circle cx="660.885" cy="1469.76" r="7.13072" stroke="#838C94"/>
<circle cx="577.947" cy="1469.76" r="7.13072" stroke="#838C94"/>
<circle cx="577.947" cy="1415.19" r="7.13072" stroke="#838C94"/>
<circle cx="577.947" cy="1352.86" r="7.13072" stroke="#838C94"/>
<circle cx="577.947" cy="1282.55" r="7.13072" stroke="#838C94"/>
<circle cx="605.072" cy="1159.72" r="7.13072" stroke="#838C94"/>
<circle cx="574.252" cy="1014.83" r="7.13072" stroke="#838C94"/>
<circle cx="574.252" cy="900.099" r="7.13072" stroke="#838C94"/>
<circle cx="574.252" cy="772.771" r="7.13072" stroke="#838C94"/>
<circle cx="571.68" cy="628.568" r="7.13072" stroke="#838C94"/>
<circle cx="544.869" cy="1159.72" r="7.13072" stroke="#838C94"/>
<circle cx="802.49" cy="1418.44" r="7.13072" stroke="#838C94"/>
<circle cx="752.117" cy="1612.32" r="7.13072" stroke="#838C94"/>
<circle cx="788.234" cy="1824.68" r="7.13072" stroke="#838C94"/>
<circle cx="700.002" cy="1776.6" r="7.13072" stroke="#838C94"/>
<ellipse cx="484.657" cy="1796.58" rx="5.15915" ry="4.8035" stroke="#838C94"/>
<ellipse cx="484.657" cy="1880.87" rx="5.15915" ry="4.8035" stroke="#838C94"/>
<ellipse cx="490.683" cy="1838.23" rx="3.61849" ry="3.53396" stroke="#838C94"/>
<ellipse cx="661.033" cy="1817.54" rx="3.61849" ry="3.53396" stroke="#838C94"/>
<ellipse cx="664.644" cy="1776.6" rx="5.15915" ry="4.8035" stroke="#838C94"/>
<ellipse cx="666.694" cy="1857.48" rx="5.15915" ry="4.8035" stroke="#838C94"/>
<circle cx="481.492" cy="1757.13" r="7.13072" stroke="#838C94"/>
<circle cx="375.392" cy="1703.04" r="7.13072" stroke="#838C94"/>
<circle cx="660.881" cy="1570.74" r="3.56684" stroke="#838C94"/>
<circle cx="488.625" cy="1585" r="3.56684" stroke="#838C94"/>
<path d="M491.023 1940.88C490.806 1941.56 490.689 1942.28 490.689 1943.03C490.689 1946.95 493.866 1950.13 497.785 1950.13C500.052 1950.13 502.072 1949.06 503.37 1947.41M491.023 1940.88C491.936 1938.01 494.618 1935.94 497.785 1935.94C501.703 1935.94 504.88 1939.11 504.88 1943.03C504.88 1944.68 504.316 1946.2 503.37 1947.41M491.023 1940.88C491.023 1940.88 495.871 1941.51 498.499 1943.03C500.71 1944.32 503.37 1947.41 503.37 1947.41" stroke="#838C94"/>
<path d="M653.862 1906.43C653.006 1907.6 652.5 1909.05 652.5 1910.61C652.5 1914.53 655.677 1917.71 659.595 1917.71C661.969 1917.71 664.07 1916.54 665.358 1914.75M653.862 1906.43C655.153 1904.66 657.24 1903.52 659.595 1903.52C663.514 1903.52 666.691 1906.69 666.691 1910.61C666.691 1912.16 666.197 1913.59 665.358 1914.75M653.862 1906.43C653.862 1906.43 656.968 1910.37 659.595 1912.1C661.661 1913.47 665.358 1914.75 665.358 1914.75" stroke="#838C94"/>
<path d="M346.625 2107.55C246.177 2107.55 189.859 2107.55 89.4113 2107.55M908.388 1646.89C807.933 1645.98 759.296 1647.8 658.841 1646.89M350.621 1960.31C248.398 1960.31 191.086 1960.31 88.8633 1960.31M521.347 1069.16H341.585M984.169 1967.54C903.485 1967.88 862.712 1967.16 782.028 1967.5M932.618 1820.73C877.727 1820.73 846.951 1820.73 792.059 1820.73M901.256 1203.4L608.035 1203.4M400.801 2366.78C400.801 2284.91 400.805 2248.5 400.805 2166.64M593.042 2309.48C592.542 2197.41 593.543 2149.22 593.042 2037.15M540.23 688.515L236.407 688.512M818.741 352.224H579.896M525.407 494.364H253.306M428.791 250.281H167.038" stroke="#838C94" stroke-dasharray="10 10"/>
<path d="M986.755 1199.54C988.893 1201.68 988.893 1205.15 986.755 1207.29L956.025 1238.02C953.887 1240.15 950.421 1240.15 948.283 1238.02L917.553 1207.29C915.415 1205.15 915.415 1201.68 917.553 1199.54L948.283 1168.81C950.421 1166.68 953.887 1166.68 956.025 1168.81L986.755 1199.54Z" fill="#20262B" stroke="#838C94"/>
<path d="M901.841 348.654C903.979 350.792 903.979 354.258 901.841 356.396L871.111 387.126C868.973 389.264 865.507 389.264 863.369 387.126L832.639 356.396C830.501 354.258 830.501 350.792 832.639 348.654L863.369 317.924C865.507 315.786 868.973 315.786 871.111 317.924L901.841 348.654Z" fill="#20262B" stroke="#838C94"/>
<path d="M138.921 246.404C141.059 248.542 141.059 252.008 138.921 254.146L108.191 284.876C106.053 287.014 102.587 287.014 100.449 284.876L69.7187 254.146C67.5807 252.008 67.5807 248.542 69.7187 246.404L100.449 215.674C102.587 213.536 106.053 213.536 108.191 215.674L138.921 246.404Z" fill="#20262B" stroke="#838C94"/>
<path d="M223.564 490.763C225.702 492.901 225.702 496.367 223.564 498.505L192.834 529.235C190.696 531.373 187.229 531.373 185.091 529.235L154.361 498.505C152.223 496.367 152.223 492.901 154.361 490.763L185.091 460.033C187.229 457.895 190.696 457.895 192.834 460.033L223.564 490.763Z" fill="#20262B" stroke="#838C94"/>
<path d="M208.331 684.724C210.469 686.862 210.469 690.328 208.331 692.466L177.601 723.196C175.463 725.334 171.997 725.334 169.859 723.196L139.129 692.466C136.991 690.328 136.991 686.862 139.129 684.724L169.859 653.994C171.997 651.856 175.463 651.856 177.601 653.994L208.331 684.724Z" fill="#20262B" stroke="#838C94"/>
<path d="M328.319 1065.28C330.457 1067.42 330.457 1070.88 328.319 1073.02L297.589 1103.75C295.451 1105.89 291.985 1105.89 289.847 1103.75L259.117 1073.02C256.979 1070.88 256.979 1067.42 259.117 1065.28L289.847 1034.55C291.985 1032.41 295.451 1032.41 297.589 1034.55L328.319 1065.28Z" fill="#20262B" stroke="#838C94"/>
<path d="M74.2452 1956.47C76.3832 1958.6 76.3832 1962.07 74.2452 1964.21L43.5152 1994.94C41.3772 1997.08 37.9109 1997.08 35.7729 1994.94L5.04294 1964.21C2.90496 1962.07 2.90496 1958.6 5.04294 1956.47L35.7729 1925.74C37.9109 1923.6 41.3772 1923.6 43.5152 1925.74L74.2452 1956.47Z" fill="#20262B" stroke="#838C94"/>
<path d="M71.9483 2103.81C74.0863 2105.95 74.0863 2109.41 71.9483 2111.55L41.2183 2142.28C39.0804 2144.42 35.614 2144.42 33.476 2142.28L2.74606 2111.55C0.608083 2109.41 0.608085 2105.95 2.74606 2103.81L33.476 2073.08C35.614 2070.94 39.0804 2070.94 41.2183 2073.08L71.9483 2103.81Z" fill="#20262B" stroke="#838C94"/>
<path d="M435.466 2424.08C437.604 2426.22 437.604 2429.69 435.466 2431.83L404.736 2462.56C402.598 2464.69 399.132 2464.69 396.994 2462.56L366.264 2431.83C364.126 2429.69 364.126 2426.22 366.264 2424.08L396.994 2393.35C399.132 2391.22 402.598 2391.22 404.736 2393.35L435.466 2424.08Z" fill="#20262B" stroke="#838C94"/>
<path d="M627.691 2371.23C629.828 2373.37 629.828 2376.84 627.691 2378.97L596.961 2409.7C594.823 2411.84 591.356 2411.84 589.218 2409.7L558.488 2378.97C556.35 2376.84 556.35 2373.37 558.488 2371.23L589.218 2340.5C591.356 2338.36 594.823 2338.36 596.961 2340.5L627.691 2371.23Z" fill="#20262B" stroke="#838C94"/>
<path d="M1080.83 1963.46C1082.96 1965.6 1082.96 1969.06 1080.83 1971.2L1050.1 2001.93C1047.96 2004.07 1044.49 2004.07 1042.35 2001.93L1011.62 1971.2C1009.49 1969.06 1009.49 1965.6 1011.62 1963.46L1042.35 1932.73C1044.49 1930.59 1047.96 1930.59 1050.1 1932.73L1080.83 1963.46Z" fill="#20262B" stroke="#838C94"/>
<path d="M1026.89 1816.16C1029.03 1818.3 1029.03 1821.77 1026.89 1823.9L996.162 1854.63C994.024 1856.77 990.557 1856.77 988.419 1854.63L957.689 1823.9C955.551 1821.77 955.551 1818.3 957.689 1816.16L988.419 1785.43C990.557 1783.29 994.024 1783.29 996.162 1785.43L1026.89 1816.16Z" fill="#20262B" stroke="#838C94"/>
<path d="M993.999 1643.02C996.137 1645.16 996.137 1648.63 993.999 1650.76L963.269 1681.49C961.131 1683.63 957.665 1683.63 955.527 1681.49L924.797 1650.76C922.659 1648.63 922.659 1645.16 924.797 1643.02L955.527 1612.29C957.665 1610.15 961.131 1610.15 963.269 1612.29L993.999 1643.02Z" fill="#20262B" stroke="#838C94"/>
<path d="M941.889 1187.68C943.276 1186.48 945.076 1185.88 947.289 1185.88C949.503 1185.88 951.289 1186.47 952.649 1187.64C954.009 1188.81 954.689 1190.45 954.689 1192.56C954.689 1194.93 953.089 1197.08 949.889 1199C951.543 1199.77 953.009 1200.85 954.289 1202.24C955.569 1203.6 956.209 1205.29 956.209 1207.32C956.209 1209.35 955.316 1211.11 953.529 1212.6C951.769 1214.07 949.743 1214.8 947.449 1214.8C945.183 1214.8 943.143 1214.11 941.329 1212.72C939.543 1211.33 938.649 1209.65 938.649 1207.68C938.649 1205.71 939.223 1204 940.369 1202.56C941.516 1201.12 942.836 1200.05 944.329 1199.36C943.263 1198.72 942.249 1197.8 941.289 1196.6C940.329 1195.37 939.849 1194.05 939.849 1192.64C939.849 1190.53 940.529 1188.88 941.889 1187.68ZM947.609 1212.72C949.156 1212.72 950.409 1212.24 951.369 1211.28C952.356 1210.32 952.849 1209.04 952.849 1207.44C952.849 1205.81 952.343 1204.49 951.329 1203.48C950.343 1202.44 948.676 1201.52 946.329 1200.72C944.836 1201.47 943.743 1202.36 943.049 1203.4C942.356 1204.44 942.009 1205.77 942.009 1207.4C942.009 1209 942.556 1210.29 943.649 1211.28C944.769 1212.24 946.089 1212.72 947.609 1212.72ZM947.169 1187.96C946.023 1187.96 945.076 1188.29 944.329 1188.96C943.583 1189.63 943.209 1190.59 943.209 1191.84C943.209 1193.09 943.609 1194.29 944.409 1195.44C945.209 1196.59 946.343 1197.39 947.809 1197.84C950.156 1196.51 951.329 1194.43 951.329 1191.6C951.329 1190.51 950.916 1189.63 950.089 1188.96C949.289 1188.29 948.316 1187.96 947.169 1187.96ZM964.733 1212.24C964.733 1212.91 964.519 1213.44 964.093 1213.84C963.666 1214.21 963.106 1214.4 962.413 1214.4C961.746 1214.4 961.213 1214.19 960.813 1213.76C960.413 1213.33 960.213 1212.8 960.213 1212.16C960.213 1211.49 960.413 1210.95 960.813 1210.52C961.213 1210.07 961.733 1209.84 962.373 1209.84C963.013 1209.84 963.559 1210.07 964.013 1210.52C964.493 1210.97 964.733 1211.55 964.733 1212.24Z" fill="white"/>
<path d="M954.116 1633.88C952.623 1633.88 951.476 1634.53 950.676 1635.84C949.903 1637.12 949.516 1638.79 949.516 1640.84C949.516 1642.89 949.996 1644.52 950.956 1645.72C951.916 1646.92 953.01 1647.52 954.236 1647.52C955.463 1647.52 956.556 1647.13 957.516 1646.36C958.476 1645.59 959.21 1644.68 959.716 1643.64C959.663 1637.13 957.796 1633.88 954.116 1633.88ZM950.276 1657.64C950.276 1658.09 950.556 1658.45 951.116 1658.72C951.703 1658.96 952.41 1659.08 953.236 1659.08C957.583 1659.08 959.756 1654.85 959.756 1646.4C958.156 1648.32 955.97 1649.28 953.196 1649.28C951.276 1649.28 949.623 1648.45 948.236 1646.8C946.876 1645.12 946.196 1643.16 946.196 1640.92C946.196 1638.65 946.916 1636.59 948.356 1634.72C949.823 1632.83 951.77 1631.88 954.196 1631.88C957.61 1631.88 959.97 1633.12 961.276 1635.6C962.423 1637.87 962.996 1640.87 962.996 1644.6C962.996 1648.65 962.356 1652.27 961.076 1655.44C960.41 1657.07 959.423 1658.37 958.116 1659.36C956.836 1660.32 955.343 1660.8 953.636 1660.8C951.93 1660.8 950.476 1660.45 949.276 1659.76C948.103 1659.07 947.516 1658.04 947.516 1656.68C947.516 1656.01 947.676 1655.49 947.996 1655.12C948.316 1654.72 948.743 1654.52 949.276 1654.52C950.583 1654.52 951.236 1654.97 951.236 1655.88C951.236 1656.25 951.076 1656.63 950.756 1657C950.436 1657.35 950.276 1657.56 950.276 1657.64ZM971.895 1658.24C971.895 1658.91 971.682 1659.44 971.255 1659.84C970.828 1660.21 970.268 1660.4 969.575 1660.4C968.908 1660.4 968.375 1660.19 967.975 1659.76C967.575 1659.33 967.375 1658.8 967.375 1658.16C967.375 1657.49 967.575 1656.95 967.975 1656.52C968.375 1656.07 968.895 1655.84 969.535 1655.84C970.175 1655.84 970.722 1656.07 971.175 1656.52C971.655 1656.97 971.895 1657.55 971.895 1658.24Z" fill="white"/>
<path d="M976.891 1833.22L969.371 1833.54C969.264 1833.46 969.211 1833.23 969.211 1832.86C969.211 1832.49 969.318 1832.23 969.531 1832.1C971.478 1832.1 972.851 1831.86 973.651 1831.38C974.478 1830.9 974.904 1829.93 974.931 1828.46L975.051 1813.1C975.078 1811.53 974.691 1810.55 973.891 1810.18C973.091 1809.81 971.411 1809.62 968.851 1809.62C968.771 1809.54 968.731 1809.33 968.731 1808.98C968.731 1808.61 968.824 1808.34 969.011 1808.18C972.424 1807.97 974.864 1807.05 976.331 1805.42C976.438 1805.31 976.664 1805.26 977.011 1805.26C977.358 1805.26 977.611 1805.31 977.771 1805.42L978.611 1828.46C978.664 1829.95 979.078 1830.94 979.851 1831.42C980.651 1831.87 982.011 1832.1 983.931 1832.1C984.144 1832.26 984.251 1832.51 984.251 1832.86C984.251 1833.21 984.198 1833.43 984.091 1833.54L976.891 1833.22ZM986.965 1825.02C986.645 1823.34 986.485 1821.5 986.485 1819.5C986.485 1817.5 986.645 1815.66 986.965 1813.98C987.312 1812.3 987.832 1810.77 988.525 1809.38C989.245 1807.99 990.232 1806.91 991.485 1806.14C992.765 1805.37 994.258 1804.98 995.965 1804.98C997.672 1804.98 999.152 1805.37 1000.41 1806.14C1001.69 1806.91 1002.67 1807.99 1003.37 1809.38C1004.09 1810.77 1004.61 1812.3 1004.93 1813.98C1005.27 1815.66 1005.45 1817.5 1005.45 1819.5C1005.45 1821.5 1005.27 1823.34 1004.93 1825.02C1004.61 1826.7 1004.09 1828.22 1003.37 1829.58C1002.67 1830.94 1001.69 1832.01 1000.41 1832.78C999.152 1833.55 997.672 1833.94 995.965 1833.94C994.258 1833.94 992.765 1833.55 991.485 1832.78C990.232 1832.01 989.245 1830.94 988.525 1829.58C987.832 1828.22 987.312 1826.7 986.965 1825.02ZM989.845 1819.5C989.845 1822.81 990.378 1825.7 991.445 1828.18C992.512 1830.63 994.018 1831.86 995.965 1831.86C997.272 1831.86 998.405 1831.25 999.365 1830.02C1001.18 1827.67 1002.09 1824.17 1002.09 1819.5C1002.09 1814.91 1001.18 1811.41 999.365 1808.98C998.405 1807.7 997.272 1807.06 995.965 1807.06C994.658 1807.06 993.525 1807.7 992.565 1808.98C990.752 1811.43 989.845 1814.94 989.845 1819.5ZM1014.32 1831.38C1014.32 1832.05 1014.11 1832.58 1013.68 1832.98C1013.25 1833.35 1012.69 1833.54 1012 1833.54C1011.33 1833.54 1010.8 1833.33 1010.4 1832.9C1010 1832.47 1009.8 1831.94 1009.8 1831.3C1009.8 1830.63 1010 1830.09 1010.4 1829.66C1010.8 1829.21 1011.32 1828.98 1011.96 1828.98C1012.6 1828.98 1013.15 1829.21 1013.6 1829.66C1014.08 1830.11 1014.32 1830.69 1014.32 1831.38Z" fill="white"/>
<path d="M1034.32 1980.51L1026.8 1980.83C1026.7 1980.75 1026.64 1980.52 1026.64 1980.15C1026.64 1979.77 1026.75 1979.52 1026.96 1979.39C1028.91 1979.39 1030.28 1979.15 1031.08 1978.67C1031.91 1978.19 1032.34 1977.21 1032.36 1975.75L1032.48 1960.39C1032.51 1958.81 1032.12 1957.84 1031.32 1957.47C1030.52 1957.09 1028.84 1956.91 1026.28 1956.91C1026.2 1956.83 1026.16 1956.61 1026.16 1956.27C1026.16 1955.89 1026.26 1955.63 1026.44 1955.47C1029.86 1955.25 1032.3 1954.33 1033.76 1952.71C1033.87 1952.6 1034.1 1952.55 1034.44 1952.55C1034.79 1952.55 1035.04 1952.6 1035.2 1952.71L1036.04 1975.75C1036.1 1977.24 1036.51 1978.23 1037.28 1978.71C1038.08 1979.16 1039.44 1979.39 1041.36 1979.39C1041.58 1979.55 1041.68 1979.8 1041.68 1980.15C1041.68 1980.49 1041.63 1980.72 1041.52 1980.83L1034.32 1980.51ZM1051.24 1980.51L1043.72 1980.83C1043.61 1980.75 1043.56 1980.52 1043.56 1980.15C1043.56 1979.77 1043.66 1979.52 1043.88 1979.39C1045.82 1979.39 1047.2 1979.15 1048 1978.67C1048.82 1978.19 1049.25 1977.21 1049.28 1975.75L1049.4 1960.39C1049.42 1958.81 1049.04 1957.84 1048.24 1957.47C1047.44 1957.09 1045.76 1956.91 1043.2 1956.91C1043.12 1956.83 1043.08 1956.61 1043.08 1956.27C1043.08 1955.89 1043.17 1955.63 1043.36 1955.47C1046.77 1955.25 1049.21 1954.33 1050.68 1952.71C1050.78 1952.6 1051.01 1952.55 1051.36 1952.55C1051.7 1952.55 1051.96 1952.6 1052.12 1952.71L1052.96 1975.75C1053.01 1977.24 1053.42 1978.23 1054.2 1978.71C1055 1979.16 1056.36 1979.39 1058.28 1979.39C1058.49 1979.55 1058.6 1979.8 1058.6 1980.15C1058.6 1980.49 1058.54 1980.72 1058.44 1980.83L1051.24 1980.51ZM1065.15 1978.67C1065.15 1979.33 1064.94 1979.87 1064.51 1980.27C1064.08 1980.64 1063.52 1980.83 1062.83 1980.83C1062.16 1980.83 1061.63 1980.61 1061.23 1980.19C1060.83 1979.76 1060.63 1979.23 1060.63 1978.59C1060.63 1977.92 1060.83 1977.37 1061.23 1976.95C1061.63 1976.49 1062.15 1976.27 1062.79 1976.27C1063.43 1976.27 1063.98 1976.49 1064.43 1976.95C1064.91 1977.4 1065.15 1977.97 1065.15 1978.67Z" fill="white"/>
<path d="M580.992 2387.31L574.412 2387.59C574.318 2387.52 574.272 2387.33 574.272 2387C574.272 2386.67 574.365 2386.45 574.552 2386.33C576.255 2386.33 577.457 2386.12 578.157 2385.7C578.88 2385.28 579.253 2384.43 579.277 2383.15L579.382 2369.71C579.405 2368.33 579.067 2367.48 578.367 2367.15C577.667 2366.83 576.197 2366.66 573.957 2366.66C573.887 2366.59 573.852 2366.41 573.852 2366.1C573.852 2365.78 573.933 2365.54 574.097 2365.4C577.083 2365.22 579.218 2364.41 580.502 2362.99C580.595 2362.9 580.793 2362.85 581.097 2362.85C581.4 2362.85 581.622 2362.9 581.762 2362.99L582.497 2383.15C582.543 2384.46 582.905 2385.32 583.582 2385.74C584.282 2386.14 585.472 2386.33 587.152 2386.33C587.338 2386.47 587.432 2386.7 587.432 2387C587.432 2387.3 587.385 2387.5 587.292 2387.59L580.992 2387.31ZM588.687 2387.59C588.57 2387.57 588.512 2387.45 588.512 2387.24C588.512 2386.75 588.605 2386.21 588.792 2385.6C589.002 2384.99 589.503 2384.19 590.297 2383.18C591.113 2382.16 592.023 2381.07 593.027 2379.93C594.03 2378.79 595.022 2377.6 596.002 2376.36C597.005 2375.1 597.833 2373.78 598.487 2372.4C599.163 2371.03 599.502 2369.71 599.502 2368.45C599.502 2367.17 599.105 2366.19 598.312 2365.51C597.542 2364.81 596.62 2364.46 595.547 2364.46C594.473 2364.46 593.61 2364.61 592.957 2364.91C592.303 2365.22 591.977 2365.61 591.977 2366.1C591.977 2366.24 592.117 2366.48 592.397 2366.8C592.677 2367.11 592.817 2367.45 592.817 2367.82C592.817 2368.61 592.245 2369.01 591.102 2369.01C590.565 2369.01 590.145 2368.86 589.842 2368.55C589.538 2368.25 589.387 2367.83 589.387 2367.29C589.387 2366.29 589.725 2365.43 590.402 2364.7C591.685 2363.33 593.563 2362.64 596.037 2362.64C597.88 2362.64 599.42 2363.12 600.657 2364.07C601.893 2365.03 602.512 2366.47 602.512 2368.38C602.512 2369.83 602.103 2371.33 601.287 2372.89C600.33 2374.74 599.408 2376.25 598.522 2377.44C597.635 2378.63 596.958 2379.52 596.492 2380.1C596.048 2380.66 595.348 2381.53 594.392 2382.69C593.458 2383.86 592.852 2384.61 592.572 2384.93C592.315 2385.26 592.187 2385.52 592.187 2385.7C592.187 2385.73 592.688 2385.74 593.692 2385.74H596.177C597.273 2385.74 598.09 2385.74 598.627 2385.74C599.187 2385.72 599.735 2385.63 600.272 2385.49C600.832 2385.35 601.205 2385.2 601.392 2385.04C601.602 2384.88 601.8 2384.58 601.987 2384.16C602.173 2383.72 602.29 2383.27 602.337 2382.8C602.383 2382.31 602.418 2381.62 602.442 2380.73C602.512 2380.66 602.722 2380.63 603.072 2380.63C603.445 2380.63 603.818 2380.78 604.192 2381.08L603.177 2387.94C601.333 2387.73 598.58 2387.63 594.917 2387.63L588.687 2387.59ZM611.282 2385.7C611.282 2386.29 611.095 2386.75 610.722 2387.1C610.349 2387.43 609.859 2387.59 609.252 2387.59C608.669 2387.59 608.202 2387.41 607.852 2387.03C607.502 2386.66 607.327 2386.19 607.327 2385.63C607.327 2385.05 607.502 2384.57 607.852 2384.2C608.202 2383.8 608.657 2383.6 609.217 2383.6C609.777 2383.6 610.255 2383.8 610.652 2384.2C611.072 2384.6 611.282 2385.1 611.282 2385.7Z" fill="white"/>
<path d="M389.263 2440.17L382.683 2440.45C382.59 2440.38 382.543 2440.18 382.543 2439.85C382.543 2439.52 382.637 2439.3 382.823 2439.19C384.527 2439.19 385.728 2438.98 386.428 2438.56C387.152 2438.14 387.525 2437.28 387.548 2436L387.653 2422.56C387.677 2421.18 387.338 2420.33 386.638 2420.01C385.938 2419.68 384.468 2419.52 382.228 2419.52C382.158 2419.45 382.123 2419.26 382.123 2418.96C382.123 2418.63 382.205 2418.4 382.368 2418.26C385.355 2418.07 387.49 2417.26 388.773 2415.84C388.867 2415.75 389.065 2415.7 389.368 2415.7C389.672 2415.7 389.893 2415.75 390.033 2415.84L390.768 2436C390.815 2437.31 391.177 2438.17 391.853 2438.59C392.553 2438.99 393.743 2439.19 395.423 2439.19C395.61 2439.33 395.703 2439.55 395.703 2439.85C395.703 2440.15 395.657 2440.35 395.563 2440.45L389.263 2440.17ZM400.948 2428.48C400.855 2428.48 400.726 2428.31 400.563 2427.99C400.4 2427.66 400.318 2427.43 400.318 2427.29C400.318 2427.15 400.33 2427.06 400.353 2427.04C402.173 2426.53 403.678 2425.79 404.868 2424.84C406.058 2423.88 406.653 2422.75 406.653 2421.44C406.653 2420.11 406.326 2419.1 405.673 2418.4C405.043 2417.67 404.25 2417.31 403.293 2417.31C402.36 2417.31 401.59 2417.49 400.983 2417.84C400.4 2418.16 400.108 2418.55 400.108 2418.99C400.108 2419.2 400.236 2419.46 400.493 2419.76C400.773 2420.06 400.913 2420.45 400.913 2420.92C400.913 2421.71 400.341 2422.11 399.198 2422.11C398.661 2422.11 398.241 2421.95 397.938 2421.65C397.635 2421.35 397.483 2420.93 397.483 2420.39C397.483 2418.99 398.125 2417.82 399.408 2416.89C400.715 2415.96 402.173 2415.49 403.783 2415.49C405.393 2415.49 406.758 2416.03 407.878 2417.1C409.021 2418.15 409.593 2419.59 409.593 2421.41C409.593 2422.71 409.126 2423.82 408.193 2424.73C407.26 2425.62 406.128 2426.28 404.798 2426.73C406.548 2426.94 408.006 2427.65 409.173 2428.86C410.363 2430.05 410.958 2431.6 410.958 2433.52C410.958 2435.41 410.165 2437.1 408.578 2438.59C407.015 2440.06 405.195 2440.8 403.118 2440.8C401.648 2440.8 400.318 2440.43 399.128 2439.71C397.961 2438.96 397.378 2437.89 397.378 2436.49C397.378 2435.95 397.53 2435.53 397.833 2435.23C398.16 2434.93 398.58 2434.78 399.093 2434.78C400.236 2434.78 400.808 2435.17 400.808 2435.97C400.808 2436.34 400.668 2436.69 400.388 2437.02C400.108 2437.32 399.968 2437.54 399.968 2437.68C399.968 2438.05 400.295 2438.38 400.948 2438.66C401.625 2438.92 402.29 2439.05 402.943 2439.05C404.46 2439.05 405.685 2438.53 406.618 2437.51C407.551 2436.48 408.018 2435.15 408.018 2433.52C408.018 2431.86 407.598 2430.49 406.758 2429.42C405.941 2428.32 404.88 2427.78 403.573 2427.78C402.71 2427.78 401.846 2428.01 400.983 2428.48H400.948ZM418.46 2438.56C418.46 2439.14 418.273 2439.61 417.9 2439.96C417.526 2440.28 417.036 2440.45 416.43 2440.45C415.846 2440.45 415.38 2440.26 415.03 2439.89C414.68 2439.51 414.505 2439.05 414.505 2438.49C414.505 2437.9 414.68 2437.42 415.03 2437.05C415.38 2436.65 415.835 2436.46 416.395 2436.46C416.955 2436.46 417.433 2436.65 417.83 2437.05C418.25 2437.45 418.46 2437.95 418.46 2438.56Z" fill="white"/>
<path d="M32.891 2117.88L25.371 2118.2C25.2643 2118.12 25.211 2117.89 25.211 2117.52C25.211 2117.14 25.3177 2116.89 25.531 2116.76C27.4777 2116.76 28.851 2116.52 29.651 2116.04C30.4777 2115.56 30.9043 2114.58 30.931 2113.12L31.051 2097.76C31.0777 2096.18 30.691 2095.21 29.891 2094.84C29.091 2094.46 27.411 2094.28 24.851 2094.28C24.771 2094.2 24.731 2093.98 24.731 2093.64C24.731 2093.26 24.8243 2093 25.011 2092.84C28.4243 2092.62 30.8643 2091.7 32.331 2090.08C32.4377 2089.97 32.6643 2089.92 33.011 2089.92C33.3577 2089.92 33.611 2089.97 33.771 2090.08L34.611 2113.12C34.6643 2114.61 35.0777 2115.6 35.851 2116.08C36.651 2116.53 38.011 2116.76 39.931 2116.76C40.1443 2116.92 40.251 2117.17 40.251 2117.52C40.251 2117.86 40.1977 2118.09 40.091 2118.2L32.891 2117.88ZM46.8051 2116.04C46.8051 2116.7 46.5917 2117.24 46.1651 2117.64C45.7384 2118.01 45.1784 2118.2 44.4851 2118.2C43.8184 2118.2 43.2851 2117.98 42.8851 2117.56C42.4851 2117.13 42.2851 2116.6 42.2851 2115.96C42.2851 2115.29 42.4851 2114.74 42.8851 2114.32C43.2851 2113.86 43.8051 2113.64 44.4451 2113.64C45.0851 2113.64 45.6317 2113.86 46.0851 2114.32C46.5651 2114.77 46.8051 2115.34 46.8051 2116.04Z" fill="white"/>
<path d="M28.1929 1973.84C28.0596 1973.82 27.9929 1973.68 27.9929 1973.44C27.9929 1972.88 28.0996 1972.26 28.3129 1971.56C28.5529 1970.87 29.1262 1969.95 30.0329 1968.8C30.9662 1967.63 32.0062 1966.39 33.1529 1965.08C34.2996 1963.78 35.4329 1962.42 36.5529 1961C37.6996 1959.56 38.6462 1958.06 39.3929 1956.48C40.1662 1954.91 40.5529 1953.4 40.5529 1951.96C40.5529 1950.5 40.0996 1949.38 39.1929 1948.6C38.3129 1947.8 37.2596 1947.4 36.0329 1947.4C34.8062 1947.4 33.8196 1947.58 33.0729 1947.92C32.3262 1948.27 31.9529 1948.72 31.9529 1949.28C31.9529 1949.44 32.1129 1949.71 32.4329 1950.08C32.7529 1950.43 32.9129 1950.82 32.9129 1951.24C32.9129 1952.15 32.2596 1952.6 30.9529 1952.6C30.3396 1952.6 29.8596 1952.43 29.5129 1952.08C29.1662 1951.74 28.9929 1951.26 28.9929 1950.64C28.9929 1949.5 29.3796 1948.51 30.1529 1947.68C31.6196 1946.11 33.7662 1945.32 36.5929 1945.32C38.6996 1945.32 40.4596 1945.87 41.8729 1946.96C43.2862 1948.06 43.9929 1949.7 43.9929 1951.88C43.9929 1953.54 43.5262 1955.26 42.5929 1957.04C41.4996 1959.15 40.4462 1960.88 39.4329 1962.24C38.4196 1963.6 37.6462 1964.62 37.1129 1965.28C36.6062 1965.92 35.8062 1966.91 34.7129 1968.24C33.6462 1969.58 32.9529 1970.43 32.6329 1970.8C32.3396 1971.18 32.1929 1971.47 32.1929 1971.68C32.1929 1971.71 32.7662 1971.72 33.9129 1971.72H36.7529C38.0062 1971.72 38.9396 1971.72 39.5529 1971.72C40.1929 1971.7 40.8196 1971.6 41.4329 1971.44C42.0729 1971.28 42.4996 1971.11 42.7129 1970.92C42.9529 1970.74 43.1796 1970.4 43.3929 1969.92C43.6062 1969.42 43.7396 1968.9 43.7929 1968.36C43.8462 1967.8 43.8862 1967.02 43.9129 1966C43.9929 1965.92 44.2329 1965.88 44.6329 1965.88C45.0596 1965.88 45.4862 1966.06 45.9129 1966.4L44.7529 1974.24C42.6462 1974 39.4996 1973.88 35.3129 1973.88L28.1929 1973.84ZM54.016 1971.68C54.016 1972.35 53.8027 1972.88 53.376 1973.28C52.9493 1973.66 52.3893 1973.84 51.696 1973.84C51.0293 1973.84 50.496 1973.63 50.096 1973.2C49.696 1972.78 49.496 1972.24 49.496 1971.6C49.496 1970.94 49.696 1970.39 50.096 1969.96C50.496 1969.51 51.016 1969.28 51.656 1969.28C52.296 1969.28 52.8427 1969.51 53.296 1969.96C53.776 1970.42 54.016 1970.99 54.016 1971.68Z" fill="white"/>
<path d="M286.5 1069.68C286.407 1069.68 286.278 1069.52 286.115 1069.19C285.952 1068.86 285.87 1068.63 285.87 1068.49C285.87 1068.35 285.882 1068.27 285.905 1068.24C287.725 1067.73 289.23 1067 290.42 1066.04C291.61 1065.08 292.205 1063.95 292.205 1062.64C292.205 1061.31 291.878 1060.3 291.225 1059.6C290.595 1058.88 289.802 1058.51 288.845 1058.51C287.912 1058.51 287.142 1058.69 286.535 1059.04C285.952 1059.37 285.66 1059.75 285.66 1060.19C285.66 1060.4 285.788 1060.66 286.045 1060.96C286.325 1061.27 286.465 1061.65 286.465 1062.12C286.465 1062.91 285.893 1063.31 284.75 1063.31C284.213 1063.31 283.793 1063.16 283.49 1062.85C283.187 1062.55 283.035 1062.13 283.035 1061.59C283.035 1060.19 283.677 1059.03 284.96 1058.09C286.267 1057.16 287.725 1056.69 289.335 1056.69C290.945 1056.69 292.31 1057.23 293.43 1058.3C294.573 1059.35 295.145 1060.79 295.145 1062.61C295.145 1063.92 294.678 1065.02 293.745 1065.93C292.812 1066.82 291.68 1067.49 290.35 1067.93C292.1 1068.14 293.558 1068.85 294.725 1070.06C295.915 1071.25 296.51 1072.81 296.51 1074.72C296.51 1076.61 295.717 1078.3 294.13 1079.79C292.567 1081.26 290.747 1082 288.67 1082C287.2 1082 285.87 1081.64 284.68 1080.91C283.513 1080.17 282.93 1079.09 282.93 1077.69C282.93 1077.16 283.082 1076.74 283.385 1076.43C283.712 1076.13 284.132 1075.98 284.645 1075.98C285.788 1075.98 286.36 1076.38 286.36 1077.17C286.36 1077.54 286.22 1077.89 285.94 1078.22C285.66 1078.52 285.52 1078.74 285.52 1078.88C285.52 1079.26 285.847 1079.58 286.5 1079.86C287.177 1080.12 287.842 1080.25 288.495 1080.25C290.012 1080.25 291.237 1079.74 292.17 1078.71C293.103 1077.68 293.57 1076.35 293.57 1074.72C293.57 1073.06 293.15 1071.7 292.31 1070.62C291.493 1069.53 290.432 1068.98 289.125 1068.98C288.262 1068.98 287.398 1069.21 286.535 1069.68H286.5ZM304.011 1079.76C304.011 1080.34 303.825 1080.81 303.451 1081.16C303.078 1081.49 302.588 1081.65 301.981 1081.65C301.398 1081.65 300.931 1081.46 300.581 1081.09C300.231 1080.72 300.056 1080.25 300.056 1079.69C300.056 1079.11 300.231 1078.63 300.581 1078.25C300.931 1077.86 301.386 1077.66 301.946 1077.66C302.506 1077.66 302.985 1077.86 303.381 1078.25C303.801 1078.65 304.011 1079.15 304.011 1079.76Z" fill="white"/>
<path d="M173.109 701.942L168.029 702.102C167.949 702.022 167.909 701.808 167.909 701.462C167.909 701.088 167.989 700.822 168.149 700.662C169.215 700.662 169.989 700.515 170.469 700.222C170.949 699.902 171.202 699.368 171.229 698.622L171.149 694.382H159.989C159.855 694.302 159.789 693.955 159.789 693.342C159.789 692.702 159.855 692.315 159.989 692.182L172.109 673.982C172.215 673.875 172.442 673.822 172.789 673.822C173.135 673.822 173.389 673.875 173.549 673.982L174.189 692.182H178.109C178.242 692.582 178.309 692.995 178.309 693.422C178.309 693.848 178.202 694.168 177.989 694.382H174.269L174.429 698.622C174.455 699.368 174.695 699.902 175.149 700.222C175.629 700.515 176.402 700.662 177.469 700.662C177.602 700.795 177.669 701.062 177.669 701.462C177.669 701.835 177.642 702.048 177.589 702.102L173.109 701.942ZM171.229 678.422C165.842 687.515 163.149 692.088 163.149 692.142C163.149 692.168 163.189 692.182 163.269 692.182H170.869C171.055 692.182 171.149 692.088 171.149 691.902L171.429 678.462C171.429 678.382 171.402 678.342 171.349 678.342C171.295 678.342 171.255 678.368 171.229 678.422ZM186.063 699.942C186.063 700.608 185.85 701.142 185.423 701.542C184.996 701.915 184.436 702.102 183.743 702.102C183.076 702.102 182.543 701.888 182.143 701.462C181.743 701.035 181.543 700.502 181.543 699.862C181.543 699.195 181.743 698.648 182.143 698.222C182.543 697.768 183.063 697.542 183.703 697.542C184.343 697.542 184.89 697.768 185.343 698.222C185.823 698.675 186.063 699.248 186.063 699.942Z" fill="white"/>
<path d="M182.519 492.733C181.586 492.733 180.732 492.879 179.959 493.173C179.212 493.439 178.826 493.573 178.799 493.573C178.666 493.573 178.519 493.359 178.359 492.933C178.199 492.506 178.119 492.133 178.119 491.813L178.439 480.733C178.439 480.253 178.679 480.013 179.159 480.013H185.439C186.772 480.013 187.666 479.906 188.119 479.693C188.572 479.453 188.972 478.853 189.319 477.893C189.372 477.839 189.559 477.813 189.879 477.813C190.226 477.813 190.519 477.906 190.759 478.093L189.399 482.213H181.119C180.826 482.213 180.679 482.439 180.679 482.893L180.079 491.253C181.146 491.013 182.092 490.893 182.919 490.893C185.559 490.893 187.732 491.706 189.439 493.333C191.146 494.933 191.999 496.839 191.999 499.053C191.999 501.719 191.226 503.973 189.679 505.813C188.159 507.626 186.039 508.533 183.319 508.533C181.666 508.533 180.159 508.106 178.799 507.253C177.466 506.399 176.799 505.186 176.799 503.613C176.799 502.999 176.972 502.519 177.319 502.173C177.666 501.826 178.146 501.653 178.759 501.653C180.066 501.653 180.719 502.106 180.719 503.013C180.719 503.439 180.559 503.839 180.239 504.213C179.919 504.559 179.759 504.813 179.759 504.973C179.759 505.399 180.132 505.773 180.879 506.093C181.652 506.386 182.399 506.533 183.119 506.533C184.852 506.533 186.212 505.853 187.199 504.493C188.186 503.106 188.679 501.413 188.679 499.413C188.679 497.386 188.106 495.773 186.959 494.573C185.812 493.346 184.332 492.733 182.519 492.733ZM200.153 505.973C200.153 506.639 199.939 507.173 199.513 507.573C199.086 507.946 198.526 508.133 197.833 508.133C197.166 508.133 196.633 507.919 196.233 507.493C195.833 507.066 195.633 506.533 195.633 505.893C195.633 505.226 195.833 504.679 196.233 504.253C196.633 503.799 197.153 503.573 197.793 503.573C198.433 503.573 198.979 503.799 199.433 504.253C199.913 504.706 200.153 505.279 200.153 505.973Z" fill="white"/>
<path d="M100.214 262.158C101.841 262.158 103.081 261.478 103.934 260.118C104.788 258.731 105.214 257.011 105.214 254.958C105.214 252.878 104.654 251.251 103.534 250.078C102.414 248.904 101.188 248.318 99.8545 248.318C98.5211 248.318 97.3745 248.731 96.4145 249.558C95.4545 250.358 94.7211 251.304 94.2145 252.398C94.2678 258.904 96.2678 262.158 100.214 262.158ZM104.254 238.398C104.254 237.944 103.974 237.598 103.414 237.358C102.881 237.091 102.241 236.958 101.494 236.958C98.9878 236.958 97.0411 238.544 95.6545 241.718C95.3611 242.411 95.0811 243.424 94.8145 244.758C94.5745 246.064 94.3611 247.691 94.1745 249.638C95.7745 247.584 97.9611 246.558 100.734 246.558C102.868 246.558 104.694 247.424 106.214 249.158C107.761 250.891 108.534 252.878 108.534 255.118C108.534 257.891 107.761 260.091 106.214 261.718C104.694 263.344 102.601 264.158 99.9345 264.158C97.2945 264.158 95.1345 263.038 93.4545 260.798C91.7745 258.531 90.9345 255.904 90.9345 252.918C90.9345 249.904 91.3078 247.064 92.0545 244.398C92.8278 241.731 94.0011 239.544 95.5745 237.838C97.1745 236.104 98.9611 235.238 100.934 235.238C102.908 235.238 104.441 235.611 105.534 236.358C106.654 237.078 107.214 238.144 107.214 239.558C107.214 240.171 107.041 240.651 106.694 240.998C106.348 241.344 105.868 241.518 105.254 241.518C103.948 241.518 103.294 241.064 103.294 240.158C103.294 239.784 103.454 239.424 103.774 239.078C104.094 238.704 104.254 238.478 104.254 238.398ZM116.938 261.598C116.938 262.264 116.725 262.798 116.298 263.198C115.871 263.571 115.311 263.758 114.618 263.758C113.951 263.758 113.418 263.544 113.018 263.118C112.618 262.691 112.418 262.158 112.418 261.518C112.418 260.851 112.618 260.304 113.018 259.878C113.418 259.424 113.938 259.198 114.578 259.198C115.218 259.198 115.765 259.424 116.218 259.878C116.698 260.331 116.938 260.904 116.938 261.598Z" fill="white"/>
<path d="M857.63 340.061C860.664 340.364 863.149 340.516 865.085 340.516C867.045 340.516 869.005 340.481 870.965 340.411C871.152 340.621 871.245 340.947 871.245 341.391L871.105 342.406L863.055 365.016C862.962 365.109 862.414 365.156 861.41 365.156C860.407 365.156 859.87 365.109 859.8 365.016L868.795 343.421L868.83 342.861C868.737 342.697 868.399 342.616 867.815 342.616H860.22C859.45 342.616 858.844 342.814 858.4 343.211C857.957 343.607 857.665 344.389 857.525 345.556C857.479 345.602 857.28 345.626 856.93 345.626C856.604 345.626 856.382 345.544 856.265 345.381L857.63 340.061ZM876.007 363.126C876.007 363.709 875.821 364.176 875.447 364.526C875.074 364.852 874.584 365.016 873.977 365.016C873.394 365.016 872.927 364.829 872.577 364.456C872.227 364.082 872.052 363.616 872.052 363.056C872.052 362.472 872.227 361.994 872.577 361.621C872.927 361.224 873.382 361.026 873.942 361.026C874.502 361.026 874.981 361.224 875.377 361.621C875.797 362.017 876.007 362.519 876.007 363.126Z" fill="white"/>
<circle cx="89.4102" cy="2107.69" r="5" fill="#838C94"/>
<g filter="url(#filter0_d_5491_12)">
<circle cx="91.3555" cy="1960.34" r="5" fill="#838C94"/>
</g>
<circle cx="359.971" cy="1960.34" r="5" fill="#838C94"/>
<path d="M354.971 2107.69C354.971 2110.45 352.732 2112.69 349.971 2112.69C347.209 2112.69 344.971 2110.45 344.971 2107.69C344.971 2104.93 347.209 2102.69 349.971 2102.69C352.732 2102.69 354.971 2104.93 354.971 2107.69Z" fill="#838C94"/>
<path d="M405.873 2159.87C405.873 2162.63 403.634 2164.87 400.873 2164.87C398.112 2164.87 395.873 2162.63 395.873 2159.87C395.873 2157.11 398.112 2154.87 400.873 2154.87C403.634 2154.87 405.873 2157.11 405.873 2159.87Z" fill="#838C94"/>
<path d="M405.873 2376.26C405.873 2379.02 403.634 2381.26 400.873 2381.26C398.112 2381.26 395.873 2379.02 395.873 2376.26C395.873 2373.5 398.112 2371.26 400.873 2371.26C403.634 2371.26 405.873 2373.5 405.873 2376.26Z" fill="#838C94"/>
<path d="M598.096 2323.41C598.096 2326.17 595.857 2328.41 593.096 2328.41C590.334 2328.41 588.096 2326.17 588.096 2323.41C588.096 2320.64 590.334 2318.41 593.096 2318.41C595.857 2318.41 598.096 2320.64 598.096 2323.41Z" fill="#838C94"/>
<path d="M598.096 2039.66C598.096 2042.43 595.857 2044.66 593.096 2044.66C590.334 2044.66 588.096 2042.43 588.096 2039.66C588.096 2036.9 590.334 2034.66 593.096 2034.66C595.857 2034.66 598.096 2036.9 598.096 2039.66Z" fill="#838C94"/>
<path d="M778.045 1967.34C778.045 1970.1 775.806 1972.34 773.045 1972.34C770.283 1972.34 768.045 1970.1 768.045 1967.34C768.045 1964.57 770.283 1962.34 773.045 1962.34C775.806 1962.34 778.045 1964.57 778.045 1967.34Z" fill="#838C94"/>
<path d="M999.527 1967.34C999.527 1970.1 997.289 1972.34 994.527 1972.34C991.766 1972.34 989.527 1970.1 989.527 1967.34C989.527 1964.57 991.766 1962.34 994.527 1962.34C997.289 1962.34 999.527 1964.57 999.527 1967.34Z" fill="#838C94"/>
<path d="M945.59 1820.04C945.59 1822.8 943.351 1825.04 940.59 1825.04C937.828 1825.04 935.59 1822.8 935.59 1820.04C935.59 1817.28 937.828 1815.04 940.59 1815.04C943.351 1815.04 945.59 1817.28 945.59 1820.04Z" fill="#838C94"/>
<path d="M788.045 1820.03C788.045 1822.79 785.806 1825.03 783.045 1825.03C780.283 1825.03 778.045 1822.79 778.045 1820.03C778.045 1817.27 780.283 1815.03 783.045 1815.03C785.806 1815.03 788.045 1817.27 788.045 1820.03Z" fill="#838C94"/>
<path d="M912.699 1646.9C912.699 1649.66 910.461 1651.9 907.699 1651.9C904.938 1651.9 902.699 1649.66 902.699 1646.9C902.699 1644.14 904.938 1641.9 907.699 1641.9C910.461 1641.9 912.699 1644.14 912.699 1646.9Z" fill="#838C94"/>
<path d="M653.99 1646.9C653.99 1649.66 651.752 1651.9 648.99 1651.9C646.229 1651.9 643.99 1649.66 643.99 1646.9C643.99 1644.14 646.229 1641.9 648.99 1641.9C651.752 1641.9 653.99 1644.14 653.99 1646.9Z" fill="#838C94"/>
<path d="M905.453 1203.42C905.453 1206.18 903.215 1208.42 900.453 1208.42C897.692 1208.42 895.453 1206.18 895.453 1203.42C895.453 1200.66 897.692 1198.42 900.453 1198.42C903.215 1198.42 905.453 1200.66 905.453 1203.42Z" fill="#838C94"/>
<path d="M607.658 1203.42C607.658 1206.18 605.42 1208.42 602.658 1208.42C599.897 1208.42 597.658 1206.18 597.658 1203.42C597.658 1200.66 599.897 1198.42 602.658 1198.42C605.42 1198.42 607.658 1200.66 607.658 1203.42Z" fill="#838C94"/>
<path d="M349.615 1069.16C349.615 1071.92 347.377 1074.16 344.615 1074.16C341.854 1074.16 339.615 1071.92 339.615 1069.16C339.615 1066.39 341.854 1064.16 344.615 1064.16C347.377 1064.16 349.615 1066.39 349.615 1069.16Z" fill="#838C94"/>
<path d="M523.209 1069.16C523.209 1071.92 520.97 1074.16 518.209 1074.16C515.448 1074.16 513.209 1071.92 513.209 1069.16C513.209 1066.39 515.448 1064.16 518.209 1064.16C520.97 1064.16 523.209 1066.39 523.209 1069.16Z" fill="#838C94"/>
<path d="M229.438 688.602C229.438 691.363 227.199 693.602 224.438 693.602C221.676 693.602 219.438 691.363 219.438 688.602C219.438 685.84 221.676 683.602 224.438 683.602C227.199 683.602 229.438 685.84 229.438 688.602Z" fill="#838C94"/>
<path d="M542.621 688.602C542.621 691.363 540.383 693.602 537.621 693.602C534.86 693.602 532.621 691.363 532.621 688.602C532.621 685.84 534.86 683.602 537.621 683.602C540.383 683.602 542.621 685.84 542.621 688.602Z" fill="#838C94"/>
<path d="M526.738 494.641C526.738 497.402 524.5 499.641 521.738 499.641C518.977 499.641 516.738 497.402 516.738 494.641C516.738 491.879 518.977 489.641 521.738 489.641C524.5 489.641 526.738 491.879 526.738 494.641Z" fill="#838C94"/>
<path d="M245.676 494.641C245.676 497.402 243.437 499.641 240.676 499.641C237.914 499.641 235.676 497.402 235.676 494.641C235.676 491.879 237.914 489.641 240.676 489.641C243.437 489.641 245.676 491.879 245.676 494.641Z" fill="#838C94"/>
<path d="M444.293 250.273C444.293 253.035 442.054 255.273 439.293 255.273C436.532 255.273 434.293 253.035 434.293 250.273C434.293 247.512 436.532 245.273 439.293 245.273C442.054 245.273 444.293 247.512 444.293 250.273Z" fill="#838C94"/>
<path d="M161.031 250.273C161.031 253.035 158.793 255.273 156.031 255.273C153.27 255.273 151.031 253.035 151.031 250.273C151.031 247.512 153.27 245.273 156.031 245.273C158.793 245.273 161.031 247.512 161.031 250.273Z" fill="#838C94"/>
<path d="M820.541 352.523C820.541 355.285 818.302 357.523 815.541 357.523C812.78 357.523 810.541 355.285 810.541 352.523C810.541 349.762 812.78 347.523 815.541 347.523C818.302 347.523 820.541 349.762 820.541 352.523Z" fill="#838C94"/>
<path d="M585.598 352.523C585.598 355.285 583.359 357.523 580.598 357.523C577.836 357.523 575.598 355.285 575.598 352.523C575.598 349.762 577.836 347.523 580.598 347.523C583.359 347.523 585.598 349.762 585.598 352.523Z" fill="#838C94"/>
<defs>
<filter id="filter0_d_5491_12" x="82.3555" y="1955.34" width="18" height="18" filterUnits="userSpaceOnUse" color-interpolation-filters="sRGB">
<feFlood flood-opacity="0" result="BackgroundImageFix"/>
<feColorMatrix in="SourceAlpha" type="matrix" values="0 0 0 0 0 0 0 0 0 0 0 0 0 0 0 0 0 0 127 0" result="hardAlpha"/>
<feOffset dy="4"/>
<feGaussianBlur stdDeviation="2"/>
<feComposite in2="hardAlpha" operator="out"/>
<feColorMatrix type="matrix" values="0 0 0 0 0 0 0 0 0 0 0 0 0 0 0 0 0 0 0.25 0"/>
<feBlend mode="normal" in2="BackgroundImageFix" result="effect1_dropShadow_5491_12"/>
<feBlend mode="normal" in="SourceGraphic" in2="effect1_dropShadow_5491_12" result="shape"/>
</filter>
</defs>
</svg>
