<svg width="2413" height="1105" viewBox="0 0 2413 1105" fill="none" xmlns="http://www.w3.org/2000/svg">
<path d="M2387.79 461.466L2394.17 463.39M2387.79 461.466L2379.27 457.508C2375.37 455.7 2370.98 455.34 2366.84 456.496C2355.69 459.613 2332.62 466.043 2319.29 469.613C2315.92 470.516 2313.04 471.275 2310.31 471.972M2387.79 461.466C2387.79 461.466 2367.34 463.831 2356.9 466.454C2338.44 471.092 2324.73 477.453 2306.13 481.5C2292.35 484.498 2289.76 485.164 2278.96 486.32M2394.17 463.39C2394.17 463.39 2393.8 467.947 2394.17 470.827C2394.84 475.935 2396.74 478.46 2398.85 483.16C2402.63 491.58 2407.18 495.622 2409.4 504.58C2411.29 512.238 2413.11 516.637 2410.76 523.774C2410.24 525.347 2409.29 527.106 2408.31 528.682C2406.38 531.769 2402.96 533.478 2399.33 533.714L2385.46 534.619C2385.46 534.619 2384.59 529.318 2382.27 527.177C2378.42 523.633 2372.27 523.774 2368.87 527.177C2363.51 532.538 2360.98 536.749 2359.52 544.188C2359.08 546.405 2358.75 548.808 2358.62 551.23M2394.17 463.39C2394.17 463.39 2386.89 464.023 2382.27 464.725C2372.19 466.256 2368.01 467.328 2358.11 469.744C2350.03 471.717 2345.55 473.679 2337.43 475.934C2326.91 478.855 2321.04 480.709 2310.31 482.713C2298.66 484.888 2278.96 486.32 2278.96 486.32M2384.05 559.285C2384.05 559.285 2374.95 572.041 2367.7 570.236C2360.06 568.333 2358.17 559.665 2358.62 551.23M2384.05 559.285L2400.77 559.285M2384.05 559.285L2358.62 551.23M2400.77 559.285V559.285C2403.48 562.562 2404.76 566.818 2404.01 571.006C2403.57 573.485 2403 576.228 2402.33 578.408C2398.98 589.381 2387.8 603.94 2387.8 603.94C2387.8 603.94 2380.03 611.684 2376.74 617.761C2374.63 621.656 2372.74 627.847 2372.09 630.094C2371.95 630.58 2371.48 630.891 2370.98 630.817C2366.66 630.171 2347.1 627.209 2334.49 624.595C2319.94 621.58 2306.31 615.995 2292.46 614.669M2400.77 559.285L2378.97 551.23L2373.23 550.217L2358.62 551.23M2223.08 615.895C2243.41 613.975 2254.6 614.252 2276.27 614.355M2223.08 615.895C2223.08 615.895 2224.57 619.998 2223.08 621.715C2222.43 622.471 2220.92 623.084 2220.92 623.084M2223.08 615.895C2214.8 616.677 2207.88 617.445 2201.53 618.334M1995.48 614.359C1995.48 614.359 2027.57 610.71 2047.15 615.635C2056.5 617.987 2061.62 620.001 2070.33 624.14C2083.41 630.358 2100.21 644.015 2104.7 647.746C2105.38 648.316 2106.35 648.367 2107.1 647.88C2109.94 646.03 2116.96 641.527 2121.36 639.238C2122.69 638.543 2123.99 637.91 2125.24 637.329C2128.98 635.601 2132.43 634.335 2135.83 633.294M1995.48 614.359L1994.37 616.114L1988.37 616.114M1995.48 614.359L1996.14 607.787M2156.92 478.433C2174.08 481.867 2184.05 481.781 2201.53 482.713C2201.53 482.713 2229.93 484.06 2248.05 482.713C2266 481.379 2293.63 475.934 2293.63 475.934C2295.57 475.499 2297.35 475.095 2299.03 474.708M2156.92 478.433C2156.92 478.433 2164.5 481.267 2169.47 482.713C2184.51 487.086 2193.55 487.19 2209.16 488.489C2234.17 490.572 2248.52 489.375 2273.49 486.882C2275.55 486.677 2277.35 486.493 2278.96 486.32M2156.92 478.433L2158.01 468.995M2156.92 478.433C2155.63 478.177 2154.43 477.949 2153.28 477.736M2121.1 465.559C2121.1 465.559 2129.02 470.354 2135.39 472.987C2142.19 475.799 2146.83 476.536 2153.28 477.736M2121.1 465.559L2110.38 457.124C2109.62 456.524 2108.54 456.553 2107.81 457.196C2104.79 459.868 2096.9 466.765 2091.12 471.152C2076.79 482.05 2068.26 487.882 2051.9 495.409C2035.2 503.092 2007.01 509.585 2007.01 509.585L1993.62 513.158L1909.87 513.158M2121.1 465.559L2110.21 476.853C2110.21 476.853 2095.4 490.279 2084.4 496.619C2069.87 504.993 2060.51 508.104 2044.06 511.342C2034.28 513.267 2016.57 513.465 2005.22 513.362M2121.1 465.559L2110.69 468.844C2110.38 468.943 2110.09 469.115 2109.86 469.349C2107.58 471.655 2094.56 484.634 2084.4 491.156C2076.69 496.096 2071.99 498.321 2063.56 501.867C2046.78 508.919 2018.35 513.158 2018.35 513.158M1905.85 513.158L1909.87 513.158M1905.85 513.158L1828.5 513.158M1905.85 513.158L1901.33 592.845M870.791 509.132L870.791 505.601M870.791 509.132L898.351 509.132M870.791 509.132L876.112 584.74M870.791 505.601L978.238 506.495M870.791 505.601L870.791 495.701C870.791 494.044 869.448 492.701 867.791 492.701L793.684 492.701C792.584 492.701 791.489 492.915 790.523 493.439C789.82 493.82 789.016 494.309 788.461 494.811V494.811C786.282 496.781 786.003 500.02 786.275 502.945L794.012 586.152M1076.27 507.311L1136.73 509.448M1076.27 507.311C1076.27 507.311 1050.83 505.367 1044 498.512C1035.36 489.851 1022.99 488.341 1022.99 488.341C1022.99 488.341 1005.27 477.179 996.533 467.273C982.158 450.973 979.32 437.248 979.356 416.207C979.396 393.375 986.649 380.103 999.783 361.427C1006.91 351.284 1021.44 335.603 1021.44 335.603M1076.27 507.311L1002.99 506.701M1136.73 509.448L1142.88 509.471M1136.73 509.448L1111.88 509.351M1822.98 619.208L1899.92 617.724M1822.98 619.208L1828.5 513.158M1822.98 619.208L1817.88 619.208M1988.37 616.114L1903.91 617.651M1988.37 616.114L1993.2 559.263M2158.01 468.995L2153.28 468.995M2158.01 468.995C2158.01 468.995 2167.3 469.247 2166.87 465.559C2166.62 463.432 2164.87 461.165 2164.87 461.165M2153.28 468.995L2153.28 477.736M2153.28 468.995L2146.34 468.995C2146.34 468.995 2143.85 467.261 2143.54 465.559C2143.03 462.805 2148.2 460.114 2148.2 460.114M2148.2 460.114L2162.2 460.114L2164.87 461.165M2148.2 460.114L2139.26 453.023C2137.79 451.852 2136.95 450.056 2136.99 448.172L2137.59 424.306C2137.61 423.404 2138.23 422.63 2139.12 422.437C2143.26 421.527 2155.18 419.182 2163.3 420.289C2169.12 421.081 2177.03 424.194 2180.29 425.558C2181.18 425.926 2181.65 426.875 2181.44 427.807L2176.35 450.044C2176.05 451.329 2175.34 452.482 2174.33 453.323L2164.87 461.165M2232.68 482.713L2232.68 470.703M2232.68 470.703L2226.04 470.703M2232.68 470.703L2238.28 470.703C2238.93 470.703 2239.53 470.391 2239.86 469.834C2240.49 468.787 2241.4 466.988 2241.32 465.559C2241.21 463.676 2239.31 461.165 2239.31 461.165M2226.04 470.703L2226.04 482.713M2226.04 470.703L2222.32 470.703C2221.93 470.703 2221.55 470.591 2221.24 470.36C2220.17 469.567 2217.71 467.521 2217.86 465.559C2218.04 463.282 2221.72 461.165 2221.72 461.165M2239.31 461.165L2221.72 461.165M2239.31 461.165L2248.04 453.326C2248.99 452.481 2249.64 451.359 2249.9 450.122L2254.71 427.784C2254.91 426.862 2254.44 425.931 2253.57 425.568C2250.03 424.098 2240.9 420.56 2234.22 420.289C2226.84 419.989 2216.42 423.43 2212.82 424.714C2212.04 424.992 2211.54 425.731 2211.54 426.558L2211.54 450.088C2211.54 451.904 2212.36 453.621 2213.77 454.76L2221.72 461.165M2310.31 471.062C2310.31 471.062 2316.21 470.624 2316.41 467.957C2316.53 466.416 2314.72 464.381 2314.72 464.381M2310.31 471.062L2310.31 471.972M2310.31 471.062L2297.59 471.062M2294.58 464.381C2294.58 464.381 2290.41 465.82 2290.44 467.957C2290.45 469.148 2292.7 470.53 2293.42 470.941C2293.56 471.022 2293.72 471.062 2293.88 471.062L2297.59 471.062M2294.58 464.381L2314.72 464.381M2294.58 464.381L2287.76 455.893C2286.93 454.868 2286.47 453.6 2286.44 452.285L2285.87 429.65C2285.84 428.718 2286.47 427.896 2287.37 427.687C2291.69 426.691 2304.08 424.108 2312.33 425.186C2318.72 426.024 2326.58 429.233 2329.84 430.66C2330.73 431.051 2331.18 432.038 2330.92 432.977L2324.44 456.13C2324.06 457.507 2323.19 458.702 2322 459.498L2314.72 464.381M2310.31 471.972C2306.55 472.931 2303.08 473.772 2299.03 474.708M2297.59 471.062L2299.03 474.708M2292.46 614.669C2290.53 614.484 2288.58 614.382 2286.63 614.382C2282.91 614.382 2279.48 614.37 2276.27 614.355M2292.46 614.669L2299.98 622.875C2300.99 623.982 2301.55 625.428 2301.55 626.928L2301.55 650.356C2301.55 651.239 2300.98 652.014 2300.13 652.239C2296.04 653.322 2284.09 656.104 2276.27 653.949C2270.07 652.241 2262.52 646.335 2259.92 644.196C2259.35 643.722 2259.11 642.961 2259.28 642.236L2263.68 624.122C2264.05 622.58 2265.02 621.25 2266.37 620.421L2276.27 614.355M2201.53 618.334C2187.63 620.279 2176.44 622.803 2159.63 627.33C2155.24 628.513 2151.34 629.403 2147.68 630.249M2201.53 618.334L2203.71 621.394M2220.92 623.084L2218.76 624.454C2218.76 624.454 2209.56 627.882 2205.89 624.454C2204.82 623.453 2203.71 621.394 2203.71 621.394M2220.92 623.084L2227.94 630.583C2229.06 631.786 2229.64 633.4 2229.54 635.045L2228.11 658.658C2228.06 659.499 2227.49 660.215 2226.67 660.421C2222.87 661.379 2211.86 663.76 2203.71 661.537C2198.1 660.01 2189.69 655.491 2186.42 653.67C2185.61 653.22 2185.23 652.271 2185.5 651.384L2190.66 634.112C2190.99 633.038 2191.6 632.075 2192.44 631.332L2203.71 621.394M2147.68 630.249L2147.68 632.468M2147.68 630.249C2143.55 631.203 2139.72 632.1 2135.83 633.294M2147.68 632.468L2135.83 633.294M2147.68 632.468L2146.3 633.821C2146.3 633.821 2142.97 638.262 2140.85 642.339M2135.83 633.294C2135.83 633.294 2129.78 638.19 2125.24 641.327M2148.04 632.468V632.468C2149.47 633.294 2150.3 634.875 2150.16 636.525L2148.07 661.515C2148.05 661.805 2147.96 662.086 2147.82 662.339L2144.03 668.972C2143.68 669.595 2143.01 669.98 2142.29 669.98L2138.57 669.98M2138.57 669.98L2125.19 669.98C2124.02 669.98 2123.11 668.989 2123.19 667.828L2124.21 654.51C2124.21 654.51 2125.24 646.475 2125.24 641.327M2138.57 669.98C2138.57 669.98 2139.95 652.383 2140.85 642.339M2140.85 642.339C2134.58 642.339 2131.46 642.087 2125.24 641.327M2005.22 513.362L2005.22 517.441M2005.22 513.362C2001 513.324 1996.37 513.205 1994.64 513.158L1996.76 517.441M2005.22 517.441L1996.76 517.441M2005.22 517.441L2004.5 524.601M1996.76 517.441L1993.2 559.263M2003.16 537.927C2003.16 537.927 2044.88 535.932 2067.43 547.151C2071.21 549.035 2075.09 550.111 2078.51 551.295M2003.16 537.927L2002.7 542.472M2003.16 537.927L2004.5 524.601M1997.75 591.742C1997.75 591.742 2015.22 590.293 2025.2 588.808C2039.05 586.747 2058.3 581.104 2058.3 581.104C2058.3 581.104 2090.36 575.72 2089.4 562.844C2088.86 555.65 2084.34 553.316 2078.51 551.295M1997.75 591.742L1999.3 576.362M1997.75 591.742L1996.14 607.787M1909.87 513.158L1903.91 617.651M1903.91 617.651L1899.92 617.724M1899.92 617.724L1901.33 592.845M1828.5 513.158L1822.98 513.158M1822.98 513.158L1750.89 513.158M1822.98 513.158L1819.83 578.538M1817.88 619.208L1747.35 620.328M1817.88 619.208L1819.83 578.538M1750.89 513.158L1747.35 620.328M1750.89 513.158L1745.59 513.158M1747.35 620.328L1741.62 620.419M1745.59 513.158L1711.57 513.158L1678.14 512.883M1745.59 513.158L1741.62 620.419M1741.62 620.419L1674.4 621.486M1678.14 512.883L1672.39 512.835M1678.14 512.883L1676.54 559.263M1674.4 621.486L1669.75 621.56M1674.4 621.486L1676.54 559.263M1672.39 512.835L1609.38 512.317M1672.39 512.835L1670.79 578.538M1669.75 621.56L1607.6 622.546M1669.75 621.56L1670.79 578.538M1609.38 512.317L1607.6 622.546M1609.38 512.317L1603.85 512.272M1607.6 622.546L1603.85 622.605M1603.85 512.272L1603.85 622.605M1603.85 512.272L1544.37 511.782M1603.85 622.605L1580.53 622.976L1543.28 623.751M1544.37 511.782L1539.29 511.741M1544.37 511.782L1543.36 615.544M1543.28 623.751L1539.29 623.834M1543.28 623.751L1543.36 615.544M1539.29 511.741L1539.29 623.834M1539.29 511.741L1483.79 511.284M1539.29 623.834L1483.79 624.99M1483.79 511.284L1483.79 624.99M1483.79 511.284L1478.92 511.244M1483.79 624.99L1478.92 625.091M1478.92 511.244L1478.92 625.091M1478.92 511.244L1428.29 510.828M1478.92 625.091L1428.29 626.145M1428.29 510.828L1428.29 626.145M1428.29 510.828L1421.66 510.773M1428.29 626.145L1422.78 626.26M1421.66 510.773L1374.11 510.382M1421.66 510.773L1422.78 580.875M1422.78 626.26L1374.11 627.273M1422.78 626.26L1422.78 580.875M1374.11 510.382L1371.23 510.358L1369.25 510.351M1374.11 510.382L1374.11 617.344M1374.11 627.273L1369.25 627.374M1374.11 627.273L1374.11 617.344M1369.25 510.351L1369.25 627.374M1369.25 510.351L1323.7 510.174M1369.25 627.374L1325.25 628.29M1323.7 510.174L1318.62 510.154M1323.7 510.174L1324.38 561.696M1325.25 628.29L1320.6 628.387M1325.25 628.29L1324.38 561.696M1318.62 510.154L1320.6 628.387M1318.62 510.154L1275.06 509.985M1320.6 628.387L1294.75 628.925L1277.93 629.228M1275.06 509.985L1277.93 629.228M1275.06 509.985L1269.97 509.965M1277.93 629.228L1273.28 629.312M1269.97 509.965L1230.84 509.813M1269.97 509.965L1270.34 523.111M1273.28 629.312L1233.48 630.029M1273.28 629.312L1270.34 523.111M1230.84 509.813L1233.48 630.029M1230.84 509.813L1224.64 509.789M1233.48 630.029L1229.3 630.105M1224.64 509.789L1189.04 509.651M1224.64 509.789L1225.91 542.472M1229.3 630.105L1191.7 630.783M1229.3 630.105L1225.91 542.472M1189.04 509.651L1191.7 630.783M1189.04 509.651L1183.74 509.63M1191.7 630.783L1187.29 630.862M1183.74 509.63L1187.29 630.862M1183.74 509.63L1149.02 509.495M1187.29 630.862L1153.45 631.472M1149.02 509.495L1153.45 631.472M1149.02 509.495L1142.88 509.471M1153.45 631.472L1149.02 631.552M1142.88 509.471L1146.56 582.697M1149.02 631.552L1115.84 632.15M1149.02 631.552L1146.56 582.697M1111.88 509.351L1115.84 632.15M1111.88 509.351L1106.79 509.331M1115.84 632.15L1111.88 632.221M1106.79 509.331L1108.78 573.248L1111.88 632.221M1106.79 509.331L1076.27 509.213M1111.88 632.221L1081.52 632.769M1076.27 509.213L1078.71 576.59L1081.09 624.103M1076.27 509.213L1070.49 509.19M1081.52 632.769L1076.27 632.863M1081.52 632.769L1081.09 624.103M1070.49 509.19L1055.39 509.132L1042.47 509.132M1070.49 509.19L1076.27 632.863M1076.27 632.863L1048.41 633.365M1042.47 509.132L1048.41 633.365M1042.47 509.132L1037.37 509.132M1048.41 633.365L1043.89 633.447M1037.37 509.132L1043.89 633.447M1037.37 509.132L1012.17 509.132M1043.89 633.447L1018.1 633.912M1012.17 509.132L1018.1 633.912M1012.17 509.132L1006.22 509.132M1018.1 633.912L1013.86 633.988M1006.22 509.132L982.158 509.132M1006.22 509.132L1010.85 584.74M1013.86 633.988L1004.61 634.155M1013.86 633.988L1010.85 584.74M982.158 509.132L989.233 634.432M982.158 509.132L976.778 509.132M989.233 634.432L986.813 634.476L985.264 634.506M989.233 634.432L996.922 634.294M976.778 509.132L985.264 634.506M976.778 509.132L954.128 509.132M985.264 634.506L962.35 634.95M985.264 634.506C985.264 634.506 979.161 640.037 976.193 644.145C966.802 657.14 963.348 665.963 961.065 682.318C958.765 698.799 960.587 710.765 965.597 726.633C969.411 738.716 973.447 744.938 980.575 755.412C989.066 767.887 1005.74 782.781 1011.02 787.366C1012.12 788.319 1013.16 789.313 1014.15 790.381V790.381C1017.71 794.228 1020.8 799.244 1019.12 804.209C1018.74 805.336 1018.17 806.412 1017.33 807.299C1013.31 811.564 1009.24 815.13 1003.42 815.793C990.835 817.224 986.392 815.682 971.144 812.663C943.295 807.148 923.96 792.771 897.06 783.695C870.119 774.605 854.763 767.501 826.353 766.328C802.819 765.357 789.135 767.253 766.501 773.771C744.173 780.201 719.337 798.057 702.636 811.705C689.581 822.373 674.187 830.391 657.331 830.737C639.676 831.099 616.765 829.579 601.295 821.156C579.75 809.424 564.106 775.689 564.106 775.689C564.106 775.689 584.913 757.747 594.385 744.62C605.617 729.054 610.383 718.458 614.233 699.653C616.571 688.233 616.403 669.882 616.403 669.882M954.128 509.132L962.35 634.95M954.128 509.132L949.315 509.132M962.35 634.95L957.539 635.043M949.315 509.132L927.797 509.132M949.315 509.132L951.492 542.472M957.539 635.043L936.29 635.57M957.539 635.043L951.492 542.472M927.797 509.132L936.29 635.57M927.797 509.132L922.417 509.132M936.29 635.57L930.336 635.57M922.417 509.132L930.336 635.57M922.417 509.132L902.881 509.132M930.336 635.57L910.242 636.387M2325.66 513.945C2329.71 513.637 2332.95 517.147 2333.09 521.198C2333.23 525.393 2329.85 529.286 2325.66 528.968C2324.07 528.847 2322.69 528.185 2321.63 527.177M2325.66 513.945C2325.66 513.945 2323.88 510.13 2321.63 508.424M2325.66 513.945C2325.02 513.995 2324.41 514.13 2323.84 514.339M2325.66 513.945L2335.92 512.983M902.881 509.132L910.242 636.387M902.881 509.132L898.351 509.132M910.242 636.387L907.128 636.387M898.351 509.132L907.128 636.387M907.128 636.387L888.198 636.387L888.198 633.452L882.48 633.452M1021.44 335.603L1021.44 306.727L1021.44 302.068C1021.44 302.068 1024.11 301.463 1026.71 301.647M1021.44 335.603C1021.44 335.603 1029.93 339.227 1030.9 335.571C1031.18 334.517 1031.16 334.661 1030.9 333.602C1030.34 331.354 1026.71 332.24 1026.71 332.24L1026.71 325.783M1026.71 312.556L1026.71 306.727C1026.71 306.727 1028.84 306.933 1029.92 306.727C1031.67 306.392 1031.45 304 1030.9 303.322C1030 302.203 1028.37 301.765 1026.71 301.647M1026.71 312.556L1026.71 324.359L1026.71 325.783M1026.71 312.556L1033.58 313.244M1041.89 312.556C1042.18 310.458 1042.49 308.893 1042.49 308.893C1046.05 311.333 1046.97 310.788 1046.97 315.105C1046.97 317.691 1046.97 320.237 1046.97 323.371C1046.97 327.871 1046.79 328.884 1042.49 330.193C1042.49 330.193 1042.1 327.931 1041.77 325.16M1041.89 312.556C1041.63 314.409 1041.38 316.678 1041.34 318.655C1041.31 320.592 1041.52 323.027 1041.77 325.16M1041.89 312.556L1039.41 312.556M1039.41 312.556L1039.41 304.074C1035.12 304.074 1033.88 308.513 1033.58 313.244M1039.41 312.556L1039.41 325.16M1041.77 325.16L1039.41 325.16M1039.41 325.16L1039.41 332.24C1034.45 332.998 1033.6 328.907 1033.51 324.359M1033.58 313.244C1033.47 314.965 1033.49 316.725 1033.53 318.323C1033.57 320.158 1033.46 322.305 1033.51 324.359M1033.51 324.359L1026.71 325.783M1026.71 301.647C1021.16 296.163 1012.72 289.797 1002.03 286.142C987.21 281.077 979.314 281.282 965.142 282.964C950.97 284.645 927.565 294.716 927.565 294.716M927.565 294.716C927.565 294.716 900.991 307.876 884.183 315.824C876.198 319.6 870.262 322.851 864.215 325.853M927.565 294.716C927.565 294.716 973.351 282.157 994.935 297.233C1004.01 303.57 1011.34 307.83 1013.86 318.323C1015.23 323.998 1015.38 327.966 1013.86 333.602C1012.42 338.969 1008.13 343.589 1005.14 346.289C1003.15 348.078 1001.07 349.75 999.2 351.659C993.112 357.877 978.852 373.104 973.021 384.979C966.123 399.027 963.169 408.861 962.35 424.49C961.515 440.44 963.06 450.067 969.205 464.809C973.023 473.968 976.064 478.837 982.158 486.669C989.089 495.577 1002.99 506.701 1002.99 506.701M1039.32 803.075C1039.32 803.075 1037.78 806.617 1032.64 812.663C1020.24 827.242 1006.29 831.389 982.994 828.197C973.046 826.834 971.324 825.88 949.435 818.984C939.687 815.914 903.553 799.656 903.553 799.656C903.553 799.656 832.883 771.81 790.788 782.006C761.933 788.995 753.292 800.109 728.349 817.992C699.446 838.716 682.454 851.543 648.898 869.671C605.451 893.142 571.974 907.494 518.36 910.39C496.631 911.564 489.978 911.617 462.525 908.126C435.071 904.635 408.498 896.301 374.799 883.086C339.093 869.083 314.54 852.008 288.969 831.552C273.898 819.496 258.628 805.849 244.785 788.604C200.302 733.184 184.294 702.283 167.011 631.8C151.199 567.312 145.611 534.314 142.996 468.206C141.311 425.601 144.559 404.737 159.542 359.707C170.868 325.666 186.295 297.941 210.521 271.481C221.521 259.468 228.272 253.124 241.05 243.135C259.217 228.932 291.385 213.144 291.385 213.144C291.385 213.144 321.074 202.061 344.089 196.692C370.872 190.444 391.024 185.434 418.523 185.893C422.795 185.965 426.535 186.041 430.035 186.171M1039.32 803.075C1039.32 803.075 1051.36 785.088 1053.24 774.71C1053.83 771.471 1053.69 768.773 1053.5 767.188C1053.38 766.175 1052.88 765.269 1052.18 764.529C1049.49 761.694 1042.23 754.169 1036.91 749.678C1023.94 738.743 1016.33 731.425 1007.8 717.081C1001.92 707.182 999.038 701.255 996.4 690.044C993.084 675.949 992.523 666.8 996.4 652.769C997.928 647.239 1001.53 639.989 1003.42 636.387M1039.32 803.075C1039.32 803.075 1039.51 794.72 1038.01 789.728C1036.15 783.513 1028.99 777.516 1026.34 775.459C1025.68 774.949 1025.02 774.467 1024.36 773.955C1020.6 771.032 1006.97 760.172 999.868 750.928C990.807 739.14 984.506 731.304 980.173 717.081C976.004 703.399 975.27 694.904 976.928 680.698C978.256 669.319 980.401 662.646 986.813 652.769C991.421 645.671 1003.42 636.387 1003.42 636.387M1004.61 634.155L996.922 634.294M1004.61 634.155C1004.61 634.155 1004.14 635.001 1003.42 636.387M1002.99 506.701L993.221 506.62M993.221 506.62C993.221 506.62 979.704 496.619 973.021 488.341C966.357 480.085 963.246 474.714 959.441 464.809C953.746 449.983 953.024 440.333 954.128 424.49C955.241 408.51 958.098 399.365 965.142 384.979C970.818 373.385 982.937 359.683 989.235 352.963C991.853 350.169 994.818 347.738 997.643 345.155C1000.87 342.202 1004.91 337.856 1006.22 333.602C1007.95 328.026 1008.1 324.183 1006.22 318.655C1003.63 311.014 993.221 303.322 993.221 303.322C993.221 303.322 983.268 296.312 972.431 294.716C959.926 292.873 945.072 293.923 932.874 297.233C921.092 300.43 915.68 305.441 904.666 310.707C883.268 320.938 872.401 329.47 849.892 336.946C836.359 341.44 828.525 343.408 814.468 345.802C804.554 347.49 798.935 348.373 788.885 348.754C768.255 349.535 752.806 348.754 734.087 340.493L708.527 325.138C708.527 325.138 675.67 301.611 653.752 287.419C620.635 265.975 602.135 253.097 566.768 235.268C541.182 222.369 525.908 214.463 498.611 205.749C477.567 199.03 466.061 195.49 444.492 192.957C434.4 191.772 418.522 191.317 418.522 191.317C418.522 191.317 398.933 190.386 386.438 191.317C362.635 193.09 349.597 197.553 326.743 204.437C311.769 208.947 303.272 211.439 289.024 217.885C271.191 225.952 261.282 231.252 245.729 243.135C224.481 259.368 212.445 271.58 197.842 293.979C197.842 293.979 186.809 310.044 180.759 320.942C171.564 337.503 167.347 347.396 161.035 365.255C154.688 383.214 151.463 393.573 148.484 412.386C144.666 436.501 145.589 450.572 146.27 474.977C147.148 506.419 150.021 523.946 154.631 555.06C158.755 582.888 161.606 598.473 168.463 625.757C175.043 651.933 178.176 666.988 188.699 691.843C195.375 707.61 199.769 716.225 208.4 731.013C217.794 747.106 223.917 755.662 235.191 770.498C242.432 780.027 246.547 785.357 254.563 794.244C262.277 802.797 266.403 807.526 274.872 815.334C287.053 826.565 294.351 832.417 307.834 842.047C318.864 849.927 325.641 853.851 337.516 860.638C347.474 866.329 353.112 869.464 363.493 874.34C375.297 879.883 382.146 882.529 394.424 886.925C408.118 891.829 415.931 894.296 430.048 897.804C442.415 900.878 449.44 902.332 462.045 904.204C474.877 906.109 482.138 907.207 495.109 907.404C510.486 907.636 519.11 906.196 534.359 904.204C554.82 901.531 566.651 900.583 586.195 893.965C598.493 889.8 604.948 886.263 616.699 880.739C634.775 872.242 644.683 866.936 661.922 856.848C681.505 845.387 691.793 837.819 710.558 825.064C728.396 812.939 754.118 794.304 761.77 788.741C763.25 787.665 764.86 786.797 766.579 786.171C772.518 784.007 787.164 778.777 794.079 777.253C809.887 773.767 828.377 776.696 828.377 776.696C846.245 778.344 855.637 780.831 873.386 785.928C895.144 792.176 907.366 799.172 928.3 807.785C940.27 812.709 945.1 815.01 959.009 820.249C972.526 825.34 985.516 827.935 999.868 826.309C1010.56 825.097 1018.15 823.804 1025.34 815.793C1029.46 811.195 1032.38 807.935 1032.64 801.765C1032.85 796.847 1031.1 794.13 1028.89 789.728C1024.09 780.129 1016.33 778.626 1008.71 771.069C997.907 760.368 990.951 754.031 982.994 741.076C976.56 730.6 971.144 712.157 971.144 712.157C971.144 712.157 967.024 688.125 971.95 672.093C974.518 663.736 976.574 658.843 981.724 651.778C987.068 644.449 996.922 634.294 996.922 634.294M993.221 506.62L978.238 506.495M978.238 506.495C978.238 506.495 967.611 496.157 962.35 488.341C955.488 478.145 952.737 471.502 949.315 459.698C945.957 448.117 945.076 441.181 945.006 429.123C944.911 412.897 946.353 403.327 952.243 388.208C958.302 372.658 964.622 365.028 975.433 352.315C980.346 346.538 987.369 339.394 991.659 335.125C994.159 332.637 996.599 329.862 997.273 326.4C997.342 326.049 997.389 325.706 997.408 325.382C997.678 320.606 995.151 317.98 991.972 314.406C989.74 311.896 984.179 309.66 979.558 308.139C974.873 306.597 969.942 306.048 965.011 306.118C960.112 306.188 953.788 306.373 949.279 306.841C930.722 308.771 906.737 321.752 901.153 324.895C900.348 325.349 899.564 325.797 898.753 326.241C893.97 328.858 875.933 338.612 863.176 343.895C850.266 349.242 842.855 351.974 829.351 355.564C817.696 358.663 811.057 360.296 799.071 361.62C787.314 362.919 768.791 362.359 768.791 362.359C768.791 362.359 756.901 360.648 749.441 358.814C736.649 355.669 729.688 352.865 717.684 347.44C706.298 342.295 691.024 334.213 691.024 334.213C691.024 334.213 691.024 350.78 691.024 361.2C691.024 375.682 689.92 379.43 686.927 390.649C683.563 403.256 681.621 411.328 675.051 422.601C668.445 433.935 664.255 440.37 654.409 449.039C646.218 456.252 631.647 463.036 631.647 463.036L636.519 509.899M616.403 669.882L649.823 669.882C651.603 669.882 652.991 668.342 652.807 666.572L649.112 631.028M616.403 669.882L554.912 670.62C552.96 670.644 550.921 670.528 549.258 669.506V669.506V669.506C547.918 668.683 547.249 667.136 547.049 665.575L523.164 479.947C522.762 476.825 522.531 473.237 524.756 471.011V471.011C526.743 469.024 531.594 468.771 531.594 468.771L625.045 467.856C626.152 467.845 627.232 468.193 628.125 468.847V468.847C629.202 469.636 629.929 470.814 630.151 472.131L636.519 509.899M896.776 389.056L895.35 385.313M896.776 389.056C896.776 389.056 895.564 394.534 891.961 396.782M896.776 389.056L899.312 389.056C899.953 389.056 900.428 388.461 900.287 387.835L899.491 384.316C899.339 383.647 898.575 383.326 897.991 383.686L895.35 385.313M895.35 385.313C895.35 385.313 891.078 381.959 887.4 382.553M877.53 386.535C876.57 374.81 884.277 366.515 896.205 367.068C907.402 367.587 915.939 377.003 915.622 388.208C915.297 399.723 905.414 408.959 893.921 408.186C893.921 408.186 887.82 408.217 885.148 405.893C883.33 404.311 881.934 400.625 881.934 400.625M877.53 386.535C877.53 386.535 874.553 390.414 876.216 394.504C877.531 397.74 879.72 400.212 881.934 400.625M877.53 386.535C878.475 385.485 881.489 384.253 883.123 383.621M887.4 382.553C885.278 382.897 884.872 382.946 883.123 383.621M887.4 382.553C887.4 382.553 889.155 380.563 891.251 379.888V379.888C896.365 378.24 902.304 379.575 903.973 384.682C904.396 385.975 904.673 387.208 904.666 388.208C904.635 392.912 900.908 396.688 896.205 396.782L891.961 396.782M891.961 396.782C889.075 398.582 886.196 399.764 883.502 400.553C882.985 400.704 882.459 400.722 881.934 400.625M883.123 383.621C883.123 383.621 883.497 379.099 886.032 377.057C889.245 374.469 892.812 373.746 896.205 374.207C903.485 375.195 908.849 380.862 908.769 388.208C908.69 395.466 904.513 401.035 897.29 401.752C890.067 402.469 890.131 398.137 889.846 397.841M882.48 633.452L879.54 633.452L876.112 584.74M882.48 633.452L882.907 643.493C883.024 646.227 880.839 648.507 878.102 648.507V648.507L809.062 648.507C806.286 648.507 803.269 648.144 801.385 646.106V646.106C800.807 645.479 800.26 644.527 799.864 643.745C799.42 642.869 799.196 641.904 799.105 640.926L795.989 607.412M864.215 325.853C858.228 328.824 852.132 331.549 843.83 334.296C829.682 338.977 806.537 342.388 806.537 342.388C806.537 342.388 777.396 346.241 759.392 342.388C743.911 339.074 734.932 335.931 721.923 326.908C713.12 320.802 702.81 313.121 694.582 306.874C684.61 299.303 674.598 291.801 664.272 284.721C652.849 276.89 637.216 266.359 624.995 258.829C602.759 245.129 590.22 237.426 566.768 225.928C544.989 215.25 529.167 209.619 506.182 201.87C487.375 195.531 476.814 192.472 458.507 189.26C447.007 187.242 439.372 186.517 430.035 186.171M864.215 325.853C864.215 325.853 837.412 333.287 819.777 334.213C805.359 334.97 796.845 335.733 782.865 332.124C754.79 324.875 717.333 297.459 702.019 285.588C697.325 281.949 692.603 278.402 687.621 275.167C670.208 263.86 625.53 235.675 589.752 220.219C548.284 202.305 522.17 187.034 477.07 184.47C457.957 183.384 430.035 186.171 430.035 186.171M503.864 841.044C502.717 841.424 501.477 841.689 500.151 841.829C491.211 842.776 483.622 836.139 481.997 827.469C481.387 824.217 482.148 820.955 483.808 818.159M503.864 841.044C509.676 839.117 513.112 834.221 513.428 827.469C513.885 817.701 504.781 808.961 495.109 810.398C493.066 810.702 491.11 811.453 489.356 812.535M503.864 841.044C503.864 841.044 505.903 840.787 508.268 839.889M513.101 836.952C517.554 832.521 517.789 827.216 516.137 821.156C514.406 814.805 510.939 810.876 504.701 808.773C498.053 806.531 489.356 812.535 489.356 812.535M513.101 836.952C513.101 836.952 521.462 832.549 523.724 827.469C527.145 819.783 524.515 812.341 518.36 806.605C513.4 801.981 508.429 800.143 501.777 801.457C494.802 802.834 488.058 813.424 488.058 813.424M513.101 836.952C511.718 838.328 509.914 839.264 508.268 839.889M489.356 812.535C488.91 812.81 488.476 813.107 488.058 813.424M488.058 813.424C486.347 814.719 484.888 816.34 483.808 818.159M508.268 839.889C508.268 839.889 518.077 841.186 523.724 839.053C526.386 838.047 528.799 835.598 530.817 832.825C535.86 825.893 535.498 816.648 532.722 808.538V808.538C530.853 803.081 526.752 798.615 521.458 796.327L518.451 795.028C512.862 792.612 506.615 792.185 500.75 793.817L499.014 794.3C493.757 795.763 489.286 799.235 486.569 803.967V803.967C484.76 807.116 483.808 810.683 483.808 814.314L483.808 818.159M454.328 750.634C453.181 751.015 451.941 751.279 450.615 751.419C441.675 752.366 433.249 745.729 431.623 737.059C431.013 733.807 431.774 730.546 433.435 727.749M454.328 750.634C460.14 748.708 463.15 745.075 463.466 738.323C463.923 728.555 454.408 718.456 444.735 719.893C442.692 720.197 440.736 720.947 438.983 722.029M454.328 750.634C454.328 750.634 456.367 750.377 458.732 749.479M462.727 746.447C467.18 742.016 467.733 737.64 466.081 731.579C464.35 725.228 459.52 721.997 453.282 719.893C446.634 717.651 438.983 722.029 438.983 722.029M462.727 746.447C462.727 746.447 470.7 744.091 472.962 739.011C476.383 731.325 473.061 722.865 466.906 717.129C461.946 712.506 456.495 710.723 449.842 712.037C442.867 713.415 437.684 722.919 437.684 722.919M462.727 746.447C461.345 747.823 460.378 748.854 458.732 749.479M438.983 722.029C438.536 722.305 438.103 722.602 437.684 722.919M437.684 722.919C435.974 724.213 434.514 725.931 433.435 727.749M458.732 749.479C458.732 749.479 466.352 752.768 471.999 750.634C475.822 749.19 481.445 746.219 483.808 742.134C486.666 737.193 485.657 727.794 483.808 722.394L482.461 718.46C480.51 712.76 476.244 708.147 470.713 705.757L469.897 705.404C463.131 702.48 455.567 701.963 448.466 703.939L448.123 704.034C443.197 705.405 439.009 708.658 436.462 713.092C434.479 716.545 433.435 720.459 433.435 724.442L433.435 727.749M329.285 749.479C319.535 750.822 310.532 744.197 310.02 734.369C309.648 727.222 313.048 721.307 319.302 718.589M329.285 749.479C329.734 749.418 330.176 749.343 330.612 749.256M329.285 749.479L330.612 749.256M330.612 749.256C338.265 747.723 343.964 742.286 344.565 734.369C345.342 724.127 334.897 715.89 324.701 717.129C322.796 717.361 320.979 717.86 319.302 718.589M330.612 749.256C330.612 749.256 331.857 749.546 333.567 749.736M319.302 718.589C319.302 718.589 323.258 713.581 326.841 712.037C333.293 709.257 338.757 711.163 344.565 715.116C350.697 719.29 353.538 725.181 353.447 732.598C353.34 741.27 348.191 747.132 339.841 749.479C337.878 750.031 335.443 749.944 333.567 749.736M319.302 718.589C321.143 711.8 321.203 707.064 326.841 703.896C333.666 700.059 344.718 701.808 351.583 705.573C360.274 710.34 364.269 718.13 366.121 727.752C368.029 737.67 365.32 742.74 358.293 748.067C354.506 750.938 351.958 750.997 347.669 751.795C341.808 752.885 333.567 749.736 333.567 749.736M382.001 841.409C372.251 842.752 363.248 836.127 362.736 826.299C362.364 819.152 365.763 813.237 372.018 810.519M382.001 841.409C382.449 841.348 382.892 841.273 383.328 841.186M382.001 841.409L383.328 841.186M383.328 841.186C384.922 840.866 386.432 840.377 387.828 839.732M390.32 839.732C398.669 837.384 403.818 831.523 403.925 822.85C404.016 815.433 401.175 809.543 395.043 805.369C389.235 801.416 383.771 799.51 377.319 802.29C373.737 803.833 372.018 810.519 372.018 810.519M390.32 839.732C390.32 839.732 396.844 839.732 403.103 839.732C409.362 839.732 419.421 829.313 417.512 819.395C415.661 809.772 412.989 802.27 404.299 797.503C397.434 793.738 386.382 791.989 379.556 795.826C373.919 798.994 373.859 803.73 372.018 810.519M390.32 839.732L387.828 839.732M372.018 810.519C373.695 809.79 375.512 809.291 377.417 809.059C387.614 807.82 398.058 816.057 397.281 826.299C396.805 832.566 393.134 837.279 387.828 839.732M636.519 509.899L637.596 520.257M463.186 482.898C463.186 482.898 463.515 480.305 464.789 478.33C467.362 474.342 471.667 472.564 476.255 472.465M463.186 482.898C463.186 482.898 465.716 482.368 468.939 481.692M463.186 482.898V482.898C457.782 486.017 454.948 492.218 456.125 498.346L458.827 512.418L483.745 645.028C484.426 648.651 485.47 652.197 486.86 655.612L490.211 663.842M476.255 472.465C481.705 472.347 487.556 474.599 491.377 478.33C496.973 483.794 494.344 497.923 494.344 497.923L500.809 492.614C501.186 492.304 501.437 491.871 501.496 491.386C501.774 489.115 502.384 482.209 500.15 478.33C497.923 474.464 495.625 472.377 491.377 471.011C487.909 469.896 485.651 470.467 482.048 471.011C479.742 471.36 476.255 472.465 476.255 472.465ZM518.918 632.018C518.918 632.018 529.366 639.473 529.814 645.992C530.378 654.197 527.891 660.095 520.569 663.842C514.06 667.173 506.015 668.15 498.905 666.445C496.069 665.765 490.211 663.842 490.211 663.842M518.918 632.018C518.918 632.018 510.792 586.215 502.778 542.472M518.918 632.018L649.112 631.028M518.918 632.018L437.684 631.062M468.939 481.692C471.262 481.205 473.963 480.445 476.255 480.678C481.697 481.232 484.555 481.547 488.969 486.554C494.656 493.003 495.118 501.198 496.767 509.994C498.67 520.144 500.721 531.24 502.778 542.472M468.939 481.692C472.473 482.52 474.484 482.972 477.496 484.998V484.998C483.92 489.319 486.197 497.493 487.605 505.106L490.406 520.257M490.211 663.842C490.211 663.842 502.13 666.296 507.854 663.842C508.985 663.357 510.216 662.562 511.338 661.733C513.861 659.869 514.918 656.696 514.533 653.584L513.473 645.009L490.406 520.257M474.928 511.482L482.796 511.482C483.311 511.482 483.742 511.873 483.791 512.387L484.665 521.535C484.721 522.123 484.259 522.631 483.669 522.631L476.305 522.631M474.928 511.482L476.305 522.631M474.928 511.482L474.35 508.336C474.253 507.804 473.749 507.446 473.214 507.528L471.119 507.852M476.305 522.631L477.261 527.481C477.383 528.099 476.91 528.675 476.28 528.675L474.602 528.675M468.796 512.418L468.243 509.332C468.144 508.779 468.52 508.253 469.075 508.167L471.119 507.852M468.796 512.418L461.881 512.418C461.289 512.418 460.826 512.931 460.887 513.521L461.948 523.804C462.001 524.313 462.43 524.701 462.943 524.701L470.996 524.701M468.796 512.418L470.996 524.701M470.996 524.701L471.56 527.851C471.646 528.328 472.061 528.675 472.545 528.675L474.602 528.675M478.713 535.357L486.604 535.357C487.088 535.357 487.503 535.704 487.588 536.181L489.195 545.19C489.304 545.803 488.833 546.365 488.211 546.365L480.757 546.365M478.713 535.357L480.757 546.365M478.713 535.357L478.333 532.804C478.26 532.314 477.839 531.951 477.344 531.951L474.957 531.951M480.757 546.365L481.219 550.823C481.28 551.413 480.817 551.926 480.224 551.926L478.13 551.926M471.119 507.852L474.602 528.675M474.957 531.951L472.882 531.951C472.266 531.951 471.797 532.502 471.895 533.11L472.257 535.357M474.957 531.951L478.13 551.926M478.13 551.926L475.78 551.926C475.289 551.926 474.871 551.57 474.793 551.085L474.175 547.253M472.257 535.357L466.559 535.357C465.94 535.357 465.47 535.914 465.573 536.524L467.269 546.543C467.352 547.032 467.78 547.386 468.276 547.376L474.175 547.253M472.257 535.357L474.175 547.253M482.048 557.953L492.426 557.953C492.947 557.953 493.381 558.354 493.423 558.873L494.188 568.359C494.235 568.941 493.775 569.439 493.191 569.439L483.715 569.439M482.048 557.953L483.715 569.439M482.048 557.953L481.568 556.085C481.436 555.572 480.927 555.251 480.407 555.353L478.495 555.729M483.715 569.439L484.131 572.488C484.208 573.049 483.803 573.561 483.24 573.618L481.492 573.792M478.495 555.729L476.615 556.098C476.082 556.203 475.73 556.713 475.822 557.249L476.142 559.107M478.495 555.729L481.492 573.792M481.492 573.792L479.64 573.978C479.117 574.03 478.644 573.669 478.555 573.152L477.988 569.855M476.142 559.107L472.634 559.541C472.112 559.606 471.73 560.063 471.758 560.587L472.206 568.909C472.235 569.44 472.673 569.855 473.205 569.855L477.988 569.855M476.142 559.107L477.988 569.855M486.164 580.835L496.346 580.835C496.878 580.835 497.316 581.251 497.345 581.781L497.859 591.296C497.89 591.869 497.434 592.35 496.86 592.35L488.274 592.35M486.164 580.835L488.274 592.35M486.164 580.835L485.639 578.89C485.512 578.422 485.067 578.111 484.584 578.155L482.411 578.35M488.274 592.35L488.844 596.725C488.913 597.255 488.553 597.746 488.026 597.839L486.342 598.136M482.411 578.35L480.53 578.519C479.931 578.572 479.515 579.138 479.642 579.726L479.881 580.835M482.411 578.35L486.342 598.136M486.342 598.136L484.663 598.431C484.134 598.525 483.626 598.183 483.512 597.658L482.75 594.124M479.881 580.835L475.334 580.835C474.723 580.835 474.255 581.378 474.344 581.982L476.015 593.271C476.088 593.761 476.509 594.124 477.004 594.124L482.75 594.124M479.881 580.835L482.75 594.124M490.97 602.969L500.145 602.969C500.62 602.969 501.03 603.303 501.125 603.769L503.12 613.531C503.246 614.151 502.773 614.732 502.14 614.732L492.614 614.732M490.97 602.969L492.614 614.732M490.97 602.969L490.494 601.54C490.333 601.058 489.835 600.773 489.337 600.879L487.241 601.325M492.614 614.732L493.958 619.643C494.123 620.246 493.7 620.851 493.077 620.903L491.274 621.055M487.241 601.325L485.243 601.75C484.706 601.865 484.361 602.392 484.472 602.931L484.48 602.969M487.241 601.325L491.274 621.055M491.274 621.055L489.157 621.234C488.653 621.276 488.197 620.936 488.094 620.44L484.48 602.969M484.48 602.969L480.716 603.901C480.236 604.02 479.915 604.471 479.96 604.963L480.425 610.029M487.241 615.996L482.329 615.996C481.845 615.996 481.43 615.649 481.345 615.172L480.425 610.029M495.652 625.76L505.989 625.76C506.511 625.76 506.945 626.161 506.986 626.68L507.767 636.435C507.814 637.016 507.354 637.514 506.771 637.514L497.294 637.514M495.652 625.76L497.294 637.514M495.652 625.76L495.069 623.72C494.947 623.291 494.554 622.995 494.108 622.995L490.69 622.995C490.078 622.995 489.61 623.539 489.701 624.143L489.944 625.76M497.294 637.514L497.802 641.868C497.865 642.412 497.48 642.905 496.938 642.976L493.587 643.413C493.047 643.483 492.549 643.108 492.468 642.57L491.887 638.7M489.944 625.76L483.901 626.175C483.293 626.217 482.864 626.787 482.992 627.383L485.25 637.909C485.349 638.37 485.757 638.7 486.228 638.7L491.887 638.7M489.944 625.76L491.887 638.7M394.897 498.3C387.302 498.651 381.322 492.574 380.679 484.998C380.194 479.285 383.22 473.754 387.871 471.011M394.897 498.3L387.871 471.011M394.897 498.3C395.702 498.263 396.48 498.159 397.229 497.994M406.433 490.443C407.205 488.787 407.696 486.947 407.861 484.998C408.231 480.617 406.671 476.385 403.861 473.408M406.433 490.443L412.956 488.587L417.463 487.267M406.433 490.443C406.076 491.207 405.659 491.933 405.187 492.611M419.897 486.554L423.391 485.727C425.196 485.299 426.47 483.688 426.47 481.834L426.47 478.515C426.47 476.544 425.034 474.867 423.086 474.563L418.425 473.836M419.897 486.554L417.463 487.267M419.897 486.554C419.897 486.554 421.037 499.926 422.589 516.916M418.425 473.836L414.858 473.836L403.861 473.408M418.425 473.836C418.425 473.836 417.755 471.119 416.516 469.989C415.227 468.813 412.325 468.444 412.325 468.444M403.861 473.408C401.577 470.989 398.467 469.399 394.897 469.236C393.187 469.158 391.547 469.432 390.027 469.989M412.325 473.738C412.325 473.738 412.53 469.688 412.325 468.444M412.325 468.444C412.016 466.569 410.054 465.598 407.861 464.175V464.175C403.742 461.502 398.63 461.218 393.778 461.967L389.423 462.639C387.779 462.893 386.279 463.724 385.192 464.984L380.878 469.983C378.999 472.16 378.148 475.041 378.543 477.889L382.163 504.003M382.163 504.003L384.142 507.38M382.163 504.003L416.516 504.003M384.142 507.38C384.142 507.38 387.694 554.448 392.341 584.296C395.966 607.585 403.861 643.539 403.861 643.539M384.142 507.38L416.516 507.38M403.861 643.539L402.377 645.728M403.861 643.539L435.31 643.539M402.377 645.728L404.797 669.697C405.114 672.844 406.562 675.769 408.872 677.929V677.929C410.987 679.908 413.702 681.103 416.574 681.478C419.259 681.829 421.351 682.178 425.099 682.53C430.238 683.012 438.03 680.717 442.03 675.725M402.377 645.728L436.243 645.728M416.516 492.611L405.187 492.611M416.516 492.611L416.516 504.003M416.516 492.611L417.463 487.267M405.187 492.611C403.313 495.306 400.565 497.258 397.229 497.994M416.516 504.003L416.516 507.38M416.516 507.38C416.516 507.38 420.491 554.399 424.854 584.296C428.106 606.587 435.31 643.539 435.31 643.539M435.31 643.539L436.243 645.728M436.243 645.728L440.587 646.778M436.243 645.728C436.845 646.304 439.445 645.88 440.587 646.778M436.243 645.728L436.243 649.609C436.243 651.17 435.045 652.47 433.489 652.599L420.23 653.692M428.43 673.855C430.264 671.102 430.991 668.534 430.358 664.864C429.42 659.428 425.232 654.751 420.23 653.692M428.43 673.855L408.887 657.64M428.43 673.855C427.978 674.533 427.45 675.16 426.846 675.725M428.43 673.855L434.415 671.134C435.521 670.631 436.821 670.845 437.708 671.676L442.03 675.725M408.887 657.64C410.242 655.438 412.448 654.736 415.147 653.912C416.872 653.386 418.594 653.345 420.23 653.692M408.887 657.64C408.49 658.285 408.154 658.972 407.88 659.689M426.846 675.725C425.862 676.645 424.675 677.401 423.284 677.943C416.629 680.535 409.484 675.5 407.548 668.626C406.694 665.594 406.835 662.42 407.88 659.689M426.846 675.725L407.88 659.689M440.587 646.778C443.416 649.006 445.693 654.175 446.477 656.086C447.262 657.998 446.507 668.793 442.85 674.578C442.599 674.975 442.325 675.358 442.03 675.725M440.587 646.778C440.587 646.778 439.388 640.498 437.684 631.062M427.199 564.009L487.241 565.179L594.385 565.179L849.892 565.18L1064.87 561.696L1324.38 561.696M427.199 564.009C426.443 557.056 425.64 549.11 424.854 541.017M427.199 564.009C427.937 570.799 429.051 578.88 430.327 587.291M387.871 471.011C388.557 470.607 389.277 470.264 390.027 469.989M397.229 497.994L390.027 469.989M2321.63 508.424C2316.41 504.466 2310.7 505.29 2306.13 509.33C2302.3 512.715 2301.15 516.462 2301.55 521.198C2302.1 527.669 2306.45 532.25 2312.92 531.688C2317.07 531.328 2321.63 527.177 2321.63 527.177M2321.63 508.424L2323.84 514.339M2321.63 527.177C2320.09 525.713 2319.21 523.521 2319.29 521.198C2319.4 518.077 2321.12 515.348 2323.84 514.339M2321.63 527.177C2321.63 527.177 2316.44 524.93 2316.41 521.198C2316.37 516.88 2323.84 514.339 2323.84 514.339M2321.63 527.177L2316.98 527.177M2323.84 514.339L2318.08 514.339M2318.08 514.339L2316.59 514.339C2313.87 514.339 2311.12 515.384 2309.81 517.771C2309.2 518.872 2308.74 520.092 2308.81 521.198C2308.86 522.114 2309.28 523.096 2309.81 523.993C2311.15 526.233 2313.78 527.177 2316.39 527.177L2316.98 527.177M2318.08 514.339C2318.08 514.339 2313.31 518.014 2313.37 521.198C2313.42 523.865 2316.98 527.177 2316.98 527.177M2316.98 527.177L2220.39 536.817L2078.51 551.295M2318.53 579.253C2322.57 578.945 2325.82 582.455 2325.96 586.506C2326.1 590.701 2322.72 594.594 2318.53 594.276C2316.94 594.155 2315.56 593.493 2314.5 592.485M2318.53 579.253C2318.53 579.253 2318.47 575.099 2316.23 573.394C2311.01 569.436 2303.89 568.705 2299.32 572.745C2295.49 576.131 2294.66 581.77 2295.06 586.506C2295.61 592.977 2301.84 594.838 2308.31 594.276C2312.47 593.916 2314.5 592.485 2314.5 592.485M2318.53 579.253C2317.89 579.303 2317.28 579.438 2316.71 579.647M2318.53 579.253L2316.96 578.396C2315.34 577.516 2313.53 577.055 2311.69 577.055L2167.67 577.055L1999.3 576.362M2314.5 592.485C2312.96 591.021 2312.08 588.828 2312.16 586.506C2312.26 583.385 2313.99 580.656 2316.71 579.647M2314.5 592.485C2314.5 592.485 2309.31 590.238 2309.28 586.506C2309.24 582.188 2316.71 579.647 2316.71 579.647M2314.5 592.485L2309.84 592.485M2316.71 579.647L2310.95 579.647M2310.95 579.647C2310.95 579.647 2306.18 583.322 2306.24 586.506C2306.29 589.173 2309.84 592.485 2309.84 592.485M2310.95 579.647C2307.27 579.647 2303.33 580.983 2302.05 584.432C2301.79 585.131 2301.63 585.839 2301.67 586.506C2301.72 587.25 2302 588.038 2302.39 588.788C2303.77 591.432 2306.86 592.485 2309.84 592.485M2248.85 511.906C2252.89 511.598 2256.13 515.107 2256.27 519.158C2256.42 523.353 2253.03 527.246 2248.85 526.929C2247.25 526.808 2245.87 526.145 2244.81 525.137M2248.85 511.906C2248.85 511.906 2247.06 508.09 2244.81 506.385C2239.59 502.427 2233.88 503.25 2229.31 507.29C2225.48 510.675 2224.33 514.422 2224.74 519.158C2225.28 525.63 2229.63 530.21 2236.1 529.649C2240.25 529.288 2244.81 525.137 2244.81 525.137M2248.85 511.906C2248.2 511.955 2247.59 512.09 2247.03 512.3M2248.85 511.906L2259.51 511.906M2244.81 525.137C2243.27 523.673 2242.39 521.481 2242.47 519.158C2242.58 516.037 2244.3 513.308 2247.03 512.3M2244.81 525.137C2244.81 525.137 2239.62 522.89 2239.59 519.158C2239.56 514.841 2247.03 512.3 2247.03 512.3M2244.81 525.137L2240.16 525.137M2247.03 512.3L2241.27 512.3M2241.27 512.3C2241.27 512.3 2236.49 515.974 2236.55 519.158C2236.6 521.825 2240.16 525.137 2240.16 525.137M2241.27 512.3C2237.59 512.3 2233.64 513.635 2232.36 517.085C2232.1 517.783 2231.95 518.492 2231.99 519.158C2232.03 519.903 2232.32 520.69 2232.71 521.441C2234.09 524.085 2237.18 525.137 2240.16 525.137M2240.16 525.137L2156.66 531.285L2002.7 542.472M2173.13 511.37C2177.17 511.062 2180.42 514.571 2180.56 518.622C2180.7 522.817 2177.32 526.71 2173.13 526.393C2171.54 526.272 2170.16 525.61 2169.1 524.601M2173.13 511.37C2173.13 511.37 2171.35 507.554 2169.1 505.849C2163.88 501.891 2158.17 502.714 2153.6 506.754C2149.77 510.14 2148.62 513.886 2149.02 518.622C2149.57 525.094 2153.91 529.674 2160.38 529.113C2164.54 528.752 2169.1 524.601 2169.1 524.601M2173.13 511.37C2172.49 511.419 2171.88 511.554 2171.31 511.764M2169.1 524.601C2167.56 523.137 2166.68 520.945 2166.76 518.622C2166.86 515.501 2168.59 512.772 2171.31 511.764M2169.1 524.601C2169.1 524.601 2163.91 522.354 2163.88 518.622C2163.84 514.305 2171.31 511.764 2171.31 511.764M2169.1 524.601L2164.44 524.601M2171.31 511.764L2165.55 511.764M2165.55 511.764C2165.55 511.764 2160.78 515.439 2160.84 518.622C2160.89 521.289 2164.44 524.601 2164.44 524.601M2165.55 511.764C2161.87 511.764 2157.93 513.099 2156.65 516.549C2156.39 517.248 2156.23 517.956 2156.27 518.622C2156.32 519.367 2156.6 520.154 2156.99 520.905C2158.37 523.549 2161.46 524.601 2164.44 524.601M2164.44 524.601L2084.4 524.601L2004.5 524.601M2242.23 588.079C2246.27 587.771 2249.51 591.281 2249.65 595.332C2249.8 599.526 2246.41 603.42 2242.23 603.102C2240.63 602.981 2239.25 602.319 2238.19 601.31M2242.23 588.079C2242.23 588.079 2242.17 583.925 2239.92 582.22C2234.7 578.262 2227.59 577.531 2223.02 581.571C2219.18 584.957 2218.35 590.596 2218.76 595.332C2219.31 601.803 2225.54 603.664 2232.01 603.102C2236.16 602.742 2238.19 601.31 2238.19 601.31M2242.23 588.079C2241.58 588.128 2240.97 588.264 2240.41 588.473M2242.23 588.079L2212.42 585.842L1996.76 591.742L1901.33 592.845M2238.19 601.31C2236.65 599.847 2235.77 597.654 2235.85 595.332C2235.96 592.211 2237.68 589.482 2240.41 588.473M2238.19 601.31C2238.19 601.31 2233 599.063 2232.97 595.332C2232.94 591.014 2240.41 588.473 2240.41 588.473M2238.19 601.31L2233.54 601.31M2240.41 588.473L2234.65 588.473M2234.65 588.473C2234.65 588.473 2229.87 592.148 2229.93 595.332C2229.98 597.999 2233.54 601.31 2233.54 601.31M2234.65 588.473C2230.97 588.473 2227.02 589.809 2225.74 593.258C2225.48 593.957 2225.33 594.665 2225.37 595.332C2225.41 596.076 2225.7 596.863 2226.09 597.614C2227.47 600.258 2230.56 601.31 2233.54 601.31M2163.04 595.572C2167.08 595.264 2170.32 598.774 2170.46 602.825C2170.61 607.02 2167.22 610.913 2163.04 610.595C2161.44 610.474 2160.06 609.812 2159 608.803M2163.04 595.572C2163.04 595.572 2162.98 591.418 2160.73 589.713C2155.51 585.755 2148.91 586.898 2144.33 590.938C2140.5 594.324 2140.07 598.089 2140.47 602.825C2141.02 609.296 2146.35 611.157 2152.82 610.595C2156.97 610.235 2159 608.803 2159 608.803M2163.04 595.572C2162.39 595.621 2161.78 595.757 2161.22 595.966M2163.04 595.572L2149.12 594.645L1996.14 607.787M2159 608.803C2157.46 607.34 2156.58 605.147 2156.66 602.825C2156.77 599.704 2158.49 596.975 2161.22 595.966M2159 608.803C2159 608.803 2153.81 606.557 2153.78 602.825C2153.75 598.507 2161.22 595.966 2161.22 595.966M2159 608.803L2154.35 608.803M2161.22 595.966L2155.46 595.966M2155.46 595.966C2155.46 595.966 2150.68 599.641 2150.74 602.825C2150.79 605.492 2154.35 608.803 2154.35 608.803M2155.46 595.966C2151.78 595.966 2147.83 597.302 2146.55 600.751C2146.29 601.45 2146.14 602.158 2146.18 602.825C2146.22 603.569 2146.51 604.357 2146.9 605.107C2148.28 607.751 2151.37 608.803 2154.35 608.803M2078.51 551.295L2001.01 559.263M2001.01 559.263L1993.2 559.263M2001.01 559.263L2002.7 542.472M2001.01 559.263L1999.3 576.362M1993.2 559.263L1792.66 559.263L1676.54 559.263M1676.54 559.263L1324.38 561.696M2002.7 542.472L1812.14 542.472L1506.69 542.472L1225.91 542.472M1225.91 542.472L951.492 542.472M951.492 542.472L744.904 542.472L502.778 542.472M502.778 542.472L424.854 541.017M424.854 541.017C424.06 532.842 423.283 524.517 422.589 516.916M2004.5 524.601L1888.46 524.601L1692.97 524.601L1515.77 524.601L1270.34 523.111M1270.34 523.111L1044 521.565L867.984 521.565M867.984 521.565L866.4 501.688C866.333 500.84 866.009 500.033 865.472 499.374V499.374C864.677 498.398 863.484 497.831 862.225 497.831L794.718 497.831C793.577 497.831 792.465 498.188 791.536 498.851V498.851C789.958 499.978 789.094 501.856 789.265 503.787L801.249 639.561C801.337 640.554 801.792 641.478 802.525 642.153L803.691 643.226C804.429 643.905 805.396 644.283 806.4 644.283L872.86 644.283C873.866 644.283 874.836 643.903 875.575 643.22L876.102 642.733C877.003 641.901 877.472 640.701 877.374 639.478L876.347 626.572M867.984 521.565L637.596 520.257M867.984 521.565L876.347 626.572M637.596 520.257L490.406 520.257M637.596 520.257L644.565 587.291M490.406 520.257L422.589 516.916M1999.3 576.362L1819.83 578.538M1819.83 578.538L1670.79 578.538M1670.79 578.538L1422.78 580.875M1422.78 580.875L1146.56 582.697M1146.56 582.697L1010.85 584.74M1010.85 584.74L876.112 584.74M876.112 584.74L794.012 586.152M794.012 586.152L644.565 587.291M794.012 586.152L795.989 607.412M644.565 587.291L430.327 587.291M644.565 587.291L649.112 631.028M430.327 587.291C431.402 594.374 432.591 601.69 433.768 608.666M1901.33 592.845L1727.62 596.016L1571.08 597.623L1417.22 599.408L1230.33 601.907L1141.08 603.335L922.417 605.477L795.989 607.412M795.989 607.412L628.889 610.029M628.889 610.029L617.312 504.281C617.06 501.98 615.824 499.901 613.923 498.581L612.891 497.864C611.505 496.902 609.851 496.402 608.164 496.437L538.639 497.865C536.835 497.903 535.095 498.544 533.698 499.687V499.687C531.531 501.46 530.438 504.23 530.812 507.006L549.066 642.545C549.193 643.484 549.521 644.385 550.028 645.186V645.186C551.234 647.091 553.332 648.246 555.587 648.246L627.722 648.246C628.596 648.246 629.455 648.01 630.207 647.563V647.563C631.882 646.568 632.802 644.668 632.543 642.737L632.136 639.695L628.889 610.029ZM628.889 610.029L480.425 610.029M480.425 610.029L433.768 608.666M433.768 608.666C435.161 616.926 436.537 624.709 437.684 631.062M1996.14 607.787L1543.36 615.544M1543.36 615.544L1374.11 617.344M1374.11 617.344L1081.09 624.103M1081.09 624.103L876.347 626.572M876.347 626.572L649.112 631.028M643.134 661.584L623.118 479.189C622.95 477.657 622.297 476.218 621.256 475.082V475.082C619.883 473.586 617.946 472.734 615.915 472.734L530.788 472.734C528.06 472.734 525.683 474.593 525.026 477.241V477.241C524.848 477.961 524.805 478.707 524.902 479.442L548.749 661.219C549.069 663.66 550.529 665.805 552.683 666.999V666.999C553.854 667.648 555.173 667.983 556.511 667.972L637.933 667.289C640.997 667.263 643.391 664.637 643.134 661.584V661.584ZM523.978 647.086C523.978 647.086 526.245 654.178 523.978 658.526C521.741 662.818 511.03 663.842 511.03 663.842C511.03 663.842 518.602 659.694 520.569 656.076C522.737 652.089 523.978 647.086 523.978 647.086Z" stroke="#838C94"/>
<circle cx="964.041" cy="329.131" r="7.13072" transform="rotate(90 964.041 329.131)" stroke="#838C94"/>
<circle cx="932.682" cy="480.724" r="7.13072" transform="rotate(90 932.682 480.724)" stroke="#838C94"/>
<circle cx="847.702" cy="515.466" r="6.02098" transform="rotate(90 847.702 515.466)" stroke="#838C94"/>
<circle cx="849.377" cy="539.005" r="6.02098" transform="rotate(90 849.377 539.005)" stroke="#838C94"/>
<circle cx="851.268" cy="560.458" r="6.02098" transform="rotate(90 851.268 560.458)" stroke="#838C94"/>
<circle cx="853.729" cy="583.998" r="6.02098" transform="rotate(90 853.729 583.998)" stroke="#838C94"/>
<circle cx="855.405" cy="605.443" r="6.02098" transform="rotate(90 855.405 605.443)" stroke="#838C94"/>
<circle cx="857.295" cy="626.904" r="6.02098" transform="rotate(90 857.295 626.904)" stroke="#838C94"/>
<circle cx="942.662" cy="656.545" r="7.13072" transform="rotate(90 942.662 656.545)" stroke="#838C94"/>
<circle cx="942.662" cy="573.615" r="7.13072" transform="rotate(90 942.662 573.615)" stroke="#838C94"/>
<circle cx="997.233" cy="573.615" r="7.13072" transform="rotate(90 997.233 573.615)" stroke="#838C94"/>
<circle cx="1059.56" cy="573.615" r="7.13072" transform="rotate(90 1059.56 573.615)" stroke="#838C94"/>
<circle cx="1129.87" cy="573.615" r="7.13072" transform="rotate(90 1129.87 573.615)" stroke="#838C94"/>
<circle cx="1252.7" cy="600.74" r="7.13072" transform="rotate(90 1252.7 600.74)" stroke="#838C94"/>
<circle cx="1397.59" cy="569.912" r="7.13072" transform="rotate(90 1397.59 569.912)" stroke="#838C94"/>
<circle cx="1512.33" cy="569.912" r="7.13072" transform="rotate(90 1512.33 569.912)" stroke="#838C94"/>
<circle cx="1639.65" cy="569.912" r="7.13072" transform="rotate(90 1639.65 569.912)" stroke="#838C94"/>
<circle cx="1783.85" cy="567.342" r="7.13072" transform="rotate(90 1783.85 567.342)" stroke="#838C94"/>
<circle cx="1252.7" cy="540.537" r="7.13072" transform="rotate(90 1252.7 540.537)" stroke="#838C94"/>
<circle cx="993.979" cy="798.154" r="7.13072" transform="rotate(90 993.979 798.154)" stroke="#838C94"/>
<circle cx="800.1" cy="747.779" r="7.13072" transform="rotate(90 800.1 747.779)" stroke="#838C94"/>
<circle cx="587.744" cy="783.896" r="7.13072" transform="rotate(90 587.744 783.896)" stroke="#838C94"/>
<circle cx="635.818" cy="695.67" r="7.13072" transform="rotate(90 635.818 695.67)" stroke="#838C94"/>
<ellipse cx="615.837" cy="480.323" rx="5.15915" ry="4.8035" transform="rotate(90 615.837 480.323)" stroke="#838C94"/>
<ellipse cx="531.556" cy="480.323" rx="5.15915" ry="4.8035" transform="rotate(90 531.556 480.323)" stroke="#838C94"/>
<ellipse cx="574.193" cy="486.345" rx="3.61849" ry="3.53396" transform="rotate(90 574.193 486.345)" stroke="#838C94"/>
<ellipse cx="594.876" cy="656.697" rx="3.61849" ry="3.53396" transform="rotate(90 594.876 656.697)" stroke="#838C94"/>
<ellipse cx="635.821" cy="660.308" rx="5.15915" ry="4.8035" transform="rotate(90 635.821 660.308)" stroke="#838C94"/>
<ellipse cx="554.95" cy="662.354" rx="5.15915" ry="4.8035" transform="rotate(90 554.95 662.354)" stroke="#838C94"/>
<circle cx="655.291" cy="477.154" r="7.13072" transform="rotate(90 655.291 477.154)" stroke="#838C94"/>
<circle cx="709.373" cy="371.06" r="7.13072" transform="rotate(90 709.373 371.06)" stroke="#838C94"/>
<circle cx="841.679" cy="656.543" r="3.56684" transform="rotate(90 841.679 656.543)" stroke="#838C94"/>
<circle cx="827.421" cy="484.286" r="3.56684" transform="rotate(90 827.421 484.286)" stroke="#838C94"/>
<path d="M471.545 486.685C470.865 486.468 470.141 486.352 469.389 486.352C465.47 486.352 462.294 489.528 462.294 493.447C462.294 495.714 463.358 497.734 465.013 499.033M471.545 486.685C474.41 487.598 476.484 490.28 476.484 493.447C476.484 497.366 473.308 500.542 469.389 500.542C467.738 500.542 466.219 499.978 465.013 499.033M471.545 486.685C471.545 486.685 470.915 491.533 469.389 494.161C468.105 496.372 465.013 499.033 465.013 499.033" stroke="#838C94"/>
<path d="M505.992 649.526C504.82 648.67 503.374 648.164 501.811 648.164C497.892 648.164 494.716 651.341 494.716 655.259C494.716 657.633 495.881 659.734 497.671 661.022M505.992 649.526C507.759 650.817 508.906 652.904 508.906 655.259C508.906 659.178 505.73 662.355 501.811 662.355C500.266 662.355 498.836 661.861 497.671 661.022M505.992 649.526C505.992 649.526 502.055 652.632 500.318 655.259C498.952 657.325 497.671 661.022 497.671 661.022" stroke="#838C94"/>
<path d="M359.099 349.613C359.099 249.165 359.098 192.848 359.097 92.3995M819.755 911.376C820.663 810.921 821.173 754.6 822.082 654.145M506.341 353.609C506.341 251.386 506.341 194.074 506.341 91.8515M1397.49 524.335L1397.49 344.574M509.797 989.365C509.455 908.681 509.263 863.445 508.922 782.761M645.914 935.607C645.914 880.715 645.914 849.939 645.914 795.047M1263.25 904.245L1263.25 611.023M90.3818 403.793C172.246 403.793 218.144 403.793 300.009 403.793M142.517 597.311C254.592 596.811 317.427 596.531 429.502 596.031M1778.13 543.219L1778.14 239.396M2114.42 841.977L2114.42 582.885M1972.28 528.396L1972.28 256.294M2216.37 446.472L2216.37 170.026" stroke="#838C94" stroke-dasharray="10 10"/>
<path d="M1268.82 996.962C1266.68 999.1 1263.21 999.1 1261.08 996.962L1230.35 966.232C1228.21 964.094 1228.21 960.628 1230.35 958.49L1261.08 927.76C1263.21 925.622 1266.68 925.622 1268.82 927.76L1299.55 958.49C1301.69 960.628 1301.69 964.094 1299.55 966.232L1268.82 996.962Z" fill="#20262B" stroke="#838C94"/>
<path d="M2119.17 927.196C2117.03 929.334 2113.57 929.334 2111.43 927.196L2080.7 896.466C2078.56 894.328 2078.56 890.862 2080.7 888.724L2111.43 857.994C2113.57 855.856 2117.03 855.856 2119.17 857.994L2149.9 888.724C2152.04 890.862 2152.04 894.328 2149.9 896.466L2119.17 927.196Z" fill="#20262B" stroke="#838C94"/>
<path d="M2221.11 155.571C2218.97 157.709 2215.5 157.709 2213.37 155.571L2182.64 124.841C2180.5 122.703 2180.5 119.237 2182.64 117.099L2213.37 86.3691C2215.5 84.2311 2218.97 84.2311 2221.11 86.3691L2251.84 117.099C2253.98 119.237 2253.98 122.703 2251.84 124.841L2221.11 155.571Z" fill="#20262B" stroke="#838C94"/>
<path d="M1976.26 244.97C1974.12 247.108 1970.65 247.108 1968.51 244.97L1937.78 214.24C1935.65 212.102 1935.65 208.636 1937.78 206.498L1968.51 175.768C1970.65 173.63 1974.12 173.63 1976.26 175.768L2006.99 206.498C2009.12 208.636 2009.12 212.102 2006.99 214.24L1976.26 244.97Z" fill="#20262B" stroke="#838C94"/>
<path d="M1782.89 225.556C1780.75 227.694 1777.28 227.694 1775.14 225.556L1744.41 194.826C1742.28 192.688 1742.28 189.221 1744.41 187.083L1775.14 156.353C1777.28 154.216 1780.75 154.216 1782.89 156.353L1813.62 187.083C1815.75 189.221 1815.75 192.688 1813.62 194.826L1782.89 225.556Z" fill="#20262B" stroke="#838C94"/>
<path d="M1402.24 329.884C1400.1 332.022 1396.63 332.022 1394.49 329.884L1363.76 299.154C1361.63 297.016 1361.63 293.55 1363.76 291.412L1394.49 260.682C1396.63 258.544 1400.1 258.544 1402.24 260.682L1432.97 291.412C1435.1 293.55 1435.1 297.016 1432.97 299.154L1402.24 329.884Z" fill="#20262B" stroke="#838C94"/>
<path d="M511.085 72.2823C508.947 74.4203 505.48 74.4203 503.342 72.2823L472.612 41.5523C470.474 39.4143 470.474 35.948 472.612 33.81L503.342 3.08004C505.48 0.942065 508.947 0.942067 511.085 3.08005L541.814 33.81C543.952 35.948 543.952 39.4144 541.814 41.5523L511.085 72.2823Z" fill="#20262B" stroke="#838C94"/>
<path d="M363.842 72.2823C361.704 74.4203 358.238 74.4203 356.1 72.2823L325.37 41.5523C323.232 39.4143 323.232 35.948 325.37 33.81L356.1 3.08004C358.238 0.942065 361.704 0.942067 363.842 3.08005L394.572 33.81C396.71 35.948 396.71 39.4143 394.572 41.5523L363.842 72.2823Z" fill="#20262B" stroke="#838C94"/>
<path d="M41.0493 436.806C38.9114 438.944 35.445 438.944 33.307 436.806L2.57725 406.076C0.439268 403.938 0.439268 400.471 2.57725 398.333L33.307 367.603C35.445 365.466 38.9114 365.466 41.0493 367.603L71.7793 398.333C73.9173 400.471 73.9173 403.938 71.7793 406.076L41.0493 436.806Z" fill="#20262B" stroke="#838C94"/>
<path d="M93.1822 630.329C91.0442 632.467 87.578 632.467 85.44 630.329L54.7101 599.599C52.5721 597.461 52.5721 593.995 54.7101 591.857L85.44 561.127C87.578 558.989 91.0442 558.989 93.1822 561.127L123.912 591.857C126.05 593.995 126.05 597.461 123.912 599.599L93.1822 630.329Z" fill="#20262B" stroke="#838C94"/>
<path d="M514.893 1102.13C512.755 1104.26 509.289 1104.26 507.151 1102.13L476.421 1071.4C474.283 1069.26 474.283 1065.79 476.421 1063.65L507.151 1032.92C509.289 1030.79 512.755 1030.79 514.893 1032.92L545.623 1063.65C547.761 1065.79 547.761 1069.26 545.623 1071.4L514.893 1102.13Z" fill="#20262B" stroke="#838C94"/>
<path d="M650.268 1028.05C648.13 1030.19 644.664 1030.19 642.526 1028.05L611.796 997.318C609.658 995.18 609.658 991.714 611.796 989.576L642.526 958.846C644.664 956.708 648.13 956.708 650.268 958.846L680.998 989.576C683.136 991.714 683.136 995.18 680.998 997.318L650.268 1028.05Z" fill="#20262B" stroke="#838C94"/>
<path d="M824.502 991.345C822.364 993.483 818.898 993.483 816.76 991.345L786.03 960.615C783.892 958.477 783.892 955.011 786.03 952.873L816.76 922.143C818.898 920.005 822.364 920.005 824.502 922.143L855.232 952.873C857.37 955.011 857.37 958.477 855.232 960.615L824.502 991.345Z" fill="#20262B" stroke="#838C94"/>
<path d="M820.353 943.722C818.859 943.722 817.713 944.376 816.913 945.682C816.139 946.962 815.753 948.629 815.753 950.682C815.753 952.736 816.233 954.362 817.193 955.562C818.153 956.762 819.246 957.362 820.473 957.362C821.699 957.362 822.793 956.976 823.753 956.202C824.713 955.429 825.446 954.522 825.953 953.482C825.899 946.976 824.033 943.722 820.353 943.722ZM816.513 967.482C816.513 967.936 816.793 968.296 817.353 968.562C817.939 968.802 818.646 968.922 819.473 968.922C823.819 968.922 825.993 964.696 825.993 956.242C824.393 958.162 822.206 959.122 819.433 959.122C817.513 959.122 815.859 958.296 814.473 956.642C813.113 954.962 812.433 953.002 812.433 950.762C812.433 948.496 813.153 946.429 814.593 944.562C816.059 942.669 818.006 941.722 820.433 941.722C823.846 941.722 826.206 942.962 827.513 945.442C828.659 947.709 829.233 950.709 829.233 954.442C829.233 958.496 828.593 962.109 827.313 965.282C826.646 966.909 825.659 968.216 824.353 969.202C823.073 970.162 821.579 970.642 819.873 970.642C818.166 970.642 816.713 970.296 815.513 969.602C814.339 968.909 813.753 967.882 813.753 966.522C813.753 965.856 813.913 965.336 814.233 964.962C814.553 964.562 814.979 964.362 815.513 964.362C816.819 964.362 817.473 964.816 817.473 965.722C817.473 966.096 817.313 966.469 816.993 966.842C816.673 967.189 816.513 967.402 816.513 967.482ZM838.131 968.082C838.131 968.749 837.918 969.282 837.491 969.682C837.065 970.056 836.505 970.242 835.811 970.242C835.145 970.242 834.611 970.029 834.211 969.602C833.811 969.176 833.611 968.642 833.611 968.002C833.611 967.336 833.811 966.789 834.211 966.362C834.611 965.909 835.131 965.682 835.771 965.682C836.411 965.682 836.958 965.909 837.411 966.362C837.891 966.816 838.131 967.389 838.131 968.082Z" fill="white"/>
<path d="M1258.09 949.139C1259.48 947.939 1261.28 947.339 1263.49 947.339C1265.71 947.339 1267.49 947.926 1268.85 949.099C1270.21 950.273 1270.89 951.913 1270.89 954.019C1270.89 956.393 1269.29 958.539 1266.09 960.459C1267.75 961.233 1269.21 962.313 1270.49 963.699C1271.77 965.059 1272.41 966.753 1272.41 968.779C1272.41 970.806 1271.52 972.566 1269.73 974.059C1267.97 975.526 1265.95 976.259 1263.65 976.259C1261.39 976.259 1259.35 975.566 1257.53 974.179C1255.75 972.793 1254.85 971.113 1254.85 969.139C1254.85 967.166 1255.43 965.459 1256.57 964.019C1257.72 962.579 1259.04 961.513 1260.53 960.819C1259.47 960.179 1258.45 959.259 1257.49 958.059C1256.53 956.833 1256.05 955.513 1256.05 954.099C1256.05 951.993 1256.73 950.339 1258.09 949.139ZM1263.81 974.179C1265.36 974.179 1266.61 973.699 1267.57 972.739C1268.56 971.779 1269.05 970.499 1269.05 968.899C1269.05 967.273 1268.55 965.953 1267.53 964.939C1266.55 963.899 1264.88 962.979 1262.53 962.179C1261.04 962.926 1259.95 963.819 1259.25 964.859C1258.56 965.899 1258.21 967.233 1258.21 968.859C1258.21 970.459 1258.76 971.753 1259.85 972.739C1260.97 973.699 1262.29 974.179 1263.81 974.179ZM1263.37 949.419C1262.23 949.419 1261.28 949.753 1260.53 950.419C1259.79 951.086 1259.41 952.046 1259.41 953.299C1259.41 954.553 1259.81 955.753 1260.61 956.899C1261.41 958.046 1262.55 958.846 1264.01 959.299C1266.36 957.966 1267.53 955.886 1267.53 953.059C1267.53 951.966 1267.12 951.086 1266.29 950.419C1265.49 949.753 1264.52 949.419 1263.37 949.419ZM1280.94 973.699C1280.94 974.366 1280.72 974.899 1280.3 975.299C1279.87 975.673 1279.31 975.859 1278.62 975.859C1277.95 975.859 1277.42 975.646 1277.02 975.219C1276.62 974.793 1276.42 974.259 1276.42 973.619C1276.42 972.953 1276.62 972.406 1277.02 971.979C1277.42 971.526 1277.94 971.299 1278.58 971.299C1279.22 971.299 1279.76 971.526 1280.22 971.979C1280.7 972.433 1280.94 973.006 1280.94 973.699Z" fill="white"/>
<path d="M632.795 1006.63L625.275 1006.95C625.169 1006.87 625.115 1006.64 625.115 1006.27C625.115 1005.89 625.222 1005.64 625.435 1005.51C627.382 1005.51 628.755 1005.27 629.555 1004.79C630.382 1004.31 630.809 1003.33 630.835 1001.87L630.955 986.505C630.982 984.932 630.595 983.959 629.795 983.585C628.995 983.212 627.315 983.025 624.755 983.025C624.675 982.945 624.635 982.732 624.635 982.385C624.635 982.012 624.729 981.745 624.915 981.585C628.329 981.372 630.769 980.452 632.235 978.825C632.342 978.719 632.569 978.665 632.915 978.665C633.262 978.665 633.515 978.719 633.675 978.825L634.515 1001.87C634.569 1003.36 634.982 1004.35 635.755 1004.83C636.555 1005.28 637.915 1005.51 639.835 1005.51C640.049 1005.67 640.155 1005.92 640.155 1006.27C640.155 1006.61 640.102 1006.84 639.995 1006.95L632.795 1006.63ZM642.869 998.425C642.549 996.745 642.389 994.905 642.389 992.905C642.389 990.905 642.549 989.065 642.869 987.385C643.216 985.705 643.736 984.172 644.429 982.785C645.149 981.399 646.136 980.319 647.389 979.545C648.669 978.772 650.163 978.385 651.869 978.385C653.576 978.385 655.056 978.772 656.309 979.545C657.589 980.319 658.576 981.399 659.269 982.785C659.989 984.172 660.509 985.705 660.829 987.385C661.176 989.065 661.349 990.905 661.349 992.905C661.349 994.905 661.176 996.745 660.829 998.425C660.509 1000.11 659.989 1001.63 659.269 1002.99C658.576 1004.35 657.589 1005.41 656.309 1006.19C655.056 1006.96 653.576 1007.35 651.869 1007.35C650.163 1007.35 648.669 1006.96 647.389 1006.19C646.136 1005.41 645.149 1004.35 644.429 1002.99C643.736 1001.63 643.216 1000.11 642.869 998.425ZM645.749 992.905C645.749 996.212 646.283 999.105 647.349 1001.59C648.416 1004.04 649.923 1005.27 651.869 1005.27C653.176 1005.27 654.309 1004.65 655.269 1003.43C657.083 1001.08 657.989 997.572 657.989 992.905C657.989 988.319 657.083 984.812 655.269 982.385C654.309 981.105 653.176 980.465 651.869 980.465C650.563 980.465 649.429 981.105 648.469 982.385C646.656 984.839 645.749 988.345 645.749 992.905ZM670.225 1004.79C670.225 1005.45 670.012 1005.99 669.585 1006.39C669.158 1006.76 668.598 1006.95 667.905 1006.95C667.238 1006.95 666.705 1006.73 666.305 1006.31C665.905 1005.88 665.705 1005.35 665.705 1004.71C665.705 1004.04 665.905 1003.49 666.305 1003.07C666.705 1002.61 667.225 1002.39 667.865 1002.39C668.505 1002.39 669.052 1002.61 669.505 1003.07C669.985 1003.52 670.225 1004.09 670.225 1004.79Z" fill="white"/>
<path d="M499.123 1080.7L491.603 1081.02C491.497 1080.94 491.443 1080.72 491.443 1080.34C491.443 1079.97 491.55 1079.72 491.763 1079.58C493.71 1079.58 495.083 1079.34 495.883 1078.86C496.71 1078.38 497.137 1077.41 497.163 1075.94L497.283 1060.58C497.31 1059.01 496.923 1058.04 496.123 1057.66C495.323 1057.29 493.643 1057.1 491.083 1057.1C491.003 1057.02 490.963 1056.81 490.963 1056.46C490.963 1056.09 491.057 1055.82 491.243 1055.66C494.657 1055.45 497.097 1054.53 498.563 1052.9C498.67 1052.8 498.897 1052.74 499.243 1052.74C499.59 1052.74 499.843 1052.8 500.003 1052.9L500.843 1075.94C500.897 1077.44 501.31 1078.42 502.083 1078.9C502.883 1079.36 504.243 1079.58 506.163 1079.58C506.377 1079.74 506.483 1080 506.483 1080.34C506.483 1080.69 506.43 1080.92 506.323 1081.02L499.123 1080.7ZM516.038 1080.7L508.518 1081.02C508.411 1080.94 508.358 1080.72 508.358 1080.34C508.358 1079.97 508.464 1079.72 508.678 1079.58C510.624 1079.58 511.998 1079.34 512.798 1078.86C513.624 1078.38 514.051 1077.41 514.078 1075.94L514.198 1060.58C514.224 1059.01 513.838 1058.04 513.038 1057.66C512.238 1057.29 510.558 1057.1 507.998 1057.1C507.918 1057.02 507.878 1056.81 507.878 1056.46C507.878 1056.09 507.971 1055.82 508.158 1055.66C511.571 1055.45 514.011 1054.53 515.478 1052.9C515.584 1052.8 515.811 1052.74 516.158 1052.74C516.504 1052.74 516.758 1052.8 516.918 1052.9L517.758 1075.94C517.811 1077.44 518.224 1078.42 518.998 1078.9C519.798 1079.36 521.158 1079.58 523.078 1079.58C523.291 1079.74 523.398 1080 523.398 1080.34C523.398 1080.69 523.344 1080.92 523.238 1081.02L516.038 1080.7ZM529.952 1078.86C529.952 1079.53 529.738 1080.06 529.312 1080.46C528.885 1080.84 528.325 1081.02 527.632 1081.02C526.965 1081.02 526.432 1080.81 526.032 1080.38C525.632 1079.96 525.432 1079.42 525.432 1078.78C525.432 1078.12 525.632 1077.57 526.032 1077.14C526.432 1076.69 526.952 1076.46 527.592 1076.46C528.232 1076.46 528.778 1076.69 529.232 1077.14C529.712 1077.6 529.952 1078.17 529.952 1078.86Z" fill="white"/>
<path d="M77.2125 607.947L70.6325 608.227C70.5392 608.157 70.4925 607.958 70.4925 607.632C70.4925 607.305 70.5858 607.083 70.7725 606.967C72.4758 606.967 73.6775 606.757 74.3775 606.337C75.1008 605.917 75.4742 605.065 75.4975 603.782L75.6025 590.342C75.6258 588.965 75.2875 588.113 74.5875 587.787C73.8875 587.46 72.4175 587.297 70.1775 587.297C70.1075 587.227 70.0725 587.04 70.0725 586.737C70.0725 586.41 70.1542 586.177 70.3175 586.037C73.3042 585.85 75.4392 585.045 76.7225 583.622C76.8158 583.528 77.0142 583.482 77.3175 583.482C77.6208 583.482 77.8425 583.528 77.9825 583.622L78.7175 603.782C78.7642 605.088 79.1258 605.952 79.8025 606.372C80.5025 606.768 81.6925 606.967 83.3725 606.967C83.5592 607.107 83.6525 607.328 83.6525 607.632C83.6525 607.935 83.6058 608.133 83.5125 608.227L77.2125 607.947ZM84.9073 608.227C84.7906 608.203 84.7323 608.087 84.7323 607.877C84.7323 607.387 84.8256 606.838 85.0123 606.232C85.2223 605.625 85.724 604.82 86.5173 603.817C87.334 602.79 88.244 601.705 89.2473 600.562C90.2506 599.418 91.2423 598.228 92.2223 596.992C93.2256 595.732 94.054 594.413 94.7073 593.037C95.384 591.66 95.7223 590.342 95.7223 589.082C95.7223 587.798 95.3256 586.818 94.5323 586.142C93.7623 585.442 92.8406 585.092 91.7673 585.092C90.694 585.092 89.8306 585.243 89.1773 585.547C88.524 585.85 88.1973 586.247 88.1973 586.737C88.1973 586.877 88.3373 587.11 88.6173 587.437C88.8973 587.74 89.0373 588.078 89.0373 588.452C89.0373 589.245 88.4656 589.642 87.3223 589.642C86.7856 589.642 86.3656 589.49 86.0623 589.187C85.759 588.883 85.6073 588.463 85.6073 587.927C85.6073 586.923 85.9456 586.06 86.6223 585.337C87.9056 583.96 89.784 583.272 92.2573 583.272C94.1006 583.272 95.6406 583.75 96.8773 584.707C98.114 585.663 98.7323 587.098 98.7323 589.012C98.7323 590.458 98.324 591.963 97.5073 593.527C96.5506 595.37 95.629 596.887 94.7423 598.077C93.8556 599.267 93.179 600.153 92.7123 600.737C92.269 601.297 91.569 602.16 90.6123 603.327C89.679 604.493 89.0723 605.24 88.7923 605.567C88.5356 605.893 88.4073 606.15 88.4073 606.337C88.4073 606.36 88.909 606.372 89.9123 606.372H92.3973C93.494 606.372 94.3106 606.372 94.8473 606.372C95.4073 606.348 95.9556 606.267 96.4923 606.127C97.0523 605.987 97.4256 605.835 97.6123 605.672C97.8223 605.508 98.0206 605.217 98.2073 604.797C98.394 604.353 98.5106 603.898 98.5573 603.432C98.604 602.942 98.639 602.253 98.6623 601.367C98.7323 601.297 98.9423 601.262 99.2923 601.262C99.6656 601.262 100.039 601.413 100.412 601.717L99.3973 608.577C97.554 608.367 94.8006 608.262 91.1373 608.262L84.9073 608.227ZM107.503 606.337C107.503 606.92 107.316 607.387 106.943 607.737C106.569 608.063 106.079 608.227 105.473 608.227C104.889 608.227 104.423 608.04 104.073 607.667C103.723 607.293 103.548 606.827 103.548 606.267C103.548 605.683 103.723 605.205 104.073 604.832C104.423 604.435 104.878 604.237 105.438 604.237C105.998 604.237 106.476 604.435 106.873 604.832C107.293 605.228 107.503 605.73 107.503 606.337Z" fill="white"/>
<path d="M25.5797 414.423L18.9997 414.703C18.9064 414.633 18.8597 414.435 18.8597 414.108C18.8597 413.781 18.953 413.56 19.1397 413.443C20.843 413.443 22.0447 413.233 22.7447 412.813C23.468 412.393 23.8414 411.541 23.8647 410.258L23.9697 396.818C23.993 395.441 23.6547 394.59 22.9547 394.263C22.2547 393.936 20.7847 393.773 18.5447 393.773C18.4747 393.703 18.4397 393.516 18.4397 393.213C18.4397 392.886 18.5214 392.653 18.6847 392.513C21.6714 392.326 23.8064 391.521 25.0897 390.098C25.183 390.005 25.3814 389.958 25.6847 389.958C25.988 389.958 26.2097 390.005 26.3497 390.098L27.0847 410.258C27.1314 411.565 27.493 412.428 28.1697 412.848C28.8697 413.245 30.0597 413.443 31.7397 413.443C31.9264 413.583 32.0197 413.805 32.0197 414.108C32.0197 414.411 31.973 414.61 31.8797 414.703L25.5797 414.423ZM37.2645 402.733C37.1712 402.733 37.0428 402.57 36.8795 402.243C36.7162 401.916 36.6345 401.683 36.6345 401.543C36.6345 401.403 36.6462 401.321 36.6695 401.298C38.4895 400.785 39.9945 400.05 41.1845 399.093C42.3745 398.136 42.9695 397.005 42.9695 395.698C42.9695 394.368 42.6428 393.353 41.9895 392.653C41.3595 391.93 40.5662 391.568 39.6095 391.568C38.6762 391.568 37.9062 391.743 37.2995 392.093C36.7162 392.42 36.4245 392.805 36.4245 393.248C36.4245 393.458 36.5528 393.715 36.8095 394.018C37.0895 394.321 37.2295 394.706 37.2295 395.173C37.2295 395.966 36.6578 396.363 35.5145 396.363C34.9778 396.363 34.5578 396.211 34.2545 395.908C33.9512 395.605 33.7995 395.185 33.7995 394.648C33.7995 393.248 34.4412 392.081 35.7245 391.148C37.0312 390.215 38.4895 389.748 40.0995 389.748C41.7095 389.748 43.0745 390.285 44.1945 391.358C45.3378 392.408 45.9095 393.843 45.9095 395.663C45.9095 396.97 45.4428 398.078 44.5095 398.988C43.5762 399.875 42.4445 400.54 41.1145 400.983C42.8645 401.193 44.3228 401.905 45.4895 403.118C46.6795 404.308 47.2745 405.86 47.2745 407.773C47.2745 409.663 46.4812 411.355 44.8945 412.848C43.3312 414.318 41.5112 415.053 39.4345 415.053C37.9645 415.053 36.6345 414.691 35.4445 413.968C34.2778 413.221 33.6945 412.148 33.6945 410.748C33.6945 410.211 33.8462 409.791 34.1495 409.488C34.4762 409.185 34.8962 409.033 35.4095 409.033C36.5528 409.033 37.1245 409.43 37.1245 410.223C37.1245 410.596 36.9845 410.946 36.7045 411.273C36.4245 411.576 36.2845 411.798 36.2845 411.938C36.2845 412.311 36.6112 412.638 37.2645 412.918C37.9412 413.175 38.6062 413.303 39.2595 413.303C40.7762 413.303 42.0012 412.79 42.9345 411.763C43.8678 410.736 44.3345 409.406 44.3345 407.773C44.3345 406.116 43.9145 404.751 43.0745 403.678C42.2578 402.581 41.1962 402.033 39.8895 402.033C39.0262 402.033 38.1628 402.266 37.2995 402.733H37.2645ZM54.776 412.813C54.776 413.396 54.5893 413.863 54.216 414.213C53.8426 414.54 53.3526 414.703 52.746 414.703C52.1626 414.703 51.696 414.516 51.346 414.143C50.996 413.77 50.821 413.303 50.821 412.743C50.821 412.16 50.996 411.681 51.346 411.308C51.696 410.911 52.151 410.713 52.711 410.713C53.271 410.713 53.7493 410.911 54.146 411.308C54.566 411.705 54.776 412.206 54.776 412.813Z" fill="white"/>
<path d="M359.577 49.8597L352.057 50.1797C351.95 50.0997 351.897 49.873 351.897 49.4997C351.897 49.1264 352.003 48.873 352.217 48.7397C354.163 48.7397 355.537 48.4997 356.337 48.0197C357.163 47.5397 357.59 46.5664 357.617 45.0997L357.737 29.7397C357.763 28.1664 357.377 27.193 356.577 26.8197C355.777 26.4464 354.097 26.2597 351.537 26.2597C351.457 26.1797 351.417 25.9664 351.417 25.6197C351.417 25.2464 351.51 24.9797 351.697 24.8197C355.11 24.6064 357.55 23.6864 359.017 22.0597C359.123 21.953 359.35 21.8997 359.697 21.8997C360.043 21.8997 360.297 21.953 360.457 22.0597L361.297 45.0997C361.35 46.593 361.763 47.5797 362.537 48.0597C363.337 48.513 364.697 48.7397 366.617 48.7397C366.83 48.8997 366.937 49.153 366.937 49.4997C366.937 49.8464 366.883 50.073 366.777 50.1797L359.577 49.8597ZM373.491 48.0197C373.491 48.6864 373.277 49.2197 372.851 49.6197C372.424 49.993 371.864 50.1797 371.171 50.1797C370.504 50.1797 369.971 49.9664 369.571 49.5397C369.171 49.113 368.971 48.5797 368.971 47.9397C368.971 47.273 369.171 46.7264 369.571 46.2997C369.971 45.8464 370.491 45.6197 371.131 45.6197C371.771 45.6197 372.317 45.8464 372.771 46.2997C373.251 46.753 373.491 47.3264 373.491 48.0197Z" fill="white"/>
<path d="M497.757 49.3594C497.624 49.3327 497.557 49.1994 497.557 48.9594C497.557 48.3994 497.664 47.7727 497.877 47.0794C498.117 46.386 498.691 45.466 499.597 44.3194C500.531 43.146 501.571 41.906 502.717 40.5994C503.864 39.2927 504.997 37.9327 506.117 36.5194C507.264 35.0794 508.211 33.5727 508.957 31.9994C509.731 30.426 510.117 28.9194 510.117 27.4794C510.117 26.0127 509.664 24.8927 508.757 24.1194C507.877 23.3194 506.824 22.9194 505.597 22.9194C504.371 22.9194 503.384 23.0927 502.637 23.4394C501.891 23.786 501.517 24.2394 501.517 24.7994C501.517 24.9594 501.677 25.226 501.997 25.5994C502.317 25.946 502.477 26.3327 502.477 26.7594C502.477 27.666 501.824 28.1194 500.517 28.1194C499.904 28.1194 499.424 27.946 499.077 27.5994C498.731 27.2527 498.557 26.7727 498.557 26.1594C498.557 25.0127 498.944 24.026 499.717 23.1994C501.184 21.626 503.331 20.8394 506.157 20.8394C508.264 20.8394 510.024 21.386 511.437 22.4794C512.851 23.5727 513.557 25.2127 513.557 27.3994C513.557 29.0527 513.091 30.7727 512.157 32.5594C511.064 34.666 510.011 36.3994 508.997 37.7594C507.984 39.1194 507.211 40.1327 506.677 40.7994C506.171 41.4394 505.371 42.426 504.277 43.7594C503.211 45.0927 502.517 45.946 502.197 46.3194C501.904 46.6927 501.757 46.986 501.757 47.1994C501.757 47.226 502.331 47.2394 503.477 47.2394H506.317C507.571 47.2394 508.504 47.2394 509.117 47.2394C509.757 47.2127 510.384 47.1194 510.997 46.9594C511.637 46.7994 512.064 46.626 512.277 46.4394C512.517 46.2527 512.744 45.9194 512.957 45.4394C513.171 44.9327 513.304 44.4127 513.357 43.8794C513.411 43.3194 513.451 42.5327 513.477 41.5194C513.557 41.4394 513.797 41.3994 514.197 41.3994C514.624 41.3994 515.051 41.5727 515.477 41.9194L514.317 49.7594C512.211 49.5194 509.064 49.3994 504.877 49.3994L497.757 49.3594ZM523.58 47.1994C523.58 47.866 523.367 48.3994 522.94 48.7994C522.514 49.1727 521.954 49.3594 521.26 49.3594C520.594 49.3594 520.06 49.146 519.66 48.7194C519.26 48.2927 519.06 47.7594 519.06 47.1194C519.06 46.4527 519.26 45.906 519.66 45.4794C520.06 45.026 520.58 44.7994 521.22 44.7994C521.86 44.7994 522.407 45.026 522.86 45.4794C523.34 45.9327 523.58 46.506 523.58 47.1994Z" fill="white"/>
<path d="M1391.15 295.811C1391.06 295.811 1390.93 295.648 1390.77 295.321C1390.6 294.995 1390.52 294.761 1390.52 294.621C1390.52 294.481 1390.53 294.4 1390.56 294.376C1392.38 293.863 1393.88 293.128 1395.07 292.171C1396.26 291.215 1396.86 290.083 1396.86 288.776C1396.86 287.446 1396.53 286.431 1395.88 285.731C1395.25 285.008 1394.45 284.646 1393.5 284.646C1392.56 284.646 1391.79 284.821 1391.19 285.171C1390.6 285.498 1390.31 285.883 1390.31 286.326C1390.31 286.536 1390.44 286.793 1390.7 287.096C1390.98 287.4 1391.12 287.785 1391.12 288.251C1391.12 289.045 1390.55 289.441 1389.4 289.441C1388.87 289.441 1388.45 289.29 1388.14 288.986C1387.84 288.683 1387.69 288.263 1387.69 287.726C1387.69 286.326 1388.33 285.16 1389.61 284.226C1390.92 283.293 1392.38 282.826 1393.99 282.826C1395.6 282.826 1396.96 283.363 1398.08 284.436C1399.23 285.486 1399.8 286.921 1399.8 288.741C1399.8 290.048 1399.33 291.156 1398.4 292.066C1397.46 292.953 1396.33 293.618 1395 294.061C1396.75 294.271 1398.21 294.983 1399.38 296.196C1400.57 297.386 1401.16 298.938 1401.16 300.851C1401.16 302.741 1400.37 304.433 1398.78 305.926C1397.22 307.396 1395.4 308.131 1393.32 308.131C1391.85 308.131 1390.52 307.77 1389.33 307.046C1388.17 306.3 1387.58 305.226 1387.58 303.826C1387.58 303.29 1387.73 302.87 1388.04 302.566C1388.36 302.263 1388.78 302.111 1389.3 302.111C1390.44 302.111 1391.01 302.508 1391.01 303.301C1391.01 303.675 1390.87 304.025 1390.59 304.351C1390.31 304.655 1390.17 304.876 1390.17 305.016C1390.17 305.39 1390.5 305.716 1391.15 305.996C1391.83 306.253 1392.49 306.381 1393.15 306.381C1394.66 306.381 1395.89 305.868 1396.82 304.841C1397.76 303.815 1398.22 302.485 1398.22 300.851C1398.22 299.195 1397.8 297.83 1396.96 296.756C1396.15 295.66 1395.08 295.111 1393.78 295.111C1392.91 295.111 1392.05 295.345 1391.19 295.811H1391.15ZM1408.66 305.891C1408.66 306.475 1408.48 306.941 1408.1 307.291C1407.73 307.618 1407.24 307.781 1406.63 307.781C1406.05 307.781 1405.58 307.595 1405.23 307.221C1404.88 306.848 1404.71 306.381 1404.71 305.821C1404.71 305.238 1404.88 304.76 1405.23 304.386C1405.58 303.99 1406.04 303.791 1406.6 303.791C1407.16 303.791 1407.64 303.99 1408.03 304.386C1408.45 304.783 1408.66 305.285 1408.66 305.891Z" fill="white"/>
<path d="M1778.65 202.293L1773.57 202.453C1773.49 202.373 1773.45 202.16 1773.45 201.813C1773.45 201.44 1773.53 201.173 1773.69 201.013C1774.76 201.013 1775.53 200.866 1776.01 200.573C1776.49 200.253 1776.75 199.72 1776.77 198.973L1776.69 194.733H1765.53C1765.4 194.653 1765.33 194.306 1765.33 193.693C1765.33 193.053 1765.4 192.666 1765.53 192.533L1777.65 174.333C1777.76 174.226 1777.99 174.173 1778.33 174.173C1778.68 174.173 1778.93 174.226 1779.09 174.333L1779.73 192.533H1783.65C1783.79 192.933 1783.85 193.346 1783.85 193.773C1783.85 194.2 1783.75 194.52 1783.53 194.733H1779.81L1779.97 198.973C1780 199.72 1780.24 200.253 1780.69 200.573C1781.17 200.866 1781.95 201.013 1783.01 201.013C1783.15 201.146 1783.21 201.413 1783.21 201.813C1783.21 202.186 1783.19 202.4 1783.13 202.453L1778.65 202.293ZM1776.77 178.773C1771.39 187.866 1768.69 192.44 1768.69 192.493C1768.69 192.52 1768.73 192.533 1768.81 192.533H1776.41C1776.6 192.533 1776.69 192.44 1776.69 192.253L1776.97 178.813C1776.97 178.733 1776.95 178.693 1776.89 178.693C1776.84 178.693 1776.8 178.72 1776.77 178.773ZM1791.61 200.293C1791.61 200.96 1791.39 201.493 1790.97 201.893C1790.54 202.266 1789.98 202.453 1789.29 202.453C1788.62 202.453 1788.09 202.24 1787.69 201.813C1787.29 201.386 1787.09 200.853 1787.09 200.213C1787.09 199.546 1787.29 199 1787.69 198.573C1788.09 198.12 1788.61 197.893 1789.25 197.893C1789.89 197.893 1790.43 198.12 1790.89 198.573C1791.37 199.026 1791.61 199.6 1791.61 200.293Z" fill="white"/>
<path d="M1965.95 208.467C1965.02 208.467 1964.16 208.614 1963.39 208.907C1962.64 209.174 1962.26 209.307 1962.23 209.307C1962.1 209.307 1961.95 209.094 1961.79 208.667C1961.63 208.241 1961.55 207.867 1961.55 207.547L1961.87 196.467C1961.87 195.987 1962.11 195.747 1962.59 195.747H1968.87C1970.2 195.747 1971.1 195.641 1971.55 195.427C1972 195.187 1972.4 194.587 1972.75 193.627C1972.8 193.574 1972.99 193.547 1973.31 193.547C1973.66 193.547 1973.95 193.641 1974.19 193.827L1972.83 197.947H1964.55C1964.26 197.947 1964.11 198.174 1964.11 198.627L1963.51 206.987C1964.58 206.747 1965.52 206.627 1966.35 206.627C1968.99 206.627 1971.16 207.441 1972.87 209.067C1974.58 210.667 1975.43 212.574 1975.43 214.787C1975.43 217.454 1974.66 219.707 1973.11 221.547C1971.59 223.361 1969.47 224.267 1966.75 224.267C1965.1 224.267 1963.59 223.841 1962.23 222.987C1960.9 222.134 1960.23 220.921 1960.23 219.347C1960.23 218.734 1960.4 218.254 1960.75 217.907C1961.1 217.561 1961.58 217.387 1962.19 217.387C1963.5 217.387 1964.15 217.841 1964.15 218.747C1964.15 219.174 1963.99 219.574 1963.67 219.947C1963.35 220.294 1963.19 220.547 1963.19 220.707C1963.19 221.134 1963.56 221.507 1964.31 221.827C1965.08 222.121 1965.83 222.267 1966.55 222.267C1968.28 222.267 1969.64 221.587 1970.63 220.227C1971.62 218.841 1972.11 217.147 1972.11 215.147C1972.11 213.121 1971.54 211.507 1970.39 210.307C1969.24 209.081 1967.76 208.467 1965.95 208.467ZM1983.58 221.707C1983.58 222.374 1983.37 222.907 1982.94 223.307C1982.52 223.681 1981.96 223.867 1981.26 223.867C1980.6 223.867 1980.06 223.654 1979.66 223.227C1979.26 222.801 1979.06 222.267 1979.06 221.627C1979.06 220.961 1979.26 220.414 1979.66 219.987C1980.06 219.534 1980.58 219.307 1981.22 219.307C1981.86 219.307 1982.41 219.534 1982.86 219.987C1983.34 220.441 1983.58 221.014 1983.58 221.707Z" fill="white"/>
<path d="M2213.14 132.869C2214.77 132.869 2216.01 132.189 2216.86 130.829C2217.72 129.442 2218.14 127.722 2218.14 125.669C2218.14 123.589 2217.58 121.962 2216.46 120.789C2215.34 119.615 2214.12 119.029 2212.78 119.029C2211.45 119.029 2210.3 119.442 2209.34 120.269C2208.38 121.069 2207.65 122.015 2207.14 123.109C2207.2 129.615 2209.2 132.869 2213.14 132.869ZM2217.18 109.109C2217.18 108.655 2216.9 108.309 2216.34 108.069C2215.81 107.802 2215.17 107.669 2214.42 107.669C2211.92 107.669 2209.97 109.255 2208.58 112.429C2208.29 113.122 2208.01 114.135 2207.74 115.469C2207.5 116.775 2207.29 118.402 2207.1 120.349C2208.7 118.295 2210.89 117.269 2213.66 117.269C2215.8 117.269 2217.62 118.135 2219.14 119.869C2220.69 121.602 2221.46 123.589 2221.46 125.829C2221.46 128.602 2220.69 130.802 2219.14 132.429C2217.62 134.055 2215.53 134.869 2212.86 134.869C2210.22 134.869 2208.06 133.749 2206.38 131.509C2204.7 129.242 2203.86 126.615 2203.86 123.629C2203.86 120.615 2204.24 117.775 2204.98 115.109C2205.76 112.442 2206.93 110.255 2208.5 108.549C2210.1 106.815 2211.89 105.949 2213.86 105.949C2215.84 105.949 2217.37 106.322 2218.46 107.069C2219.58 107.789 2220.14 108.855 2220.14 110.269C2220.14 110.882 2219.97 111.362 2219.62 111.709C2219.28 112.055 2218.8 112.229 2218.18 112.229C2216.88 112.229 2216.22 111.775 2216.22 110.869C2216.22 110.495 2216.38 110.135 2216.7 109.789C2217.02 109.415 2217.18 109.189 2217.18 109.109ZM2229.87 132.309C2229.87 132.975 2229.65 133.509 2229.23 133.909C2228.8 134.282 2228.24 134.469 2227.55 134.469C2226.88 134.469 2226.35 134.255 2225.95 133.829C2225.55 133.402 2225.35 132.869 2225.35 132.229C2225.35 131.562 2225.55 131.015 2225.95 130.589C2226.35 130.135 2226.87 129.909 2227.51 129.909C2228.15 129.909 2228.69 130.135 2229.15 130.589C2229.63 131.042 2229.87 131.615 2229.87 132.309Z" fill="white"/>
<path d="M2105.69 880.139C2108.73 880.442 2111.21 880.594 2113.15 880.594C2115.11 880.594 2117.07 880.559 2119.03 880.489C2119.22 880.699 2119.31 881.025 2119.31 881.469L2119.17 882.484L2111.12 905.094C2111.03 905.187 2110.48 905.234 2109.47 905.234C2108.47 905.234 2107.93 905.187 2107.86 905.094L2116.86 883.499L2116.89 882.939C2116.8 882.775 2116.46 882.694 2115.88 882.694H2108.28C2107.51 882.694 2106.91 882.892 2106.46 883.289C2106.02 883.685 2105.73 884.467 2105.59 885.634C2105.54 885.68 2105.34 885.704 2104.99 885.704C2104.67 885.704 2104.45 885.622 2104.33 885.459L2105.69 880.139ZM2124.07 903.204C2124.07 903.787 2123.89 904.254 2123.51 904.604C2123.14 904.93 2122.65 905.094 2122.04 905.094C2121.46 905.094 2120.99 904.907 2120.64 904.534C2120.29 904.16 2120.12 903.694 2120.12 903.134C2120.12 902.55 2120.29 902.072 2120.64 901.699C2120.99 901.302 2121.45 901.104 2122.01 901.104C2122.57 901.104 2123.05 901.302 2123.44 901.699C2123.86 902.095 2124.07 902.597 2124.07 903.204Z" fill="white"/>
<circle cx="359.246" cy="88.0547" r="5" fill="#838C94"/>
<circle cx="506.32" cy="88.0547" r="5" fill="#838C94"/>
<circle cx="506.062" cy="357.148" r="5" fill="#838C94"/>
<path d="M364.059 353.664C364.059 356.425 361.82 358.664 359.059 358.664C356.297 358.664 354.059 356.425 354.059 353.664C354.059 350.903 356.297 348.664 359.059 348.664C361.82 348.664 364.059 350.903 364.059 353.664Z" fill="#838C94"/>
<path d="M304.004 403.391C304.004 406.152 301.765 408.391 299.004 408.391C296.242 408.391 294.004 406.152 294.004 403.391C294.004 400.629 296.242 398.391 299.004 398.391C301.765 398.391 304.004 400.629 304.004 403.391Z" fill="#838C94"/>
<path d="M96.9766 403.484C96.9766 406.246 94.738 408.484 91.9766 408.484C89.2151 408.484 86.9766 406.246 86.9766 403.484C86.9766 400.723 89.2151 398.484 91.9766 398.484C94.738 398.484 96.9766 400.723 96.9766 403.484Z" fill="#838C94"/>
<path d="M151.41 596.961C151.41 599.722 149.172 601.961 146.41 601.961C143.649 601.961 141.41 599.722 141.41 596.961C141.41 594.2 143.649 591.961 146.41 591.961C149.172 591.961 151.41 594.2 151.41 596.961Z" fill="#838C94"/>
<path d="M430.918 595.492C430.918 598.254 428.679 600.492 425.918 600.492C423.157 600.492 420.918 598.254 420.918 595.492C420.918 592.731 423.157 590.492 425.918 590.492C428.679 590.492 430.918 592.731 430.918 595.492Z" fill="#838C94"/>
<path d="M513.953 784.602C513.953 787.363 511.715 789.602 508.953 789.602C506.192 789.602 503.953 787.363 503.953 784.602C503.953 781.84 506.192 779.602 508.953 779.602C511.715 779.602 513.953 781.84 513.953 784.602Z" fill="#838C94"/>
<path d="M514.32 1011.95C514.32 1014.71 512.082 1016.95 509.32 1016.95C506.559 1016.95 504.32 1014.71 504.32 1011.95C504.32 1009.18 506.559 1006.95 509.32 1006.95C512.082 1006.95 514.32 1009.18 514.32 1011.95Z" fill="#838C94"/>
<path d="M651.438 931.242C651.438 934.004 649.199 936.242 646.438 936.242C643.676 936.242 641.438 934.004 641.438 931.242C641.438 928.481 643.676 926.242 646.438 926.242C649.199 926.242 651.438 928.481 651.438 931.242Z" fill="#838C94"/>
<path d="M651.438 796.43C651.438 799.191 649.199 801.43 646.438 801.43C643.676 801.43 641.438 799.191 641.438 796.43C641.438 793.668 643.676 791.43 646.438 791.43C649.199 791.43 651.438 793.668 651.438 796.43Z" fill="#838C94"/>
<path d="M825.672 907.703C825.672 910.465 823.433 912.703 820.672 912.703C817.91 912.703 815.672 910.465 815.672 907.703C815.672 904.942 817.91 902.703 820.672 902.703C823.433 902.703 825.672 904.942 825.672 907.703Z" fill="#838C94"/>
<path d="M827.047 655.109C827.047 657.871 824.808 660.109 822.047 660.109C819.285 660.109 817.047 657.871 817.047 655.109C817.047 652.348 819.285 650.109 822.047 650.109C824.808 650.109 827.047 652.348 827.047 655.109Z" fill="#838C94"/>
<path d="M1268.33 900.703C1268.33 903.465 1266.09 905.703 1263.33 905.703C1260.57 905.703 1258.33 903.465 1258.33 900.703C1258.33 897.942 1260.57 895.703 1263.33 895.703C1266.09 895.703 1268.33 897.942 1268.33 900.703Z" fill="#838C94"/>
<path d="M1268.33 612.367C1268.33 615.129 1266.09 617.367 1263.33 617.367C1260.57 617.367 1258.33 615.129 1258.33 612.367C1258.33 609.606 1260.57 607.367 1263.33 607.367C1266.09 607.367 1268.33 609.606 1268.33 612.367Z" fill="#838C94"/>
<path d="M1402.14 345.992C1402.14 348.754 1399.9 350.992 1397.14 350.992C1394.38 350.992 1392.14 348.754 1392.14 345.992C1392.14 343.231 1394.38 340.992 1397.14 340.992C1399.9 340.992 1402.14 343.231 1402.14 345.992Z" fill="#838C94"/>
<path d="M1402.14 520.828C1402.14 523.59 1399.9 525.828 1397.14 525.828C1394.38 525.828 1392.14 523.59 1392.14 520.828C1392.14 518.067 1394.38 515.828 1397.14 515.828C1399.9 515.828 1402.14 518.067 1402.14 520.828Z" fill="#838C94"/>
<path d="M1783.3 241.133C1783.3 243.894 1781.07 246.133 1778.3 246.133C1775.54 246.133 1773.3 243.894 1773.3 241.133C1773.3 238.371 1775.54 236.133 1778.3 236.133C1781.07 236.133 1783.3 238.371 1783.3 241.133Z" fill="#838C94"/>
<path d="M1783.3 542.609C1783.3 545.371 1781.07 547.609 1778.3 547.609C1775.54 547.609 1773.3 545.371 1773.3 542.609C1773.3 539.848 1775.54 537.609 1778.3 537.609C1781.07 537.609 1783.3 539.848 1783.3 542.609Z" fill="#838C94"/>
<path d="M1977.41 525.828C1977.41 528.59 1975.17 530.828 1972.41 530.828C1969.64 530.828 1967.41 528.59 1967.41 525.828C1967.41 523.067 1969.64 520.828 1972.41 520.828C1975.17 520.828 1977.41 523.067 1977.41 525.828Z" fill="#838C94"/>
<path d="M1977.41 258.312C1977.41 261.074 1975.17 263.312 1972.41 263.312C1969.64 263.312 1967.41 261.074 1967.41 258.312C1967.41 255.551 1969.64 253.312 1972.41 253.312C1975.17 253.312 1977.41 255.551 1977.41 258.312Z" fill="#838C94"/>
<path d="M2221.05 445.43C2221.05 448.191 2218.81 450.43 2216.05 450.43C2213.29 450.43 2211.05 448.191 2211.05 445.43C2211.05 442.668 2213.29 440.43 2216.05 440.43C2218.81 440.43 2221.05 442.668 2221.05 445.43Z" fill="#838C94"/>
<path d="M2221.05 171.836C2221.05 174.597 2218.81 176.836 2216.05 176.836C2213.29 176.836 2211.05 174.597 2211.05 171.836C2211.05 169.075 2213.29 166.836 2216.05 166.836C2218.81 166.836 2221.05 169.075 2221.05 171.836Z" fill="#838C94"/>
<path d="M2120.34 839.812C2120.34 842.574 2118.1 844.812 2115.34 844.812C2112.57 844.812 2110.34 842.574 2110.34 839.812C2110.34 837.051 2112.57 834.812 2115.34 834.812C2118.1 834.812 2120.34 837.051 2120.34 839.812Z" fill="#838C94"/>
<path d="M2120.34 583.273C2120.34 586.035 2118.1 588.273 2115.34 588.273C2112.57 588.273 2110.34 586.035 2110.34 583.273C2110.34 580.512 2112.57 578.273 2115.34 578.273C2118.1 578.273 2120.34 580.512 2120.34 583.273Z" fill="#838C94"/>
</svg>
