<svg width="2746" height="935" viewBox="0 0 2746 935" fill="none" xmlns="http://www.w3.org/2000/svg">
<path d="M2244.84 517.616L2254.81 517.616M2244.84 517.616L2146.68 519.879M2244.84 517.616L2244.84 506.693M2680.9 589.364C2674.22 589.563 2663.84 587.992 2663.84 587.992C2663.84 587.992 2648.13 572.994 2636.31 565.911C2625.04 559.152 2617.54 554.982 2604.49 553.43C2596.13 552.436 2589.55 552.039 2583.67 552.045M2680.9 589.364C2683.22 589.295 2686.14 588.982 2688.56 588.673C2691.73 588.269 2694.77 587.286 2697.56 585.743C2706.17 580.988 2725.57 569.275 2733.69 556.214C2742.31 542.366 2744.51 518.536 2745 511.158C2745.1 509.659 2745.01 508.167 2744.77 506.684L2743.22 497.013C2741.79 488.086 2735.47 480.719 2726.86 477.954L2693.33 467.18L2692.37 466.884M2680.9 589.364C2680.9 589.364 2670.94 579.292 2663.84 573.678C2655.76 567.293 2651.14 563.57 2641.85 559.135C2631.67 554.275 2625.38 552.26 2614.19 550.79C2602.37 549.236 2583.67 552.045 2583.67 552.045M2313.5 354.129C2313.5 354.129 2324.87 354.47 2332.8 356.304C2340.37 358.055 2344.56 359.268 2352.07 361.246C2357.54 362.684 2363.28 364.266 2369.21 365.951M2313.5 354.129L2306.35 354.123C2299.24 354.118 2292.58 357.541 2288.44 363.316L2265.7 395.08M2313.5 354.129C2313.5 354.129 2306.64 358.003 2302.82 361.246C2294.32 368.459 2292.94 377.393 2284.51 384.692C2276.79 391.382 2265.7 395.08 2265.7 395.08M2265.7 395.08L2254.81 395.08M2254.81 395.08L2244.84 394.897M2254.81 395.08L2254.81 467.999M2583.67 552.045C2572 552.058 2563.14 553.666 2548.75 555.356C2527.46 557.855 2497.28 565.995 2483.11 570.034C2477.88 571.524 2472.39 571.799 2467.06 570.745V570.745M2467.06 570.745L2464.43 570.226C2460.78 569.504 2457.2 568.404 2453.77 566.946L2417.49 551.517L2373.02 534.708C2373.02 534.708 2367.64 532.965 2359.87 530.648M2467.06 570.745C2467.06 570.745 2462.17 572.392 2458.93 572.35C2454.6 572.294 2448.31 569.139 2448.31 569.139L2359.87 530.648M2359.87 530.648C2348.82 527.355 2332.96 522.904 2320.89 520.649C2308.41 518.319 2290.52 517.616 2290.52 517.616L2254.81 517.616M1135.71 375.279C1135.71 375.279 1125.63 374.7 1117.43 368.613M1135.71 375.279L1168.26 375.819M1135.71 375.279L1131.39 375.279M1102.47 813.025C1102.47 813.025 1111.21 793.127 1099.73 780.136C1078.16 755.729 1038.58 765.081 1007.79 743.331C971.193 717.473 946.458 697.215 939.045 653.02C932.674 615.039 936.868 583.613 965.693 558.074C976.222 548.744 989.746 541.347 995.513 538.388M998.32 536.992C998.32 536.992 997.281 537.481 995.513 538.388M998.32 536.992L1007.5 536.86M998.32 536.992L979.462 536.992M1323.04 532.442L1372.54 531.739M1323.04 532.442L1323.04 378.497M1323.04 532.442L1317.22 532.524M995.513 538.388C995.513 538.388 969.487 546.808 956.817 558.074C939.776 573.227 934.076 587.19 929.018 609.426C923.51 633.646 925.552 649.397 933.717 672.855C943.166 700.004 955.54 713.508 977.569 731.977C996.131 747.54 1008.26 753.359 1030.64 762.639C1050.29 770.792 1076.01 772.165 1093.48 785.017C1100.36 790.079 1102.47 800.123 1102.47 806.65C1102.47 826.083 1095.06 832.385 1084.62 842.268C1074.18 852.152 1051.7 860.275 1022.65 866.828C945.78 884.165 876.15 854.862 806.706 825.675C763.985 807.72 755.926 793.093 711.996 788.206C695.935 786.42 670.433 792.766 656.895 796.629C650.766 798.378 644.876 800.795 639.144 803.582L465.335 888.077C465.335 888.077 330.476 946.102 242.709 931.425C213.372 926.519 188.858 922.89 160.766 908.714C155.06 905.835 147.479 901.952 139.086 897.627C93.2693 874.014 62.3446 829.821 47.5512 780.446C44.0795 768.859 40.1703 757.112 35.8554 746.055C15.1701 693.046 6.3928 600.275 6.3928 600.275C6.3928 600.275 -0.143319 514.911 1.17552 457.872C2.3269 408.075 9.62657 334.089 11.4187 316.51C11.6806 313.942 11.9649 311.482 12.3406 308.927C16.2177 282.565 42.4644 123.914 120.382 63.2139C168.032 26.0933 192.411 7.93268 265.811 2.31034C351.078 -4.22089 432.424 14.182 511.838 45.9066C542.897 58.314 587.527 81.5863 596.479 86.2954C597.563 86.8657 598.653 87.3536 599.801 87.7816L689.682 121.297C689.682 121.297 737.696 137.751 772.123 135.687C794.822 134.326 829.251 123.401 844.353 118.278C849.411 116.563 854.263 114.466 859.073 112.143C890.384 97.0179 1015.75 38.1386 1065.77 40.1944C1100.12 41.6059 1126.03 41.9897 1152.62 63.7736C1173.51 80.8848 1183.75 97.6779 1188.3 126.648C1189.98 137.394 1191.58 159.46 1191.58 159.46M1117.43 368.613C1113.69 365.83 1110.69 362.239 1109.89 357.682C1106.89 340.484 1137.3 289.911 1153.15 265.013C1159.21 255.497 1164.76 245.684 1169.46 235.429L1173.6 226.421L1182.18 207.712C1183.92 203.913 1185.36 199.986 1186.31 195.915C1188.2 187.777 1191.24 172.828 1191.58 159.46M1117.43 368.613C1117.43 368.613 1117.36 360.794 1117.43 354.45C1117.62 339.842 1128.25 320.541 1136.51 307.71C1142.56 298.315 1148.7 288.962 1153.86 279.05L1180.27 228.326C1181.88 225.241 1183.37 222.101 1184.6 218.85C1187.44 211.38 1192.52 196.774 1193.29 185.847C1194.02 175.546 1191.58 159.46 1191.58 159.46M1022.89 375.279L1031.94 358.614L1058.58 315.304C1059.94 313.099 1060.65 310.56 1060.65 307.971L1060.65 300.258C1060.65 297.936 1060.03 295.656 1058.85 293.654L1058.12 292.41C1055.77 288.405 1051.91 285.509 1047.4 284.37V284.37C1043.19 283.306 1038.75 283.572 1034.7 285.133L1015.82 292.405C1015.36 292.584 1014.89 292.751 1014.42 292.908C1011.05 294.022 996.354 298.828 986.19 301.197C954.388 308.609 917.411 306.001 883.467 305.01C859.263 304.303 854.746 301.434 836.888 298.426C787.448 290.098 764.054 272.516 716.064 258.003C700.209 253.208 691.683 248.744 675.306 246.264C656.42 243.406 640.274 243.977 621.888 249.15C596.709 256.234 583.069 271.273 569.987 291.483C559.395 307.847 558.248 334.628 558.248 334.628L563.091 333.053M1022.89 375.279L1015.12 375.122M1022.89 375.279L1045.24 375.279M949.127 536.992C949.127 536.992 933.866 549.697 925.855 561.059C909.926 583.652 902.52 598.205 903.314 629.052C903.871 650.721 902.924 670.178 915.395 692.927C938.031 734.218 971.032 762.33 1014.74 780.136C1028.54 785.757 1047.7 789.127 1058.36 790.688C1063.59 791.454 1068.78 793.013 1072.8 796.446C1075.63 798.856 1078.57 801.957 1079.76 805.184C1084.03 816.676 1068.85 828.832 1057.62 835.975C1050.47 840.523 1042.45 843.394 1034.2 845.335C1025.83 847.303 1014.78 849.686 1006.17 850.776C981.573 853.89 967.359 853.172 942.68 850.776C924.614 849.022 901.371 843.463 884.502 838.938C869.538 834.923 855.063 829.331 840.946 822.947L744.8 779.47C738.927 776.814 732.746 774.908 726.361 774.029C717.221 772.772 703.373 771.177 693.124 771.376C668.551 771.853 634.645 784.367 626.522 787.5C625.319 787.964 624.141 788.489 622.981 789.054L481.172 858.1C476.315 860.465 471.12 862.089 465.726 862.384C455.506 862.943 438.367 862.674 430.775 855.567C423.346 848.613 423.822 833.962 424.823 825.578C425.32 821.422 426.949 817.566 429.17 814.018C441.378 794.513 483.749 725.891 501.859 684.522C522.32 637.78 533.467 576.569 533.467 576.569L536.975 575.076M949.127 536.992L972.426 536.992M949.127 536.992L944.599 536.992M1015.12 375.122L1052.62 314.858C1053.82 312.935 1054.53 310.751 1054.69 308.492L1055.04 303.863C1055.22 301.404 1054.54 298.96 1053.11 296.949L1052.33 295.855C1050.86 293.783 1048.8 292.203 1046.42 291.322V291.322C1042.89 290.015 1038.99 290.065 1035.47 291.404C1025.23 295.297 1002.67 303.538 986.19 307.13C946.971 315.679 883.467 310.697 883.467 310.697C883.467 310.697 854.928 308.233 836.888 305.01C786.682 296.039 762.302 276.986 713.39 262.536C698.574 258.158 690.625 253.827 675.306 251.833C654.573 249.134 638.046 247.822 618.527 255.315C597.763 263.286 588.826 273.287 577.823 291.483C568.709 306.558 563.091 333.053 563.091 333.053M1015.12 375.122L1013.7 375.094M563.091 333.053L580.484 334.447C581.98 334.566 583.438 334.985 584.728 335.752C586.874 337.029 590.261 339.216 592.259 341.377C593.859 343.109 595.427 345.754 596.531 347.823C597.609 349.843 598.071 352.116 598.06 354.406L597.93 380.459M942.228 536.992C942.228 536.992 927.035 550.521 919.587 561.059C903.494 583.827 899.28 601.21 897.815 629.052C896.482 654.376 900.795 669.526 910.566 692.927C931.214 742.379 970.596 766.214 1012.94 785.017C1027.4 791.436 1040.05 793.794 1048.51 794.616C1055.68 795.313 1063.02 796.599 1069.01 800.606C1071.46 802.248 1073.66 803.932 1074.54 805.184C1081.37 814.976 1063.32 827.082 1053.08 832.908C1048.8 835.339 1044.2 837.089 1039.47 838.425C1031.05 840.8 1016.8 844.568 1006.17 846.089C981.999 849.548 967.946 848.466 943.643 846.089C921.814 843.953 891.73 835.487 874.309 830.151C864.914 827.273 855.743 823.794 846.695 819.963C839.491 816.913 831.075 813.312 825.856 810.953C794.996 797.003 770.831 782.382 735.954 771.089C719.957 765.91 709.934 766.285 693.124 766.668C674.174 767.1 648.747 774.538 634.846 779.092C628.059 781.316 621.505 784.152 615.083 787.277L479.851 853.073C476.449 854.728 472.837 855.923 469.081 856.372C460.369 857.413 443.873 858.537 436.439 853.416C428.36 847.851 429.417 833.883 430.979 825.32C431.845 820.577 433.955 816.246 436.568 812.195C449.261 792.516 489.301 728.938 507.765 682.068C523.833 641.281 536.975 575.076 536.975 575.076M942.228 536.992L944.599 536.992M942.228 536.992L939.786 536.992M536.975 575.076L572.732 576.296C578.003 576.476 583.377 575.614 587.697 572.589C589.065 571.632 590.37 570.566 591.327 569.464C593.454 567.015 595.104 562.962 596.074 560.146C596.787 558.08 597.055 555.899 597.066 553.713L597.187 529.568M2254.81 517.616L2254.81 487.622M2244.84 394.897L2144.94 393.07M2244.84 394.897L2244.84 403.964M2144.94 393.07L2146.68 519.879M2144.94 393.07L2138.03 392.944M2146.68 519.879L2139.48 520.044M2138.03 392.944L2139.48 520.044M2138.03 392.944L2048.42 391.304M2139.48 520.044L2048.42 522.143M2048.42 391.304L2048.42 522.143M2048.42 391.304L2040.92 391.167M2048.42 522.143L2042.14 522.288M2040.92 391.167L2042.14 522.288M2040.92 391.167L1956.52 389.623M2042.14 522.288L2014.24 522.931L1956.52 523.726M1956.52 389.623L1949.62 389.497M1956.52 389.623L1956.52 487.622L1956.52 491.11M1956.52 523.726L1949.62 523.821M1956.52 523.726L1956.52 491.11M1949.62 389.497L1869.8 388.037M1949.62 389.497L1949.62 420.653M1949.62 523.821L1869.8 524.919M1949.62 523.821L1949.62 512.771M1869.8 388.037L1869.8 524.919M1869.8 388.037L1862.19 387.898M1869.8 524.919L1862.19 525.024M1862.19 387.898L1854.58 387.758L1787.41 386.584M1862.19 387.898L1862.19 467.999M1862.19 525.024L1787.41 526.053M1862.19 525.024L1862.19 467.999M1787.41 386.584L1787.41 526.053M1787.41 386.584L1778.77 386.433M1787.41 526.053L1778.77 526.172M1778.77 386.433L1778.77 526.172M1778.77 386.433L1709.18 385.216M1778.77 526.172L1709.18 527.129M1709.18 385.216L1709.18 527.129M1709.18 385.216L1702.15 385.093M1709.18 527.129L1702.15 527.226M1702.15 385.093L1702.15 527.226M1702.15 385.093L1635.05 383.92M1702.15 527.226L1635.05 528.149M1635.05 383.92L1628.77 383.81M1635.05 383.92L1635.05 516.598M1635.05 528.149L1628.77 528.236M1635.05 528.149L1635.05 516.598M1628.77 383.81L1628.77 528.236M1628.77 383.81L1567.34 382.736M1628.77 528.236L1567.34 529.081M1567.34 382.736L1567.34 529.081M1567.34 382.736L1559.46 382.598M1567.34 529.081L1559.46 529.189M1559.46 382.598L1500.51 381.568M1559.46 382.598L1559.46 393.984M1559.46 529.189L1500.51 530M1559.46 529.189L1559.46 393.984M1500.51 381.568L1500.51 530M1500.51 381.568L1494.98 381.568M1500.51 530L1494.98 530M1494.98 381.568L1438.79 380.564M1494.98 381.568L1494.98 415.287M1494.98 530L1438.79 530.798M1494.98 530L1494.98 442.752M1438.79 380.564L1438.79 530.798M1438.79 380.564L1432.46 380.451M1438.79 530.798L1432.46 530.888M1432.46 380.451L1432.46 530.888M1432.46 380.451L1379.72 379.509M1432.46 530.888L1379.72 531.637M1379.72 379.509L1372.54 379.381M1379.72 379.509L1379.72 467.999M1379.72 531.637L1372.54 531.739M1379.72 531.637L1379.72 467.999M1372.54 379.381L1372.54 531.739M1372.54 379.381L1323.04 378.497M1323.04 378.497L1317.22 378.393M1317.22 378.393L1317.22 532.524M1317.22 378.393L1271.69 377.58M1317.22 532.524L1271.69 533.162M1271.69 377.58L1271.69 533.162M1271.69 377.58L1266.06 377.58M1271.69 533.162L1266.06 533.162M1266.06 377.58L1234.71 376.92L1222.71 376.721M1266.06 377.58L1266.06 533.162M1266.06 533.162L1222.71 533.782M1222.71 376.721L1216.38 376.616M1222.71 376.721L1222.71 494.64M1222.71 533.782L1216.38 533.872M1222.71 533.782L1222.71 522.18M1216.38 376.616L1216.38 533.872M1216.38 376.616L1176.04 375.948M1216.38 533.872L1176.04 534.449M1176.04 375.948L1176.04 534.449M1176.04 375.948L1168.26 375.819M1176.04 534.449L1168.26 534.561M1168.26 375.819L1168.26 415.287M1168.26 534.561L1131.39 535.088M1168.26 534.561L1168.26 415.287M1131.39 375.279L1131.39 535.088M1131.39 375.279L1126.2 375.279M1131.39 535.088L1126.2 535.162M1126.2 375.279L1090.5 375.279M1126.2 375.279L1126.2 442.752M1126.2 535.162L1090.5 535.673M1126.2 535.162L1126.2 442.752M1090.5 375.279L1090.5 535.673M1090.5 375.279L1084.97 375.279M1090.5 535.673L1084.97 535.752M1084.97 375.279L1084.97 535.752M1084.97 375.279L1051.48 375.279M1084.97 535.752L1051.48 536.231M1051.48 375.279L1051.48 536.231M1051.48 375.279L1045.24 375.279M1051.48 536.231L1045.24 536.32M1045.24 375.279L1045.24 536.32M1045.24 536.32L1013.7 536.772M1013.7 375.094L1013.7 536.772M1013.7 375.094L1007.5 374.969M1013.7 536.772L1007.5 536.86M1007.5 374.969L1007.5 536.86M1007.5 374.969L979.462 374.403M979.462 374.403L979.462 536.992M979.462 374.403L972.426 374.261M979.462 536.992L972.426 536.992M972.426 374.261L972.426 536.992M972.426 374.261L944.599 373.7M944.599 373.7L944.599 536.992M944.599 373.7L939.786 373.603M939.786 373.603L916.773 373.139C916.773 373.139 915.855 373.201 914.397 373.389M939.786 373.603L939.786 536.992M939.786 536.992L917.081 536.992C916.876 536.992 916.67 536.99 916.465 536.982C916.081 536.968 915.356 536.934 914.397 536.854M914.397 373.389L914.397 536.854M914.397 373.389C913.073 373.56 911.302 373.834 909.369 374.261M914.397 536.854C913.073 536.744 911.303 536.548 909.369 536.198M909.369 374.261C905.374 375.144 900.687 376.675 897.815 379.28C896.359 380.6 895.001 382.549 893.859 384.503M909.369 374.261L909.369 536.198M909.369 536.198C905.398 535.479 900.733 534.115 897.815 531.528C896.42 530.292 895.04 528.306 893.859 526.307M423.126 678.619C437.281 679.236 450.438 688.345 449.705 702.494C449.009 715.942 439.277 725.437 425.823 726.019M423.127 678.623C437.282 679.24 450.439 688.349 449.707 702.498C449.011 715.946 439.279 725.441 425.825 726.023M282.256 738.452C296.411 739.069 309.568 748.178 308.835 762.327C308.139 775.775 298.407 785.27 284.954 785.852M2381.14 369.405L2381.14 365.955M2381.14 369.405C2377.11 368.217 2373.12 367.062 2369.21 365.951M2381.14 369.405C2397.18 374.132 2413.93 379.361 2429.31 384.298M2381.14 365.955L2369.21 362.855M2381.14 365.955L2382.7 364.04C2383.34 363.263 2383.77 362.338 2383.95 361.351L2386.19 349.478M2369.21 362.855L2369.21 365.951M2369.21 362.855L2368.92 361.647C2368.42 359.602 2369.03 357.446 2370.53 355.965L2377.08 349.478M2386.19 349.478L2390.91 349.478C2391.91 349.478 2392.76 348.738 2392.89 347.747L2395.11 331.428C2395.16 331.095 2395.03 330.762 2394.78 330.541L2387.75 324.394C2387.12 323.842 2386.11 324.26 2386.05 325.096C2385.8 328.1 2385.16 333.744 2383.67 337.783C2381.85 342.716 2376.99 349.478 2376.99 349.478L2386.19 349.478ZM2446.03 377.746L2443.65 388.939M2446.03 377.746L2465.5 372.385C2466.52 372.106 2467.31 371.314 2467.6 370.299L2471.32 356.954C2471.61 355.917 2471.32 354.808 2470.55 354.064C2467.62 351.259 2460.05 344.349 2453.78 341.525C2445.64 337.866 2432.96 338.618 2428.48 339.029C2427.46 339.122 2426.59 339.759 2426.15 340.682L2419.03 355.714C2418.49 356.848 2418.72 358.197 2419.6 359.095L2434.99 374.84M2446.03 377.746L2434.99 374.84M2443.65 388.939C2469.81 397.479 2489.21 404.184 2489.21 404.184L2492.12 405.082M2443.65 388.939C2439.06 387.439 2434.25 385.884 2429.31 384.298M2434.99 374.84L2429.31 384.298M2496.53 395.727L2492.12 405.082M2496.53 395.727L2507.15 396.526M2496.53 395.727L2482.82 381.587C2482.02 380.76 2481.76 379.546 2482.16 378.464L2488.55 361.103C2488.95 360.008 2489.95 359.247 2491.11 359.174C2494.56 358.957 2501.97 358.621 2507.15 359.309C2516.57 360.558 2528.14 368.115 2532.14 370.903C2533.04 371.528 2533.49 372.608 2533.34 373.693L2531.3 388.17C2531.14 389.362 2530.27 390.339 2529.11 390.65L2507.15 396.526M2492.12 405.082L2507.15 409.704M2507.15 409.704L2507.15 396.526M2507.15 409.704L2553.77 424.04M2566.19 427.861L2600 438.259L2615.55 443.079M2566.19 427.861L2568.43 416.979M2566.19 427.861L2553.77 424.04M2568.43 416.979L2581.55 415.548C2582.5 415.444 2583.35 414.89 2583.82 414.056L2592.16 399.488C2592.71 398.543 2592.69 397.38 2592.1 396.468C2589.92 393.131 2584.29 385.07 2578.68 381.595C2571.41 377.093 2559.49 378.329 2555.29 378.949C2554.33 379.09 2553.53 379.725 2553.13 380.608L2546.52 395.178C2546.02 396.294 2546.24 397.606 2547.09 398.491L2560.58 412.589M2568.43 416.979L2560.58 412.589M2553.77 424.04L2560.58 412.589M2631.11 447.9L2633.64 439.27M2631.11 447.9L2615.55 443.079M2631.11 447.9L2678.03 462.44M2633.64 439.27L2619.16 434.16M2633.64 439.27L2636.7 431.605M2619.16 434.16L2615.55 443.079M2619.16 434.16L2623.07 428.028L2627.16 420.193M2627.16 420.193L2630.9 403.886C2631.02 403.38 2631.51 403.046 2632.02 403.12L2639.68 404.218C2640.21 404.293 2640.58 404.766 2640.54 405.295L2638.37 430.078C2638.29 430.942 2637.57 431.605 2636.7 431.605V431.605M2627.16 420.193C2627.16 420.193 2627.84 425.338 2630.06 428.028C2631.67 429.988 2636.7 431.605 2636.7 431.605M2692.37 466.884L2693.33 457.087M2692.37 466.884L2678.03 462.44M2693.33 457.087L2715.98 448.542C2717.02 448.147 2717.76 447.204 2717.89 446.095L2719.47 433.029C2719.58 432.129 2719.28 431.23 2718.63 430.599C2715.75 427.805 2707.26 419.997 2699.97 417.483C2691.75 414.651 2678.83 416.394 2674.17 417.169C2673.08 417.349 2672.21 418.137 2671.89 419.188L2666.56 436.516C2666.23 437.587 2666.52 438.752 2667.32 439.537L2680.9 452.905M2693.33 457.087L2680.9 452.905M2678.03 462.44L2680.9 452.905M568.385 350.932L352.377 350.932C346.223 350.932 340.347 353.499 336.167 358.016V358.016C332.388 362.099 330.289 367.457 330.289 373.02L330.289 502.828M568.385 557.005L568.385 560.571L559.948 564.321C557.391 565.458 554.624 566.045 551.826 566.045L330.289 566.045C330.289 566.045 322.701 565.308 319.342 562.282C314.624 558.031 315.237 546.546 315.237 546.546L315.237 526.692M568.385 557.005L568.385 348.096L558.72 345.657C556.96 345.213 555.152 344.988 553.337 344.988L342.377 344.988C337.836 344.988 333.289 345.744 329.304 347.921C325.713 349.883 321.49 352.705 319.342 356.001C316.086 360.998 315.237 370.711 315.237 370.711L315.237 388.282M568.385 557.005L347.736 557.005C344.461 557.005 341.252 556.084 338.476 554.345V554.345C333.383 551.156 330.289 545.569 330.289 539.559L330.289 502.828M315.237 388.282L367.104 388.282L367.104 401.005L315.237 401.005M315.237 388.282L315.237 401.005M315.237 401.005L315.237 450.039M369.256 450.039L315.237 450.039M369.256 450.039L369.256 463.694M369.256 450.039L369.256 427.079C369.256 426.498 369.749 426.04 370.328 426.082L395.383 427.895M315.237 450.039L315.237 463.694M369.256 463.694L315.237 463.694M369.256 463.694L369.256 486.407C369.256 486.944 369.68 487.385 370.217 487.406L394.889 488.38M315.237 463.694L315.237 512.727M372.69 512.727L315.237 512.727M372.69 512.727L372.69 526.692M372.69 512.727L372.69 492.004C372.69 491.452 373.138 491.004 373.69 491.004L397.763 491.004M315.237 512.727L315.237 526.692M372.69 526.692L315.237 526.692M372.69 526.692L373.76 551.185C373.783 551.72 374.223 552.141 374.759 552.141L397.763 552.141M395.383 366.213L398.096 366.395C398.621 366.43 399.029 366.867 399.029 367.393L399.029 424.953C399.029 425.525 398.55 425.98 397.979 425.952L395.383 425.822M395.383 366.213L395.383 392.508M395.383 366.213L391.497 365.951M395.383 392.508L414.333 392.508C414.885 392.508 415.333 392.956 415.333 393.508L415.333 398.36C415.333 398.912 414.885 399.36 414.333 399.36L395.383 399.36M395.383 392.508L391.497 392.508M395.383 399.36L395.383 425.822M395.383 399.36L391.497 399.36M395.383 425.822L391.497 425.822M391.497 365.951L369.005 364.437C368.433 364.399 367.946 364.848 367.938 365.421L367.118 423.456C367.11 423.991 367.526 424.437 368.06 424.468L391.497 425.822M391.497 365.951L391.497 392.508M391.497 392.508L385.307 392.508L385.307 399.36L391.497 399.36M391.497 399.36L391.497 425.822M399.029 428.159L402.874 428.437C403.397 428.475 403.802 428.91 403.802 429.434L403.802 487.691C403.802 488.259 403.33 488.713 402.762 488.691L399.029 488.543M399.029 428.159L399.029 455.582M399.029 428.159L395.383 427.895M399.029 455.582L414.333 455.582C414.885 455.582 415.333 456.03 415.333 456.582L415.333 460.627C415.333 461.18 414.885 461.627 414.333 461.627L399.029 461.627M399.029 455.582L395.383 455.582M399.029 461.627L399.029 488.543M399.029 461.627L394.889 461.627M399.029 488.543L394.889 488.38M395.383 427.895L395.383 455.582M395.383 455.582L390.748 455.582L390.748 461.627L394.889 461.627M394.889 461.627L394.889 488.38M402.012 491.004L406.408 491.004C406.972 491.004 407.424 491.47 407.408 492.034L405.649 551.171C405.633 551.712 405.19 552.141 404.649 552.141L402.012 552.141M402.012 491.004L402.012 518.857M402.012 491.004L397.763 491.004M402.012 518.857L413.325 518.857C413.878 518.857 414.325 519.305 414.325 519.857L414.325 523.5C414.325 524.052 413.878 524.5 413.325 524.5L402.012 524.5M402.012 518.857L397.763 518.857M402.012 524.5L402.012 552.141M402.012 524.5L397.763 524.5M402.012 552.141L397.763 552.141M397.763 491.004L397.763 518.857M397.763 518.857L395.383 518.857L395.383 524.5L397.763 524.5M397.763 524.5L397.763 552.141M612.821 696.179L666.912 654.019C667.088 653.882 667.304 653.808 667.527 653.808L673.179 653.808C673.731 653.808 674.179 654.256 674.179 654.808L674.179 659.305C674.179 659.619 674.031 659.915 673.78 660.104L616.218 703.374M612.821 696.179L609.49 693.665C608.687 693.059 607.559 693.143 606.855 693.862L586.702 714.456L586.702 720.344C586.702 721.81 587.762 723.062 589.209 723.303L593.258 723.978L615.303 709.741C615.874 709.372 616.218 708.739 616.218 708.06L616.218 703.374M612.821 696.179L616.218 703.374M2679.98 490.395C2681.4 489.397 2683.1 488.816 2684.95 488.853C2686.28 488.879 2687.52 489.238 2688.62 489.844M2679.98 490.395C2677.39 492.225 2675.76 495.455 2675.98 498.841C2676.21 502.256 2678.11 505.25 2680.9 506.693M2679.98 490.395C2679.98 490.395 2670.32 492.949 2669.84 497.84C2669.29 503.348 2680.9 506.693 2680.9 506.693M2680.9 506.693C2682.11 507.316 2683.48 507.65 2684.95 507.606C2686.31 507.566 2687.54 507.245 2688.62 506.693M2680.9 506.693L2420.08 506.693L2244.84 506.693M2688.62 506.693C2691.06 505.454 2692.73 503.052 2693.33 500.064C2694.13 496.007 2692.05 491.731 2688.62 489.844M2688.62 506.693C2688.62 506.693 2683.99 511.812 2679.98 512.889C2670.71 515.381 2660.53 506.849 2661 497.258C2661.46 487.792 2672 480.119 2680.9 483.374C2684.6 484.725 2688.62 489.844 2688.62 489.844M2616.64 471.048C2618.06 470.05 2619.76 469.469 2621.61 469.505C2622.94 469.532 2624.18 469.891 2625.28 470.497M2616.64 471.048C2614.04 472.878 2612.42 476.108 2612.64 479.494C2612.86 482.909 2614.76 485.903 2617.56 487.346M2616.64 471.048C2616.64 471.048 2606.97 473.601 2606.49 478.493C2605.95 484.001 2617.56 487.346 2617.56 487.346M2617.56 487.346C2618.76 487.969 2620.13 488.303 2621.61 488.259C2622.96 488.219 2624.2 487.898 2625.28 487.346M2617.56 487.346L2254.81 487.622M2625.28 487.346C2627.71 486.107 2629.39 483.705 2629.98 480.717C2630.79 476.66 2628.71 472.384 2625.28 470.497M2625.28 487.346C2625.28 487.346 2620.65 492.465 2616.64 493.542C2607.37 496.034 2597.19 487.502 2597.66 477.91C2598.12 468.445 2608.66 460.772 2617.56 464.027C2621.25 465.378 2625.28 470.497 2625.28 470.497M2551.44 451.701C2552.85 450.704 2554.56 450.122 2556.41 450.159C2557.73 450.185 2558.97 450.544 2560.08 451.151M2551.44 451.701C2548.84 453.531 2547.22 456.761 2547.44 460.147C2547.66 463.562 2549.56 466.555 2552.36 467.999M2551.44 451.701C2551.44 451.701 2541.77 454.255 2541.29 459.146C2540.75 464.654 2552.36 467.999 2552.36 467.999M2552.36 467.999C2553.56 468.622 2554.93 468.956 2556.41 468.912C2557.76 468.872 2558.99 468.551 2560.08 467.999M2552.36 467.999L2254.81 467.999M2560.08 467.999C2562.51 466.76 2564.19 464.358 2564.78 461.37C2565.59 457.313 2563.5 453.037 2560.08 451.151M2560.08 467.999C2560.08 467.999 2555.45 473.118 2551.44 474.195C2542.16 476.687 2531.99 468.156 2532.45 458.564C2532.91 449.099 2543.46 441.425 2552.36 444.68C2556.05 446.031 2560.08 451.151 2560.08 451.151M2490.16 431.724C2491.57 430.726 2493.28 430.145 2495.13 430.182C2496.45 430.208 2497.7 430.567 2498.8 431.173M2490.16 431.724C2487.56 433.554 2485.94 436.784 2486.16 440.17C2486.38 443.585 2488.28 446.579 2491.08 448.022M2490.16 431.724C2490.16 431.724 2480.49 434.278 2480.01 439.169C2479.47 444.677 2491.08 448.022 2491.08 448.022M2491.08 448.022C2492.28 448.645 2493.65 448.979 2495.13 448.935C2496.48 448.895 2497.71 448.574 2498.8 448.022M2491.08 448.022L2393.05 445.598L2244.84 445.598M2498.8 448.022C2501.23 446.783 2502.91 444.381 2503.5 441.393C2504.31 437.336 2502.22 433.06 2498.8 431.173M2498.8 448.022C2498.8 448.022 2494.17 453.141 2490.16 454.218C2480.88 456.71 2470.71 448.179 2471.17 438.587C2471.64 429.121 2482.18 421.448 2491.08 424.703C2494.77 426.054 2498.8 431.173 2498.8 431.173M2426.65 413.378C2428.07 412.38 2429.77 411.799 2431.62 411.836C2432.95 411.862 2434.19 412.221 2435.29 412.827M2426.65 413.378C2424.06 415.208 2422.43 418.439 2422.65 421.824C2422.88 425.239 2424.78 428.233 2427.57 429.676M2426.65 413.378C2426.65 413.378 2416.99 415.932 2416.51 420.823C2415.96 426.331 2427.57 429.676 2427.57 429.676M2427.57 429.676C2428.78 430.299 2430.15 430.633 2431.62 430.589M2431.62 430.589C2432.98 430.549 2434.21 430.228 2435.29 429.676M2431.62 430.589L2377.08 426.685L2244.84 425.407M2435.29 429.676C2437.73 428.437 2439.4 426.035 2440 423.047C2440.8 418.99 2438.72 414.714 2435.29 412.827M2435.29 429.676C2435.29 429.676 2430.66 434.795 2426.65 435.872C2417.38 438.364 2407.2 429.833 2407.67 420.241C2408.13 410.775 2418.67 403.102 2427.57 406.357C2431.27 407.708 2435.29 412.827 2435.29 412.827M2360.09 390.187C2361.5 389.189 2363.2 388.607 2365.05 388.644C2366.38 388.67 2367.62 389.03 2368.72 389.636M2360.09 390.187C2357.49 392.017 2355.86 395.247 2356.08 398.633C2356.31 402.048 2358.21 405.041 2361 406.485M2360.09 390.187C2360.09 390.187 2350.42 392.74 2349.94 397.632C2349.4 403.139 2361 406.485 2361 406.485M2361 406.485C2362.21 407.107 2363.58 407.442 2365.05 407.398M2365.05 407.398C2366.41 407.358 2367.64 407.036 2368.72 406.485M2365.05 407.398L2244.84 403.964M2368.72 406.485C2371.16 405.246 2372.83 402.843 2373.43 399.856C2374.23 395.799 2372.15 391.522 2368.72 389.636M2368.72 406.485C2368.72 406.485 2364.1 411.603 2360.09 412.681C2350.81 415.173 2340.64 406.641 2341.1 397.049C2341.56 387.584 2352.1 379.91 2361 383.165C2364.7 384.516 2368.72 389.636 2368.72 389.636M2244.84 403.964L1559.46 393.984M2244.84 403.964L2244.84 425.407M1559.46 393.984L893.859 384.503M893.859 384.503C893.416 385.262 893.005 386.023 892.633 386.747C891.063 389.81 890.476 393.251 890.476 396.693L890.476 467.999M893.859 384.503L597.93 380.459M597.93 380.459L333.409 380.459M597.93 380.459L597.778 410.991M2244.84 425.407L1949.62 420.653M2244.84 425.407L2244.84 445.598M1949.62 420.653L1494.98 415.287M1949.62 420.653L1949.62 445.598M1494.98 415.287L1168.26 415.287M1494.98 415.287L1494.98 442.752M1168.26 415.287L597.778 410.991M597.778 410.991L333.409 410.991M597.778 410.991L597.62 442.752M2244.84 445.598L1949.62 445.598M2244.84 445.598L2244.84 467.999M1949.62 445.598L1494.98 442.752M1949.62 445.598L1949.62 512.771M1494.98 442.752L1126.2 442.752M1126.2 442.752L597.62 442.752M597.62 442.752L333.409 442.752M597.62 442.752L597.187 529.568M2254.81 467.999L2244.84 467.999M2254.81 467.999L2254.81 487.622M2244.84 467.999L1862.19 467.999M2244.84 467.999L2244.84 506.693M1862.19 467.999L1379.72 467.999M1379.72 467.999L890.476 467.999M890.476 467.999L598.077 467.999L333.409 472.06M890.476 467.999L890.476 499.106M2254.81 487.622L1956.52 491.11M890.476 499.106L890.476 516.785C890.476 518.645 890.838 520.49 891.65 522.164C892.229 523.357 892.99 524.835 893.859 526.307M890.476 499.106L1222.71 494.64M890.476 499.106L330.289 502.828M1222.71 494.64L1590.25 493.263L1775.04 493.263L1956.52 491.11M1222.71 494.64L1222.71 522.18M2244.84 506.693L1949.62 512.771M1949.62 512.771L1635.05 516.598M893.859 526.307L1222.71 522.18M893.859 526.307L597.187 529.568M1222.71 522.18L1635.05 516.598M597.187 529.568L333.409 532.701M866.634 377.335L866.634 526.81L866.343 528.335C862.089 550.691 829.668 549.429 827.164 526.81V526.81L827.164 377.335V377.335C833.403 360.058 857.295 358.657 865.51 375.087L866.634 377.335ZM859.533 379.28L859.533 526.81L854.771 554.46C853.325 562.858 841.499 563.474 839.187 555.272L831.165 526.81L831.165 379.28L832.57 376.811C838.885 365.707 855.339 367.214 859.533 379.28V379.28ZM465.333 702.494C465.534 681.541 446.724 664.691 425.823 666.191C406.387 667.585 391.46 683.008 391.591 702.494C391.73 723.205 410.105 739.53 430.775 738.231C450.151 737.013 465.146 721.907 465.333 702.494ZM442.617 702.494C442.713 689.539 431.852 677.566 418.696 678.619C406.476 679.597 398.228 690.236 398.318 702.494C398.407 714.649 406.58 725.049 418.696 726.019C431.756 727.065 442.522 715.352 442.617 702.494ZM465.335 702.498C465.536 681.545 446.725 664.695 425.825 666.195C406.389 667.589 391.462 683.012 391.592 702.498C391.732 723.209 410.107 739.534 430.777 738.235C450.153 737.017 465.148 721.911 465.335 702.498ZM442.619 702.498C442.715 689.543 431.854 677.57 418.697 678.623C406.478 679.601 398.23 690.241 398.32 702.498C398.408 714.653 406.582 725.053 418.697 726.023C431.758 727.07 442.524 715.356 442.619 702.498ZM324.463 762.327C324.664 741.374 305.854 724.524 284.954 726.023C265.517 727.418 250.59 742.841 250.721 762.327C250.86 783.037 269.236 799.363 289.906 798.064C309.281 796.846 324.277 781.74 324.463 762.327ZM301.748 762.327C301.843 749.371 290.983 737.399 277.826 738.452C265.607 739.43 257.359 750.069 257.448 762.327C257.537 774.481 265.71 784.882 277.826 785.852C290.887 786.898 301.653 775.185 301.748 762.327ZM461.177 553.004C466.982 555.961 473.501 556.064 479.241 555.12C489.694 553.4 496.634 544.289 499.943 534.226L546.114 393.789C548.895 385.331 549.24 375.974 544.496 368.439C541.174 363.163 536.456 357.801 530.363 356.001C526.992 355.004 523.371 354.656 519.843 354.692C506.96 354.823 497.451 365.383 493.379 377.607L447.821 514.379C444.476 524.422 444.649 535.698 451.177 544.031C454.029 547.672 457.442 551.102 461.177 553.004ZM2696.98 498.841C2697.44 488.098 2688.76 479.528 2678.03 478.864C2666.29 478.138 2655.37 488.362 2656.62 500.064C2657.75 510.712 2667.35 517.877 2678.03 517.187C2688.31 516.524 2696.54 509.131 2696.98 498.841ZM2633.64 479.494C2634.09 468.751 2625.42 460.181 2614.69 459.517C2602.94 458.791 2592.03 469.015 2593.27 480.717C2594.41 491.365 2604 498.53 2614.69 497.84C2624.97 497.176 2633.2 489.784 2633.64 479.494ZM2568.43 460.147C2568.89 449.404 2560.22 440.834 2549.49 440.17C2537.74 439.444 2526.83 449.668 2528.07 461.37C2529.2 472.018 2538.8 479.183 2549.49 478.493C2559.76 477.829 2567.99 470.437 2568.43 460.147ZM2507.15 440.17C2507.61 429.427 2498.94 420.857 2488.21 420.193C2476.46 419.467 2465.55 429.691 2466.79 441.393C2467.92 452.041 2477.52 459.206 2488.21 458.516C2498.48 457.853 2506.71 450.46 2507.15 440.17ZM2443.65 421.824C2444.11 411.081 2435.43 402.511 2424.7 401.847C2412.96 401.121 2402.04 411.345 2403.29 423.047C2404.42 433.695 2414.02 440.86 2424.7 440.17C2434.98 439.507 2443.21 432.114 2443.65 421.824ZM2377.08 398.633C2377.54 387.89 2368.87 379.319 2358.13 378.656C2346.39 377.929 2335.48 388.154 2336.72 399.856C2337.85 410.503 2347.45 417.669 2358.13 416.979C2368.41 416.315 2376.64 408.923 2377.08 398.633Z" stroke="white"/>
<circle cx="449.757" cy="837.291" r="7.55596" transform="rotate(90 449.757 837.291)" stroke="white"/>
<circle cx="552.241" cy="603.422" r="7.55596" transform="rotate(90 552.241 603.422)" stroke="white"/>
<circle cx="540.421" cy="470.398" r="7.55596" transform="rotate(90 540.421 470.398)" stroke="white"/>
<circle cx="474.96" cy="384.243" r="7.55596" transform="rotate(90 474.96 384.243)" stroke="white"/>
<circle cx="438.639" cy="503.759" r="7.55596" transform="rotate(90 438.639 503.759)" stroke="white"/>
<circle cx="337.374" cy="380.767" r="4.16492" transform="rotate(90 337.374 380.767)" stroke="white"/>
<circle cx="337.374" cy="410.569" r="4.16492" transform="rotate(90 337.374 410.569)" stroke="white"/>
<circle cx="337.374" cy="441.638" r="4.16492" transform="rotate(90 337.374 441.638)" stroke="white"/>
<circle cx="337.374" cy="472.706" r="4.16492" transform="rotate(90 337.374 472.706)" stroke="white"/>
<circle cx="337.374" cy="503.76" r="4.16492" transform="rotate(90 337.374 503.76)" stroke="white"/>
<circle cx="337.374" cy="534.813" r="4.16492" transform="rotate(90 337.374 534.813)" stroke="white"/>
<circle cx="645.796" cy="757.496" r="7.55596" transform="rotate(90 645.796 757.496)" stroke="white"/>
<circle cx="810.874" cy="782.951" r="7.55596" transform="rotate(90 810.874 782.951)" stroke="white"/>
<circle cx="685.115" cy="647.049" r="9.60324" transform="rotate(90 685.115 647.049)" stroke="white"/>
<circle cx="848.092" cy="558.29" r="5.14284" transform="rotate(90 848.092 558.29)" stroke="white"/>
<circle cx="848.092" cy="354.477" r="5.14284" transform="rotate(90 848.092 354.477)" stroke="white"/>
<circle cx="1052.32" cy="812.527" r="7.55596" transform="rotate(90 1052.32 812.527)" stroke="white"/>
<circle cx="890.671" cy="580.036" r="7.55596" transform="rotate(90 890.671 580.036)" stroke="white"/>
<circle cx="959.58" cy="455.948" r="8.28763" transform="rotate(90 959.58 455.948)" stroke="white"/>
<circle cx="1030.29" cy="455.948" r="8.28763" transform="rotate(90 1030.29 455.948)" stroke="white"/>
<circle cx="1108.35" cy="455.948" r="8.28763" transform="rotate(90 1108.35 455.948)" stroke="white"/>
<circle cx="1196.64" cy="455.948" r="8.28763" transform="rotate(90 1196.64 455.948)" stroke="white"/>
<circle cx="1349.8" cy="494.473" r="8.28763" transform="rotate(90 1349.8 494.473)" stroke="white"/>
<circle cx="1349.8" cy="418.224" r="8.28763" transform="rotate(90 1349.8 418.224)" stroke="white"/>
<circle cx="1531.4" cy="456.187" r="8.28763" transform="rotate(90 1531.4 456.187)" stroke="white"/>
<circle cx="1670.52" cy="455.498" r="8.28763" transform="rotate(90 1670.52 455.498)" stroke="white"/>
<circle cx="1825.6" cy="455.498" r="8.28763" transform="rotate(90 1825.6 455.498)" stroke="white"/>
<circle cx="2000.17" cy="455.498" r="8.28763" transform="rotate(90 2000.17 455.498)" stroke="white"/>
<circle cx="1034.43" cy="309.022" r="7.55596" transform="rotate(90 1034.43 309.022)" stroke="white"/>
<circle cx="790.928" cy="310.203" r="7.55596" transform="rotate(90 790.928 310.203)" stroke="white"/>
<circle cx="584.788" cy="314.143" r="7.55596" transform="rotate(90 584.788 314.143)" stroke="white"/>
<circle cx="530.406" cy="385.311" r="6.48483" transform="rotate(90 530.406 385.311)" stroke="white"/>
<circle cx="520.32" cy="414.733" r="6.48483" transform="rotate(90 520.32 414.733)" stroke="white"/>
<circle cx="511.75" cy="445.491" r="6.48483" transform="rotate(90 511.75 445.491)" stroke="white"/>
<circle cx="501.664" cy="475.406" r="6.48483" transform="rotate(90 501.664 475.406)" stroke="white"/>
<circle cx="492.585" cy="504.828" r="6.48483" transform="rotate(90 492.585 504.828)" stroke="white"/>
<circle cx="483.343" cy="535.754" r="6.48483" transform="rotate(90 483.343 535.754)" stroke="white"/>
<circle cx="457.296" cy="527.017" r="6.48483" transform="rotate(90 457.296 527.017)" stroke="white"/>
<circle cx="466.156" cy="497.271" r="6.48483" transform="rotate(90 466.156 497.271)" stroke="white"/>
<circle cx="475.57" cy="467.047" r="6.48483" transform="rotate(90 475.57 467.047)" stroke="white"/>
<circle cx="486.109" cy="439.004" r="6.48483" transform="rotate(90 486.109 439.004)" stroke="white"/>
<circle cx="495.179" cy="408.246" r="6.48483" transform="rotate(90 495.179 408.246)" stroke="white"/>
<circle cx="505.265" cy="377.754" r="6.48483" transform="rotate(90 505.265 377.754)" stroke="white"/>
<path d="M372.219 364.071C372.219 358.235 367.119 352.711 361.283 352.711C355.447 352.711 350.716 357.442 350.716 363.278C350.716 369.114 355.447 373.845 361.283 373.845C367.119 373.845 367.7 372.594 367.7 372.594" stroke="white"/>
<path d="M366.886 419.224C364.993 417.435 362.44 416.339 359.63 416.339C353.794 416.339 349.063 421.07 349.063 426.906C349.063 432.742 353.794 437.473 359.63 437.473C362.026 437.473 364.235 436.676 366.007 435.333L369.039 432.153" stroke="white"/>
<path d="M370.07 487.792C370.07 493.628 365.482 499.595 359.646 499.595C353.81 499.595 349.079 494.864 349.079 489.028C349.079 483.192 353.81 478.461 359.646 478.461C363.171 478.461 367.109 480.969 369.028 483.622" stroke="white"/>
<path d="M354.269 556.678C351.97 554.74 349.061 551.072 349.061 547.829C349.061 541.993 353.792 537.262 359.628 537.262C365.464 537.262 370.195 541.993 370.195 547.829C370.195 550.791 368.976 553.469 367.013 555.388L365.256 556.678" stroke="white"/>
</svg>
