<svg width="2636" height="846" viewBox="0 0 2636 846" fill="none" xmlns="http://www.w3.org/2000/svg">
<path d="M2606.98 322.798L2614.38 325.031M2606.98 322.798L2596.11 317.754C2592.22 315.946 2587.82 315.586 2583.69 316.742C2571.19 320.237 2543.36 327.997 2527.47 332.255C2523.55 333.303 2520.21 334.184 2517.04 334.992M2606.98 322.798C2606.98 322.798 2583.24 325.544 2571.12 328.588C2549.69 333.971 2533.78 341.354 2512.19 346.051C2496.2 349.531 2493.19 350.304 2480.66 351.645M2614.38 325.031C2614.38 325.031 2613.95 330.321 2614.38 333.663C2615.16 339.592 2617.37 342.523 2619.81 347.978C2624.2 357.752 2629.48 362.442 2632.05 372.84C2634.25 381.728 2636.37 386.835 2633.64 395.119C2632.95 397.206 2631.6 399.576 2630.3 401.589C2628.32 404.641 2624.91 406.36 2621.28 406.596L2604.27 407.706C2604.27 407.706 2603.27 401.554 2600.57 399.068C2596.1 394.955 2588.96 395.119 2585.02 399.068C2578.79 405.291 2575.86 410.178 2574.16 418.812C2573.65 421.386 2573.27 424.175 2573.12 426.986M2614.38 325.031C2614.38 325.031 2605.93 325.766 2600.57 326.581C2588.87 328.358 2584.01 329.603 2572.52 332.407C2563.14 334.696 2557.95 336.973 2548.52 339.59C2536.31 342.981 2529.5 345.133 2517.04 347.459C2503.52 349.984 2480.66 351.645 2480.66 351.645M2602.63 436.336C2602.63 436.336 2592.07 451.141 2583.66 449.046C2574.79 446.837 2572.6 436.776 2573.12 426.986M2602.63 436.336L2622.04 436.336M2602.63 436.336L2573.12 426.986M2622.04 436.336L2622.3 436.651C2625.28 440.253 2626.68 444.93 2625.87 449.537C2625.35 452.516 2624.66 455.882 2623.85 458.532C2619.96 471.267 2606.98 488.166 2606.98 488.166C2606.98 488.166 2597.97 497.154 2594.15 504.208C2591.65 508.812 2589.43 516.178 2588.71 518.662C2588.57 519.148 2588.11 519.457 2587.61 519.383C2582.9 518.68 2559.89 515.204 2545.11 512.141C2528.22 508.641 2512.41 502.158 2496.33 500.62M2622.04 436.336L2596.74 426.986L2590.08 425.811L2573.12 426.986M2415.8 502.042C2439.39 499.814 2452.39 500.135 2477.54 500.255M2415.8 502.042C2415.8 502.042 2417.53 506.804 2415.8 508.798C2415.04 509.675 2413.29 510.387 2413.29 510.387M2415.8 502.042C2406.19 502.95 2398.16 503.841 2390.78 504.873M2151.62 500.259C2151.62 500.259 2188.87 496.024 2211.59 501.74C2222.45 504.471 2228.39 506.808 2238.5 511.613C2253.86 518.916 2273.65 535.061 2278.57 539.162C2279.26 539.733 2280.22 539.789 2280.97 539.303C2284.13 537.247 2292.51 531.851 2297.73 529.136C2299.28 528.33 2300.78 527.595 2302.24 526.92C2306.58 524.915 2310.58 523.445 2314.52 522.237M2151.62 500.259L2150.34 502.297L2143.37 502.297M2151.62 500.259L2152.39 492.631M2339 342.492C2358.92 346.477 2370.5 346.377 2390.78 347.459C2390.78 347.459 2423.75 349.022 2444.78 347.459C2465.61 345.911 2497.69 339.59 2497.69 339.59C2499.94 339.086 2502 338.618 2503.95 338.168M2339 342.492C2339 342.492 2347.8 345.781 2353.57 347.459C2371.03 352.535 2381.52 352.655 2399.64 354.164C2428.67 356.581 2445.32 355.191 2474.31 352.298C2476.69 352.06 2478.78 351.846 2480.66 351.645M2339 342.492L2340.27 331.537M2339 342.492C2337.51 342.194 2336.11 341.93 2334.78 341.682M2297.43 327.548C2297.43 327.548 2306.62 333.114 2314.01 336.17C2321.91 339.435 2327.3 340.29 2334.78 341.682M2297.43 327.548L2284.77 317.592C2284.01 316.992 2282.93 317.023 2282.2 317.666C2278.85 320.63 2269.47 328.849 2262.64 334.041C2245.99 346.689 2236.1 353.459 2217.11 362.195C2197.73 371.113 2165.01 378.649 2165.01 378.649L2149.47 382.796L2052.26 382.796M2297.43 327.548L2284.79 340.658C2284.79 340.658 2267.6 356.241 2254.83 363.6C2237.96 373.319 2227.11 376.93 2208.01 380.689C2196.66 382.923 2176.1 383.152 2162.93 383.033M2297.43 327.548L2285.27 331.386C2284.96 331.485 2284.68 331.65 2284.45 331.885C2281.99 334.376 2266.73 349.627 2254.83 357.259C2245.89 362.993 2240.43 365.575 2230.64 369.691C2211.17 377.876 2178.17 382.796 2178.17 382.796M2047.59 382.796L2052.26 382.796M2047.59 382.796L1957.82 382.796M2047.59 382.796L2042.34 475.289M846.209 378.123L846.209 374.026M846.209 378.123L878.197 378.123M846.209 378.123L852.385 465.881M846.209 374.026L970.921 375.063M846.209 374.026L846.209 362.052C846.209 360.396 844.866 359.052 843.209 359.052L756.444 359.052C755.344 359.052 754.251 359.269 753.279 359.782C752.413 360.239 751.357 360.862 750.65 361.501V361.501C748.12 363.788 747.796 367.547 748.112 370.943L757.092 467.52M1084.7 376.01L1154.88 378.49M1084.7 376.01C1084.7 376.01 1055.18 373.753 1047.25 365.797C1037.22 355.744 1022.86 353.992 1022.86 353.992C1022.86 353.992 1002.3 341.036 992.156 329.538C975.472 310.619 972.177 294.688 972.219 270.267C972.266 243.766 980.685 228.361 995.928 206.683C1004.21 194.911 1021.07 176.71 1021.07 176.71M1084.7 376.01L999.654 375.302M1154.88 378.49L1162.01 378.518M1154.88 378.49L1126.03 378.378M1951.4 505.888L2040.7 504.165M1951.4 505.888L1957.82 382.796M1951.4 505.888L1945.48 505.888M2143.37 502.297L2045.35 504.081M2143.37 502.297L2148.98 436.311M2340.27 331.537L2334.78 331.537M2340.27 331.537C2340.27 331.537 2351.06 331.829 2350.56 327.548C2350.27 325.08 2348.24 322.449 2348.24 322.449M2334.78 331.537L2334.78 341.682M2334.78 331.537L2326.72 331.537C2326.72 331.537 2323.84 329.524 2323.47 327.548C2322.88 324.352 2328.89 321.229 2328.89 321.229M2328.89 321.229L2345.14 321.229L2348.24 322.449M2328.89 321.229L2318.13 312.7C2316.66 311.529 2315.82 309.733 2315.86 307.849L2316.57 279.421C2316.6 278.519 2317.21 277.748 2318.09 277.552C2322.66 276.539 2336.81 273.696 2346.41 275.004C2353.32 275.945 2362.75 279.7 2366.38 281.222C2367.26 281.592 2367.73 282.541 2367.52 283.473L2361.48 309.859C2361.19 311.144 2360.48 312.297 2359.46 313.139L2348.24 322.449M2426.93 347.459L2426.93 333.519M2426.93 333.519L2419.23 333.519M2426.93 333.519L2433.6 333.519C2434.25 333.519 2434.86 333.207 2435.19 332.653C2435.91 331.463 2437.06 329.274 2436.96 327.548C2436.84 325.363 2434.64 322.449 2434.64 322.449M2419.23 333.519L2419.23 347.459M2419.23 333.519L2414.81 333.519C2414.43 333.519 2414.05 333.408 2413.74 333.179C2412.54 332.303 2409.56 329.875 2409.74 327.548C2409.95 324.906 2414.22 322.449 2414.22 322.449M2434.64 322.449L2414.22 322.449M2434.64 322.449L2445.01 313.141C2445.95 312.296 2446.6 311.175 2446.86 309.938L2452.56 283.449C2452.76 282.527 2452.29 281.596 2451.42 281.232C2447.51 279.591 2436.63 275.325 2428.73 275.004C2420.01 274.65 2407.65 278.792 2403.68 280.217C2402.9 280.497 2402.4 281.234 2402.4 282.06L2402.4 310.053C2402.4 311.869 2403.22 313.586 2404.64 314.725L2414.22 322.449M2517.04 333.936C2517.04 333.936 2523.89 333.428 2524.13 330.332C2524.26 328.543 2522.16 326.181 2522.16 326.181M2517.04 333.936L2517.04 334.992M2517.04 333.936L2502.28 333.936M2498.79 326.181C2498.79 326.181 2493.95 327.852 2493.98 330.332C2494 331.735 2496.68 333.367 2497.47 333.816C2497.61 333.897 2497.77 333.936 2497.94 333.936L2502.28 333.936M2498.79 326.181L2522.16 326.181M2498.79 326.181L2490.66 316.075C2489.84 315.05 2489.37 313.782 2489.34 312.467L2488.67 285.614C2488.64 284.682 2489.26 283.862 2490.17 283.65C2494.92 282.543 2509.65 279.414 2519.38 280.689C2526.98 281.683 2536.33 285.555 2539.96 287.151C2540.85 287.544 2541.3 288.531 2541.04 289.47L2533.35 316.948C2532.97 318.325 2532.1 319.52 2530.91 320.316L2522.16 326.181M2517.04 334.992C2512.68 336.106 2508.65 337.082 2503.95 338.168M2502.28 333.936L2503.95 338.168M2496.33 500.62C2494.08 500.404 2491.83 500.286 2489.56 500.286C2485.24 500.286 2481.26 500.273 2477.54 500.255M2496.33 500.62L2505.31 510.421C2506.32 511.527 2506.88 512.973 2506.88 514.473L2506.88 542.28C2506.88 543.162 2506.31 543.936 2505.46 544.164C2500.96 545.371 2486.76 548.754 2477.54 546.212C2470.21 544.193 2461.26 537.127 2458.41 534.763C2457.83 534.287 2457.6 533.53 2457.77 532.805L2463.01 511.204C2463.39 509.663 2464.36 508.332 2465.71 507.504L2477.54 500.255M2390.78 504.873C2374.65 507.13 2361.66 510.061 2342.16 515.315C2337.06 516.688 2332.53 517.721 2328.29 518.703M2390.78 504.873L2393.31 508.425M2413.29 510.387L2410.78 511.977C2410.78 511.977 2400.11 515.956 2395.85 511.977C2394.6 510.814 2393.31 508.425 2393.31 508.425M2413.29 510.387L2421.72 519.393C2422.84 520.597 2423.42 522.21 2423.32 523.856L2421.62 551.902C2421.57 552.743 2421.01 553.457 2420.19 553.666C2416.01 554.736 2402.95 557.644 2393.31 555.019C2386.68 553.211 2376.65 547.79 2373.02 545.764C2372.21 545.313 2371.84 544.364 2372.1 543.477L2378.25 522.923C2378.57 521.848 2379.19 520.885 2380.03 520.143L2393.31 508.425M2328.29 518.703L2328.29 521.278M2328.29 518.703C2323.49 519.81 2319.05 520.851 2314.52 522.237M2328.29 521.278L2314.52 522.237M2328.29 521.278L2326.68 522.849C2326.68 522.849 2322.82 528.003 2320.35 532.736M2314.52 522.237C2314.52 522.237 2307.5 527.92 2302.24 531.56M2328.69 521.278V521.278C2330.36 522.237 2331.32 524.072 2331.16 525.987L2328.73 555.064C2328.71 555.354 2328.62 555.635 2328.47 555.888L2323.95 563.81C2323.6 564.434 2322.93 564.819 2322.22 564.819L2317.7 564.819M2317.7 564.819L2301.83 564.819C2300.66 564.819 2299.75 563.828 2299.84 562.666L2301.04 546.862C2301.04 546.862 2302.24 537.536 2302.24 531.56M2317.7 564.819C2317.7 564.819 2319.31 544.393 2320.35 532.736M2320.35 532.736C2313.08 532.736 2309.46 532.443 2302.24 531.56M2162.93 383.033L2162.93 387.767M2162.93 383.033C2158.04 382.989 2152.66 382.852 2150.65 382.796L2153.11 387.767M2162.93 387.767L2153.11 387.767M2162.93 387.767L2162.09 396.078M2153.11 387.767L2148.98 436.311M2160.54 411.546C2160.54 411.546 2208.96 409.23 2235.13 422.252C2239.53 424.438 2244.02 425.687 2247.99 427.062M2160.54 411.546L2160.01 416.821M2160.54 411.546L2162.09 396.078M2154.26 474.008C2154.26 474.008 2174.54 472.326 2186.12 470.603C2202.19 468.211 2224.54 461.661 2224.54 461.661C2224.54 461.661 2261.75 455.412 2260.63 440.466C2260.01 432.117 2254.76 429.407 2247.99 427.062M2154.26 474.008L2156.05 456.156M2154.26 474.008L2152.39 492.631M2052.26 382.796L2045.35 504.081M2045.35 504.081L2040.7 504.165M2040.7 504.165L2042.34 475.289M1957.82 382.796L1951.4 382.796M1951.4 382.796L1867.73 382.796M1951.4 382.796L1947.75 458.683M1945.48 505.888L1863.62 507.187M1945.48 505.888L1947.75 458.683M1867.73 382.796L1863.62 507.187M1867.73 382.796L1861.58 382.796M1863.62 507.187L1856.97 507.293M1861.58 382.796L1822.09 382.796L1783.29 382.477M1861.58 382.796L1856.97 507.293M1856.97 507.293L1778.94 508.531M1783.29 382.477L1776.62 382.422M1783.29 382.477L1781.44 436.311M1778.94 508.531L1773.55 508.617M1778.94 508.531L1781.44 436.311M1776.62 382.422L1703.48 381.82M1776.62 382.422L1774.76 458.683M1773.55 508.617L1701.42 509.762M1773.55 508.617L1774.76 458.683M1703.48 381.82L1701.42 509.762M1703.48 381.82L1697.07 381.768M1701.42 509.762L1697.07 509.831M1697.07 381.768L1697.07 509.831M1697.07 381.768L1628.03 381.2M1697.07 509.831L1669.99 510.261L1626.76 511.161M1628.03 381.2L1622.12 381.151M1628.03 381.2L1626.85 501.634M1626.76 511.161L1622.12 511.257M1626.76 511.161L1626.85 501.634M1622.12 381.151L1622.12 511.257M1622.12 381.151L1557.71 380.621M1622.12 511.257L1557.71 512.598M1557.71 380.621L1557.71 512.598M1557.71 380.621L1552.06 380.575M1557.71 512.598L1552.06 512.716M1552.06 380.575L1552.06 512.716M1552.06 380.575L1493.29 380.092M1552.06 512.716L1493.29 513.939M1493.29 380.092L1493.29 513.939M1493.29 380.092L1485.59 380.028M1493.29 513.939L1486.9 514.073M1485.59 380.028L1430.41 379.574M1485.59 380.028L1486.9 461.394M1486.9 514.073L1430.41 515.249M1486.9 514.073L1486.9 461.394M1430.41 379.574L1427.07 379.547L1424.77 379.538M1430.41 379.574L1430.41 503.724M1430.41 515.249L1424.77 515.366M1430.41 515.249L1430.41 503.724M1424.77 379.538L1424.77 515.366M1424.77 379.538L1371.9 379.333M1424.77 515.366L1373.7 516.429M1371.9 379.333L1366 379.31M1371.9 379.333L1372.68 439.134M1373.7 516.429L1368.3 516.542M1373.7 516.429L1372.68 439.134M1366 379.31L1368.3 516.542M1366 379.31L1315.44 379.113M1368.3 516.542L1338.3 517.166L1318.77 517.518M1315.44 379.113L1318.77 517.518M1315.44 379.113L1309.54 379.09M1318.77 517.518L1313.37 517.615M1309.54 379.09L1264.11 378.914M1309.54 379.09L1309.96 394.349M1313.37 517.615L1267.18 518.448M1313.37 517.615L1309.96 394.349M1264.11 378.914L1267.18 518.448M1264.11 378.914L1256.92 378.886M1267.18 518.448L1262.32 518.536M1256.92 378.886L1215.6 378.726M1256.92 378.886L1258.39 416.821M1262.32 518.536L1218.68 519.322M1262.32 518.536L1258.39 416.821M1215.6 378.726L1218.68 519.322M1215.6 378.726L1209.44 378.702M1218.68 519.322L1213.57 519.414M1209.44 378.702L1213.57 519.414M1209.44 378.702L1169.15 378.545M1213.57 519.414L1174.29 520.122M1169.15 378.545L1174.29 520.122M1169.15 378.545L1162.01 378.518M1174.29 520.122L1169.15 520.215M1162.01 378.518L1166.29 463.51M1169.15 520.215L1130.64 520.909M1169.15 520.215L1166.29 463.51M1126.03 378.378L1130.64 520.909M1126.03 378.378L1120.13 378.355M1130.64 520.909L1126.03 520.992M1120.13 378.355L1122.44 452.542L1126.03 520.992M1120.13 378.355L1084.7 378.217M1126.03 520.992L1090.8 521.627M1084.7 378.217L1087.53 456.421L1090.3 511.569M1084.7 378.217L1078 378.191M1090.8 521.627L1084.7 521.737M1090.8 521.627L1090.3 511.569M1078 378.191L1060.47 378.123L1045.47 378.123M1078 378.191L1084.7 521.737M1084.7 521.737L1052.37 522.32M1045.47 378.123L1052.37 522.32M1045.47 378.123L1039.55 378.123M1052.37 522.32L1047.12 522.415M1039.55 378.123L1047.12 522.415M1039.55 378.123L1010.31 378.123M1047.12 522.415L1017.19 522.954M1010.31 378.123L1017.19 522.954M1010.31 378.123L1003.4 378.123M1017.19 522.954L1012.27 523.043M1003.4 378.123L975.472 378.123M1003.4 378.123L1008.77 465.881M1012.27 523.043L1001.53 523.236M1012.27 523.043L1008.77 465.881M975.472 378.123L983.683 523.558M975.472 378.123L969.228 378.123M983.683 523.558L980.874 523.609L979.077 523.644M983.683 523.558L992.608 523.397M969.228 378.123L979.077 523.644M969.228 378.123L942.937 378.123M979.077 523.644L952.481 524.159M979.077 523.644C979.077 523.644 971.993 530.064 968.548 534.832C957.648 549.915 953.638 560.155 950.989 579.139C948.319 598.268 950.434 612.157 956.249 630.575C960.676 644.599 965.36 651.821 973.635 663.979C983.489 678.458 1002.84 695.745 1008.97 701.067C1010.25 702.173 1011.46 703.327 1012.6 704.566V704.566C1016.73 709.032 1020.32 714.854 1018.38 720.616C1017.93 721.925 1017.27 723.173 1016.3 724.203C1011.63 729.153 1006.91 733.292 1000.15 734.061C985.543 735.723 980.386 733.933 962.688 730.428C930.364 724.028 907.922 707.341 876.7 696.806C845.429 686.255 827.605 678.01 794.631 676.649C767.315 675.521 751.432 677.722 725.16 685.288C697.771 693.175 667.131 715.875 647.821 731.968C634.869 742.761 619.464 750.692 602.616 751.29C581.683 752.033 552.608 750.741 533.408 740.286C508.4 726.669 490.243 687.514 490.243 687.514C490.243 687.514 514.394 666.689 525.388 651.452C538.425 633.385 543.955 621.086 548.424 599.259C551.138 586.004 550.944 564.704 550.944 564.704M942.937 378.123L952.481 524.159M942.937 378.123L937.351 378.123M952.481 524.159L946.896 524.267M937.351 378.123L912.375 378.123M937.351 378.123L939.878 416.821M946.896 524.267L922.234 524.879M946.896 524.267L939.878 416.821M912.375 378.123L922.234 524.879M912.375 378.123L906.131 378.123M922.234 524.879L915.322 524.879M906.131 378.123L915.322 524.879M906.131 378.123L883.456 378.123M915.322 524.879L892 525.827M2534.87 383.71C2539.56 383.353 2543.32 387.426 2543.48 392.128C2543.65 396.997 2539.72 401.516 2534.87 401.147C2533.01 401.007 2531.41 400.238 2530.18 399.068M2534.87 383.71C2534.87 383.71 2532.79 379.282 2530.18 377.302M2534.87 383.71C2534.12 383.768 2533.41 383.925 2532.75 384.167M2534.87 383.71L2546.77 382.594M883.456 378.123L892 525.827M883.456 378.123L878.197 378.123M892 525.827L888.385 525.827M878.197 378.123L888.385 525.827M888.385 525.827L866.413 525.827L866.413 522.421L859.776 522.421M1021.07 176.71L1021.07 143.195L1021.07 137.787C1021.07 137.787 1024.16 137.084 1027.18 137.298M1021.07 176.71C1021.07 176.71 1030.92 180.917 1032.05 176.673C1032.37 175.449 1032.35 175.616 1032.05 174.388C1031.4 171.779 1027.18 172.807 1027.18 172.807L1027.18 165.312M1027.18 149.96L1027.18 143.195C1027.18 143.195 1029.66 143.433 1030.91 143.195C1032.94 142.805 1032.68 140.028 1032.05 139.242C1031 137.943 1029.11 137.434 1027.18 137.298M1027.18 149.96L1027.18 163.659L1027.18 165.312M1027.18 149.96L1035.16 150.759M1044.8 149.96C1045.14 147.524 1045.5 145.708 1045.5 145.708C1049.63 148.54 1050.7 147.907 1050.7 152.919C1050.7 155.92 1050.7 158.875 1050.7 162.512C1050.7 167.736 1050.49 168.911 1045.5 170.43C1045.5 170.43 1045.04 167.805 1044.67 164.589M1044.8 149.96C1044.5 152.11 1044.2 154.744 1044.17 157.039C1044.13 159.287 1044.38 162.113 1044.67 164.589M1044.8 149.96L1041.92 149.96M1041.92 149.96L1041.92 140.115C1036.94 140.115 1035.5 145.268 1035.16 150.759M1041.92 149.96L1041.92 164.589M1044.67 164.589L1041.92 164.589M1041.92 164.589L1041.92 172.807C1036.17 173.687 1035.18 168.938 1035.07 163.659M1035.16 150.759C1035.03 152.756 1035.05 154.798 1035.1 156.654C1035.15 158.784 1035.02 161.275 1035.07 163.659M1035.07 163.659L1027.18 165.312M1027.18 137.298C1020.74 130.933 1010.95 123.544 998.536 119.302C981.336 113.423 972.171 113.661 955.721 115.612C939.272 117.564 912.106 129.253 912.106 129.253M912.106 129.253C912.106 129.253 881.262 144.528 861.753 153.753C852.485 158.136 845.595 161.91 838.576 165.393M912.106 129.253C912.106 129.253 965.249 114.676 990.301 132.174C1000.83 139.53 1009.34 144.474 1012.27 156.654C1013.86 163.241 1014.03 167.846 1012.27 174.388C1010.51 180.911 1005.15 186.483 1001.66 189.542C999.657 191.305 997.583 192.976 995.709 194.88C988.927 201.775 971.786 219.93 964.867 234.02C956.86 250.326 953.431 261.74 952.481 279.88C951.511 298.393 953.305 309.567 960.437 326.678C964.868 337.309 968.399 342.961 975.472 352.051C983.517 362.391 999.654 375.302 999.654 375.302M1041.82 719.301C1041.82 719.301 1040.03 723.411 1034.06 730.428C1019.68 747.35 1003.49 752.164 976.442 748.459C964.895 746.877 962.897 745.77 937.49 737.766C926.176 734.202 884.235 715.332 884.235 715.332C884.235 715.332 802.21 683.011 753.35 694.845C719.858 702.957 709.829 715.858 680.878 736.615C647.331 760.668 627.608 775.556 588.66 796.598C538.232 823.841 499.375 840.499 437.146 843.86C411.925 845.222 404.203 845.284 372.338 841.232C340.473 837.179 309.63 827.506 270.516 812.168C229.072 795.915 200.574 776.097 170.894 752.353C153.401 738.36 135.677 722.52 119.611 702.504C67.9792 638.179 49.3984 602.312 29.3391 520.503C10.9859 445.653 4.49969 407.352 1.46507 330.622C-0.490683 281.17 3.27884 256.953 20.6692 204.687C33.8153 165.177 51.7217 132.997 79.8406 102.285C92.6075 88.3407 100.444 80.9778 115.275 69.3831C136.361 52.898 173.698 34.5731 173.698 34.5731C173.698 34.5731 208.158 21.7088 234.871 15.4775C265.958 8.2257 289.348 2.41098 321.265 2.94371C326.225 3.02649 330.565 3.11521 334.628 3.26578M1041.82 719.301C1041.82 719.301 1055.79 698.423 1057.98 686.378C1058.69 682.443 1058.48 679.197 1058.24 677.398C1058.11 676.386 1057.61 675.478 1056.91 674.737C1053.93 671.594 1045.31 662.632 1039.02 657.323C1023.97 644.63 1015.13 636.137 1005.24 619.488C998.404 607.998 995.064 601.119 992.003 588.107C988.153 571.747 987.502 561.127 992.003 544.841C993.776 538.423 997.958 530.008 1000.15 525.827M1041.82 719.301C1041.82 719.301 1042.04 709.603 1040.3 703.809C1038.09 696.464 1029.53 689.381 1026.59 687.121C1025.93 686.613 1025.27 686.133 1024.61 685.622C1020.48 682.42 1004.38 669.636 996.027 658.774C985.511 645.092 978.197 635.996 973.167 619.488C968.329 603.608 967.477 593.747 969.401 577.258C970.942 564.051 973.432 556.305 980.874 544.841C986.223 536.603 1000.15 525.827 1000.15 525.827M1001.53 523.236L992.608 523.397M1001.53 523.236C1001.53 523.236 1000.99 524.218 1000.15 525.827M999.654 375.302L988.312 375.208M988.312 375.208C988.312 375.208 972.623 363.6 964.867 353.992C957.131 344.409 953.52 338.175 949.104 326.678C942.494 309.47 941.656 298.27 942.937 279.88C944.229 261.333 947.545 250.718 955.721 234.02C962.506 220.162 977.222 203.709 984.322 196.183C986.949 193.399 989.899 190.963 992.758 188.417C996.6 184.997 1001.78 179.632 1003.4 174.388C1005.41 167.915 1005.58 163.455 1003.4 157.039C1000.4 148.17 988.312 139.242 988.312 139.242C988.312 139.242 976.76 131.106 964.181 129.253C949.667 127.114 932.427 128.332 918.268 132.174C904.593 135.885 898.311 141.701 885.528 147.813C860.691 159.688 848.078 169.592 821.951 178.269C806.244 183.485 797.152 185.769 780.836 188.548C769.328 190.507 762.806 191.532 751.141 191.974C727.197 192.881 709.265 191.974 687.538 182.385L657.87 164.564C657.87 164.564 619.734 137.257 594.294 120.784C555.855 95.8936 534.383 80.9468 493.333 60.2526C463.635 45.281 445.907 36.1044 414.224 25.9897C389.797 18.1917 376.443 14.0821 351.408 11.1425C339.694 9.76698 321.265 9.23903 321.265 9.23903C321.265 9.23903 298.528 8.15868 284.025 9.23903C256.398 11.297 241.265 16.4769 214.738 24.4669C197.358 29.7019 187.496 32.5941 170.958 40.0756C150.259 49.4394 138.758 55.5911 120.706 69.3831C96.0434 88.2244 82.0734 102.399 65.1238 128.397C65.1238 128.397 52.3185 147.044 45.2954 159.693C34.6231 178.915 29.7291 190.398 22.4026 211.127C15.0354 231.972 11.2924 243.996 7.83471 265.832C3.4026 293.821 4.47436 310.153 5.26512 338.481C6.28384 374.974 9.61879 395.319 14.97 431.432C19.7561 463.732 23.0646 481.821 31.0244 513.489C38.6612 543.872 42.2975 561.345 54.5119 590.194C62.2606 608.495 67.3605 618.494 77.3789 635.658C88.2818 654.338 95.3883 664.268 108.475 681.489C116.879 692.548 121.655 698.735 130.959 709.05C139.913 718.977 144.702 724.466 154.531 733.529C168.671 746.565 177.141 753.357 192.79 764.535C205.593 773.68 213.459 778.236 227.242 786.113C238.8 792.718 245.344 796.357 257.394 802.016C271.094 808.451 279.044 811.521 293.294 816.624C309.19 822.316 318.257 825.179 334.643 829.252C348.997 832.819 357.151 834.507 371.782 836.679C386.676 838.891 395.103 840.165 410.159 840.393C428.007 840.663 438.016 838.991 455.716 836.679C479.464 833.578 493.196 832.477 515.881 824.795C530.155 819.961 537.648 815.855 551.287 809.444C572.268 799.582 583.768 793.423 603.777 781.714C626.507 768.412 638.448 759.627 660.228 744.822C681.235 730.544 711.663 708.486 720.045 702.389C721.525 701.313 723.113 700.46 724.832 699.833C731.428 697.424 748.975 691.135 757.17 689.328C775.519 685.283 796.98 688.683 796.98 688.683C817.718 690.595 828.619 693.481 849.221 699.397C874.476 706.649 888.661 714.77 912.96 724.767C926.852 730.483 932.458 733.154 948.603 739.234C964.291 745.143 979.369 748.154 996.027 746.267C1008.44 744.861 1017.25 743.36 1025.59 734.061C1030.38 728.725 1033.76 724.941 1034.06 717.78C1034.31 712.071 1032.28 708.918 1029.72 703.809C1024.14 692.666 1015.14 690.922 1006.29 682.151C993.752 669.73 985.677 662.375 976.442 647.339C968.974 635.179 962.688 613.772 962.688 613.772C962.688 613.772 957.906 585.879 963.624 567.271C966.604 557.571 968.99 551.891 974.968 543.692C981.17 535.185 992.608 523.397 992.608 523.397M988.312 375.208L970.921 375.063M970.921 375.063C970.921 375.063 958.587 363.063 952.481 353.992C944.516 342.158 941.323 334.446 937.351 320.746C933.453 307.304 932.431 299.253 932.349 285.257C932.239 266.424 933.913 255.317 940.75 237.768C947.782 219.72 955.118 210.863 967.666 196.107C973.608 189.121 982.208 180.412 987.108 175.551C989.612 173.066 991.935 170.276 992.825 166.862C993.006 166.168 993.136 165.477 993.172 164.846C993.486 159.303 990.552 156.255 986.863 152.107C984.086 148.985 976.872 146.228 971.318 144.466C966.617 142.975 961.696 142.414 956.764 142.472C950.945 142.54 942.918 142.744 937.31 143.327C915.533 145.591 887.316 160.968 881.243 164.398C880.438 164.853 879.662 165.297 878.852 165.741C873.602 168.617 852.35 180.132 837.37 186.335C822.385 192.541 813.784 195.712 798.11 199.879C784.582 203.475 776.876 205.371 762.964 206.908C749.318 208.416 727.818 207.765 727.818 207.765C727.818 207.765 714.018 205.78 705.359 203.651C690.511 200 682.432 196.746 668.499 190.45C655.284 184.478 637.555 175.097 637.555 175.097C637.555 175.097 637.555 194.325 637.555 206.42C637.555 223.23 636.274 227.58 632.8 240.602C628.896 255.234 626.641 264.604 619.015 277.688C611.348 290.843 606.485 298.312 595.057 308.375C585.549 316.746 568.637 324.621 568.637 324.621L574.292 379.014M550.944 564.704L590.269 564.704C592.048 564.704 593.437 563.164 593.253 561.394L588.909 519.607M550.944 564.704L479.571 565.562C477.306 565.589 474.939 565.454 473.009 564.268V564.268V564.268C471.453 563.313 470.677 561.517 470.444 559.706L442.722 344.249C442.256 340.625 441.987 336.461 444.57 333.877V333.877C446.876 331.571 452.507 331.277 452.507 331.277L560.974 330.215C562.258 330.202 563.513 330.606 564.549 331.365V331.365C565.799 332.281 566.643 333.648 566.901 335.177L574.292 379.014M876.369 238.753L874.714 234.408M876.369 238.753C876.369 238.753 874.962 245.111 870.781 247.72M876.369 238.753L879.514 238.753C880.155 238.753 880.63 238.158 880.489 237.532L879.471 233.032C879.319 232.363 878.555 232.042 877.971 232.402L874.714 234.408M874.714 234.408C874.714 234.408 869.756 230.515 865.487 231.205M854.031 235.826C852.917 222.218 861.862 212.589 875.707 213.231C888.704 213.834 898.611 224.762 898.244 237.768C897.866 251.133 886.396 261.853 873.055 260.957C873.055 260.957 865.974 260.992 862.873 258.295C860.762 256.459 859.142 252.18 859.142 252.18M854.031 235.826C854.031 235.826 850.576 240.328 852.505 245.076C854.032 248.832 856.573 251.701 859.142 252.18M854.031 235.826C855.128 234.608 858.626 233.177 860.523 232.444M865.487 231.205C863.024 231.604 862.552 231.66 860.523 232.444M865.487 231.205C865.487 231.205 867.524 228.895 869.957 228.111V228.111C875.892 226.198 882.786 227.748 884.723 233.675C885.214 235.177 885.535 236.608 885.528 237.768C885.491 243.228 881.166 247.611 875.707 247.72L870.781 247.72M870.781 247.72C867.431 249.809 864.089 251.181 860.963 252.097C860.363 252.273 859.752 252.294 859.142 252.18M860.523 232.444C860.523 232.444 860.957 227.196 863.899 224.826C867.629 221.822 871.769 220.982 875.707 221.517C884.156 222.664 890.383 229.241 890.29 237.768C890.198 246.192 885.349 252.656 876.966 253.488C868.582 254.32 868.656 249.293 868.325 248.949M859.776 522.421L856.364 522.421L852.385 465.881M859.776 522.421L860.272 534.075C860.408 537.248 857.871 539.894 854.695 539.894V539.894L774.561 539.894C771.339 539.894 767.837 539.474 765.651 537.107V537.107C764.925 536.322 764.244 535.097 763.778 534.155C763.343 533.274 763.117 532.311 763.026 531.333L759.387 492.197M838.576 165.393C831.627 168.841 824.552 172.005 814.916 175.193C798.494 180.626 771.63 184.585 771.63 184.585C771.63 184.585 737.806 189.057 716.91 184.585C698.94 180.739 688.519 177.091 673.42 166.617C662.328 158.924 649.173 149.076 639.287 141.541C629.33 133.952 619.305 126.452 608.989 119.358C595.585 110.142 576.009 96.8988 560.917 87.5998C535.107 71.6975 520.553 62.7566 493.333 49.4115C468.054 37.0178 449.69 30.4813 423.011 21.4881C401.181 14.1295 388.924 10.5791 367.676 6.85097C354.327 4.50892 345.465 3.66737 334.628 3.26578M838.576 165.393C838.576 165.393 807.466 174.022 786.998 175.097C770.263 175.976 760.38 176.861 744.154 172.672C710.843 164.071 666.153 131.009 649.17 117.766C644.486 114.114 639.793 110.592 634.816 107.35C615.539 94.7946 562.393 61.0944 520.01 42.7854C471.878 21.993 441.568 4.26722 389.221 1.29166C367.037 0.0305956 334.628 3.26578 334.628 3.26578M420.32 763.371C418.989 763.812 417.55 764.119 416.011 764.282C405.634 765.38 396.826 757.678 394.939 747.614C394.232 743.84 395.115 740.054 397.042 736.808M420.32 763.371C427.067 761.134 431.054 755.451 431.421 747.614C431.951 736.276 421.385 726.132 410.159 727.8C407.787 728.153 405.517 729.024 403.482 730.28M420.32 763.371C420.32 763.371 422.687 763.072 425.432 762.03M431.042 758.621C436.21 753.478 436.483 747.321 434.566 740.286C432.557 732.915 428.532 728.355 421.292 725.913C413.575 723.311 403.482 730.28 403.482 730.28M431.042 758.621C431.042 758.621 440.747 753.511 443.372 747.614C447.342 738.693 444.29 730.055 437.146 723.397C431.389 718.031 425.62 715.897 417.898 717.422C409.802 719.021 401.975 731.312 401.975 731.312M431.042 758.621C429.437 760.218 427.343 761.304 425.432 762.03M403.482 730.28C402.963 730.6 402.46 730.945 401.975 731.312M401.975 731.312C399.989 732.815 398.295 734.697 397.042 736.808M425.432 762.03C425.432 762.03 436.818 763.536 443.372 761.059C447.809 759.383 451.65 754.253 454.393 749.511C457.71 743.777 457.656 736.86 455.51 730.592L453.947 726.026C451.682 719.41 446.73 714.056 440.311 711.282L439.363 710.872C431.51 707.478 422.731 706.878 414.489 709.171L414.091 709.282C408.374 710.873 403.512 714.649 400.556 719.795V719.795C398.254 723.804 397.042 728.346 397.042 732.969L397.042 736.808M362.824 658.433C361.493 658.874 360.054 659.181 358.515 659.344C348.138 660.443 338.358 652.74 336.471 642.676C335.764 638.902 336.647 635.116 338.574 631.87M362.824 658.433C369.571 656.196 373.064 651.98 373.431 644.143C373.962 632.805 362.917 621.084 351.69 622.752C349.319 623.104 347.049 623.976 345.014 625.232M362.824 658.433C362.824 658.433 365.191 658.134 367.936 657.092M372.573 653.572C377.742 648.43 378.383 643.35 376.466 636.316C374.457 628.944 368.851 625.193 361.611 622.752C353.894 620.149 345.014 625.232 345.014 625.232M372.573 653.572C372.573 653.572 381.828 650.838 384.453 644.941C388.423 636.021 384.567 626.201 377.424 619.544C371.666 614.177 365.339 612.109 357.617 613.634C349.522 615.232 343.506 626.264 343.506 626.264M372.573 653.572C370.968 655.169 369.847 656.367 367.936 657.092M345.014 625.232C344.495 625.551 343.992 625.896 343.506 626.264M343.506 626.264C341.521 627.766 339.827 629.76 338.574 631.87M367.936 657.092C367.936 657.092 376.781 660.909 383.335 658.433C387.772 656.756 394.299 653.308 397.042 648.566C400.359 642.832 399.188 631.922 397.042 625.655L395.479 621.089C393.213 614.472 388.262 609.118 381.842 606.344L380.895 605.935C373.042 602.541 364.263 601.94 356.021 604.234L355.623 604.345C349.905 605.935 345.044 609.712 342.088 614.858C339.786 618.866 338.574 623.408 338.574 628.031L338.574 631.87M217.689 657.092C206.372 658.651 195.922 650.962 195.328 639.554C194.896 631.258 198.842 624.393 206.101 621.238M217.689 657.092C218.209 657.021 218.722 656.934 219.229 656.832M217.689 657.092L219.229 656.832M219.229 656.832C228.111 655.053 234.726 648.743 235.424 639.554C236.325 627.666 224.203 618.105 212.368 619.544C210.157 619.812 208.048 620.392 206.101 621.238M219.229 656.832C219.229 656.832 220.674 657.17 222.659 657.39M206.101 621.238C206.101 621.238 210.693 615.425 214.851 613.634C222.34 610.407 228.682 612.619 235.424 617.208C242.541 622.052 245.838 628.889 245.733 637.498C245.609 647.564 239.632 654.367 229.941 657.092C227.663 657.733 224.836 657.632 222.659 657.39M206.101 621.238C208.238 613.358 208.308 607.861 214.851 604.184C222.774 599.731 235.601 601.76 243.57 606.131C253.657 611.663 258.294 620.705 260.443 631.874C262.658 643.386 259.514 649.27 251.357 655.453C246.963 658.785 244.005 658.854 239.027 659.78C232.224 661.046 222.659 657.39 222.659 657.39M278.875 763.794C267.559 765.353 257.109 757.664 256.515 746.256C256.083 737.96 260.028 731.096 267.288 727.94M278.875 763.794C279.396 763.723 279.909 763.636 280.415 763.535M278.875 763.794L280.415 763.535M280.415 763.535C282.266 763.164 284.018 762.597 285.639 761.847M288.531 761.847C298.222 759.123 304.199 752.32 304.322 742.253C304.428 733.645 301.131 726.807 294.013 721.963C287.272 717.375 280.93 715.162 273.441 718.389C269.283 720.18 267.288 727.94 267.288 727.94M288.531 761.847C288.531 761.847 296.104 761.847 303.368 761.847C310.633 761.847 322.308 749.754 320.093 738.242C317.944 727.074 314.843 718.366 304.756 712.833C296.788 708.462 283.96 706.433 276.038 710.886C269.495 714.564 269.425 720.06 267.288 727.94M288.531 761.847L285.639 761.847M267.288 727.94C269.234 727.094 271.344 726.515 273.555 726.246C285.39 724.807 297.512 734.368 296.61 746.256C296.058 753.53 291.798 759.001 285.639 761.847M574.292 379.014L575.542 391.037M373.106 347.673C373.106 347.673 373.488 344.664 374.967 342.372C377.953 337.744 382.95 335.68 388.275 335.564M373.106 347.673C373.106 347.673 376.042 347.059 379.784 346.274M373.106 347.673V347.673C366.834 351.295 363.544 358.492 364.91 365.604L368.046 381.938L397.133 536.732C397.814 540.356 398.858 543.902 400.248 547.316L404.474 557.694M388.275 335.564C394.601 335.428 401.392 338.041 405.828 342.372C410.682 347.112 410.203 357.469 409.652 362.4C409.548 363.327 410.669 363.965 411.39 363.373L416.869 358.874C417.246 358.564 417.497 358.129 417.558 357.644C417.872 355.138 418.643 346.944 416.01 342.372C413.425 337.885 410.757 335.462 405.828 333.877C401.802 332.583 399.18 333.245 394.999 333.877C392.322 334.282 388.275 335.564 388.275 335.564ZM437.794 520.756C437.794 520.756 449.92 529.409 450.44 536.975C451.095 546.5 448.209 553.344 439.71 557.694C432.155 561.56 422.818 562.694 414.564 560.715C411.273 559.926 404.474 557.694 404.474 557.694M437.794 520.756C437.794 520.756 428.362 467.593 419.06 416.821M437.794 520.756L588.909 519.607M437.794 520.756L343.506 519.646M379.784 346.274C382.48 345.708 385.615 344.826 388.275 345.097C394.591 345.74 397.908 346.105 403.033 351.917C409.633 359.403 410.168 368.915 412.083 379.124C414.292 390.905 416.672 403.784 419.06 416.821M379.784 346.274C383.886 347.235 386.22 347.76 389.715 350.111V350.111C397.172 355.127 399.815 364.614 401.449 373.451L404.7 391.037M404.474 557.694C404.474 557.694 418.308 560.543 424.951 557.694C426.483 557.037 428.171 555.891 429.634 554.764C432.118 552.849 433.187 549.694 432.802 546.582L431.474 535.835L404.7 391.037M386.735 380.851L396.013 380.851C396.528 380.851 396.96 381.242 397.008 381.756L398.053 392.696C398.109 393.283 397.647 393.791 397.057 393.791L388.333 393.791M386.735 380.851L388.333 393.791M386.735 380.851L386.036 377.046C385.938 376.514 385.435 376.156 384.9 376.238L382.314 376.638M388.333 393.791L389.48 399.613C389.602 400.231 389.129 400.807 388.499 400.807L386.356 400.807M379.618 381.938L378.947 378.194C378.848 377.641 379.224 377.115 379.779 377.029L382.314 376.638M379.618 381.938L371.414 381.938C370.821 381.938 370.358 382.451 370.419 383.041L371.684 395.297C371.737 395.807 372.166 396.194 372.679 396.194L382.171 396.194M379.618 381.938L382.171 396.194M382.171 396.194L382.85 399.983C382.935 400.46 383.35 400.807 383.834 400.807L386.356 400.807M391.127 408.563L400.421 408.563C400.906 408.563 401.32 408.91 401.406 409.387L403.328 420.164C403.437 420.777 402.966 421.34 402.344 421.34L393.5 421.34M391.127 408.563L393.5 421.34M391.127 408.563L390.667 405.462C390.594 404.972 390.173 404.609 389.677 404.609L386.769 404.609M393.5 421.34L394.055 426.691C394.116 427.281 393.653 427.794 393.06 427.794L390.452 427.794M382.314 376.638L386.356 400.807M386.769 404.609L384.171 404.609C383.556 404.609 383.086 405.161 383.184 405.769L383.635 408.563M386.769 404.609L390.452 427.794M390.452 427.794L387.587 427.794C387.096 427.794 386.678 427.438 386.6 426.953L385.861 422.37M383.635 408.563L376.831 408.563C376.212 408.563 375.741 409.119 375.845 409.73L377.868 421.683C377.951 422.172 378.38 422.526 378.875 422.516L385.861 422.37M383.635 408.563L385.861 422.37M394.999 434.79L407.193 434.79C407.714 434.79 408.147 435.19 408.189 435.71L409.103 447.041C409.15 447.623 408.69 448.121 408.107 448.121L396.934 448.121M394.999 434.79L396.934 448.121M394.999 434.79L394.404 432.475C394.272 431.962 393.763 431.64 393.243 431.743L390.875 432.208M396.934 448.121L397.439 451.825C397.516 452.386 397.111 452.899 396.548 452.955L394.353 453.174M390.875 432.208L388.539 432.667C388.006 432.771 387.654 433.282 387.746 433.817L388.143 436.129M390.875 432.208L394.353 453.174M394.353 453.174L392.055 453.404C391.532 453.456 391.059 453.096 390.97 452.578L390.287 448.604M388.143 436.129L383.923 436.651C383.402 436.716 383.019 437.173 383.047 437.698L383.584 447.658C383.612 448.189 384.051 448.604 384.582 448.604L390.287 448.604M388.143 436.129L390.287 448.604M399.776 461.349L411.747 461.349C412.278 461.349 412.717 461.764 412.746 462.295L413.36 473.66C413.391 474.233 412.935 474.714 412.361 474.714L402.225 474.714M399.776 461.349L402.225 474.714M399.776 461.349L399.131 458.961C399.005 458.492 398.56 458.182 398.076 458.226L395.421 458.464M402.225 474.714L402.907 479.944C402.976 480.474 402.616 480.965 402.089 481.058L399.983 481.429M395.421 458.464L393.056 458.676C392.457 458.73 392.041 459.296 392.168 459.883L392.484 461.349M395.421 458.464L399.983 481.429M399.983 481.429L397.882 481.799C397.353 481.892 396.844 481.551 396.731 481.025L395.813 476.773M392.484 461.349L387.019 461.349C386.409 461.349 385.941 461.891 386.03 462.495L388.017 475.92C388.09 476.41 388.51 476.773 389.006 476.773L395.813 476.773M392.484 461.349L395.813 476.773M405.354 487.039L416.135 487.039C416.61 487.039 417.02 487.374 417.115 487.839L419.496 499.492C419.623 500.112 419.149 500.692 418.516 500.692L407.263 500.692M405.354 487.039L407.263 500.692M405.354 487.039L404.756 485.245C404.595 484.762 404.097 484.477 403.599 484.583L401.026 485.131M407.263 500.692L408.873 506.579C409.038 507.182 408.616 507.787 407.993 507.839L405.707 508.032M401.026 485.131L398.552 485.658C398.014 485.772 397.669 486.3 397.781 486.838L397.822 487.039M401.026 485.131L405.707 508.032M405.707 508.032L403.109 508.251C402.604 508.294 402.148 507.953 402.045 507.457L397.822 487.039M397.822 487.039L393.318 488.154C392.839 488.273 392.517 488.724 392.563 489.216L393.115 495.234M401.026 502.16L395.191 502.16C394.706 502.16 394.291 501.813 394.206 501.336L393.115 495.234M410.789 513.493L422.936 513.493C423.457 513.493 423.891 513.893 423.933 514.413L424.865 526.056C424.912 526.638 424.452 527.136 423.868 527.136L412.695 527.136M410.789 513.493L412.695 527.136M410.789 513.493L410.079 511.008C409.957 510.579 409.564 510.283 409.118 510.283L404.843 510.283C404.231 510.283 403.763 510.827 403.854 511.431L404.164 513.493M412.695 527.136L413.302 532.347C413.366 532.89 412.981 533.383 412.438 533.454L408.235 534.002C407.695 534.073 407.198 533.698 407.117 533.159L406.419 528.511M404.164 513.493L396.965 513.987C396.357 514.029 395.928 514.599 396.055 515.194L398.743 527.721C398.842 528.182 399.249 528.511 399.721 528.511L406.419 528.511M404.164 513.493L406.419 528.511M293.844 365.551C285.028 365.958 278.087 358.905 277.341 350.111C276.777 343.481 280.29 337.061 285.689 333.877M293.844 365.551L285.689 333.877M293.844 365.551C294.778 365.508 295.681 365.387 296.55 365.196M307.233 356.431C308.129 354.509 308.7 352.373 308.891 350.111C309.32 345.027 307.509 340.114 304.248 336.659M307.233 356.431L314.805 354.277L320.035 352.745M307.233 356.431C306.819 357.319 306.335 358.161 305.788 358.948M322.861 351.917L327.411 350.84C329.216 350.413 330.49 348.802 330.49 346.948L330.49 342.037C330.49 340.066 329.054 338.388 327.106 338.085L321.152 337.156M322.861 351.917L320.035 352.745M322.861 351.917C322.861 351.917 324.184 367.439 325.985 387.159M321.152 337.156L317.012 337.156L304.248 336.659M321.152 337.156C321.152 337.156 320.375 334.002 318.936 332.69C317.441 331.326 314.072 330.898 314.072 330.898M304.248 336.659C301.597 333.851 297.988 332.006 293.844 331.817C291.859 331.726 289.955 332.044 288.191 332.69M314.072 337.042C314.072 337.042 314.311 332.342 314.072 330.898M314.072 330.898C313.713 328.721 311.437 327.594 308.891 325.942V325.942C304.11 322.84 298.176 322.51 292.544 323.379L287.081 324.223C285.437 324.477 283.937 325.308 282.85 326.568L277.097 333.234C275.218 335.411 274.367 338.292 274.762 341.141L279.063 372.171M279.063 372.171L281.36 376.09M279.063 372.171L318.936 372.171M281.36 376.09C281.36 376.09 285.483 430.721 290.876 465.366C295.084 492.397 304.248 534.129 304.248 534.129M281.36 376.09L318.936 376.09M304.248 534.129L302.525 536.669M304.248 534.129L340.751 534.129M302.525 536.669L305.334 564.49C305.703 568.142 307.383 571.537 310.064 574.045V574.045C312.519 576.341 315.671 577.729 319.004 578.164C322.12 578.571 324.548 578.977 328.899 579.385C334.864 579.944 343.907 577.28 348.55 571.487M302.525 536.669L341.833 536.669M318.936 358.948L305.788 358.948M318.936 358.948L318.936 372.171M318.936 358.948L320.035 352.745M305.788 358.948C303.612 362.076 300.422 364.342 296.55 365.196M318.936 372.171L318.936 376.09M318.936 376.09C318.936 376.09 323.551 430.665 328.614 465.366C332.389 491.238 340.751 534.129 340.751 534.129M340.751 534.129L341.833 536.669M341.833 536.669L346.875 537.888M341.833 536.669C342.532 537.337 345.55 536.846 346.875 537.888M341.833 536.669L341.833 541.617C341.833 543.179 340.635 544.479 339.079 544.607L323.247 545.912M332.765 569.316C334.893 566.121 335.737 563.14 335.002 558.88C333.914 552.57 329.054 547.142 323.247 545.912M332.765 569.316L310.082 550.495M332.765 569.316C332.24 570.103 331.627 570.831 330.926 571.487M332.765 569.316L340.005 566.024C341.111 565.521 342.411 565.735 343.298 566.566L348.55 571.487M310.082 550.495C311.655 547.939 314.215 547.125 317.348 546.169C319.349 545.557 321.349 545.511 323.247 545.912M310.082 550.495C309.621 551.244 309.231 552.041 308.912 552.873M330.926 571.487C329.784 572.555 328.407 573.432 326.792 574.061C319.068 577.07 310.775 571.225 308.527 563.246C307.536 559.727 307.7 556.043 308.912 552.873M330.926 571.487L308.912 552.873M346.875 537.888C350.159 540.473 352.802 546.473 353.713 548.692C354.623 550.911 353.747 563.44 349.502 570.155C349.211 570.616 348.892 571.06 348.55 571.487M346.875 537.888C346.875 537.888 345.484 530.599 343.506 519.646M331.336 441.818L401.026 443.177L525.388 443.177L821.951 443.177L1071.47 439.134L1372.68 439.134M331.336 441.818C330.458 433.749 329.526 424.525 328.614 415.132M331.336 441.818C332.193 449.699 333.486 459.079 334.967 468.842M285.689 333.877C286.484 333.408 287.321 333.009 288.191 332.69M296.55 365.196L288.191 332.69M2530.18 377.302C2524.13 372.708 2517.5 373.664 2512.19 378.353C2507.74 382.282 2506.42 386.631 2506.88 392.128C2507.52 399.64 2512.56 404.956 2520.07 404.304C2524.89 403.886 2530.18 399.068 2530.18 399.068M2530.18 377.302L2532.75 384.167M2530.18 399.068C2528.39 397.369 2527.38 394.824 2527.47 392.128C2527.59 388.506 2529.59 385.338 2532.75 384.167M2530.18 399.068C2530.18 399.068 2524.16 396.46 2524.13 392.128C2524.08 387.117 2532.75 384.167 2532.75 384.167M2530.18 399.068L2524.78 399.068M2532.75 384.167L2526.07 384.167M2526.07 384.167L2523.65 384.167C2520.92 384.167 2518.22 385.229 2516.8 387.557C2515.94 388.978 2515.21 390.643 2515.3 392.128C2515.37 393.384 2516.04 394.745 2516.81 395.927C2518.24 398.105 2520.84 399.068 2523.45 399.068L2524.78 399.068M2526.07 384.167C2526.07 384.167 2520.53 388.433 2520.6 392.128C2520.66 395.224 2524.78 399.068 2524.78 399.068M2524.78 399.068L2412.67 410.257L2247.99 427.062M2526.59 459.513C2531.28 459.155 2535.04 463.229 2535.21 467.931C2535.37 472.799 2531.45 477.318 2526.59 476.95C2524.73 476.809 2523.14 476.04 2521.9 474.87M2526.59 459.513C2526.59 459.513 2526.52 454.691 2523.91 452.711C2517.85 448.117 2509.6 447.27 2504.29 451.959C2499.84 455.888 2498.88 462.433 2499.35 467.931C2499.98 475.442 2507.21 477.602 2514.73 476.95C2519.55 476.531 2521.9 474.87 2521.9 474.87M2526.59 459.513C2525.84 459.57 2525.13 459.727 2524.47 459.97M2526.59 459.513L2524.36 458.302C2522.75 457.422 2520.94 456.961 2519.1 456.961L2351.48 456.961L2156.05 456.156M2521.9 474.87C2520.12 473.171 2519.1 470.626 2519.19 467.931C2519.31 464.308 2521.31 461.14 2524.47 459.97M2521.9 474.87C2521.9 474.87 2515.88 472.262 2515.85 467.931C2515.8 462.919 2524.47 459.97 2524.47 459.97M2521.9 474.87L2516.5 474.87M2524.47 459.97L2517.79 459.97M2517.79 459.97C2517.79 459.97 2512.25 464.235 2512.32 467.931C2512.38 471.026 2516.5 474.87 2516.5 474.87M2517.79 459.97C2513.52 459.97 2508.94 461.52 2507.45 465.524C2507.15 466.335 2506.97 467.157 2507.02 467.931C2507.07 468.794 2507.4 469.709 2507.86 470.58C2509.46 473.649 2513.04 474.87 2516.5 474.87M2445.7 381.343C2450.39 380.985 2454.16 385.059 2454.32 389.761C2454.49 394.63 2450.56 399.148 2445.7 398.78C2443.85 398.64 2442.25 397.871 2441.02 396.7M2445.7 381.343C2445.7 381.343 2443.63 376.914 2441.02 374.935C2434.96 370.341 2428.34 371.296 2423.03 375.986C2418.58 379.915 2417.25 384.264 2417.72 389.761C2418.36 397.272 2423.4 402.589 2430.91 401.937C2435.73 401.519 2441.02 396.7 2441.02 396.7M2445.7 381.343C2444.95 381.4 2444.25 381.557 2443.59 381.8M2445.7 381.343L2458.08 381.343M2441.02 396.7C2439.23 395.001 2438.21 392.457 2438.3 389.761C2438.43 386.138 2440.43 382.971 2443.59 381.8M2441.02 396.7C2441.02 396.7 2435 394.092 2434.96 389.761C2434.92 384.749 2443.59 381.8 2443.59 381.8M2441.02 396.7L2435.62 396.7M2443.59 381.8L2436.91 381.8M2436.91 381.8C2436.91 381.8 2431.36 386.066 2431.43 389.761C2431.49 392.856 2435.62 396.7 2435.62 396.7M2436.91 381.8C2432.63 381.8 2428.05 383.35 2426.57 387.354C2426.27 388.165 2426.09 388.987 2426.14 389.761C2426.19 390.625 2426.52 391.539 2426.97 392.41C2428.57 395.479 2432.16 396.7 2435.62 396.7M2435.62 396.7L2338.71 403.836L2160.01 416.821M2357.82 380.721C2362.51 380.363 2366.28 384.437 2366.44 389.139C2366.61 394.008 2362.68 398.527 2357.82 398.158C2355.97 398.018 2354.37 397.249 2353.14 396.078M2357.82 380.721C2357.82 380.721 2355.75 376.293 2353.14 374.313C2347.08 369.719 2340.46 370.675 2335.15 375.364C2330.7 379.293 2329.37 383.642 2329.84 389.139C2330.48 396.65 2335.52 401.967 2343.03 401.315C2347.85 400.897 2353.14 396.078 2353.14 396.078M2357.82 380.721C2357.07 380.778 2356.37 380.935 2355.71 381.178M2353.14 396.078C2351.35 394.38 2350.33 391.835 2350.42 389.139C2350.55 385.517 2352.55 382.349 2355.71 381.178M2353.14 396.078C2353.14 396.078 2347.12 393.471 2347.08 389.139C2347.04 384.128 2355.71 381.178 2355.71 381.178M2353.14 396.078L2347.74 396.078M2355.71 381.178L2349.03 381.178M2349.03 381.178C2349.03 381.178 2343.48 385.444 2343.55 389.139C2343.61 392.234 2347.74 396.078 2347.74 396.078M2349.03 381.178C2344.75 381.178 2340.17 382.728 2338.69 386.732C2338.39 387.543 2338.21 388.365 2338.26 389.139C2338.31 390.003 2338.64 390.917 2339.09 391.788C2340.69 394.857 2344.28 396.078 2347.74 396.078M2347.74 396.078L2254.83 396.078L2162.09 396.078M2438.02 469.757C2442.71 469.399 2446.48 473.473 2446.64 478.175C2446.81 483.043 2442.88 487.562 2438.02 487.194C2436.17 487.053 2434.57 486.284 2433.34 485.114M2438.02 469.757C2438.02 469.757 2437.95 464.935 2435.34 462.956C2429.28 458.362 2421.03 457.514 2415.72 462.203C2411.27 466.132 2410.31 472.677 2410.78 478.175C2411.42 485.686 2418.65 487.846 2426.16 487.194C2430.98 486.775 2433.34 485.114 2433.34 485.114M2438.02 469.757C2437.27 469.814 2436.56 469.971 2435.91 470.214M2438.02 469.757L2403.43 467.16L2153.11 474.008L2042.34 475.289M2433.34 485.114C2431.55 483.415 2430.53 480.87 2430.62 478.175C2430.74 474.552 2432.74 471.384 2435.91 470.214M2433.34 485.114C2433.34 485.114 2427.31 482.506 2427.28 478.175C2427.24 473.163 2435.91 470.214 2435.91 470.214M2433.34 485.114L2427.94 485.114M2435.91 470.214L2429.22 470.214M2429.22 470.214C2429.22 470.214 2423.68 474.479 2423.75 478.175C2423.81 481.27 2427.94 485.114 2427.94 485.114M2429.22 470.214C2424.95 470.214 2420.37 471.764 2418.88 475.768C2418.58 476.579 2418.41 477.401 2418.45 478.175C2418.5 479.039 2418.83 479.953 2419.29 480.824C2420.89 483.893 2424.47 485.114 2427.94 485.114M2346.11 478.454C2350.8 478.096 2354.56 482.17 2354.72 486.872C2354.89 491.741 2350.96 496.259 2346.11 495.891C2344.25 495.751 2342.65 494.982 2341.42 493.811M2346.11 478.454C2346.11 478.454 2346.04 473.632 2343.43 471.653C2337.37 467.059 2329.71 468.386 2324.4 473.075C2319.95 477.004 2319.44 481.375 2319.91 486.872C2320.55 494.383 2326.73 496.543 2334.24 495.891C2339.06 495.473 2341.42 493.811 2341.42 493.811M2346.11 478.454C2345.36 478.511 2344.65 478.668 2343.99 478.911M2346.11 478.454L2329.95 477.377L2152.39 492.631M2341.42 493.811C2339.63 492.112 2338.62 489.568 2338.71 486.872C2338.83 483.249 2340.83 480.082 2343.99 478.911M2341.42 493.811C2341.42 493.811 2335.4 491.203 2335.36 486.872C2335.32 481.86 2343.99 478.911 2343.99 478.911M2341.42 493.811L2336.02 493.811M2343.99 478.911L2337.31 478.911M2337.31 478.911C2337.31 478.911 2331.77 483.176 2331.84 486.872C2331.9 489.967 2336.02 493.811 2336.02 493.811M2337.31 478.911C2333.04 478.911 2328.46 480.461 2326.97 484.465C2326.67 485.276 2326.49 486.098 2326.54 486.872C2326.59 487.736 2326.92 488.65 2327.37 489.521C2328.98 492.59 2332.56 493.811 2336.02 493.811M2247.99 427.062L2158.05 436.311M2158.05 436.311L2148.98 436.311M2158.05 436.311L2160.01 416.821M2158.05 436.311L2156.05 456.156M2148.98 436.311L1916.21 436.311L1781.44 436.311M1781.44 436.311L1372.68 439.134M2160.01 416.821L1938.82 416.821L1584.29 416.821L1258.39 416.821M1258.39 416.821L939.878 416.821M939.878 416.821L700.093 416.821L419.06 416.821M419.06 416.821L328.614 415.132M328.614 415.132C327.693 405.643 326.791 395.981 325.985 387.159M2162.09 396.078L2027.41 396.078L1800.5 396.078L1594.83 396.078L1309.96 394.349M1309.96 394.349L1047.25 392.555L842.95 392.555M842.95 392.555L841.113 369.483C841.035 368.499 840.659 367.563 840.035 366.798V366.798C839.112 365.665 837.728 365.007 836.266 365.007L757.912 365.007C756.588 365.007 755.297 365.421 754.219 366.191V366.191C752.387 367.499 751.385 369.678 751.582 371.92L765.514 529.759C765.602 530.752 766.057 531.676 766.79 532.351L768.511 533.934C769.249 534.614 770.216 534.991 771.22 534.991L848.862 534.991C849.868 534.991 850.837 534.612 851.576 533.929L852.602 532.981C853.503 532.149 853.972 530.949 853.875 529.726L852.657 514.436M842.95 392.555L575.542 391.037M842.95 392.555L852.657 514.436M575.542 391.037L404.7 391.037M575.542 391.037L583.631 468.843M404.7 391.037L325.985 387.159M2156.05 456.156L1947.75 458.683M1947.75 458.683L1774.76 458.683M1774.76 458.683L1486.9 461.394M1486.9 461.394L1166.29 463.51M1166.29 463.51L1008.77 465.881M1008.77 465.881L852.385 465.881M852.385 465.881L757.092 467.52M757.092 467.52L583.631 468.843M757.092 467.52L759.387 492.197M583.631 468.843L334.967 468.842M583.631 468.843L588.909 519.607M334.967 468.842C336.214 477.063 337.595 485.555 338.961 493.651M2042.34 475.289L1840.73 478.969L1659.03 480.834L1480.44 482.906L1263.52 485.806L1159.93 487.464L906.131 489.95L759.387 492.197M759.387 492.197L565.436 495.234M565.436 495.234L551.935 371.911C551.683 369.61 550.447 367.531 548.546 366.211L546.525 364.807C545.139 363.845 543.484 363.345 541.797 363.38L460.684 365.047C458.59 365.09 456.57 365.834 454.948 367.161V367.161C452.433 369.219 451.165 372.434 451.599 375.656L472.786 532.974C472.933 534.065 473.314 535.111 473.902 536.04V536.04C475.302 538.252 477.737 539.592 480.355 539.592L564.081 539.592C565.096 539.592 566.093 539.318 566.965 538.799V538.799C568.91 537.644 569.977 535.439 569.677 533.197L569.205 529.667L565.436 495.234ZM565.436 495.234L393.115 495.234M393.115 495.234L338.961 493.651M338.961 493.651C340.578 503.239 342.175 512.273 343.506 519.646M2152.39 492.631L1626.85 501.634M1626.85 501.634L1430.41 503.724M1430.41 503.724L1090.3 511.569M1090.3 511.569L852.657 514.436M852.657 514.436L588.909 519.607M581.97 555.073L558.737 343.369C558.542 341.591 557.785 339.921 556.576 338.602V338.602C554.983 336.865 552.734 335.876 550.378 335.876L451.571 335.876C448.404 335.876 445.645 338.035 444.883 341.108V341.108C444.676 341.943 444.627 342.81 444.739 343.663L472.418 554.649C472.79 557.483 474.484 559.973 476.984 561.358V561.358C478.343 562.112 479.874 562.501 481.428 562.488L576.051 561.693C579.543 561.664 582.273 558.67 581.98 555.191L581.97 555.073ZM443.667 538.245C443.667 538.245 446.298 546.477 443.667 551.524C441.07 556.505 428.638 557.694 428.638 557.694C428.638 557.694 437.427 552.88 439.71 548.68C442.226 544.052 443.667 538.245 443.667 538.245Z" stroke="white"/>
</svg>
